<svg xmlns="http://www.w3.org/2000/svg" xmlns:xlink="http://www.w3.org/1999/xlink" viewBox="0 0 418.22 369.33"><defs><style>.cls-1{fill:none;}.cls-2{isolation:isolate;}.cls-3{fill:#ffdf00;}.cls-4{fill:url(#radial-gradient);}.cls-5{mix-blend-mode:overlay;fill:url(#radial-gradient-2);}.cls-6,.cls-60{fill:#ff770b;}.cls-26,.cls-34,.cls-47,.cls-49,.cls-6{opacity:0.3;}.cls-26,.cls-31,.cls-34,.cls-49,.cls-58,.cls-6{mix-blend-mode:multiply;}.cls-7{font-size:145.6px;letter-spacing:0.1em;}.cls-16,.cls-47,.cls-7,.cls-9{fill:#fff;}.cls-7,.cls-9{font-family:Aller-Bold, Aller Bold;font-weight:700;}.cls-8{fill:#ffdcc0;}.cls-9{font-size:145.6px;letter-spacing:0.1em;}.cls-10{fill:#1b63ca;}.cls-11{fill:#ff4146;}.cls-12{fill:#e83a3b;}.cls-13{fill:#dd0a2b;}.cls-14{fill:#b3001d;}.cls-15{opacity:0.1;}.cls-17,.cls-19{fill:#53e2f8;}.cls-18{fill:#1b90d8;}.cls-19,.cls-31{opacity:0.4;}.cls-20{fill:#1b319c;}.cls-21{clip-path:url(#clip-path);}.cls-22{fill:#ffff7f;}.cls-23{fill:#ff4308;}.cls-24{fill:#d72808;}.cls-25{fill:#ff7c08;}.cls-26,.cls-32,.cls-33{fill:#cd2308;}.cls-27{fill:#ea2c08;}.cls-28{fill:#ff2308;}.cls-29{fill:#e6ebe4;}.cls-30{fill:#cdd6e2;}.cls-33{opacity:0.5;}.cls-35{fill:#ff9000;}.cls-36{fill:#e10008;}.cls-37{fill:#a80008;}.cls-38{fill:#ffa300;}.cls-39{fill:#5a9eff;}.cls-40{fill:#1ba8d8;}.cls-41{fill:#1ba5dc;}.cls-42{fill:#00234a;}.cls-43{fill:#00132f;}.cls-44{fill:#ff0;}.cls-45{fill:#ff9100;}.cls-46{opacity:0.2;}.cls-48{fill:#0b2ea4;}.cls-49{fill:#0b2a86;}.cls-50{fill:#0b46af;}.cls-51{fill:#ff6c46;}.cls-52{fill:#dc1b26;}.cls-53{fill:#ffff87;}.cls-54{fill:#24d971;}.cls-55{fill:#71f771;}.cls-56{fill:#067f6c;}.cls-57{fill:#0b6ed4;}.cls-59{fill:#dbe6ff;}</style><radialGradient id="radial-gradient" cx="205.05" cy="120.72" r="144.41" gradientUnits="userSpaceOnUse"><stop offset="0" stop-color="#ffde1d"/><stop offset="1" stop-color="#ffab1d" stop-opacity="0"/></radialGradient><radialGradient id="radial-gradient-2" cx="207.36" cy="123.9" r="87.5" gradientUnits="userSpaceOnUse"><stop offset="0" stop-color="#ffffb9"/><stop offset="1" stop-color="#ffab1d" stop-opacity="0"/></radialGradient><clipPath id="clip-path"><path class="cls-1" d="M243.78,211.79c0,6.43-17.75,11.65-39.64,11.65s-39.64-5.22-39.64-11.65c-11.6,2.84-20.07,1.38-24.25-6.67-45-86.47,8.6-156.76,49.5-162.93C258.79,31.77,321,88.15,243.78,211.79Z"/></clipPath></defs><g class="cls-2"><g id="BACKGROUND_1" data-name="BACKGROUND 1"><polygon class="cls-3" points="351.54 133.38 351.94 134.11 352.66 134.51 351.94 134.91 351.54 135.64 351.14 134.91 350.41 134.51 351.14 134.11 351.54 133.38"/><polygon class="cls-3" points="376.44 105.53 376.84 106.25 377.57 106.65 376.84 107.05 376.44 107.78 376.04 107.05 375.31 106.65 376.04 106.25 376.44 105.53"/><polygon class="cls-3" points="326.72 106.07 327.12 106.79 327.85 107.19 327.12 107.59 326.72 108.32 326.32 107.59 325.6 107.19 326.32 106.79 326.72 106.07"/><polygon class="cls-3" points="343.72 159.67 344.12 160.39 344.84 160.79 344.12 161.19 343.72 161.92 343.32 161.19 342.59 160.79 343.32 160.39 343.72 159.67"/><polygon class="cls-3" points="400.3 182.08 400.69 182.81 401.42 183.21 400.69 183.6 400.3 184.33 399.9 183.6 399.17 183.21 399.9 182.81 400.3 182.08"/><polygon class="cls-3" points="312.6 132.41 313 133.13 313.73 133.53 313 133.93 312.6 134.66 312.21 133.93 311.48 133.53 312.21 133.13 312.6 132.41"/><polygon class="cls-3" points="301.48 106.07 301.88 106.79 302.6 107.19 301.88 107.59 301.48 108.32 301.08 107.59 300.35 107.19 301.08 106.79 301.48 106.07"/><polygon class="cls-3" points="317.6 83.25 318 83.98 318.72 84.38 318 84.78 317.6 85.5 317.2 84.78 316.47 84.38 317.2 83.98 317.6 83.25"/><polygon class="cls-3" points="350.41 97.34 350.81 98.07 351.54 98.47 350.81 98.87 350.41 99.59 350.01 98.87 349.29 98.47 350.01 98.07 350.41 97.34"/><polygon class="cls-3" points="399.17 60.18 399.57 60.91 400.3 61.3 399.57 61.7 399.17 62.43 398.77 61.7 398.05 61.3 398.77 60.91 399.17 60.18"/><polygon class="cls-3" points="415.37 118.17 415.77 118.9 416.5 119.3 415.77 119.69 415.37 120.42 414.98 119.69 414.25 119.3 414.98 118.9 415.37 118.17"/><polygon class="cls-3" points="303.73 153.89 304.13 154.62 304.86 155.01 304.13 155.41 303.73 156.14 303.33 155.41 302.6 155.01 303.33 154.62 303.73 153.89"/><polygon class="cls-3" points="275.46 158.54 275.86 159.27 276.58 159.67 275.86 160.06 275.46 160.79 275.06 160.06 274.33 159.67 275.06 159.27 275.46 158.54"/><polygon class="cls-3" points="254.35 158.39 254.75 159.12 255.48 159.52 254.75 159.91 254.35 160.64 253.95 159.91 253.23 159.52 253.95 159.12 254.35 158.39"/><polygon class="cls-3" points="258.96 150.78 259.36 151.5 260.09 151.9 259.36 152.3 258.96 153.03 258.57 152.3 257.84 151.9 258.57 151.5 258.96 150.78"/><polygon class="cls-3" points="271.18 173.82 271.58 174.55 272.31 174.95 271.58 175.35 271.18 176.08 270.78 175.35 270.06 174.95 270.78 174.55 271.18 173.82"/><polygon class="cls-3" points="297.32 164.81 297.72 165.54 298.44 165.94 297.72 166.34 297.32 167.06 296.92 166.34 296.19 165.94 296.92 165.54 297.32 164.81"/><polygon class="cls-3" points="289.85 146.8 290.25 147.53 290.98 147.92 290.25 148.32 289.85 149.05 289.45 148.32 288.73 147.92 289.45 147.53 289.85 146.8"/><polygon class="cls-3" points="363.79 180.04 364.19 180.77 364.92 181.17 364.19 181.57 363.79 182.29 363.39 181.57 362.66 181.17 363.39 180.77 363.79 180.04"/><polygon class="cls-3" points="332.84 142.5 333.24 143.22 333.96 143.62 333.24 144.02 332.84 144.75 332.44 144.02 331.71 143.62 332.44 143.22 332.84 142.5"/><polygon class="cls-3" points="378.69 142.37 379.09 143.09 379.81 143.49 379.09 143.89 378.69 144.62 378.29 143.89 377.57 143.49 378.29 143.09 378.69 142.37"/><polygon class="cls-3" points="357.26 80.03 357.66 80.76 358.39 81.16 357.66 81.56 357.26 82.28 356.86 81.56 356.14 81.16 356.86 80.76 357.26 80.03"/><polygon class="cls-3" points="327.85 68.04 328.25 68.77 328.97 69.16 328.25 69.56 327.85 70.29 327.45 69.56 326.72 69.16 327.45 68.77 327.85 68.04"/><polygon class="cls-3" points="66.24 133.38 65.84 134.11 65.11 134.51 65.84 134.91 66.24 135.64 66.64 134.91 67.36 134.51 66.64 134.11 66.24 133.38"/><polygon class="cls-3" points="41.34 105.53 40.94 106.25 40.21 106.65 40.94 107.05 41.34 107.78 41.73 107.05 42.46 106.65 41.73 106.25 41.34 105.53"/><polygon class="cls-3" points="91.06 106.07 90.66 106.79 89.93 107.19 90.66 107.59 91.06 108.32 91.45 107.59 92.18 107.19 91.45 106.79 91.06 106.07"/><polygon class="cls-3" points="74.06 159.67 73.66 160.39 72.93 160.79 73.66 161.19 74.06 161.92 74.46 161.19 75.19 160.79 74.46 160.39 74.06 159.67"/><polygon class="cls-3" points="17.48 182.08 17.08 182.81 16.36 183.21 17.08 183.6 17.48 184.33 17.88 183.6 18.61 183.21 17.88 182.81 17.48 182.08"/><polygon class="cls-3" points="105.17 132.41 104.77 133.13 104.05 133.53 104.77 133.93 105.17 134.66 105.57 133.93 106.3 133.53 105.57 133.13 105.17 132.41"/><polygon class="cls-3" points="116.3 106.07 115.9 106.79 115.17 107.19 115.9 107.59 116.3 108.32 116.7 107.59 117.42 107.19 116.7 106.79 116.3 106.07"/><polygon class="cls-3" points="100.18 83.25 99.78 83.98 99.05 84.38 99.78 84.78 100.18 85.5 100.58 84.78 101.31 84.38 100.58 83.98 100.18 83.25"/><polygon class="cls-3" points="67.37 97.34 66.97 98.07 66.24 98.47 66.97 98.87 67.37 99.59 67.76 98.87 68.49 98.47 67.76 98.07 67.37 97.34"/><polygon class="cls-3" points="18.61 60.18 18.21 60.91 17.48 61.3 18.21 61.7 18.61 62.43 19 61.7 19.73 61.3 19 60.91 18.61 60.18"/><polygon class="cls-3" points="2.4 118.17 2.01 118.9 1.28 119.3 2.01 119.69 2.4 120.42 2.8 119.69 3.53 119.3 2.8 118.9 2.4 118.17"/><polygon class="cls-3" points="114.05 153.89 113.65 154.62 112.92 155.01 113.65 155.41 114.05 156.14 114.45 155.41 115.17 155.01 114.45 154.62 114.05 153.89"/><polygon class="cls-3" points="142.32 158.54 141.92 159.27 141.19 159.67 141.92 160.06 142.32 160.79 142.72 160.06 143.44 159.67 142.72 159.27 142.32 158.54"/><polygon class="cls-3" points="163.43 158.39 163.03 159.12 162.3 159.52 163.03 159.91 163.43 160.64 163.82 159.91 164.55 159.52 163.82 159.12 163.43 158.39"/><polygon class="cls-3" points="158.81 150.78 158.41 151.5 157.69 151.9 158.41 152.3 158.81 153.03 159.21 152.3 159.94 151.9 159.21 151.5 158.81 150.78"/><polygon class="cls-3" points="146.59 173.82 146.19 174.55 145.47 174.95 146.19 175.35 146.59 176.08 146.99 175.35 147.72 174.95 146.99 174.55 146.59 173.82"/><polygon class="cls-3" points="120.46 164.81 120.06 165.54 119.33 165.94 120.06 166.34 120.46 167.06 120.86 166.34 121.58 165.94 120.86 165.54 120.46 164.81"/><polygon class="cls-3" points="127.93 146.8 127.53 147.53 126.8 147.92 127.53 148.32 127.93 149.05 128.32 148.32 129.05 147.92 128.32 147.53 127.93 146.8"/><polygon class="cls-3" points="53.99 180.04 53.59 180.77 52.86 181.17 53.59 181.57 53.99 182.29 54.39 181.57 55.11 181.17 54.39 180.77 53.99 180.04"/><polygon class="cls-3" points="84.94 142.5 84.54 143.22 83.81 143.62 84.54 144.02 84.94 144.75 85.34 144.02 86.06 143.62 85.34 143.22 84.94 142.5"/><polygon class="cls-3" points="39.09 142.37 38.69 143.09 37.96 143.49 38.69 143.89 39.09 144.62 39.49 143.89 40.21 143.49 39.49 143.09 39.09 142.37"/><polygon class="cls-3" points="60.52 80.03 60.12 80.76 59.39 81.16 60.12 81.56 60.52 82.28 60.91 81.56 61.64 81.16 60.91 80.76 60.52 80.03"/><polygon class="cls-3" points="89.93 68.04 89.53 68.77 88.81 69.16 89.53 69.56 89.93 70.29 90.33 69.56 91.06 69.16 90.33 68.77 89.93 68.04"/><path class="cls-4" d="M175,78.94c.08,15,9.57,34.52,29.83,41.62-21.25-9.52-26-27.13-25.78-41.81.24-20.65,12-36.85-.63-67.82-.12-.26-.77-.36-1.66-.36a56.41,56.41,0,0,0-7.15.8C183.8,39,174.87,59.7,175,78.94Zm-21.51,54.37a49.93,49.93,0,0,0,15.94,2.52c12.36,0,25.89-4.23,35.41-14.93-9.81,9.25-20.42,12.43-30.44,12.43a58.56,58.56,0,0,1-19.7-3.7C134.77,122.5,122.85,107,89.59,107c-.71,0-1.44,0-2.17,0-1.17,0-2.58,8-2.58,8,3-.3,6-.45,8.75-.45C120.3,114.55,136.21,127.46,153.48,133.31ZM183,74.6c-2.64,14.81,3.13,35.58,21.79,45.92-19.2-12.88-20.62-31-17.76-45.43,4-20.29,18.56-34.3,11.78-66.88-.24-1-7.11-1-8.5-1h-.25C199,36.71,186.43,55.64,183,74.6ZM161.76,91.28c5.5,14.08,21.42,29.31,43,29.41-23.39-2-34.15-17-39.27-30.91-7.2-19.49-2-38.52-25-63.51a.47.47,0,0,0-.36-.12c-1.69,0-7.75,3.38-7.75,3.38C155.66,50.86,154.72,73.23,161.76,91.28ZM157,98.88c7.07,11.46,22.31,22.47,40.46,22.47a45.53,45.53,0,0,0,7.28-.6c-1.51.12-3,.18-4.39.18-20.72,0-32.85-12.16-39.93-24.14-10.65-18-9-37.62-36.22-58.42a.32.32,0,0,0-.23-.07c-1.46,0-7.16,4.62-7.16,4.62C143.64,60.09,146.8,82.28,157,98.88Zm19,31.59a45.87,45.87,0,0,0,28.74-9.59,44.44,44.44,0,0,1-24.87,7.84c-9.8,0-18.74-3.36-26.11-7.52-18.69-10.53-27.57-28.31-62.1-33.39h0c-1.18,0-4,7.47-4,7.47C120,97.4,134.37,115.11,152,124.63A51.78,51.78,0,0,0,176.06,130.47Zm7-4.22a45.08,45.08,0,0,0,21.69-5.4,47.08,47.08,0,0,1-19,4.19c-12.7,0-23.28-5.75-31.29-12.29C138,99.29,132.54,80.31,99.46,69.6h-.08c-1.22,0-5.23,6.71-5.23,6.71,31.37,7.41,42.32,27.23,57.91,39.52A51.62,51.62,0,0,0,183.1,126.25Zm-29.32-19.1a50.5,50.5,0,0,0,36.46,16.06,44.71,44.71,0,0,0,14.53-2.41,50.2,50.2,0,0,1-12.3,1.58c-16.17,0-27.82-8.68-35.73-17.85C143,88.55,141,69,110.4,53a.29.29,0,0,0-.14,0c-1.31,0-6.3,5.74-6.3,5.74C133.5,71.15,140.66,92.48,153.78,107.15Zm51,13.48c-22.67-5.87-30.52-22.43-33-36.92-3.53-20.38,5.09-38.27-13-66.68-.1-.14-.33-.19-.68-.19-2.06,0-7.91,2.07-7.91,2.07,19,24.85,14,46.72,17.64,65.66C170.65,99.34,183.54,117,204.79,120.63Zm.37-.18c6.18-21.55,23.6-29,38.84-31.41a93.64,93.64,0,0,1,14.49-.92c1.75,0,3.51,0,5.27,0s3.56,0,5.36,0c13,0,27-1.13,45-11.52,1-.59-2-8.15-2-8.15C286,86.61,263,81.84,243.1,85.29,227.56,88,209,100.25,205.16,120.45Zm-.26,0c-13.39-18.34-8.21-35.82-.33-48.46,11.08-17.77,29.78-26.2,35.13-59,.15-1.1-7.85-3.8-7.85-3.8C229.61,39.85,211,53.55,201,70.28,193.14,83.32,191.1,104.71,204.9,120.49Zm61.69-27.14a162,162,0,0,0-17.2-1.27H249c-15.79.1-36.31,9.11-43.78,28.37,9.84-19.84,27.89-24.52,43.16-24.52h.82c14.17.15,26.35,5,42.14,5a82.68,82.68,0,0,0,29.21-5.55c1.08-.43-.46-8.37-.46-8.37a80.21,80.21,0,0,1-34.89,7.64A170.94,170.94,0,0,1,266.59,93.35Zm-13.06,6.43a45.58,45.58,0,0,0-7.43-.58c-14.5,0-31.64,6.23-40.87,21.27,10.27-13.83,23.72-17.94,36.24-17.94A64.59,64.59,0,0,1,253,103.61c17.41,3.11,30.43,12.88,53.23,12.88a92.53,92.53,0,0,0,17.14-1.7c1.14-.24,1.07-8.31,1.07-8.31a81.36,81.36,0,0,1-21.64,3C283.31,109.47,268.44,102.19,253.53,99.78Zm-48.42,20.68C207.25,98.22,223,88,237.63,83.13c20.5-6.85,40.53-1.89,66.82-23.76.86-.75-3.44-7.71-3.44-7.71-22.44,22.12-46,21.23-65,27.91C221.23,84.79,205.2,99.93,205.11,120.46Zm-.06,0c-1.94-22.26,11.74-34.93,25.2-42.13,18.95-10.12,39.59-8.54,61.48-34.42.71-.88-4.8-7-4.8-7-18.06,25.48-41.39,28.48-58.88,38.2C214.42,82.67,201.39,100.23,205.05,120.46Zm5.19-50.08c-10.08,11.56-16,32.29-5.29,50.1-9.84-20.28-1.54-36.64,8.52-47.78C227.63,57,247.59,51.81,258.86,20.37c.34-1.05-7-5-7-5C244,45.14,223.17,55.56,210.24,70.38ZM219.37,72c-12,9.72-21.67,29.16-14.37,48.47-6-21.6,5.17-36.34,17.12-45.65,16.81-13.1,37.42-14.94,54.26-44,.53-1-6-6.13-6-6.13C257.24,52.73,234.8,59.54,219.37,72Zm-27.56-.3c-5.33,14.14-3.44,35.55,13.05,48.8-16.54-15.85-14.64-33.92-9.19-47.66,7.67-19.33,24.55-30.73,23.82-63.93-.06-1.1-8.42-2.45-8.42-2.45C214.45,37,198.61,53.58,191.81,71.7Zm13.53,49.1c22.68,5.88,30.54,22.43,33,36.92,3.53,20.38-5.1,38.28,13,66.68.09.14.33.19.67.19,2.07,0,7.92-2.07,7.92-2.07-19-24.85-14-46.72-17.63-65.65C239.5,142.09,226.6,124.45,205.34,120.8Zm43,29.38c-5.49-14.08-21.4-29.32-43-29.41,23.4,2,34.16,17,39.28,30.9,7.19,19.49,2,38.54,25,63.53a.46.46,0,0,0,.36.1c1.69,0,7.75-3.38,7.75-3.38C254.47,190.59,255.41,168.22,248.36,150.18Zm-13.19,12.26c-.1-15-9.57-34.51-29.83-41.62,21.25,9.53,26,27.13,25.79,41.81-.26,20.65-12,36.86.61,67.81.12.27.77.37,1.67.37a55.92,55.92,0,0,0,7.13-.8C226.36,202.4,235.29,181.68,235.17,162.44Zm17.92-19.84c-7.06-11.46-22.3-22.46-40.45-22.46a46.58,46.58,0,0,0-7.28.59c1.51-.12,3-.18,4.4-.18,20.71,0,32.83,12.16,39.92,24.14,10.66,18,9,37.61,36.21,58.43a.41.41,0,0,0,.23,0c1.47,0,7.17-4.62,7.17-4.62C266.48,181.38,263.32,159.2,253.09,142.6Zm63.42-15.72c-26.7,0-42.62-12.91-59.88-18.76a50,50,0,0,0-15.95-2.52c-12.35,0-25.88,4.24-35.4,14.93,9.81-9.24,20.42-12.43,30.44-12.43a58.61,58.61,0,0,1,19.7,3.7c19.91,7.13,31.83,22.66,65.1,22.66l2.17,0c1.17-.05,2.57-8,2.57-8C322.22,126.73,319.31,126.88,316.51,126.88ZM156.56,141.61a45.61,45.61,0,0,0,7.44.58c14.49,0,31.63-6.22,40.86-21.27-10.27,13.82-23.71,17.94-36.23,17.94a65.65,65.65,0,0,1-11.57-1.07c-17.41-3.11-30.43-12.89-53.23-12.89a92.36,92.36,0,0,0-17.14,1.7c-1.14.24-1.07,8.31-1.07,8.31a81.68,81.68,0,0,1,21.64-3C126.77,131.93,141.65,139.2,156.56,141.61ZM234.05,111a45.85,45.85,0,0,0-28.74,9.61,44.46,44.46,0,0,1,24.87-7.84c9.8,0,18.74,3.36,26.12,7.51,18.69,10.54,27.57,28.33,62.1,33.41h0c1.18,0,4-7.47,4-7.47-32.23-2.12-46.64-19.84-64.24-29.36A51.7,51.7,0,0,0,234.05,111Zm22.3,23.36a50.54,50.54,0,0,0-36.47-16.06,45.11,45.11,0,0,0-14.54,2.4,50.76,50.76,0,0,1,12.31-1.58c16.17,0,27.81,8.68,35.73,17.86,13.77,16,15.72,35.57,46.34,51.57a.26.26,0,0,0,.14,0c1.31,0,6.31-5.75,6.31-5.75C276.63,170.34,269.46,149,256.35,134.34ZM227,115.23a45.1,45.1,0,0,0-21.69,5.41,46.93,46.93,0,0,1,19-4.2c12.71,0,23.28,5.76,31.3,12.3,16.49,13.45,22,32.43,55.05,43.13l.08,0c1.23,0,5.22-6.71,5.22-6.71-31.36-7.41-42.32-27.23-57.91-39.51A51.5,51.5,0,0,0,227,115.23Zm0,51.55c2.65-14.81-3.12-35.57-21.76-45.91,19.17,12.89,20.6,31,17.74,45.43-4,20.3-18.56,34.32-11.77,66.89.23,1,7.08,1,8.49,1H220C211.07,204.68,223.65,185.76,227.05,166.78Zm-22-45.76c2,22.26-11.74,34.93-25.21,42.12-18.94,10.13-39.58,8.55-61.47,34.43-.71.89,4.79,7,4.79,7,18.07-25.47,41.41-28.48,58.89-38.2C195.71,158.8,208.73,141.24,205.07,121Zm-.09,0c-6.18,21.53-23.6,29-38.85,31.39a93.41,93.41,0,0,1-14.47.93c-1.76,0-3.51,0-5.29-.05s-3.54,0-5.33,0c-13,0-27,1.13-45.07,11.52-1,.6,2,8.15,2,8.15,26.14-18.06,49.15-13.3,69.07-16.76C182.58,153.44,201.13,141.18,205,121Zm0,0c-2.15,22.23-17.94,32.46-32.52,37.32-20.5,6.85-40.53,1.87-66.83,23.76-.86.75,3.45,7.7,3.45,7.7,22.44-22.11,46-21.21,65-27.89C188.9,156.66,204.93,141.52,205,121Zm13.29,48.72c5.32-14.15,3.42-35.55-13.07-48.8,16.55,15.85,14.65,33.92,9.2,47.67-7.67,19.33-24.55,30.72-23.82,63.92,0,1.11,8.43,2.45,8.43,2.45C195.65,204.42,211.49,187.85,218.31,169.73ZM143.56,148a161.58,161.58,0,0,0,17.18,1.27h.41c15.8-.1,36.31-9.1,43.78-28.37-9.84,19.85-27.89,24.52-43.17,24.52H161c-14.17-.16-26.35-5-42.13-5A82.54,82.54,0,0,0,89.6,146c-1.08.43.47,8.36.47,8.36a80.11,80.11,0,0,1,34.87-7.63A173.56,173.56,0,0,1,143.56,148ZM205.21,121c13.4,18.35,8.22,35.83.34,48.46-11.08,17.76-29.79,26.21-35.13,59-.15,1.09,7.84,3.8,7.84,3.8,2.25-30.64,20.87-44.34,30.89-61.06C217,158.14,219,136.75,205.21,121Zm-14.46,48.52c12.05-9.72,21.66-29.16,14.37-48.47,6,21.6-5.17,36.34-17.12,45.64-16.81,13.1-37.43,15-54.27,44.06-.52,1,6,6.12,6,6.12C152.88,188.76,175.32,182,190.75,169.49Zm9.13,1.62c10.08-11.57,16-32.29,5.29-50.1,9.84,20.27,1.55,36.63-8.53,47.77-14.16,15.67-34.12,20.89-45.39,52.33-.34,1.06,7.05,5,7.05,5C166.11,196.34,187,185.93,199.88,171.11Z"/><path class="cls-5" d="M119.86,123.9a87.51,87.51,0,1,0,87.51-87.5A87.51,87.51,0,0,0,119.86,123.9Z"/><path class="cls-6" d="M318.13,281.86c0,3-8.25,5.45-18.44,5.45s-18.44-2.44-18.44-5.45,8.26-5.44,18.44-5.44S318.13,278.85,318.13,281.86Z"/><path class="cls-6" d="M141.61,281.86c0,3-8.25,5.45-18.43,5.45s-18.44-2.44-18.44-5.45,8.25-5.44,18.44-5.44S141.61,278.85,141.61,281.86Z"/><path class="cls-6" d="M135,281.32c0,1.49-5.28,2.69-11.79,2.69s-11.8-1.2-11.8-2.69,5.28-2.68,11.8-2.68S135,279.84,135,281.32Z"/><path class="cls-6" d="M317.52,281.53c0,1.15-5.28,2.08-11.81,2.08s-11.81-.93-11.81-2.08,5.29-2.09,11.81-2.09S317.52,280.37,317.52,281.53Z"/><text class="cls-7" transform="translate(247.48 258.25) rotate(11.5)">4</text><polygon class="cls-8" points="279.45 239.68 284.79 238.64 275.46 237.37 287.24 227.2 277.5 229.01 287.24 223.44 277.5 223.85 299.29 209.38 288.73 210.94 299.29 202.35 285.39 207.42 290.67 195.98 254.1 243.08 254.35 247.11 255.83 247.96 277.35 252.34 275.46 245.67 287.24 251.75 279.45 244.66 303.73 248.96 279.45 239.68"/><text class="cls-9" transform="translate(60.52 272.26)">4</text><polygon class="cls-8" points="86.06 227.43 97.66 231.9 99.04 229.09 86.06 227.43"/><path class="cls-8" d="M133.17,268.85v-8.38h10.48a38.68,38.68,0,0,0,.66-4.37c.14-1.55.22-3.06.22-4.51a42.55,42.55,0,0,0-.88-8.74H133.17V219.56c-1.75-.2-3.5-.37-5.24-.51-1-.08-2-.14-2.94-.17l4.06,7.11-11.63-2.55,5.75,8.73-10.09-1.29v7l7.38,2.84L88.81,253.44H113l-4.39,7h4.52v4.36l17.75-13.73-11.5,18.78,8.6-4.24-4.75,7.58Z"/><path class="cls-6" d="M241,287.46c0,7.15-16.5,12.94-36.86,12.94s-36.87-5.79-36.87-12.94,16.51-12.93,36.87-12.93S241,280.32,241,287.46Z"/><path class="cls-6" d="M220.11,287.46c0,3.1-7.15,5.61-16,5.61s-16-2.51-16-5.61,7.15-5.6,16-5.6S220.11,284.37,220.11,287.46Z"/><path class="cls-10" d="M157.41,239a3.64,3.64,0,0,1-3.63,3.64H134.47a3.64,3.64,0,0,1-3.64-3.64h0a3.64,3.64,0,0,1,3.64-3.63h19.31a3.64,3.64,0,0,1,3.63,3.63Z"/><path class="cls-11" d="M169.46,239a16.53,16.53,0,1,1-16.53-16.53A16.53,16.53,0,0,1,169.46,239Z"/><path class="cls-12" d="M152.93,222.43a16.51,16.51,0,0,0-7.35,1.74,40.86,40.86,0,0,0,.84,30,16.54,16.54,0,1,0,6.51-31.74Z"/><path class="cls-13" d="M197.48,238.11a27.18,27.18,0,1,1-27.18-27.17A27.17,27.17,0,0,1,197.48,238.11Z"/><path class="cls-14" d="M170.3,210.94c-7.54,0-11.54.59-16.47,5.56-3.54,4.51-5.41,13.43-5.41,19.29,0,8.55,1.87,17.72,7.84,25.58,4.58,3.5,7.84,3.91,14,3.91a27.17,27.17,0,1,0,0-54.34Z"/><path class="cls-10" d="M250.92,239a3.64,3.64,0,0,0,3.64,3.64h19.31A3.64,3.64,0,0,0,277.5,239h0a3.64,3.64,0,0,0-3.63-3.63H254.56a3.64,3.64,0,0,0-3.64,3.63Z"/><path class="cls-11" d="M238.87,239a16.54,16.54,0,1,0,16.53-16.53A16.53,16.53,0,0,0,238.87,239Z"/><path class="cls-12" d="M255.4,222.43a16.44,16.44,0,0,1,7.35,1.74,40.86,40.86,0,0,1-.84,30,16.54,16.54,0,1,1-6.51-31.74Z"/><path class="cls-13" d="M210.86,238.11A27.17,27.17,0,1,0,238,210.94,27.16,27.16,0,0,0,210.86,238.11Z"/><path class="cls-14" d="M238,210.94c7.54,0,11.55.59,16.47,5.56,3.55,4.51,5.41,13.43,5.41,19.29,0,8.55-1.86,17.72-7.84,25.58-4.57,3.5-7.83,3.91-14,3.91a27.17,27.17,0,0,1,0-54.34Z"/><path class="cls-10" d="M156.77,210.64a53.85,53.85,0,1,0,94.74,0Z"/><g class="cls-15"><path class="cls-16" d="M237.09,224.75h0s11.28,34.05-17,61.13c.81-.27,1.61-.55,2.4-.86,8.4-4.39,32.05-21,26.38-67.41C247.11,220.35,242.93,222.81,237.09,224.75Z"/><path class="cls-16" d="M224.85,261.69c4.08-15.34,2.93-31.15,2.62-34.49-2,.37-4,.7-6.18,1C224.86,239.45,224.85,261.69,224.85,261.69Z"/><path class="cls-16" d="M175.58,226c-6.65-1.7-11.78-4-14.62-6.62-2.57,11.65-8.87,53.39,28.6,66.89l.06,0C188.74,285.77,162.92,269.32,175.58,226Z"/><path class="cls-16" d="M191.59,228.68c-3.35-.3-6.54-.72-9.52-1.25-6.3,46.67,12,59.86,12.22,60h0C183.63,267,189.76,236.47,191.59,228.68Z"/></g><path class="cls-17" d="M252,213.37c0,8.46-21.43,15.31-47.87,15.31s-47.88-6.85-47.88-15.31,21.44-15.31,47.88-15.31S252,204.92,252,213.37Z"/><path class="cls-18" d="M252,212.83c0,8.45-21.43,15.3-47.87,15.3s-47.88-6.85-47.88-15.3,21.44-15.31,47.88-15.31S252,204.37,252,212.83Z"/><polygon class="cls-17" points="238.66 223.43 241.73 229.09 242.31 222.07 238.66 223.43"/><polygon class="cls-18" points="239.11 223.22 241.73 229.09 241.73 221.52 239.11 223.22"/><path class="cls-19" d="M228.53,211.39s-29.85,1.52-30.34,1.37l-27.55,2-6.48,6.48a56.18,56.18,0,0,0,11.19,3.82l4.54-7.49,7.11.83-1.71,8.5a140.22,140.22,0,0,0,18.85,1.23c1.9,0,3.76,0,5.61-.1v-7.47h7.47l6.81,6.19c2.22-.33,4.35-.7,6.38-1.13l-7.62-5.74,4-1.32,10,5.44c.62-.18,1.22-.37,1.82-.57l-13.76-7h3.95l14.67,5.13c3.58-1.65,6.17-3.54,7.49-5.58Z"/><path class="cls-17" d="M243.54,212.28c0,6.39-17.64,11.57-39.4,11.57s-39.4-5.18-39.4-11.57,17.64-11.58,39.4-11.58S243.54,205.88,243.54,212.28Z"/><path class="cls-20" d="M243.78,211.79c0,6.43-17.75,11.65-39.64,11.65s-39.64-5.22-39.64-11.65,17.74-11.64,39.64-11.64S243.78,205.36,243.78,211.79Z"/><g class="cls-21"><path class="cls-22" d="M189.49,196.36a3.82,3.82,0,0,0-7.64,0,3.72,3.72,0,0,0,.36,1.6,2.27,2.27,0,1,0,2.29,3.56,2.3,2.3,0,0,0,4.18-1.33,2.24,2.24,0,0,0-.31-1.12A3.8,3.8,0,0,0,189.49,196.36Z"/><path class="cls-22" d="M169.53,182.08a3.7,3.7,0,0,0-2.27-7,3.65,3.65,0,0,0-1.36.81,2.2,2.2,0,0,0-4,1.76,2.17,2.17,0,0,0,1.41,1.4,2.23,2.23,0,0,0,2.47,3.46,2.34,2.34,0,0,0,.94-.62A3.71,3.71,0,0,0,169.53,182.08Z"/><rect class="cls-23" x="188.22" y="154.09" width="32.15" height="71.97"/><path class="cls-24" d="M192.63,188.27v15.32a.63.63,0,0,0,1.25,0V188.27a.63.63,0,0,0-1.25,0Z"/><path class="cls-24" d="M197.31,200.32v4.94a.63.63,0,0,0,1.25,0v-.33a.63.63,0,0,0-1.25,0V210a.63.63,0,0,0,1.25,0v-5.09a.63.63,0,0,0-1.25,0v.33a.63.63,0,0,0,1.25,0v-4.94a.63.63,0,0,0-1.25,0Z"/><path class="cls-24" d="M200.32,190.1V195a.63.63,0,0,0,1.25,0v-.33a.63.63,0,0,0-1.25,0v5.09a.63.63,0,0,0,1.25,0V194.7a.63.63,0,0,0-1.25,0V195a.63.63,0,0,0,1.25,0V190.1a.63.63,0,0,0-1.25,0Z"/><path class="cls-24" d="M210.82,193.63v18.64a.63.63,0,0,0,1.25,0V193.63a.63.63,0,0,0-1.25,0Z"/><path class="cls-24" d="M207.32,201.45v6.76a.63.63,0,0,0,1.25,0v-6.76a.63.63,0,0,0-1.25,0Z"/><path class="cls-24" d="M207.39,210v1a.63.63,0,0,0,1.25,0v-1a.63.63,0,0,0-1.25,0Z"/><path class="cls-24" d="M208.1,213.84a.63.63,0,0,0,0-1.25.63.63,0,0,0,0,1.25Z"/><path class="cls-24" d="M200.89,187.38h-.18a.63.63,0,0,0,0,1.25h.18a.63.63,0,0,0,0-1.25Z"/><path class="cls-24" d="M214.32,210v11.53a.63.63,0,0,0,1.25,0V210a.63.63,0,0,0-1.25,0Z"/><path class="cls-25" d="M196.27,185.83a5.47,5.47,0,0,1,7.39-1.42,4.33,4.33,0,0,0-6.6-1.87,5.88,5.88,0,0,0-5.59-4.14,5.32,5.32,0,0,0-.56.06A8,8,0,0,1,196.27,185.83Z"/><path class="cls-25" d="M215.59,179.17a3.49,3.49,0,0,0-4.68-.89,2.74,2.74,0,0,1,4.18-1.19,3.71,3.71,0,0,1,3.54-2.61,2.09,2.09,0,0,1,.35,0A5.05,5.05,0,0,0,215.59,179.17Z"/><path class="cls-26" d="M188.22,194.81c2.69-.15,8.62.66,16.84,3.44,8,2.71,13.18,5.59,15.32,7.35v-2.76c-5-3.46-14.06-6.53-14.61-6.71a72.72,72.72,0,0,0-13.64-3.35,22.4,22.4,0,0,0-3.91-.19Z"/><path class="cls-24" d="M209,187.81a6.5,6.5,0,0,0,8.75,1.68A5.13,5.13,0,0,1,210,191.7a6.93,6.93,0,0,1-6.61,4.9c-.23,0-.44,0-.66-.07A9.48,9.48,0,0,0,209,187.81Z"/><path class="cls-23" d="M165.9,153.1a19.65,19.65,0,1,0,19.65-19.64A19.65,19.65,0,0,0,165.9,153.1Z"/><path class="cls-23" d="M214.86,159.28a10.41,10.41,0,1,0,10.4-10.41A10.4,10.4,0,0,0,214.86,159.28Z"/><path class="cls-23" d="M218.35,171.42a3.66,3.66,0,1,0,3.66-3.65A3.65,3.65,0,0,0,218.35,171.42Z"/><path class="cls-23" d="M193.27,146.16a18.5,18.5,0,1,0,18.5-18.5A18.51,18.51,0,0,0,193.27,146.16Z"/><path class="cls-23" d="M146.91,107.57A36.09,36.09,0,1,0,183,71.48,36.09,36.09,0,0,0,146.91,107.57Z"/><path class="cls-27" d="M159.65,115.39a20.52,20.52,0,0,0-11,3.21c4.27,13.29,14.34,20.71,28.62,22.31.88-2.29,3.06-2.25,3.06-4.85A20.67,20.67,0,0,0,159.65,115.39Z"/><path class="cls-27" d="M180.52,134.33S181,122.21,195.21,122c0,0-10.81-3.11-16,7.83Z"/><path class="cls-23" d="M143.59,136.06A18.36,18.36,0,1,0,162,117.7,18.36,18.36,0,0,0,143.59,136.06Z"/><path class="cls-27" d="M190.06,72.17c-5.36,6.71-5.3,13.73-4.59,20,1.86,16.55,13.68,25.15,28.31,30.85,6.8-6.56,5.31-5.23,5.31-15.43A35.82,35.82,0,0,0,190.06,72.17Z"/><path class="cls-23" d="M219.14,64a36.07,36.07,0,0,0-32.34,52.08,2,2,0,0,1,1.57-.62c3.65.05,7.74.81,10.35,3.62a12.15,12.15,0,0,1,2.22,3.4,8.87,8.87,0,0,1,2.91,6.78,2.17,2.17,0,0,1-2.67,2.13,36.09,36.09,0,1,0,18-67.39Z"/><path class="cls-28" d="M222.75,126.58c0,3.44-9.22,6.27-8.13,9.34a35.5,35.5,0,0,0,4.52.3,36.09,36.09,0,0,0,36.09-36.09c0-.13,0-1.93,0-2a29.2,29.2,0,0,0-12.93-3C226,95.08,222.75,110.36,222.75,126.58Z"/><path class="cls-23" d="M212.93,126.11a28,28,0,1,0,28-28A28,28,0,0,0,212.93,126.11Z"/><path class="cls-23" d="M177.27,221.91a7.35,7.35,0,1,0,7.35-7.35A7.35,7.35,0,0,0,177.27,221.91Z"/><path class="cls-23" d="M184.55,215.47a3.68,3.68,0,1,0,3.67-3.68A3.67,3.67,0,0,0,184.55,215.47Z"/><path class="cls-23" d="M181.22,210a1.84,1.84,0,1,0,1.83-1.84A1.83,1.83,0,0,0,181.22,210Z"/><path class="cls-23" d="M190.18,221.91a4.15,4.15,0,1,0,4.15-4.15A4.15,4.15,0,0,0,190.18,221.91Z"/><path class="cls-23" d="M217.12,221.91a4.15,4.15,0,1,0,4.15-4.15A4.15,4.15,0,0,0,217.12,221.91Z"/><path class="cls-23" d="M215,219.14a4.15,4.15,0,1,0,4.15-4.15A4.15,4.15,0,0,0,215,219.14Z"/><path class="cls-23" d="M223.29,221.91a4.15,4.15,0,1,0,4.15-4.15A4.15,4.15,0,0,0,223.29,221.91Z"/><path class="cls-22" d="M180.41,221.46a5.08,5.08,0,1,0,5.08-5.08A5.08,5.08,0,0,0,180.41,221.46Z"/><path class="cls-22" d="M189.73,222.27a2.77,2.77,0,1,0,2.77-2.77A2.77,2.77,0,0,0,189.73,222.27Z"/><path class="cls-22" d="M195.21,220.56a6.11,6.11,0,1,0,6.1-6.11A6.11,6.11,0,0,0,195.21,220.56Z"/><path class="cls-22" d="M191.93,223.44a6.11,6.11,0,1,0,6.1-6.11A6.11,6.11,0,0,0,191.93,223.44Z"/><path class="cls-22" d="M204.14,223.44a6.11,6.11,0,1,0,6.1-6.11A6.11,6.11,0,0,0,204.14,223.44Z"/><path class="cls-22" d="M218.51,221.3a3.05,3.05,0,1,0,3.05-3.06A3.06,3.06,0,0,0,218.51,221.3Z"/><path class="cls-22" d="M240.31,188.79a1.54,1.54,0,0,0-1.54-1.54,1.7,1.7,0,0,0-.46.08,3.05,3.05,0,1,0,.49,3A1.54,1.54,0,0,0,240.31,188.79Z"/><path class="cls-22" d="M232.31,209.49a3.82,3.82,0,1,0-7.64,0,3.67,3.67,0,0,0,.36,1.59,2.28,2.28,0,1,0,2.29,3.56,2.3,2.3,0,0,0,4.18-1.33,2.34,2.34,0,0,0-.3-1.12A3.81,3.81,0,0,0,232.31,209.49Z"/><path class="cls-22" d="M235,210.24a1.56,1.56,0,1,0,1.56-1.56A1.55,1.55,0,0,0,235,210.24Z"/><path class="cls-22" d="M214.18,213.81a1,1,0,1,0,1-1A1,1,0,0,0,214.18,213.81Z"/><path class="cls-22" d="M191.23,210.64a2,2,0,1,0,2-2A2,2,0,0,0,191.23,210.64Z"/><path class="cls-22" d="M164.94,172.26a2,2,0,1,0,2-2A2,2,0,0,0,164.94,172.26Z"/><path class="cls-22" d="M170.36,173.41a.84.84,0,1,0,.83-.84A.84.84,0,0,0,170.36,173.41Z"/><path class="cls-22" d="M223.78,221.45a2.16,2.16,0,1,0,2.16-2.16A2.16,2.16,0,0,0,223.78,221.45Z"/><path class="cls-29" d="M171.73,211.43c1.07-2,2.21-3.92,2.25-6.3a7.36,7.36,0,0,0-3.46-6c-3.23-2-7.16,1-9.08,3.46-1.22,1.57-2.13,3.77-1.55,5.76.76,2.62,3.41,2.77,5.5,1.66,3.78-2,5.06-7.53,3.86-11.35-1.56-5-7.7-6.56-12.05-4.5a9.3,9.3,0,0,0-4.67,4.56c-.93,2.21-.24,5.13,2.27,5.87,2.18.63,4.72-.72,6-2.48a8.71,8.71,0,0,0,1.54-5.69c-.31-4.7-5.33-8.42-9.84-6.71-2.94,1.11-6.21,4.85-5.49,8.19.33,1.54,2.62.72,2.29-.79a4.51,4.51,0,0,1,.36-1.39,7.89,7.89,0,0,1,1.52-2.22,4.87,4.87,0,0,1,5-1.63c4,1.32,5.27,7.2,1.73,9.73-.85.61-2.27,1.16-3,.18s-.13-2.21.41-3a7.87,7.87,0,0,1,5.7-3.17,6.13,6.13,0,0,1,5.84,3.36,7.82,7.82,0,0,1-.07,5.67,6.56,6.56,0,0,1-2.14,3c-1.11.85-2.36,1-2.41-.63-.07-2,1.84-3.93,3.34-5,1.75-1.27,3.66-1.48,5,.4,2,2.79.36,5.36-1,8-.72,1.39,1.48,2.42,2.2,1Z"/><path class="cls-30" d="M163.16,195.93h0a2.71,2.71,0,0,0-.36-.1Z"/><path class="cls-30" d="M166.4,198.32c.09.14.17.28.25.43a6.45,6.45,0,0,0-1,.4,3.39,3.39,0,0,1,.75,2.35,4.13,4.13,0,0,1,.9-.34,7.69,7.69,0,0,1,0,1h0A5.55,5.55,0,0,0,166.4,198.32Z"/><path class="cls-30" d="M168.69,197.39a11,11,0,0,1,1,4.79c0-.21,0-.41,0-.62a3.36,3.36,0,0,1,.5.44,10.9,10.9,0,0,0-.41-3.21,5.6,5.6,0,0,0-.54-.17A7.16,7.16,0,0,0,168.69,197.39Z"/><path class="cls-30" d="M166,197.83Z"/><path class="cls-30" d="M166.34,198.22l-.1-.12Z"/><path class="cls-30" d="M158.14,193.12h0a5.07,5.07,0,0,1,.49.55c-.28.08-.55.17-.82.27a9.81,9.81,0,0,1,3.55-.65,6.07,6.07,0,0,0-.44-.68A7.86,7.86,0,0,0,158.14,193.12Z"/><path class="cls-30" d="M158.66,196.2a8.3,8.3,0,0,1,1.07-.34,8.26,8.26,0,0,1,.18,1h0a5.37,5.37,0,0,1,2.43-.19v-.19c0-.25-.06-.49-.1-.73a6.85,6.85,0,0,0-3.58.48Z"/><path class="cls-29" d="M232.26,184.29a9.91,9.91,0,0,1-2.83-3.66,5.1,5.1,0,0,1,1-4.67c1.69-2,4.91-.89,6.71.32a4.72,4.72,0,0,1,2.26,3.46c.06,1.88-1.65,2.55-3.27,2.27-2.91-.51-4.94-3.87-5-6.63,0-3.61,3.64-6,7-5.55a6.43,6.43,0,0,1,4,2,2.93,2.93,0,0,1-.23,4.35,4.15,4.15,0,0,1-4.48-.34,6,6,0,0,1-2.23-3.41c-.81-3.16,1.69-6.68,5-6.53,2.16.1,5.12,1.86,5.37,4.21.11,1.08-1.57,1-1.68,0a3,3,0,0,0-.54-.84,5.44,5.44,0,0,0-1.48-1.13,3.39,3.39,0,0,0-3.61,0c-2.34,1.74-1.91,5.87,1,6.77.69.22,1.74.28,2-.54s-.39-1.47-.91-1.87a5.45,5.45,0,0,0-4.43-.86,4.25,4.25,0,0,0-3.12,3.46,5.36,5.36,0,0,0,1.27,3.72,4.48,4.48,0,0,0,2,1.51c.91.32,1.77.16,1.45-.93-.4-1.34-2.06-2.19-3.28-2.58-1.42-.46-2.73-.19-3.22,1.34-.74,2.28.91,3.6,2.37,5,.78.75-.45,1.9-1.23,1.15Z"/><path class="cls-30" d="M234.57,172.25h0a1.48,1.48,0,0,1,.21-.14Z"/><path class="cls-30" d="M233,174.52a3.4,3.4,0,0,0-.07.34,4.84,4.84,0,0,1,.76,0,2.34,2.34,0,0,0,0,1.7,3.88,3.88,0,0,0-.67,0,4.26,4.26,0,0,0,.22.63h0A3.86,3.86,0,0,1,233,174.52Z"/><path class="cls-30" d="M231.25,174.4a7.65,7.65,0,0,0,.38,3.36c0-.13-.1-.27-.14-.4a2.87,2.87,0,0,0-.23.39,7.3,7.3,0,0,1-.42-2.19,2.35,2.35,0,0,1,.32-.23A4.73,4.73,0,0,1,231.25,174.4Z"/><path class="cls-30" d="M233.09,174.12Z"/><path class="cls-30" d="M233,174.45s0-.07,0-.11A.49.49,0,0,1,233,174.45Z"/><path class="cls-30" d="M237.26,169.33h0a5.11,5.11,0,0,0-.2.47q.3,0,.6,0a6.73,6.73,0,0,0-2.48.33c0-.18.09-.36.14-.54A5.47,5.47,0,0,1,237.26,169.33Z"/><path class="cls-30" d="M237.58,171.46a6.57,6.57,0,0,0-.77,0,3.84,3.84,0,0,0,.09.68h0a3.65,3.65,0,0,0-1.64.4l0-.13a4.37,4.37,0,0,1-.09-.5,4.72,4.72,0,0,1,2.45-.46Z"/></g><g class="cls-15"><path class="cls-16" d="M169.2,156.34c.13,3.14,1.81,5.77,3.77,8.12,1.15,1.39,3.12-.6,2-2-1.46-1.75-2.86-3.8-2.95-6.14-.07-1.8-2.87-1.81-2.8,0Z"/><path class="cls-16" d="M176.9,167.53a1.4,1.4,0,0,0,0-2.8,1.4,1.4,0,0,0,0,2.8Z"/><path class="cls-16" d="M179.55,169.21h.15a1.4,1.4,0,0,0,0-2.8h-.15a1.4,1.4,0,0,0,0,2.8Z"/><path class="cls-16" d="M181.09,155.78a8.72,8.72,0,0,0,3.21,5.46c1.34,1.21,3.32-.77,2-2-1-.9-2.23-2-2.39-3.48a1.42,1.42,0,0,0-1.4-1.4,1.4,1.4,0,0,0-1.4,1.4Z"/><path class="cls-16" d="M188.51,163.47a1.4,1.4,0,0,0,0-2.8,1.4,1.4,0,0,0,0,2.8Z"/><path class="cls-16" d="M201.65,169.43a8.41,8.41,0,0,0,8.27-.56c1.5-1,.11-3.39-1.42-2.41a5.64,5.64,0,0,1-5.44.56c-1.6-.83-3,1.59-1.41,2.41Z"/><path class="cls-16" d="M211.45,166.69a1.4,1.4,0,0,0,0-2.8,1.4,1.4,0,0,0,0,2.8Z"/><path class="cls-16" d="M203.42,150.19c1.17-2.47,2.85-3.87,5.65-3.93a1.4,1.4,0,0,0,0-2.79,8.64,8.64,0,0,0-8.06,5.31c-.77,1.62,1.64,3,2.41,1.41Z"/><path class="cls-16" d="M210.75,145.15c-.07-2.68,1.21-4.27,3.5-5.51,1.59-.86.18-3.28-1.41-2.42-3.13,1.7-5,4.29-4.89,7.93,0,1.8,2.84,1.8,2.8,0Z"/><path class="cls-16" d="M216.63,138.71a1.4,1.4,0,0,0,0-2.8,1.4,1.4,0,0,0,0,2.8Z"/><path class="cls-16" d="M236.26,150.41c11.42,3.42,22.06-3.1,26.89-13.51.76-1.63-1.65-3.05-2.41-1.41-4.31,9.28-13.44,15.3-23.74,12.22a1.4,1.4,0,0,0-.74,2.7Z"/><path class="cls-16" d="M262.93,132.56a1.4,1.4,0,0,0,0-2.8,1.4,1.4,0,0,0,0,2.8Z"/><path class="cls-16" d="M264.88,127.52v-.28a1.4,1.4,0,0,0-2.79,0v.28a1.4,1.4,0,0,0,2.79,0Z"/><path class="cls-16" d="M175.87,107.89c1.33-3.26,4.14-5.48,7-7.28,1.53-.94.13-3.37-1.41-2.41-3.61,2.22-6.71,5-8.34,9-.68,1.67,2,2.38,2.7.74Z"/><path class="cls-16" d="M184.3,98.85a1.85,1.85,0,0,0,.14.14,1.4,1.4,0,0,0,2-2,1.85,1.85,0,0,0-.14-.14,1.4,1.4,0,0,0-2,2Z"/><path class="cls-16" d="M167.67,107.57c-2.75-1.9-7.25-1-9.8.84-1.45,1-.05,3.48,1.41,2.41,1.79-1.3,5-2.2,7-.84,1.49,1,2.88-1.39,1.41-2.41Z"/><path class="cls-16" d="M154.37,112.56a.93.93,0,0,0,.14.14,1.39,1.39,0,0,0,2-2,.93.93,0,0,0-.14-.14,1.39,1.39,0,0,0-2,2Z"/><path class="cls-16" d="M176,75.11a30,30,0,0,0-15,8.06c-1.29,1.26.69,3.24,2,2a27.16,27.16,0,0,1,13.79-7.34c1.76-.39,1-3.08-.74-2.7Z"/><path class="cls-16" d="M180.81,76.88H181a1.4,1.4,0,0,0,0-2.79h-.14a1.4,1.4,0,0,0,0,2.79Z"/><path class="cls-16" d="M184.17,76.6h.14a1.4,1.4,0,0,0,0-2.79h-.14a1.4,1.4,0,0,0,0,2.79Z"/><path class="cls-16" d="M195.65,82.57a10.31,10.31,0,0,1,8,0c1.7.63,2.42-2.08.75-2.7a13.05,13.05,0,0,0-10.17.28c-1.64.75-.22,3.16,1.41,2.42Z"/><path class="cls-16" d="M223.67,70.4a38.21,38.21,0,0,1,9.73,3.49c1.58.87,3-1.54,1.42-2.41a40.57,40.57,0,0,0-10.41-3.78c-1.76-.41-2.5,2.29-.74,2.7Z"/><path class="cls-16" d="M219.56,69.47a1.4,1.4,0,0,0,0-2.8,1.4,1.4,0,0,0,0,2.8Z"/><path class="cls-16" d="M218.86,116.05c6.28.69,12.37,4.8,13.9,11.14.42,1.76,3.12,1,2.7-.74-1.84-7.63-9.11-12.37-16.6-13.2-1.79-.19-1.77,2.61,0,2.8Z"/><path class="cls-16" d="M220.12,114.93c0-4.19-1.24-7.42-4.61-10-1.43-1.1-2.82,1.33-1.41,2.42,2.54,2,3.2,4.52,3.22,7.6a1.4,1.4,0,0,0,2.8,0Z"/><path class="cls-16" d="M211,104a1.4,1.4,0,0,0,0-2.8,1.4,1.4,0,0,0,0,2.8Z"/><path class="cls-16" d="M206.12,101.93l.14.14a1.4,1.4,0,0,0,2-2,1.85,1.85,0,0,1-.14-.14,1.4,1.4,0,0,0-2,2Z"/><path class="cls-16" d="M189.49,125.49c-5.48,2.11-7.72,8.2-9.07,13.46a1.4,1.4,0,0,0,2.7.75c1-4.12,2.72-9.83,7.11-11.51,1.67-.64,1-3.34-.74-2.7Z"/><path class="cls-16" d="M182.64,139.5c-.48-4.58-3.28-7.16-7.53-8.56-1.72-.56-2.45,2.14-.74,2.7,2.95,1,5.14,2.6,5.48,5.86.18,1.78,3,1.8,2.79,0Z"/></g><path class="cls-25" d="M164.5,104.6a14.5,14.5,0,0,1,7.17,1.89,16.44,16.44,0,0,1,27.53-8,16.44,16.44,0,0,1,24.56,12.64,20.29,20.29,0,0,1,14.1,16.69,17.9,17.9,0,0,0-12-20.8,17.59,17.59,0,0,0,.9-5.55,17.87,17.87,0,0,0-28.51-14.38,20.38,20.38,0,0,0-29.93,15,12.64,12.64,0,0,0-16.17,9.36A14.58,14.58,0,0,1,164.5,104.6Z"/><path class="cls-25" d="M237.41,137.42a7.51,7.51,0,0,0-3.7,1,8.49,8.49,0,0,0-14.21-4.12,8.48,8.48,0,0,0-12.67,6.53,10.46,10.46,0,0,0-7.28,8.61,9.63,9.63,0,0,1-.21-1.95,9.22,9.22,0,0,1,6.4-8.78,9.42,9.42,0,0,1-.46-2.87A9.22,9.22,0,0,1,220,128.39a10.51,10.51,0,0,1,15.45,7.73,6.4,6.4,0,0,1,2-.31,6.51,6.51,0,0,1,6.37,5.14A7.5,7.5,0,0,0,237.41,137.42Z"/><path class="cls-24" d="M217.32,166.92a7.45,7.45,0,0,1-3.7-1,8.49,8.49,0,0,1-14.21,4.12,8.49,8.49,0,0,1-12.68-6.53,10.46,10.46,0,0,1-7.27-8.61,9,9,0,0,0-.21,1.95,9.21,9.21,0,0,0,6.4,8.78,9.13,9.13,0,0,0-.46,2.87A9.22,9.22,0,0,0,199.9,176a10.5,10.5,0,0,0,15.44-7.73,6.51,6.51,0,0,0,8.35-4.83A7.5,7.5,0,0,1,217.32,166.92Z"/><path class="cls-24" d="M215,159.43a3.43,3.43,0,0,0,1.69-.44,3.86,3.86,0,0,0,6.45,1.87,3.9,3.9,0,0,0,1.92.51,3.86,3.86,0,0,0,3.84-3.47,4.76,4.76,0,0,0,3.3-3.92,4.41,4.41,0,0,1,.1.89,4.19,4.19,0,0,1-2.91,4,4,4,0,0,1,.21,1.3,4.2,4.2,0,0,1-4.19,4.2,4.14,4.14,0,0,1-2.49-.83,4.77,4.77,0,0,1-7-3.51,2.93,2.93,0,0,1-.9.14,3,3,0,0,1-2.89-2.33A3.4,3.4,0,0,0,215,159.43Z"/><polygon class="cls-17" points="159.68 219.06 160.49 228.13 163.75 221.6 159.68 219.06"/><polygon class="cls-18" points="160.14 216.4 160.49 228.13 164.5 218.78 160.14 216.4"/><polygon class="cls-17" points="235.63 234.03 233.19 225.54 237.06 224.16 235.63 234.03"/><polygon class="cls-18" points="235.63 234.03 233.52 224.78 236.84 224 235.63 234.03"/><g class="cls-31"><path class="cls-32" d="M153,127.6c.11-.11.21-.24.32-.35l-.79-.38Z"/><path class="cls-33" d="M207.76,102.94c28.47,6.11,50,15.13,61.12,23.3,0,0,0-.08,0-.13a28.27,28.27,0,0,0-.25-3.7c-13.5-9-36.76-17.45-60.24-22.48-21.19-4.55-43.37-6.51-59.26-4.86q-.57,1.53-1,3.12C162.05,96.49,183,97.63,207.76,102.94Z"/></g><g class="cls-34"><path class="cls-32" d="M252.51,86.37q-.69-1.66-1.53-3.24a52.6,52.6,0,0,0-14.34,2.72c-12,3.74-26.53,10.9-40.87,20.18s-26.83,19.59-35.16,29c-5.41,6.13-8.66,11.41-9.7,15.67a18.63,18.63,0,0,0,2.92,1.8c.5-3.72,3.69-9.12,9.18-15.34,8.15-9.22,20.4-19.32,34.5-28.44C221.4,93.27,242.46,85.83,252.51,86.37Z"/><path class="cls-32" d="M256.49,102.88c0,.29.07.58.1.87l.37-.54Z"/></g><path class="cls-3" d="M208.83,93.47c-41-8.8-85.46-8.72-88.75,6.64-1.66,7.73,8,17,26.59,25.78a18.25,18.25,0,0,1,2.19-2.69c-17.11-8-26.79-16.37-25.5-22.39,2.2-10.26,36.79-14.35,84.77-4.06s77.84,28.19,75.64,38.46c-1,4.71-9,8.11-21.88,9.4A28.1,28.1,0,0,1,258,148.3c10.74-.67,27.14-3.2,29.11-12.39C290.35,120.54,249.87,102.26,208.83,93.47Z"/><path class="cls-35" d="M148.86,123.2c-.93-.43-1.83-.86-2.72-1.29-.51.61-1.33,1.61-2.13,2.68.87.44,1.75.87,2.66,1.3A18.25,18.25,0,0,1,148.86,123.2Z"/><path class="cls-35" d="M266.27,144.06c-1.39.21-2.85.4-4.38.55A28.1,28.1,0,0,1,258,148.3c1.5-.1,3.1-.23,4.76-.41A38.89,38.89,0,0,0,266.27,144.06Z"/><path class="cls-35" d="M207.24,96.57l4.59-2.44-3-.66-3.78-.79-1.48.54-1.77,2.25C203.6,95.82,205.41,96.18,207.24,96.57Z"/><path class="cls-36" d="M259.61,79.76c-3.19-4.92-12-5.32-25.35-1.16-12.57,3.91-27.75,11.4-42.75,21.11s-28.06,20.48-36.77,30.34c-9.29,10.51-12.52,18.67-9.34,23.59,1.73,2.66,5.11,4,10,4a45.06,45.06,0,0,0,10.77-1.55A20.85,20.85,0,0,1,166,154a18.16,18.16,0,0,1-4,.45,18,18,0,0,1-3.46-.33c-5.27.56-8.93-.2-10.27-2.27-2.18-3.37,1.2-10.68,9-19.55,8.52-9.64,21.33-20.2,36.09-29.74,32-20.7,59.11-27.65,63.45-21,1.39,2.16.51,6-2.41,10.79a34.93,34.93,0,0,1,.73,4.95C260.56,89.7,262.13,83.66,259.61,79.76Z"/><path class="cls-37" d="M256,89.43a28.61,28.61,0,0,1-1.57,2.94,34.93,34.93,0,0,1,.73,4.95c.72-1,1.37-2,2-2.94A46.82,46.82,0,0,0,256,89.43Z"/><path class="cls-37" d="M166.16,156.09A20.85,20.85,0,0,1,166,154a18.16,18.16,0,0,1-4,.45,18,18,0,0,1-3.46-.33,26.33,26.33,0,0,1-3.77.16A17.68,17.68,0,0,0,162,157C163.36,156.73,164.72,156.45,166.16,156.09Z"/><g class="cls-34"><path class="cls-32" d="M203.45,186.81a75.4,75.4,0,0,0-15.23,3.54v2.17a65.8,65.8,0,0,1,15.49-3.72c7.75-1.05,13.48-.93,16.67-.45v-2C215.63,185.61,208.42,186.14,203.45,186.81Z"/></g><path class="cls-3" d="M227.74,185.39c-.61-4.52-15.61-3.72-24.38-2.54s-23.44,4.4-22.82,8.93c.25,1.85,2.77,2.93,7.69,3.31v-2.25c-4-.33-5.35-1.11-5.48-1.33.24-1.29,7.63-4.64,20.91-6.44s21.3-.53,21.86.59c-.05.31-1.16,1.46-5.14,2.89v2.37C225.59,189.16,228,187.35,227.74,185.39Z"/><path class="cls-38" d="M221.56,188.09l-1.18.46v2.37l1.18-.42Z"/><rect class="cls-1" x="215.18" y="186.09" width="5.2" height="6.62"/><path class="cls-36" d="M205.44,192.57a72.42,72.42,0,0,0-13.83-2.42c-4.59-.26-6.93.42-7.38,2.11-.39,1.49.9,3,4,4.74v-2.6a5.48,5.48,0,0,1-1.78-1.56c1.08-.83,7.85-.9,18.43,1.89s16.42,6.19,17,7.45a3.89,3.89,0,0,1-1.46.4v2.25c1.23-.12,3.26-.51,3.66-2.06C225.33,197.88,206.26,192.78,205.44,192.57Z"/><path class="cls-37" d="M221.43,202.35a6.15,6.15,0,0,1-1.05.23v2.25a9.65,9.65,0,0,0,1.05-.16Z"/><polygon class="cls-3" points="147.52 68.29 148.57 70.41 150.9 70.75 149.21 72.4 149.61 74.72 147.52 73.63 145.43 74.72 145.83 72.4 144.14 70.75 146.48 70.41 147.52 68.29"/><polygon class="cls-36" points="243.78 84.33 244.83 86.45 247.16 86.79 245.47 88.44 245.87 90.77 243.78 89.67 241.69 90.77 242.09 88.44 240.4 86.79 242.74 86.45 243.78 84.33"/><polygon class="cls-36" points="141.77 154.43 142.81 156.54 145.15 156.88 143.46 158.53 143.86 160.86 141.77 159.76 139.68 160.86 140.07 158.53 138.39 156.88 140.72 156.54 141.77 154.43"/><polygon class="cls-36" points="149.75 157.64 150.28 158.7 151.44 158.87 150.6 159.69 150.8 160.86 149.75 160.31 148.71 160.86 148.91 159.69 148.06 158.87 149.23 158.7 149.75 157.64"/><polygon class="cls-3" points="175.09 207.42 176.13 209.54 178.47 209.88 176.78 211.53 177.18 213.86 175.09 212.76 173 213.86 173.4 211.53 171.71 209.88 174.04 209.54 175.09 207.42"/><polygon class="cls-36" points="253.82 82.43 254.2 83.2 255.04 83.32 254.43 83.92 254.58 84.76 253.82 84.36 253.06 84.76 253.21 83.92 252.6 83.32 253.44 83.2 253.82 82.43"/><polygon class="cls-36" points="142.99 145.97 143.37 146.73 144.21 146.86 143.6 147.45 143.75 148.29 142.99 147.9 142.24 148.29 142.38 147.45 141.77 146.86 142.61 146.73 142.99 145.97"/><polygon class="cls-3" points="273.88 111.49 274.58 112.91 276.14 113.14 275.01 114.25 275.28 115.81 273.88 115.07 272.48 115.81 272.74 114.25 271.61 113.14 273.17 112.91 273.88 111.49"/><polygon class="cls-3" points="133.19 64.77 133.82 65.92 134.97 66.55 133.82 67.18 133.19 68.33 132.56 67.18 131.41 66.55 132.56 65.92 133.19 64.77"/><polygon class="cls-3" points="136.75 83.6 137.16 84.34 137.9 84.75 137.16 85.15 136.75 85.9 136.34 85.15 135.6 84.75 136.34 84.34 136.75 83.6"/><polygon class="cls-3" points="156.26 74.6 156.67 75.34 157.41 75.75 156.67 76.15 156.26 76.9 155.85 76.15 155.11 75.75 155.85 75.34 156.26 74.6"/><polygon class="cls-3" points="150.9 82.45 151.31 83.19 152.05 83.6 151.31 84 150.9 84.75 150.5 84 149.75 83.6 150.5 83.19 150.9 82.45"/><polygon class="cls-3" points="269.34 99.79 269.75 100.54 270.49 100.94 269.75 101.35 269.34 102.09 268.94 101.35 268.19 100.94 268.94 100.54 269.34 99.79"/><polygon class="cls-3" points="270.49 83.6 270.9 84.34 271.64 84.75 270.9 85.15 270.49 85.9 270.09 85.15 269.34 84.75 270.09 84.34 270.49 83.6"/><polygon class="cls-36" points="250.44 69.21 250.84 69.95 251.58 70.36 250.84 70.76 250.44 71.51 250.03 70.76 249.28 70.36 250.03 69.95 250.44 69.21"/><polygon class="cls-36" points="134.97 141.42 135.38 142.16 136.12 142.57 135.38 142.97 134.97 143.72 134.56 142.97 133.82 142.57 134.56 142.16 134.97 141.42"/><polygon class="cls-36" points="150.28 129.91 150.69 130.65 151.43 131.05 150.69 131.46 150.28 132.2 149.88 131.46 149.14 131.05 149.88 130.65 150.28 129.91"/><polygon class="cls-36" points="160.14 137.56 160.55 138.3 161.29 138.71 160.55 139.11 160.14 139.85 159.73 139.11 158.99 138.71 159.73 138.3 160.14 137.56"/><polygon class="cls-36" points="259.13 74.19 259.4 74.69 259.91 74.97 259.4 75.25 259.13 75.75 258.86 75.25 258.35 74.97 258.86 74.69 259.13 74.19"/><polygon class="cls-36" points="166.94 199.37 167.21 199.87 167.71 200.15 167.21 200.42 166.94 200.93 166.66 200.42 166.16 200.15 166.66 199.87 166.94 199.37"/><polygon class="cls-36" points="184.16 181.15 184.44 181.65 184.94 181.93 184.44 182.2 184.16 182.71 183.89 182.2 183.39 181.93 183.89 181.65 184.16 181.15"/><polygon class="cls-36" points="179.25 174.48 179.52 174.98 180.03 175.26 179.52 175.53 179.25 176.03 178.97 175.53 178.47 175.26 178.97 174.98 179.25 174.48"/><polygon class="cls-36" points="247.94 73.41 248.22 73.92 248.72 74.19 248.22 74.47 247.94 74.97 247.67 74.47 247.16 74.19 247.67 73.92 247.94 73.41"/><polygon class="cls-36" points="260.78 65.14 261.06 65.65 261.56 65.92 261.06 66.2 260.78 66.7 260.5 66.2 260 65.92 260.5 65.65 260.78 65.14"/><polygon class="cls-36" points="268.19 75.75 268.47 76.25 268.97 76.53 268.47 76.8 268.19 77.3 267.92 76.8 267.42 76.53 267.92 76.25 268.19 75.75"/><polygon class="cls-36" points="239.04 73.41 239.32 73.92 239.82 74.19 239.32 74.47 239.04 74.97 238.77 74.47 238.26 74.19 238.77 73.92 239.04 73.41"/><polygon class="cls-3" points="276.37 105.72 276.78 106.46 277.52 106.87 276.78 107.28 276.37 108.02 275.96 107.28 275.22 106.87 275.96 106.46 276.37 105.72"/><polygon class="cls-3" points="276.37 131.05 276.78 131.8 277.52 132.2 276.78 132.61 276.37 133.35 275.96 132.61 275.22 132.2 275.96 131.8 276.37 131.05"/><polygon class="cls-3" points="114.1 112.5 114.51 113.24 115.25 113.65 114.51 114.05 114.1 114.8 113.7 114.05 112.95 113.65 113.7 113.24 114.1 112.5"/><polygon class="cls-3" points="133.81 125.43 134.22 126.17 134.96 126.58 134.22 126.98 133.81 127.73 133.4 126.98 132.66 126.58 133.4 126.17 133.81 125.43"/><polygon class="cls-3" points="254.97 104.57 255.38 105.31 256.12 105.72 255.38 106.13 254.97 106.87 254.56 106.13 253.82 105.72 254.56 105.31 254.97 104.57"/><polygon class="cls-3" points="260.78 99.79 261.19 100.54 261.93 100.94 261.19 101.35 260.78 102.09 260.37 101.35 259.63 100.94 260.37 100.54 260.78 99.79"/><polygon class="cls-3" points="269.34 106.87 269.75 107.61 270.49 108.02 269.75 108.43 269.34 109.17 268.94 108.43 268.19 108.02 268.94 107.61 269.34 106.87"/><polygon class="cls-3" points="193.25 63.62 193.66 64.37 194.4 64.77 193.66 65.18 193.25 65.92 192.85 65.18 192.1 64.77 192.85 64.37 193.25 63.62"/><polygon class="cls-3" points="166.94 70.36 167.34 71.1 168.08 71.51 167.34 71.91 166.94 72.66 166.53 71.91 165.79 71.51 166.53 71.1 166.94 70.36"/><polygon class="cls-3" points="144.14 103.42 144.55 104.17 145.29 104.57 144.55 104.98 144.14 105.72 143.73 104.98 142.99 104.57 143.73 104.17 144.14 103.42"/><path class="cls-25" d="M174.05,148.3a8.46,8.46,0,0,1,11.42-2.19,6.74,6.74,0,0,0-6.23-4.21,6.63,6.63,0,0,0-4,1.32,9.05,9.05,0,0,0-8.63-6.38,8.36,8.36,0,0,0-.86.09A12.31,12.31,0,0,1,174.05,148.3Z"/><path class="cls-24" d="M198.37,154.93a5.24,5.24,0,0,0,7.06,1.35,4.16,4.16,0,0,1-3.85,2.61,4.1,4.1,0,0,1-2.45-.82,5.61,5.61,0,0,1-5.34,4,5,5,0,0,1-.54-.06A7.62,7.62,0,0,0,198.37,154.93Z"/><path class="cls-25" d="M209.58,81.81a10.66,10.66,0,0,0-14.37-2.75A8.41,8.41,0,0,1,208,75.42a11.38,11.38,0,0,1,10.85-8,9.58,9.58,0,0,1,1.09.11A15.5,15.5,0,0,0,209.58,81.81Z"/><polygon class="cls-3" points="224.9 214.76 234.62 193.85 234.62 198.19 248.31 186.65 233.35 207.42 233.35 202.8 224.9 214.76"/><polygon class="cls-3" points="180.82 206.76 171.1 185.85 171.1 190.19 157.41 178.65 172.37 199.42 172.37 194.8 180.82 206.76"/><polygon class="cls-36" points="226.81 205.12 226.82 195.13 227.61 196.84 230.88 189.81 228.79 200.7 227.95 198.88 226.81 205.12"/><polygon class="cls-39" points="177.66 192.68 177.65 182.69 176.86 184.39 173.59 177.37 175.68 188.25 176.52 186.44 177.66 192.68"/><polygon class="cls-36" points="233 216.14 242.39 212.76 241.06 214.08 248.78 214.78 237.83 216.5 239.25 215.09 233 216.14"/><path class="cls-37" d="M187.17,196.37q.48.31,1.05.63v-2.6a11.18,11.18,0,0,1-1.05-.77Z"/><path class="cls-22" d="M237.52,185a.56.56,0,1,0,.56-.56A.56.56,0,0,0,237.52,185Z"/><path class="cls-17" d="M228.44,236.05a174.27,174.27,0,0,1-48.28,0c-7.7-1.07-13.87,3.72-13.86,11.43v3.41c0,7.7,6.16,15.4,13.86,16.47q6.54.92,13.13,1.33v-.14a3.8,3.8,0,0,1,4-3.81c4.64.18,9.3.18,13.94,0a3.8,3.8,0,0,1,4,3.81v.14q6.58-.42,13.13-1.33c7.7-1.07,13.86-8.77,13.86-16.47v-3.41C242.3,239.77,236.14,235,228.44,236.05Z"/><path class="cls-40" d="M228.44,235.7a174.27,174.27,0,0,1-48.28,0c-7.7-1.06-13.87,3.72-13.86,11.44v3.41c0,7.69,6.16,15.4,13.86,16.46q6.54.92,13.13,1.34v-.15a3.81,3.81,0,0,1,4-3.81c4.64.19,9.3.19,13.94,0a3.81,3.81,0,0,1,4,3.81v.15q6.58-.42,13.13-1.34c7.7-1.06,13.86-8.77,13.86-16.46v-3.41C242.3,239.42,236.14,234.64,228.44,235.7Z"/><path class="cls-41" d="M228.44,234.51a174.27,174.27,0,0,1-48.28,0c-7.7-1.07-13.87,3.72-13.86,11.43v3.41c0,7.7,6.16,15.4,13.86,16.47q6.54.92,13.13,1.33V267a3.8,3.8,0,0,1,4-3.81c4.64.18,9.3.18,13.94,0a3.8,3.8,0,0,1,4,3.81v.14q6.58-.42,13.13-1.33c7.7-1.07,13.86-8.77,13.86-16.47v-3.41C242.3,238.23,236.14,233.44,228.44,234.51Z"/><path class="cls-42" d="M228.44,234.85a174.27,174.27,0,0,1-48.28,0c-7.7-1.07-13.87,3.72-13.86,11.43v3.41c0,7.7,6.16,15.4,13.86,16.47q6.54.91,13.13,1.33v-.14a3.8,3.8,0,0,1,4-3.81c4.64.19,9.3.19,13.94,0a3.8,3.8,0,0,1,4,3.81v.14q6.58-.42,13.13-1.33c7.7-1.07,13.86-8.77,13.86-16.47v-3.41C242.3,238.57,236.14,233.78,228.44,234.85Z"/><path class="cls-43" d="M228.44,264.46q-6.54.93-13.13,1.34v-.14a3.8,3.8,0,0,0-4-3.81c-4.64.18-9.3.18-13.94,0a3.8,3.8,0,0,0-4,3.81v.14q-6.58-.42-13.13-1.34c-7.7-1.06-13.87-8.76-13.86-16.46v1.69c0,7.7,6.16,15.4,13.86,16.47q6.54.91,13.13,1.33v-.14a3.8,3.8,0,0,1,4-3.81c4.64.19,9.3.19,13.94,0a3.8,3.8,0,0,1,4,3.81v.14q6.58-.42,13.13-1.33c7.7-1.07,13.86-8.77,13.86-16.47V248C242.3,255.69,236.14,263.4,228.44,264.46Z"/><path class="cls-44" d="M191.33,250.48a9.15,9.15,0,1,1-9.15-9.15A9.15,9.15,0,0,1,191.33,250.48Z"/><path class="cls-45" d="M184.73,246.06l-2.55,2.54-2.54-2.54a1.33,1.33,0,0,0-1.88,1.87l2.55,2.55L177.76,253a1.33,1.33,0,0,0,1.88,1.87l2.54-2.54,2.55,2.54a1.33,1.33,0,1,0,1.88-1.88l-2.55-2.54,2.55-2.55a1.33,1.33,0,1,0-1.88-1.87Z"/><path class="cls-44" d="M235,257.39a9.16,9.16,0,1,1-9.16-9.16A9.16,9.16,0,0,1,235,257.39Z"/><path class="cls-45" d="M228.37,253l-2.54,2.55L223.28,253a1.33,1.33,0,0,0-1.88,1.88l2.55,2.55-2.55,2.54a1.33,1.33,0,0,0,1.88,1.88l2.55-2.55,2.54,2.55a1.33,1.33,0,0,0,1.88-1.88l-2.55-2.54,2.55-2.55a1.33,1.33,0,0,0-1.88-1.88Z"/><g class="cls-46"><path class="cls-16" d="M233.43,235A110.47,110.47,0,0,1,215,267a4.11,4.11,0,0,1,.33,1.62v.15c3.17-.21,6.33-.54,9.49-.93a114.3,114.3,0,0,0,15-28.8A11,11,0,0,0,233.43,235Z"/><path class="cls-16" d="M193.29,268.76v-.15a3.87,3.87,0,0,1,4-4c2.87.12,5.75.16,8.62.13a133,133,0,0,0,17.79-29.34A167.33,167.33,0,0,1,200,236.51a94.89,94.89,0,0,1-23.45,29.77,13.25,13.25,0,0,0,3.65,1.09Q186.7,268.33,193.29,268.76Z"/><path class="cls-16" d="M193.54,236.23c-1.75-.12-3.48-.26-5.23-.43A100.38,100.38,0,0,1,168.72,259a19.19,19.19,0,0,0,2.24,3.11A115.73,115.73,0,0,0,193.54,236.23Z"/></g><path class="cls-47" d="M182.62,243a6,6,0,1,1-6-6A6,6,0,0,1,182.62,243Z"/><circle class="cls-47" cx="182.58" cy="239.68" r="2.69"/><path class="cls-47" d="M233.91,241.33a2.69,2.69,0,1,1-2.69-2.69A2.69,2.69,0,0,1,233.91,241.33Z"/><path class="cls-47" d="M235.9,242.67a2,2,0,1,1-2-2A2,2,0,0,1,235.9,242.67Z"/><path class="cls-17" d="M204.14,269.88a30.39,30.39,0,0,0-25.65,13.76,53.93,53.93,0,0,0,51.28,0A30.36,30.36,0,0,0,204.14,269.88Z"/><path class="cls-48" d="M204.14,269.88A30,30,0,0,0,178.8,283.8a53.89,53.89,0,0,0,50.68,0A30,30,0,0,0,204.14,269.88Z"/><path class="cls-49" d="M228.14,284.46c.45-.22.9-.43,1.34-.66a30,30,0,0,0-25.34-13.92C214,269.88,222.66,275.61,228.14,284.46Z"/><path class="cls-49" d="M204.14,269.88A30,30,0,0,0,178.8,283.8c.43.23.89.44,1.33.66C185.61,275.61,194.32,269.88,204.14,269.88Z"/><polygon class="cls-18" points="160.14 216.4 160.49 228.13 164.5 218.78 160.14 216.4"/><path class="cls-17" d="M226.49,270.24a3.86,3.86,0,1,1-1.13,5.34A3.87,3.87,0,0,1,226.49,270.24Z"/><path class="cls-50" d="M226.46,270.38a3.76,3.76,0,1,1-1.1,5.2A3.76,3.76,0,0,1,226.46,270.38Z"/><path class="cls-11" d="M227.15,271.43a2.51,2.51,0,1,1-.74,3.47A2.51,2.51,0,0,1,227.15,271.43Z"/><path class="cls-51" d="M230.5,272.24a2.5,2.5,0,0,0-3.41-.77l.06,0a2.51,2.51,0,0,1,2.73,4.21l-.06,0A2.51,2.51,0,0,0,230.5,272.24Z"/><path class="cls-52" d="M227.65,272.21a1.58,1.58,0,1,1-.46,2.18A1.58,1.58,0,0,1,227.65,272.21Z"/><path class="cls-17" d="M233.62,267.6a2.2,2.2,0,1,1-.65,3A2.2,2.2,0,0,1,233.62,267.6Z"/><path class="cls-50" d="M233.6,267.68a2.14,2.14,0,1,1-.63,3A2.13,2.13,0,0,1,233.6,267.68Z"/><path class="cls-44" d="M234,268.28a1.42,1.42,0,1,1-.42,2A1.41,1.41,0,0,1,234,268.28Z"/><path class="cls-53" d="M235.9,268.74a1.43,1.43,0,0,0-1.94-.44l0,0a1.42,1.42,0,1,1,1.55,2.39l0,0A1.43,1.43,0,0,0,235.9,268.74Z"/><path class="cls-45" d="M234.28,268.72A.9.9,0,1,1,234,270,.89.89,0,0,1,234.28,268.72Z"/><path class="cls-17" d="M238.42,264.48a2.2,2.2,0,1,1-.64,3A2.2,2.2,0,0,1,238.42,264.48Z"/><path class="cls-50" d="M238.41,264.56a2.14,2.14,0,1,1-.63,3A2.13,2.13,0,0,1,238.41,264.56Z"/><path class="cls-54" d="M238.79,265.15a1.43,1.43,0,1,1-.42,2A1.44,1.44,0,0,1,238.79,265.15Z"/><path class="cls-55" d="M240.71,265.62a1.44,1.44,0,0,0-2-.44s0,0,0,0a1.43,1.43,0,0,1,1.56,2.4l0,0A1.42,1.42,0,0,0,240.71,265.62Z"/><path class="cls-56" d="M239.09,265.6a.89.89,0,1,1-.27,1.24A.9.9,0,0,1,239.09,265.6Z"/><path class="cls-17" d="M216,278.81a12.46,12.46,0,0,0-10.58-5.95,13.08,13.08,0,0,0-2.64.28,12.39,12.39,0,0,0-9.65,10.66,3.25,3.25,0,0,0,2.83,3.59l.39,0a3.21,3.21,0,0,0,.68-.07,3.24,3.24,0,0,0,2.52-2.79,5.9,5.9,0,0,1,4.61-5.09,6,6,0,0,1,6.32,2.71,3.23,3.23,0,0,0,4.44,1.08A3.24,3.24,0,0,0,216,278.81Z"/><path class="cls-57" d="M216,278.68a12.47,12.47,0,0,0-10.58-5.95,12.34,12.34,0,0,0-12.29,10.94,3.23,3.23,0,0,0,2.83,3.58l.38,0a3.26,3.26,0,0,0,3.21-2.86,5.91,5.91,0,0,1,4.61-5.1,6,6,0,0,1,6.32,2.72,3.23,3.23,0,0,0,4.44,1.08A3.25,3.25,0,0,0,216,278.68Z"/><path class="cls-42" d="M196.85,286.38a2.31,2.31,0,0,1-.79,0,2.39,2.39,0,0,1-2.1-2.65,11.53,11.53,0,0,1,21.32-4.65,2.39,2.39,0,0,1-4.09,2.48,6.75,6.75,0,0,0-12.48,2.72A2.37,2.37,0,0,1,196.85,286.38Z"/><g class="cls-46"><path class="cls-16" d="M154.61,238.62c-.11,9,2.08,17.37,5.66,25.56,1.45,3.3,6.26.45,4.83-2.83a54.71,54.71,0,0,1-4.9-22.73c.05-3.61-5.55-3.6-5.59,0Z"/><path class="cls-16" d="M157.16,233.88c3.6,0,3.6-5.6,0-5.6s-3.61,5.6,0,5.6Z"/><path class="cls-16" d="M248.16,245.67a21.08,21.08,0,0,1-1.91,9.06,2.8,2.8,0,0,0,1.95,3.44,2.86,2.86,0,0,0,3.44-1.95,24.81,24.81,0,0,0,2.12-10.55c-.19-3.59-5.79-3.61-5.6,0Z"/><path class="cls-16" d="M251.21,240.92c3.61,0,3.61-5.6,0-5.6s-3.61,5.6,0,5.6Z"/><path class="cls-16" d="M133,239.43a1.4,1.4,0,0,0,0-2.8,1.4,1.4,0,0,0,0,2.8Z"/><path class="cls-16" d="M139.83,230.63a20.26,20.26,0,0,0-1.88,6.66c-.3,1.76,2.39,2.52,2.7.74a18.45,18.45,0,0,1,1.59-6,1.4,1.4,0,0,0-2.41-1.41Z"/><path class="cls-16" d="M139.67,243.4a1.4,1.4,0,0,0,0-2.8,1.4,1.4,0,0,0,0,2.8Z"/><path class="cls-16" d="M146.12,240.17a1.4,1.4,0,0,0,0-2.8,1.4,1.4,0,0,0,0,2.8Z"/><path class="cls-16" d="M145.74,236.21a1.4,1.4,0,0,0,0-2.8,1.4,1.4,0,0,0,0,2.8Z"/><path class="cls-16" d="M146.24,232.74a1.4,1.4,0,0,0,0-2.8,1.4,1.4,0,0,0,0,2.8Z"/><path class="cls-16" d="M274.72,239.43a1.4,1.4,0,0,1,0-2.8,1.4,1.4,0,0,1,0,2.8Z"/><path class="cls-16" d="M267.87,230.63a20.26,20.26,0,0,1,1.88,6.66c.3,1.76-2.39,2.52-2.7.74a18.45,18.45,0,0,0-1.59-6,1.4,1.4,0,0,1,2.41-1.41Z"/><path class="cls-16" d="M268,243.4a1.4,1.4,0,0,1,0-2.8,1.4,1.4,0,0,1,0,2.8Z"/><path class="cls-16" d="M261.58,240.17a1.4,1.4,0,0,1,0-2.8,1.4,1.4,0,0,1,0,2.8Z"/><path class="cls-16" d="M262,236.21a1.4,1.4,0,0,1,0-2.8,1.4,1.4,0,0,1,0,2.8Z"/><path class="cls-16" d="M261.46,232.74a1.4,1.4,0,0,1,0-2.8,1.4,1.4,0,0,1,0,2.8Z"/></g><path class="cls-23" d="M176.85,45.05c.45,4.57-2.08,7.27-5.45,7.74S165,51,164.28,47.06c-.75-4.16,1.59-7.4,5.43-7.93S176.46,41.12,176.85,45.05Zm-10.68,1.66c.47,2.81,2.43,5.06,5.14,4.68s4-3,3.66-6c-.29-2.63-2.09-5.23-5.16-4.81S165.69,43.82,166.17,46.71Z"/><path class="cls-23" d="M190.62,44.12c.12,4.58-2.6,7.09-6,7.31s-6.25-2.22-6.67-6.23c-.44-4.21,2.12-7.27,6-7.52S190.52,40.17,190.62,44.12ZM179.87,45c.26,2.84,2,5.22,4.77,5s4.2-2.73,4.08-5.76c-.09-2.64-1.69-5.36-4.77-5.17S179.6,42.07,179.87,45Z"/><path class="cls-23" d="M204.41,44.2c-.22,4.58-3.12,6.88-6.51,6.85s-6.06-2.67-6.18-6.71c-.13-4.22,2.64-7.08,6.51-7.05S204.6,40.25,204.41,44.2Zm-10.78.07c.05,2.85,1.65,5.36,4.38,5.38s4.39-2.42,4.5-5.44c.1-2.65-1.29-5.48-4.38-5.51S193.58,41.34,193.63,44.27Z"/><path class="cls-23" d="M206.66,37.93a20.59,20.59,0,0,1,3.58,0,6,6,0,0,1,3.92,1.43,3.43,3.43,0,0,1,1,2.9A3.84,3.84,0,0,1,213.79,45a6.1,6.1,0,0,1-4.34,1.11,7,7,0,0,1-1.42-.21c-.12,1.77-.23,3.55-.34,5.32l-1.73-.1Q206.32,44.51,206.66,37.93Zm1.45,6.52a6.09,6.09,0,0,0,1.48.24c2.15.16,3.55-.72,3.72-2.56s-1.09-2.72-3.13-2.87a7.73,7.73,0,0,0-1.74,0Z"/><path class="cls-23" d="M216.1,49.8a6.45,6.45,0,0,0,3,1.23c1.77.23,2.93-.54,3.12-1.87s-.45-2-2.22-3c-2.14-1-3.43-2.31-3.23-4.18.21-2.06,2.23-3.41,5-3a6.7,6.7,0,0,1,3.07,1.09l-.72,1.31a5.8,5.8,0,0,0-2.6-1c-1.94-.25-2.81.75-2.91,1.65-.15,1.24.64,1.94,2.46,2.9,2.23,1.17,3.24,2.44,2.94,4.37s-2.1,3.55-5.23,3.15a7.15,7.15,0,0,1-3.3-1.24C215.7,50.73,215.9,50.26,216.1,49.8Z"/><path class="cls-23" d="M225.21,52.13a1.16,1.16,0,0,1,1.37-1,1.14,1.14,0,0,1,1,1.41,1.15,1.15,0,0,1-1.36,1A1.17,1.17,0,0,1,225.21,52.13Zm.95-2.71q.63-4.71,1.24-9.42l2,.34q-1,4.65-1.9,9.31Z"/><polygon class="cls-23" points="246.76 45.37 247.66 47.01 249.29 47.9 247.66 48.8 246.76 50.43 245.87 48.8 244.24 47.9 245.87 47.01 246.76 45.37"/><polygon class="cls-23" points="161.85 37.86 162.75 39.5 164.38 40.39 162.75 41.28 161.85 42.92 160.96 41.28 159.32 40.39 160.96 39.5 161.85 37.86"/><polygon class="cls-23" points="166.08 35.35 166.53 36.16 167.35 36.61 166.53 37.06 166.08 37.88 165.63 37.06 164.82 36.61 165.63 36.16 166.08 35.35"/><polygon class="cls-23" points="168.38 54.68 168.84 55.5 169.65 55.95 168.84 56.4 168.38 57.21 167.94 56.4 167.12 55.95 167.94 55.5 168.38 54.68"/><polygon class="cls-23" points="244.24 51.24 244.69 52.06 245.5 52.51 244.69 52.95 244.24 53.77 243.79 52.95 242.97 52.51 243.79 52.06 244.24 51.24"/><path class="cls-3" d="M282.81,219.52l.58.24,4.48-3.2-1.88-.95Zm-1.63,2,1.63-2-5-2Zm6.69-5,4.93,2.5,1.71-2.62-5.31-.83Zm-19.57-.95-3.1,3.45,7.95-3.45,4.66,1.89-3.48-4.13Zm44.13-15.46,2.42,6.92.39-10.48Zm-17.92,16.29.36.06,4.59-2.09-3.27-.55Zm20.33-9-15.38,7,11.71,2,4.07-8.22-.39-1.11Z"/><g class="cls-58"><polygon class="cls-59" points="298.32 217.78 298.81 217.16 296.19 216.71 294.51 219.3 294.87 219.36 298.32 217.78"/><polygon class="cls-59" points="304.41 178.29 312.05 181.6 309.85 178.23 305.34 177.09 304.41 178.29"/><polygon class="cls-59" points="294.51 219.3 289.2 218.47 287.87 219.42 292.8 221.91 294.51 219.3"/><path class="cls-59" d="M324.6,180.71c-.34-.35-.69-.7-1.05-1l-3.86,1.85L315.27,183l-3.22-1.39,2.42,3.71Z"/><polygon class="cls-59" points="301.51 182.91 301.22 182.39 298.18 186.31 301.51 182.91"/><polygon class="cls-59" points="287.87 219.42 285.99 218.47 282.81 222.38 283.39 222.61 287.87 219.42"/><path class="cls-59" d="M312.11,217.36c-.88-.09-1.77-.17-2.68-.24l-.36,1.78,2.1.36Z"/><polygon class="cls-59" points="277.81 220.35 274.65 216.61 273.19 218.49 277.81 220.35"/><polygon class="cls-59" points="282.81 222.38 277.81 220.35 281.18 224.37 282.81 222.38"/></g><polygon class="cls-3" points="298.07 186.42 298.44 179.09 301.01 176.08 315.24 178.65 319.64 176.08 325.26 171.95 326.05 153.89 326.05 172.96 314.44 181.17 309.83 175.26 303.73 175.26 300.23 180.04 301.5 182.04 298.07 186.42"/><g class="cls-58"><polygon class="cls-59" points="104.2 242.85 98.97 242.85 98.66 242.98 104.15 242.98 104.2 242.85"/><polygon class="cls-59" points="113.08 236.63 115.63 232.04 113.08 232.91 113.08 236.63"/><polygon class="cls-59" points="128.9 226.3 116.66 230.18 115.63 232.04 130.25 227.03 128.9 226.3"/><polygon class="cls-59" points="122.32 221.37 121.81 222.46 128.9 226.3 129.73 226.04 122.32 221.37"/><path class="cls-59" d="M123.46,218.84l-2.13,1.91,1,.62,1.18-2.52Z"/></g><polygon class="cls-3" points="138.73 220.16 124.32 209.05 119.86 220.63 128.52 225.06 106.3 234.36 103.66 242.98 98.66 242.98 111.38 237.22 115.17 229.01 127.93 224 119.33 218.88 129.93 207.55 138.73 220.16"/><polygon class="cls-59" points="68.79 246.43 68.46 247.09 82.98 249.37 84.19 254.98 84.52 246.46 68.79 246.43"/><polygon class="cls-59" points="90.93 259.74 90.57 260.47 97.02 260.47 90.93 259.74"/><polygon class="cls-59" points="85.37 260.47 84.19 254.98 83.97 260.47 85.37 260.47"/><polygon class="cls-3" points="97.45 260.52 92.55 266.54 83.81 266.54 79.6 251.1 56.44 250.38 81.5 248 80.55 267.78 85.16 267.89 89.4 260.52 97.45 260.52"/><path class="cls-6" d="M278.94,322.18c0,1.29-3.79,2.34-8.46,2.34s-8.45-1-8.45-2.34,3.78-2.33,8.45-2.33S278.94,320.89,278.94,322.18Z"/><path class="cls-6" d="M278.16,322c0,.43-.94.78-2.11.78s-2.12-.35-2.12-.78.95-.77,2.12-.77S278.16,321.6,278.16,322Z"/><path class="cls-29" d="M277.52,321.56c.71-1.91,1.5-3.67,1.28-5.76a6.5,6.5,0,0,0-3.68-4.84c-3.05-1.41-6.15,1.64-7.56,4a6,6,0,0,0-.73,5.21c.95,2.2,3.28,2.05,5,.85,3.09-2.17,3.6-7.14,2.14-10.35-1.91-4.18-7.45-4.9-11-2.61a8.17,8.17,0,0,0-3.58,4.49c-.58,2,.35,4.51,2.62,4.88,2,.32,4-1.14,5-2.81a7.79,7.79,0,0,0,.72-5.15c-.78-4.07-5.57-6.78-9.34-4.79-2.44,1.29-4.89,4.92-3.9,7.76.45,1.3,2.37.34,1.92-.95a3.69,3.69,0,0,1,.16-1.25,7.06,7.06,0,0,1,1.09-2.11,4.29,4.29,0,0,1,4.16-2c3.64.72,5.38,5.71,2.56,8.32-.67.62-1.85,1.26-2.63.48s-.35-1.91,0-2.65a6.92,6.92,0,0,1,4.64-3.39,5.37,5.37,0,0,1,5.47,2.29,6.85,6.85,0,0,1,.56,5,5.7,5.7,0,0,1-1.54,2.85c-.89.88-2,1.15-2.18-.28-.27-1.76,1.18-3.64,2.37-4.75,1.39-1.3,3-1.7,4.45-.21,2.09,2.22.9,4.65,0,7.08-.48,1.3,1.55,2,2,.67Z"/><path class="cls-30" d="M268.33,308.93h0l-.32-.05Z"/><path class="cls-30" d="M271.42,310.67c.1.11.18.23.27.35a7.1,7.1,0,0,0-.86.46,3,3,0,0,1,.92,2,3.4,3.4,0,0,1,.75-.4,8,8,0,0,1,.09.84h0A4.89,4.89,0,0,0,271.42,310.67Z"/><path class="cls-30" d="M273.33,309.61a9.64,9.64,0,0,1,1.37,4.08c0-.18,0-.36-.05-.54a3.43,3.43,0,0,1,.48.33,9.41,9.41,0,0,0-.71-2.76,4.21,4.21,0,0,0-.49-.09A6.36,6.36,0,0,0,273.33,309.61Z"/><path class="cls-30" d="M271.05,310.28h0a0,0,0,0,0,0,0Z"/><path class="cls-30" d="M271.36,310.6l-.1-.1Z"/><path class="cls-30" d="M263.64,307h0a6.4,6.4,0,0,1,.49.42,7.32,7.32,0,0,0-.69.33,9,9,0,0,1,3-1,5.85,5.85,0,0,0-.45-.54A6.93,6.93,0,0,0,263.64,307Z"/><path class="cls-30" d="M264.43,309.66c.29-.15.59-.29.89-.41a5,5,0,0,1,.26.83h0a4.64,4.64,0,0,1,2.1-.43s0-.11,0-.17a6.25,6.25,0,0,0-.16-.62,6,6,0,0,0-3.09.8Z"/><g class="cls-34"><path class="cls-60" d="M126.08,352.38l-2-.28v3.59a.79.79,0,0,1-.93.78,1.09,1.09,0,0,1-.9-1v-9.76a.77.77,0,0,1,.9-.78h0l2.93.41a4.17,4.17,0,0,1,3.55,4A3,3,0,0,1,126.08,352.38Zm-2-2.12,2,.28a1.46,1.46,0,0,0,1.72-1.46,2,2,0,0,0-1.72-1.95l-2-.28Z"/><path class="cls-60" d="M138.22,355.67l-4-.47-.81,2.05a.79.79,0,0,1-.85.47.85.85,0,0,1-.32-.09,1.05,1.05,0,0,1-.54-1.26q1.81-4.64,3.64-9.3a.82.82,0,0,1,.88-.47,1,1,0,0,1,.87.68q1.83,5.09,3.65,10.17a.84.84,0,0,1-.54,1.13,1.09,1.09,0,0,1-.32,0,1,1,0,0,1-.84-.67Zm-.67-1.9c-.45-1.23-.89-2.47-1.34-3.71-.45,1.13-.89,2.26-1.34,3.4Z"/><path class="cls-60" d="M143.61,353.06a5.36,5.36,0,0,1,6.1-5.36,6.76,6.76,0,0,1,3.77,1.64,1,1,0,0,1,.18,1.36,1,1,0,0,1-1.34,0,4.69,4.69,0,0,0-2.61-1.13,3.78,3.78,0,0,0-3,.91,3.56,3.56,0,0,0-1.24,2.76,4.36,4.36,0,0,0,1.24,3,4.61,4.61,0,0,0,3,1.5,4.25,4.25,0,0,0,2.26-.42v-2.26l-2.36-.23a1.06,1.06,0,0,1-.94-1,.83.83,0,0,1,.94-.84l3.26.31h0a1,1,0,0,1,1,1v3.66a2,2,0,0,1-.05.28.26.26,0,0,0,0,.08h0a.67.67,0,0,1-.32.37,5.57,5.57,0,0,1-3.75.94A6.78,6.78,0,0,1,143.61,353.06Z"/><path class="cls-60" d="M159.24,359.54v-9.76a.82.82,0,0,1,.91-.84h0c1.78.14,3.57.27,5.36.39a1,1,0,0,1,.91,1,.86.86,0,0,1-.91.87l-4.49-.33v3l3.86.28a1,1,0,0,1,.91,1,.84.84,0,0,1-.91.86l-3.86-.28v3l4.49.33a1,1,0,0,1,.91,1,.86.86,0,0,1-.91.85l-5.36-.4s0,0,0,0v0A1,1,0,0,1,159.24,359.54Z"/><path class="cls-60" d="M178.17,360.76a.86.86,0,0,1-.89.87,1,1,0,0,1-.92-1v-9.62h0a.85.85,0,0,1,.37-.74.94.94,0,0,1,1.26.26q2.67,3.82,5.35,7.63v-6.82a.86.86,0,0,1,.9-.85.94.94,0,0,1,.91.92v9.62a.87.87,0,0,1-.91.87.93.93,0,0,1-.68-.35s-.07-.07-.08-.11q-2.65-3.77-5.31-7.58Z"/><path class="cls-60" d="M199.12,352.18a6.15,6.15,0,0,1,1.67,4.21,6,6,0,0,1-1.67,4.16,5.3,5.3,0,0,1-4,1.71,5.75,5.75,0,0,1-4.06-1.87,6.19,6.19,0,0,1-1.64-4.24,5.89,5.89,0,0,1,1.64-4.14,5.47,5.47,0,0,1,8,.17Zm-.22,4.18a4.35,4.35,0,0,0-1.13-2.91,3.62,3.62,0,0,0-2.62-1.22,3.48,3.48,0,0,0-2.68,1.11,4.09,4.09,0,0,0-1.13,2.87,4.24,4.24,0,0,0,1.13,2.91,3.68,3.68,0,0,0,2.68,1.25,3.51,3.51,0,0,0,2.62-1.14A4.17,4.17,0,0,0,198.9,356.36Z"/><path class="cls-60" d="M211.91,352.62h-2.64v8.84a.91.91,0,0,1-1.82,0v-8.84h-2.63a.93.93,0,0,1-.91-.93.89.89,0,0,1,.91-.91q3.56,0,7.09,0a.9.9,0,0,1,.91.9A1,1,0,0,1,211.91,352.62Z"/><path class="cls-60" d="M222.86,361.28v-9.77a.93.93,0,0,1,.91-.93h0l5.37-.17a.89.89,0,0,1,.92.87,1,1,0,0,1-.92,1c-1.49.06-3,.11-4.49.15v3l3.86-.12a.88.88,0,0,1,.91.87,1,1,0,0,1-.91,1l-3.86.13v4a1,1,0,0,1-.93.93A.87.87,0,0,1,222.86,361.28Z"/><path class="cls-60" d="M243.37,351.17a5.75,5.75,0,0,1,1.67,4.09,6.45,6.45,0,0,1-1.67,4.29,5.77,5.77,0,0,1-4,2,5.31,5.31,0,0,1-4.06-1.57,5.8,5.8,0,0,1-1.65-4.11,6.36,6.36,0,0,1,1.65-4.26,5.9,5.9,0,0,1,4.06-2A5.13,5.13,0,0,1,243.37,351.17Zm-.22,4.2a4,4,0,0,0-1.12-2.83,3.44,3.44,0,0,0-2.62-1,3.86,3.86,0,0,0-2.69,1.31,4.45,4.45,0,0,0-1.13,2.95,4,4,0,0,0,1.13,2.83,3.44,3.44,0,0,0,2.69,1,3.82,3.82,0,0,0,2.62-1.33A4.45,4.45,0,0,0,243.15,355.37Z"/><path class="cls-60" d="M254,360.59a4.37,4.37,0,0,1-4.79-4.43v-5.89a1,1,0,0,1,.91-1,.85.85,0,0,1,.93.85V356a2.69,2.69,0,0,0,3,2.72,3.22,3.22,0,0,0,2.94-3.18v-5.89a1,1,0,0,1,.93-1,.81.81,0,0,1,.91.83v5.89A5.27,5.27,0,0,1,254,360.59Z"/><path class="cls-60" d="M265.91,358.65a1,1,0,0,1-.89,1,.81.81,0,0,1-.91-.82V349.2h0a1,1,0,0,1,.36-.8.89.89,0,0,1,1.26.08l5.34,6.86v-6.82a1,1,0,0,1,.89-1,.81.81,0,0,1,.91.8v9.61a1,1,0,0,1-.91,1,.82.82,0,0,1-.68-.26l-.08-.09-5.29-6.81Z"/><path class="cls-60" d="M277.66,357.39v-9.76a1,1,0,0,1,.91-1l1.95-.23a5,5,0,0,1,5.75,5,6.74,6.74,0,0,1-5.75,6.54l-1.95.24A.8.8,0,0,1,277.66,357.39Zm1.83-1.14,1-.13a4.6,4.6,0,0,0,3.92-4.46,3.4,3.4,0,0,0-3.92-3.45l-1,.13Z"/><path class="cls-60" d="M291,352.61v-6.69a1.1,1.1,0,0,1,.91-1,.77.77,0,0,1,.89.79v6.69a1.06,1.06,0,0,1-.89,1A.77.77,0,0,1,291,352.61Zm.91,3.86a.77.77,0,0,1-.91-.78v-.33a1.09,1.09,0,0,1,.91-1,.77.77,0,0,1,.89.78v.33A1.06,1.06,0,0,1,291.89,356.47Z"/></g></g></g></svg>