<svg xmlns="http://www.w3.org/2000/svg" xmlns:xlink="http://www.w3.org/1999/xlink" viewBox="0 0 500 500"><defs><style>.cls-1{fill:none;}.cls-2{isolation:isolate;}.cls-3{fill:#ffdf00;}.cls-4{fill:url(#radial-gradient);}.cls-5{mix-blend-mode:overlay;fill:url(#radial-gradient-2);}.cls-6,.cls-60{fill:#ff770b;}.cls-26,.cls-34,.cls-47,.cls-49,.cls-6{opacity:0.3;}.cls-26,.cls-31,.cls-34,.cls-49,.cls-58,.cls-6{mix-blend-mode:multiply;}.cls-7{font-size:145.6px;letter-spacing:0.1em;}.cls-16,.cls-47,.cls-7,.cls-9{fill:#fff;}.cls-7,.cls-9{font-family:Aller-Bold, Aller Bold;font-weight:700;}.cls-8{fill:#ffdcc0;}.cls-9{font-size:145.6px;letter-spacing:0.1em;}.cls-10{fill:#1b63ca;}.cls-11{fill:#ff4146;}.cls-12{fill:#e83a3b;}.cls-13{fill:#dd0a2b;}.cls-14{fill:#b3001d;}.cls-15{opacity:0.1;}.cls-17,.cls-19{fill:#53e2f8;}.cls-18{fill:#1b90d8;}.cls-19,.cls-31{opacity:0.4;}.cls-20{fill:#1b319c;}.cls-21{clip-path:url(#clip-path);}.cls-22{fill:#ffff7f;}.cls-23{fill:#ff4308;}.cls-24{fill:#d72808;}.cls-25{fill:#ff7c08;}.cls-26,.cls-32,.cls-33{fill:#cd2308;}.cls-27{fill:#ea2c08;}.cls-28{fill:#ff2308;}.cls-29{fill:#e6ebe4;}.cls-30{fill:#cdd6e2;}.cls-33{opacity:0.5;}.cls-35{fill:#ff9000;}.cls-36{fill:#e10008;}.cls-37{fill:#a80008;}.cls-38{fill:#ffa300;}.cls-39{fill:#5a9eff;}.cls-40{fill:#1ba8d8;}.cls-41{fill:#1ba5dc;}.cls-42{fill:#00234a;}.cls-43{fill:#00132f;}.cls-44{fill:#ff0;}.cls-45{fill:#ff9100;}.cls-46{opacity:0.2;}.cls-48{fill:#0b2ea4;}.cls-49{fill:#0b2a86;}.cls-50{fill:#0b46af;}.cls-51{fill:#ff6c46;}.cls-52{fill:#dc1b26;}.cls-53{fill:#ffff87;}.cls-54{fill:#24d971;}.cls-55{fill:#71f771;}.cls-56{fill:#067f6c;}.cls-57{fill:#0b6ed4;}.cls-59{fill:#dbe6ff;}</style><radialGradient id="radial-gradient" cx="247.16" cy="170.83" r="144.41" gradientUnits="userSpaceOnUse"><stop offset="0" stop-color="#ffde1d"/><stop offset="1" stop-color="#ffab1d" stop-opacity="0"/></radialGradient><radialGradient id="radial-gradient-2" cx="249.48" cy="174.01" r="87.5" gradientUnits="userSpaceOnUse"><stop offset="0" stop-color="#ffffb9"/><stop offset="1" stop-color="#ffab1d" stop-opacity="0"/></radialGradient><clipPath id="clip-path"><path class="cls-1" d="M285.89,261.9c0,6.44-17.75,11.65-39.64,11.65s-39.64-5.21-39.64-11.65c-11.59,2.84-20.06,1.38-24.25-6.67-45-86.47,8.6-156.76,49.5-162.93C300.9,81.88,363.13,138.26,285.89,261.9Z"/></clipPath></defs><g class="cls-2"><g id="BACKGROUND_1" data-name="BACKGROUND 1"><polygon class="cls-3" points="393.65 183.5 394.05 184.22 394.77 184.62 394.05 185.02 393.65 185.75 393.25 185.02 392.52 184.62 393.25 184.22 393.65 183.5"/><polygon class="cls-3" points="418.55 155.64 418.95 156.37 419.68 156.76 418.95 157.16 418.55 157.89 418.15 157.16 417.43 156.76 418.15 156.37 418.55 155.64"/><polygon class="cls-3" points="368.83 156.18 369.23 156.91 369.96 157.3 369.23 157.7 368.83 158.43 368.44 157.7 367.71 157.3 368.44 156.91 368.83 156.18"/><polygon class="cls-3" points="385.83 209.78 386.23 210.5 386.95 210.9 386.23 211.3 385.83 212.03 385.43 211.3 384.7 210.9 385.43 210.5 385.83 209.78"/><polygon class="cls-3" points="442.41 232.19 442.81 232.92 443.53 233.32 442.81 233.72 442.41 234.44 442.01 233.72 441.28 233.32 442.01 232.92 442.41 232.19"/><polygon class="cls-3" points="354.71 182.52 355.12 183.25 355.84 183.64 355.12 184.04 354.71 184.77 354.32 184.04 353.59 183.64 354.32 183.25 354.71 182.52"/><polygon class="cls-3" points="343.59 156.18 343.99 156.91 344.71 157.3 343.99 157.7 343.59 158.43 343.19 157.7 342.46 157.3 343.19 156.91 343.59 156.18"/><polygon class="cls-3" points="359.71 133.36 360.11 134.09 360.83 134.49 360.11 134.89 359.71 135.62 359.31 134.89 358.58 134.49 359.31 134.09 359.71 133.36"/><polygon class="cls-3" points="392.52 147.45 392.92 148.18 393.65 148.58 392.92 148.98 392.52 149.71 392.13 148.98 391.4 148.58 392.13 148.18 392.52 147.45"/><polygon class="cls-3" points="441.28 110.29 441.68 111.02 442.41 111.42 441.68 111.81 441.28 112.54 440.89 111.81 440.16 111.42 440.89 111.02 441.28 110.29"/><polygon class="cls-3" points="457.48 168.28 457.88 169.01 458.61 169.41 457.88 169.8 457.48 170.53 457.09 169.8 456.36 169.41 457.09 169.01 457.48 168.28"/><polygon class="cls-3" points="345.84 204 346.24 204.73 346.97 205.13 346.24 205.52 345.84 206.25 345.44 205.52 344.71 205.13 345.44 204.73 345.84 204"/><polygon class="cls-3" points="317.57 208.65 317.97 209.38 318.7 209.78 317.97 210.18 317.57 210.9 317.17 210.18 316.44 209.78 317.17 209.38 317.57 208.65"/><polygon class="cls-3" points="296.46 208.5 296.86 209.23 297.59 209.63 296.86 210.03 296.46 210.75 296.06 210.03 295.34 209.63 296.06 209.23 296.46 208.5"/><polygon class="cls-3" points="301.07 200.89 301.47 201.62 302.2 202.01 301.47 202.41 301.07 203.14 300.68 202.41 299.95 202.01 300.68 201.62 301.07 200.89"/><polygon class="cls-3" points="313.29 223.94 313.69 224.66 314.42 225.06 313.69 225.46 313.29 226.19 312.89 225.46 312.17 225.06 312.89 224.66 313.29 223.94"/><polygon class="cls-3" points="339.43 214.92 339.83 215.65 340.56 216.05 339.83 216.45 339.43 217.18 339.03 216.45 338.31 216.05 339.03 215.65 339.43 214.92"/><polygon class="cls-3" points="331.96 196.91 332.36 197.64 333.09 198.03 332.36 198.43 331.96 199.16 331.56 198.43 330.84 198.03 331.56 197.64 331.96 196.91"/><polygon class="cls-3" points="405.9 230.15 406.3 230.88 407.03 231.28 406.3 231.68 405.9 232.41 405.5 231.68 404.77 231.28 405.5 230.88 405.9 230.15"/><polygon class="cls-3" points="374.95 192.61 375.35 193.34 376.08 193.73 375.35 194.13 374.95 194.86 374.55 194.13 373.82 193.73 374.55 193.34 374.95 192.61"/><polygon class="cls-3" points="420.8 192.48 421.2 193.21 421.93 193.6 421.2 194 420.8 194.73 420.4 194 419.68 193.6 420.4 193.21 420.8 192.48"/><polygon class="cls-3" points="399.37 130.15 399.77 130.87 400.5 131.27 399.77 131.67 399.37 132.4 398.97 131.67 398.25 131.27 398.97 130.87 399.37 130.15"/><polygon class="cls-3" points="369.96 118.15 370.36 118.88 371.08 119.27 370.36 119.67 369.96 120.4 369.56 119.67 368.83 119.27 369.56 118.88 369.96 118.15"/><polygon class="cls-3" points="108.35 183.5 107.95 184.22 107.23 184.62 107.95 185.02 108.35 185.75 108.75 185.02 109.48 184.62 108.75 184.22 108.35 183.5"/><polygon class="cls-3" points="83.45 155.64 83.05 156.37 82.32 156.76 83.05 157.16 83.45 157.89 83.85 157.16 84.58 156.76 83.85 156.37 83.45 155.64"/><polygon class="cls-3" points="133.17 156.18 132.77 156.91 132.04 157.3 132.77 157.7 133.17 158.43 133.56 157.7 134.29 157.3 133.56 156.91 133.17 156.18"/><polygon class="cls-3" points="116.17 209.78 115.77 210.5 115.05 210.9 115.77 211.3 116.17 212.03 116.57 211.3 117.3 210.9 116.57 210.5 116.17 209.78"/><polygon class="cls-3" points="59.59 232.19 59.19 232.92 58.47 233.32 59.19 233.72 59.59 234.44 59.99 233.72 60.72 233.32 59.99 232.92 59.59 232.19"/><polygon class="cls-3" points="147.28 182.52 146.88 183.25 146.16 183.64 146.88 184.04 147.28 184.77 147.68 184.04 148.41 183.64 147.68 183.25 147.28 182.52"/><polygon class="cls-3" points="158.41 156.18 158.01 156.91 157.28 157.3 158.01 157.7 158.41 158.43 158.81 157.7 159.54 157.3 158.81 156.91 158.41 156.18"/><polygon class="cls-3" points="142.29 133.36 141.89 134.09 141.16 134.49 141.89 134.89 142.29 135.62 142.69 134.89 143.42 134.49 142.69 134.09 142.29 133.36"/><polygon class="cls-3" points="109.48 147.45 109.08 148.18 108.35 148.58 109.08 148.98 109.48 149.71 109.87 148.98 110.6 148.58 109.87 148.18 109.48 147.45"/><polygon class="cls-3" points="60.72 110.29 60.32 111.02 59.59 111.42 60.32 111.81 60.72 112.54 61.11 111.81 61.84 111.42 61.11 111.02 60.72 110.29"/><polygon class="cls-3" points="44.52 168.28 44.12 169.01 43.39 169.41 44.12 169.8 44.52 170.53 44.91 169.8 45.64 169.41 44.91 169.01 44.52 168.28"/><polygon class="cls-3" points="156.16 204 155.76 204.73 155.03 205.13 155.76 205.52 156.16 206.25 156.56 205.52 157.28 205.13 156.56 204.73 156.16 204"/><polygon class="cls-3" points="184.43 208.65 184.03 209.38 183.31 209.78 184.03 210.18 184.43 210.9 184.83 210.18 185.56 209.78 184.83 209.38 184.43 208.65"/><polygon class="cls-3" points="205.54 208.5 205.14 209.23 204.41 209.63 205.14 210.03 205.54 210.75 205.94 210.03 206.66 209.63 205.94 209.23 205.54 208.5"/><polygon class="cls-3" points="200.93 200.89 200.53 201.62 199.8 202.01 200.53 202.41 200.93 203.14 201.32 202.41 202.05 202.01 201.32 201.62 200.93 200.89"/><polygon class="cls-3" points="188.71 223.94 188.31 224.66 187.58 225.06 188.31 225.46 188.71 226.19 189.1 225.46 189.83 225.06 189.1 224.66 188.71 223.94"/><polygon class="cls-3" points="162.57 214.92 162.17 215.65 161.44 216.05 162.17 216.45 162.57 217.18 162.97 216.45 163.7 216.05 162.97 215.65 162.57 214.92"/><polygon class="cls-3" points="170.04 196.91 169.64 197.64 168.91 198.03 169.64 198.43 170.04 199.16 170.44 198.43 171.16 198.03 170.44 197.64 170.04 196.91"/><polygon class="cls-3" points="96.1 230.15 95.7 230.88 94.97 231.28 95.7 231.68 96.1 232.41 96.5 231.68 97.23 231.28 96.5 230.88 96.1 230.15"/><polygon class="cls-3" points="127.05 192.61 126.65 193.34 125.92 193.73 126.65 194.13 127.05 194.86 127.45 194.13 128.18 193.73 127.45 193.34 127.05 192.61"/><polygon class="cls-3" points="81.2 192.48 80.8 193.21 80.07 193.6 80.8 194 81.2 194.73 81.6 194 82.32 193.6 81.6 193.21 81.2 192.48"/><polygon class="cls-3" points="102.63 130.15 102.23 130.87 101.5 131.27 102.23 131.67 102.63 132.4 103.03 131.67 103.75 131.27 103.03 130.87 102.63 130.15"/><polygon class="cls-3" points="132.04 118.15 131.64 118.88 130.92 119.27 131.64 119.67 132.04 120.4 132.44 119.67 133.17 119.27 132.44 118.88 132.04 118.15"/><path class="cls-4" d="M217.1,129.05c.09,15,9.57,34.52,29.83,41.62-21.25-9.52-26-27.13-25.78-41.81.25-20.65,12-36.85-.63-67.82-.12-.26-.77-.36-1.65-.36a56.16,56.16,0,0,0-7.15.8C225.91,89.09,217,109.81,217.1,129.05Zm-21.51,54.38a50.22,50.22,0,0,0,15.94,2.51c12.37,0,25.89-4.23,35.42-14.93-9.82,9.25-20.43,12.43-30.45,12.43a58.8,58.8,0,0,1-19.7-3.69c-19.92-7.14-31.84-22.66-65.1-22.66-.71,0-1.44,0-2.17,0-1.17,0-2.58,8-2.58,8,3-.3,6-.44,8.75-.44C162.41,164.67,178.32,177.57,195.59,183.43Zm29.55-58.72c-2.64,14.82,3.13,35.58,21.79,45.93-19.2-12.89-20.62-31-17.76-45.44,4-20.29,18.56-34.3,11.78-66.88-.24-1-7.11-1-8.5-1h-.25C241.13,86.82,228.55,105.75,225.14,124.71Zm-21.27,16.68c5.5,14.08,21.42,29.31,43,29.41-23.39-2-34.15-17-39.27-30.91-7.2-19.48-2-38.52-25-63.51a.47.47,0,0,0-.36-.12c-1.69,0-7.75,3.39-7.75,3.39C197.77,101,196.83,123.34,203.87,141.39Zm-4.72,7.6c7.06,11.46,22.3,22.47,40.45,22.47a45.53,45.53,0,0,0,7.28-.6c-1.5.12-3,.18-4.39.18-20.72,0-32.85-12.16-39.93-24.14-10.65-18-9-37.62-36.22-58.42a.31.31,0,0,0-.22-.07C164.65,88.41,159,93,159,93,185.75,110.2,188.92,132.39,199.15,149Zm19,31.6a45.88,45.88,0,0,0,28.74-9.6A44.44,44.44,0,0,1,222,178.83c-9.8,0-18.74-3.36-26.11-7.52-18.69-10.53-27.57-28.31-62.1-33.39h0c-1.18,0-4,7.47-4,7.47,32.24,2.13,46.65,19.84,64.25,29.36A51.78,51.78,0,0,0,218.17,180.59Zm7-4.22A45.07,45.07,0,0,0,246.9,171a46.9,46.9,0,0,1-19,4.19c-12.71,0-23.29-5.75-31.3-12.29-16.49-13.46-22-32.44-55.06-43.15h-.08c-1.22,0-5.23,6.71-5.23,6.71,31.37,7.41,42.33,27.23,57.91,39.52A51.62,51.62,0,0,0,225.21,176.37Zm-29.32-19.11a50.5,50.5,0,0,0,36.46,16.06,44.71,44.71,0,0,0,14.53-2.41,50.17,50.17,0,0,1-12.3,1.59c-16.17,0-27.82-8.69-35.73-17.86-13.77-16-15.71-35.58-46.34-51.57a.29.29,0,0,0-.14,0c-1.31,0-6.29,5.74-6.29,5.74C175.61,121.26,182.77,142.59,195.89,157.26Zm51,13.48c-22.67-5.87-30.52-22.43-33-36.92-3.53-20.38,5.09-38.27-13-66.68-.1-.13-.33-.19-.68-.19-2.06,0-7.91,2.07-7.91,2.07,19,24.85,14,46.72,17.64,65.66C212.76,149.45,225.65,167.08,246.9,170.74Zm.37-.18c6.18-21.55,23.6-29,38.84-31.41a94.9,94.9,0,0,1,14.49-.92c1.75,0,3.51,0,5.27.05s3.56,0,5.36,0c13,0,27-1.13,45-11.52,1-.59-2-8.15-2-8.15-26.13,18.07-49.15,13.3-69.07,16.75C269.67,138.1,251.12,150.36,247.27,170.56Zm-.26,0c-13.39-18.34-8.21-35.82-.33-48.46,11.08-17.77,29.78-26.2,35.13-59,.15-1.1-7.85-3.8-7.85-3.8-2.23,30.64-20.87,44.34-30.89,61.07C235.25,133.44,233.21,154.82,247,170.6Zm61.7-27.14a165,165,0,0,0-17.21-1.27h-.39c-15.79.1-36.31,9.11-43.78,28.37,9.84-19.84,27.89-24.51,43.16-24.51h.82c14.17.15,26.35,5,42.14,5a82.77,82.77,0,0,0,29.22-5.55c1.08-.43-.47-8.37-.47-8.37a80.21,80.21,0,0,1-34.89,7.64A170.58,170.58,0,0,1,308.71,143.46Zm-13.07,6.43a45.58,45.58,0,0,0-7.43-.58c-14.5,0-31.64,6.23-40.87,21.27,10.28-13.83,23.72-17.94,36.24-17.94a64.59,64.59,0,0,1,11.56,1.08c17.41,3.11,30.43,12.88,53.23,12.88a92.53,92.53,0,0,0,17.14-1.7c1.14-.24,1.07-8.31,1.07-8.31a81.36,81.36,0,0,1-21.64,3C325.42,159.58,310.55,152.3,295.64,149.89Zm-48.42,20.68c2.14-22.24,17.93-32.47,32.52-37.33,20.5-6.85,40.54-1.89,66.82-23.76.86-.75-3.44-7.71-3.44-7.71-22.44,22.12-46,21.23-65,27.91C263.35,134.91,247.31,150,247.22,170.57Zm-.06,0c-1.94-22.26,11.74-34.93,25.2-42.13C291.31,118.32,312,119.9,333.85,94c.7-.88-4.81-7-4.81-7-18.06,25.48-41.39,28.48-58.87,38.2C256.53,132.79,243.51,150.34,247.16,170.57Zm5.19-50.08c-10.08,11.56-16,32.29-5.29,50.1-9.84-20.27-1.54-36.64,8.52-47.77,14.17-15.68,34.13-20.9,45.4-52.34.33-1-7.05-5-7.05-5C286.13,95.25,265.28,105.67,252.35,120.49Zm9.13,1.62c-12,9.72-21.67,29.16-14.37,48.47-6-21.59,5.17-36.34,17.13-45.65,16.8-13.09,37.41-14.94,54.25-44,.53-1-6-6.13-6-6.13C299.35,102.84,276.91,109.65,261.48,122.11Zm-27.56-.3c-5.33,14.15-3.44,35.55,13.05,48.8-16.54-15.85-14.64-33.92-9.19-47.66,7.67-19.33,24.55-30.73,23.82-63.93-.06-1.1-8.42-2.44-8.42-2.44C256.56,87.12,240.72,103.69,233.92,121.81Zm13.54,49.1c22.67,5.88,30.53,22.43,33,36.92,3.53,20.38-5.1,38.28,13,66.68.09.14.33.19.68.19,2.06,0,7.91-2.07,7.91-2.07-19-24.85-14-46.72-17.63-65.65C281.61,192.2,268.71,174.56,247.46,170.91Zm43,29.38c-5.49-14.07-21.4-29.32-43-29.41,23.4,2,34.16,17,39.28,30.9,7.2,19.49,2,38.54,25,63.53a.46.46,0,0,0,.36.11c1.69,0,7.75-3.39,7.75-3.39C296.58,240.71,297.52,218.34,290.47,200.29Zm-13.19,12.27c-.1-15-9.57-34.52-29.83-41.63,21.25,9.53,26,27.13,25.79,41.81-.26,20.65-12,36.86.61,67.81.12.27.77.37,1.67.37a55.92,55.92,0,0,0,7.13-.8C268.47,252.51,277.4,231.8,277.28,212.56Zm17.92-19.85c-7.06-11.46-22.3-22.46-40.45-22.46a46.68,46.68,0,0,0-7.28.59c1.51-.12,3-.17,4.41-.17,20.7,0,32.83,12.15,39.91,24.13,10.66,18,9,37.61,36.21,58.43a.41.41,0,0,0,.23.05c1.47,0,7.17-4.62,7.17-4.62C308.59,231.49,305.43,209.31,295.2,192.71ZM358.63,177c-26.71,0-42.63-12.9-59.89-18.76a50.23,50.23,0,0,0-15.95-2.52c-12.35,0-25.88,4.24-35.4,14.93,9.81-9.24,20.42-12.42,30.44-12.42a58.71,58.71,0,0,1,19.71,3.69c19.9,7.14,31.82,22.66,65.1,22.66l2.16,0c1.17-.05,2.57-8,2.57-8Q362.81,177,358.63,177Zm-160,14.74a46.85,46.85,0,0,0,7.44.58c14.5,0,31.63-6.23,40.86-21.28C236.7,184.85,223.26,189,210.74,189a65.65,65.65,0,0,1-11.57-1.07C181.76,184.79,168.74,175,145.94,175a92.45,92.45,0,0,0-17.14,1.7c-1.14.24-1.07,8.31-1.07,8.31a81.68,81.68,0,0,1,21.64-3C168.88,182,183.76,189.31,198.67,191.73Zm77.49-30.64a45.85,45.85,0,0,0-28.74,9.61,44.49,44.49,0,0,1,24.88-7.84c9.79,0,18.73,3.36,26.11,7.51,18.7,10.54,27.57,28.33,62.1,33.41h0c1.17,0,4-7.47,4-7.47-32.24-2.12-46.65-19.84-64.25-29.36A51.67,51.67,0,0,0,276.16,161.09Zm22.3,23.36A50.52,50.52,0,0,0,262,168.39a45,45,0,0,0-14.53,2.4,50.62,50.62,0,0,1,12.3-1.58c16.17,0,27.81,8.68,35.73,17.86,13.77,16,15.72,35.57,46.34,51.57a.29.29,0,0,0,.14,0c1.31,0,6.31-5.74,6.31-5.74C318.74,220.45,311.57,199.12,298.46,184.45Zm-29.31-19.11a45.11,45.11,0,0,0-21.7,5.41,47,47,0,0,1,19-4.2c12.71,0,23.29,5.76,31.3,12.3,16.49,13.46,22,32.43,55,43.13l.08,0c1.23,0,5.22-6.71,5.22-6.71-31.36-7.41-42.32-27.23-57.91-39.51A51.44,51.44,0,0,0,269.15,165.34Zm0,51.55c2.65-14.8-3.13-35.57-21.77-45.91,19.17,12.89,20.6,31,17.74,45.43-4,20.3-18.55,34.32-11.77,66.89.23,1,7.08,1,8.49,1h.26C253.18,254.79,265.76,235.87,269.17,216.89Zm-22-45.76c1.95,22.26-11.74,34.93-25.2,42.13-18.95,10.12-39.59,8.54-61.48,34.42-.71.89,4.8,7,4.8,7,18.06-25.48,41.4-28.49,58.88-38.21C237.82,208.91,250.84,191.35,247.18,171.13Zm-.09,0c-6.18,21.53-23.6,29-38.84,31.39a93.61,93.61,0,0,1-14.48.93c-1.75,0-3.51,0-5.29,0s-3.53,0-5.33,0c-13,0-27,1.13-45.06,11.52-1,.6,2,8.15,2,8.15,26.14-18.05,49.15-13.3,69.08-16.76C224.7,203.55,243.24,191.29,247.09,171.1Zm0,0c-2.16,22.23-17.95,32.46-32.53,37.33-20.5,6.84-40.53,1.87-66.83,23.75-.85.75,3.45,7.7,3.45,7.7,22.44-22.11,46-21.21,65-27.89C231,206.77,247,191.63,247.14,171.12Zm13.28,48.73c5.32-14.15,3.42-35.56-13.06-48.81C263.9,186.89,262,205,256.55,218.71,248.88,238,232,249.43,232.73,282.63c.05,1.11,8.43,2.45,8.43,2.45C237.76,254.53,253.6,238,260.42,219.85Zm-74.75-21.71a161.58,161.58,0,0,0,17.18,1.27h.41c15.8-.1,36.32-9.1,43.78-28.37-9.84,19.85-27.88,24.52-43.17,24.52h-.81c-14.17-.16-26.35-5-42.13-5a82.54,82.54,0,0,0-29.22,5.56c-1.08.43.47,8.36.47,8.36a80.18,80.18,0,0,1,34.88-7.63A173.55,173.55,0,0,1,185.67,198.14Zm61.65-27.06c13.4,18.35,8.22,35.83.34,48.46-11.08,17.76-29.78,26.21-35.13,59-.15,1.09,7.84,3.8,7.84,3.8,2.25-30.64,20.87-44.34,30.89-61.06C259.08,208.25,261.13,186.86,247.32,171.08ZM232.86,219.6c12.06-9.72,21.67-29.16,14.37-48.47,6,21.6-5.17,36.34-17.12,45.65-16.81,13.09-37.43,14.94-54.27,44-.52,1,6,6.12,6,6.12C195,238.87,217.43,232.06,232.86,219.6Zm9.13,1.62c10.08-11.57,16-32.28,5.29-50.1,9.84,20.27,1.55,36.63-8.53,47.77-14.15,15.67-34.11,20.89-45.39,52.33-.33,1.06,7,5,7,5C208.22,246.46,229.07,236,242,221.22Z"/><path class="cls-5" d="M162,174a87.5,87.5,0,1,0,87.5-87.49A87.5,87.5,0,0,0,162,174Z"/><path class="cls-6" d="M360.24,332c0,3-8.25,5.45-18.43,5.45S323.37,335,323.37,332s8.25-5.44,18.44-5.44S360.24,329,360.24,332Z"/><path class="cls-6" d="M183.72,332c0,3-8.25,5.45-18.43,5.45S146.85,335,146.85,332s8.25-5.44,18.44-5.44S183.72,329,183.72,332Z"/><path class="cls-6" d="M177.08,331.43c0,1.49-5.28,2.69-11.79,2.69s-11.8-1.2-11.8-2.69,5.28-2.68,11.8-2.68S177.08,330,177.08,331.43Z"/><path class="cls-6" d="M359.64,331.64c0,1.15-5.29,2.08-11.82,2.08S336,332.79,336,331.64s5.29-2.09,11.81-2.09S359.64,330.48,359.64,331.64Z"/><text class="cls-7" transform="translate(289.59 308.36) rotate(11.5)">4</text><polygon class="cls-8" points="321.56 289.79 326.9 288.75 317.57 287.49 329.36 277.31 319.61 279.13 329.36 273.55 319.61 273.96 341.4 259.49 330.84 261.05 341.4 252.47 327.5 257.54 332.78 246.09 296.21 293.19 296.46 297.22 297.94 298.07 319.46 302.45 317.57 295.78 329.36 301.86 321.56 294.77 345.84 299.07 321.56 289.79"/><text class="cls-9" transform="translate(102.63 322.37)">4</text><polygon class="cls-8" points="128.18 277.54 139.77 282.01 141.15 279.2 128.18 277.54"/><path class="cls-8" d="M175.28,319v-8.38h10.48a38.68,38.68,0,0,0,.66-4.37c.14-1.55.22-3,.22-4.51a42.38,42.38,0,0,0-.88-8.73H175.28v-23.3c-1.75-.19-3.49-.37-5.24-.51-1-.08-2-.13-2.94-.17l4.06,7.11-11.62-2.55,5.75,8.73L155.19,281v7l7.38,2.85-31.65,12.75h24.14l-4.39,7h4.52v4.36l17.75-13.73L161.45,320l8.59-4.23-4.75,7.57Z"/><path class="cls-6" d="M283.11,337.57c0,7.15-16.5,12.94-36.86,12.94s-36.87-5.79-36.87-12.94,16.51-12.93,36.87-12.93S283.11,330.43,283.11,337.57Z"/><path class="cls-6" d="M262.22,337.57c0,3.1-7.15,5.61-16,5.61s-16-2.51-16-5.61,7.15-5.6,16-5.6S262.22,334.48,262.22,337.57Z"/><path class="cls-10" d="M199.52,289.08a3.64,3.64,0,0,1-3.63,3.63H176.58a3.64,3.64,0,0,1-3.64-3.63h0a3.64,3.64,0,0,1,3.64-3.64h19.31a3.64,3.64,0,0,1,3.63,3.64Z"/><path class="cls-11" d="M211.57,289.08A16.53,16.53,0,1,1,195,272.54,16.53,16.53,0,0,1,211.57,289.08Z"/><path class="cls-12" d="M195,272.54a16.51,16.51,0,0,0-7.35,1.74,40.8,40.8,0,0,0,.85,30,16.53,16.53,0,1,0,6.5-31.74Z"/><path class="cls-13" d="M239.59,288.22a27.18,27.18,0,1,1-27.17-27.17A27.17,27.17,0,0,1,239.59,288.22Z"/><path class="cls-14" d="M212.42,261.05c-7.55,0-11.55.59-16.48,5.56-3.54,4.51-5.41,13.43-5.41,19.29,0,8.55,1.87,17.72,7.84,25.58,4.58,3.5,7.84,3.91,14,3.91a27.17,27.17,0,1,0,0-54.34Z"/><path class="cls-10" d="M293,289.08a3.64,3.64,0,0,0,3.64,3.63H316a3.63,3.63,0,0,0,3.63-3.63h0a3.63,3.63,0,0,0-3.63-3.64H296.67a3.64,3.64,0,0,0-3.64,3.64Z"/><path class="cls-11" d="M281,289.08a16.54,16.54,0,1,0,16.54-16.54A16.53,16.53,0,0,0,281,289.08Z"/><path class="cls-12" d="M297.52,272.54a16.43,16.43,0,0,1,7.34,1.74,40.86,40.86,0,0,1-.84,30,16.54,16.54,0,1,1-6.5-31.74Z"/><path class="cls-13" d="M253,288.22a27.17,27.17,0,1,0,27.17-27.17A27.16,27.16,0,0,0,253,288.22Z"/><path class="cls-14" d="M280.14,261.05c7.54,0,11.55.59,16.47,5.56C300.16,271.12,302,280,302,285.9c0,8.55-1.87,17.72-7.85,25.58-4.57,3.5-7.83,3.91-14,3.91a27.17,27.17,0,0,1,0-54.34Z"/><path class="cls-10" d="M198.88,260.75a53.85,53.85,0,1,0,94.74,0Z"/><g class="cls-15"><path class="cls-16" d="M279.2,274.86h0s11.28,34.05-17,61.13c.81-.27,1.61-.55,2.4-.86,8.4-4.39,32.05-21.05,26.38-67.41C289.23,270.46,285,272.92,279.2,274.86Z"/><path class="cls-16" d="M267,311.8c4.08-15.34,2.93-31.15,2.63-34.49-2,.37-4,.7-6.19,1C267,289.57,267,311.8,267,311.8Z"/><path class="cls-16" d="M217.69,276.15c-6.65-1.71-11.77-4-14.62-6.63-2.56,11.65-8.86,53.4,28.6,66.89l.06,0C230.85,335.89,205,319.44,217.69,276.15Z"/><path class="cls-16" d="M233.7,278.79c-3.34-.3-6.53-.72-9.52-1.25-6.3,46.67,12,59.86,12.22,60h0C225.75,317.13,231.88,286.58,233.7,278.79Z"/></g><path class="cls-17" d="M294.13,263.48c0,8.46-21.44,15.31-47.88,15.31s-47.88-6.85-47.88-15.31,21.44-15.31,47.88-15.31S294.13,255,294.13,263.48Z"/><path class="cls-18" d="M294.13,262.94c0,8.45-21.44,15.31-47.88,15.31s-47.88-6.86-47.88-15.31,21.44-15.31,47.88-15.31S294.13,254.48,294.13,262.94Z"/><polygon class="cls-17" points="280.77 273.54 283.84 279.2 284.42 272.18 280.77 273.54"/><polygon class="cls-18" points="281.22 273.33 283.84 279.2 283.84 271.63 281.22 273.33"/><path class="cls-19" d="M270.64,261.5s-29.85,1.52-30.34,1.37l-27.54,2-6.49,6.49a57.09,57.09,0,0,0,11.19,3.81l4.54-7.49,7.11.83L227.4,277a140.16,140.16,0,0,0,18.85,1.24c1.9,0,3.77,0,5.61-.11v-7.47h7.47l6.81,6.19c2.22-.32,4.36-.7,6.38-1.13L264.9,270l4-1.32,10,5.44c.62-.18,1.23-.37,1.82-.57l-13.76-7H271l14.67,5.13c3.58-1.65,6.17-3.54,7.5-5.58Z"/><path class="cls-17" d="M285.65,262.39c0,6.39-17.64,11.57-39.4,11.57s-39.4-5.18-39.4-11.57,17.64-11.58,39.4-11.58S285.65,256,285.65,262.39Z"/><path class="cls-20" d="M285.89,261.9c0,6.44-17.75,11.65-39.64,11.65s-39.64-5.21-39.64-11.65,17.74-11.64,39.64-11.64S285.89,255.47,285.89,261.9Z"/><g class="cls-21"><path class="cls-22" d="M231.6,246.47a3.82,3.82,0,0,0-7.64,0,3.72,3.72,0,0,0,.36,1.6,2.27,2.27,0,1,0,2.29,3.56,2.3,2.3,0,0,0,4.18-1.33,2.34,2.34,0,0,0-.3-1.12A3.83,3.83,0,0,0,231.6,246.47Z"/><path class="cls-22" d="M211.64,232.19a3.69,3.69,0,1,0-2.27-7,3.5,3.5,0,0,0-1.36.8,2.2,2.2,0,1,0-2.6,3.17,2.22,2.22,0,0,0,3.41,2.83A3.71,3.71,0,0,0,211.64,232.19Z"/><rect class="cls-23" x="230.34" y="204.2" width="32.15" height="71.97"/><path class="cls-24" d="M234.74,238.38v15.33a.63.63,0,0,0,1.25,0V238.38a.63.63,0,0,0-1.25,0Z"/><path class="cls-24" d="M239.42,250.43v4.94a.63.63,0,0,0,1.25,0V255a.63.63,0,0,0-1.25,0v5.09a.63.63,0,0,0,1.25,0V255a.63.63,0,0,0-1.25,0v.33a.63.63,0,0,0,1.25,0v-4.94a.63.63,0,0,0-1.25,0Z"/><path class="cls-24" d="M242.43,240.21v4.94a.63.63,0,0,0,1.25,0v-.34a.63.63,0,0,0-1.25,0v5.09a.63.63,0,0,0,1.25,0v-5.09a.63.63,0,0,0-1.25,0v.34a.63.63,0,0,0,1.25,0v-4.94a.63.63,0,0,0-1.25,0Z"/><path class="cls-24" d="M252.93,243.74v18.64a.63.63,0,0,0,1.25,0V243.74a.63.63,0,0,0-1.25,0Z"/><path class="cls-24" d="M249.44,251.57v6.75a.63.63,0,0,0,1.25,0v-6.75a.63.63,0,0,0-1.25,0Z"/><path class="cls-24" d="M249.5,260.13v1a.63.63,0,0,0,1.25,0v-1a.63.63,0,0,0-1.25,0Z"/><path class="cls-24" d="M250.22,264a.63.63,0,0,0,0-1.25.63.63,0,0,0,0,1.25Z"/><path class="cls-24" d="M243,237.49h-.18a.63.63,0,0,0,0,1.25H243a.63.63,0,0,0,0-1.25Z"/><path class="cls-24" d="M256.43,260.1v11.53a.63.63,0,0,0,1.25,0V260.1a.63.63,0,0,0-1.25,0Z"/><path class="cls-25" d="M238.38,235.94a5.47,5.47,0,0,1,7.39-1.42,4.33,4.33,0,0,0-6.6-1.87,5.86,5.86,0,0,0-5.59-4.13,5.29,5.29,0,0,0-.56,0A8,8,0,0,1,238.38,235.94Z"/><path class="cls-25" d="M257.7,229.29a3.47,3.47,0,0,0-4.67-.9,2.74,2.74,0,0,1,2.55-1.72,2.67,2.67,0,0,1,1.62.54,3.71,3.71,0,0,1,3.54-2.62,2.09,2.09,0,0,1,.35,0A5.05,5.05,0,0,0,257.7,229.29Z"/><path class="cls-26" d="M230.34,244.92c2.68-.15,8.61.66,16.83,3.44,8,2.71,13.18,5.59,15.32,7.35V253c-5.05-3.46-14.06-6.54-14.61-6.72a72.83,72.83,0,0,0-13.63-3.35,22.48,22.48,0,0,0-3.91-.19Z"/><path class="cls-24" d="M251.14,237.92a6.48,6.48,0,0,0,8.75,1.68,5.13,5.13,0,0,1-7.82,2.21,6.93,6.93,0,0,1-6.61,4.9c-.23,0-.44-.05-.66-.07A9.48,9.48,0,0,0,251.14,237.92Z"/><path class="cls-23" d="M208,203.22a19.64,19.64,0,1,0,19.64-19.65A19.64,19.64,0,0,0,208,203.22Z"/><path class="cls-23" d="M257,209.39A10.41,10.41,0,1,0,267.37,199,10.4,10.4,0,0,0,257,209.39Z"/><path class="cls-23" d="M260.46,221.53a3.66,3.66,0,1,0,3.66-3.65A3.65,3.65,0,0,0,260.46,221.53Z"/><path class="cls-23" d="M235.38,196.27a18.5,18.5,0,1,0,18.5-18.5A18.51,18.51,0,0,0,235.38,196.27Z"/><path class="cls-23" d="M189,157.68a36.09,36.09,0,1,0,36.09-36.09A36.09,36.09,0,0,0,189,157.68Z"/><path class="cls-27" d="M201.76,165.51a20.57,20.57,0,0,0-11,3.2C195,182,205.08,189.42,219.36,191c.88-2.29,3.07-2.25,3.07-4.85A20.67,20.67,0,0,0,201.76,165.51Z"/><path class="cls-27" d="M222.63,184.44s.46-12.12,14.69-12.31c0,0-10.81-3.1-16,7.83Z"/><path class="cls-23" d="M185.7,186.17a18.37,18.37,0,1,0,18.36-18.36A18.37,18.37,0,0,0,185.7,186.17Z"/><path class="cls-27" d="M232.17,122.28c-5.36,6.71-5.3,13.73-4.59,20,1.86,16.55,13.69,25.15,28.32,30.85,6.79-6.56,5.3-5.23,5.3-15.43A35.82,35.82,0,0,0,232.17,122.28Z"/><path class="cls-23" d="M261.25,114.15a36.07,36.07,0,0,0-32.34,52.08,2,2,0,0,1,1.57-.63c3.65.05,7.74.81,10.35,3.62a12.29,12.29,0,0,1,2.22,3.4A8.87,8.87,0,0,1,246,179.4a2.17,2.17,0,0,1-2.67,2.13,36.08,36.08,0,1,0,18-67.38Z"/><path class="cls-28" d="M264.86,176.69c0,3.44-9.22,6.28-8.13,9.34a35.5,35.5,0,0,0,4.52.3,36.09,36.09,0,0,0,36.09-36.09c0-.13,0-1.93,0-2.05a29.27,29.27,0,0,0-12.94-3C268.15,145.19,264.86,160.47,264.86,176.69Z"/><path class="cls-23" d="M255,176.23a28,28,0,1,0,28-28A28,28,0,0,0,255,176.23Z"/><path class="cls-23" d="M219.38,272a7.35,7.35,0,1,0,7.35-7.35A7.35,7.35,0,0,0,219.38,272Z"/><path class="cls-23" d="M226.66,265.58a3.68,3.68,0,1,0,3.68-3.68A3.67,3.67,0,0,0,226.66,265.58Z"/><path class="cls-23" d="M223.33,260.07a1.84,1.84,0,1,0,1.83-1.84A1.83,1.83,0,0,0,223.33,260.07Z"/><path class="cls-23" d="M232.29,272a4.15,4.15,0,1,0,4.15-4.15A4.15,4.15,0,0,0,232.29,272Z"/><path class="cls-23" d="M259.23,272a4.15,4.15,0,1,0,4.15-4.15A4.15,4.15,0,0,0,259.23,272Z"/><path class="cls-23" d="M257.1,269.25a4.15,4.15,0,1,0,4.15-4.15A4.15,4.15,0,0,0,257.1,269.25Z"/><path class="cls-23" d="M265.4,272a4.15,4.15,0,1,0,4.15-4.15A4.15,4.15,0,0,0,265.4,272Z"/><path class="cls-22" d="M222.52,271.58a5.08,5.08,0,1,0,5.08-5.08A5.09,5.09,0,0,0,222.52,271.58Z"/><path class="cls-22" d="M231.84,272.38a2.77,2.77,0,1,0,2.77-2.77A2.77,2.77,0,0,0,231.84,272.38Z"/><path class="cls-22" d="M237.32,270.67a6.11,6.11,0,1,0,6.1-6.11A6.11,6.11,0,0,0,237.32,270.67Z"/><path class="cls-22" d="M234,273.55a6.11,6.11,0,1,0,6.1-6.11A6.11,6.11,0,0,0,234,273.55Z"/><path class="cls-22" d="M246.25,273.55a6.11,6.11,0,1,0,6.1-6.11A6.11,6.11,0,0,0,246.25,273.55Z"/><path class="cls-22" d="M260.62,271.41a3.06,3.06,0,1,0,3.05-3.06A3.06,3.06,0,0,0,260.62,271.41Z"/><path class="cls-22" d="M282.42,238.9a1.53,1.53,0,0,0-1.54-1.53,1.7,1.7,0,0,0-.46.07,3.05,3.05,0,1,0,.49,3A1.53,1.53,0,0,0,282.42,238.9Z"/><path class="cls-22" d="M274.42,259.6a3.82,3.82,0,1,0-7.64,0,3.75,3.75,0,0,0,.36,1.6,2.27,2.27,0,1,0,2.29,3.55,2.3,2.3,0,0,0,4.18-1.33,2.34,2.34,0,0,0-.3-1.12A3.81,3.81,0,0,0,274.42,259.6Z"/><path class="cls-22" d="M277.16,260.35a1.56,1.56,0,1,0,1.55-1.56A1.54,1.54,0,0,0,277.16,260.35Z"/><path class="cls-22" d="M256.29,263.93a1,1,0,1,0,1-1A1,1,0,0,0,256.29,263.93Z"/><path class="cls-22" d="M233.34,260.75a2,2,0,1,0,2-2A2,2,0,0,0,233.34,260.75Z"/><path class="cls-22" d="M207.06,222.37a2,2,0,1,0,2-2A2,2,0,0,0,207.06,222.37Z"/><path class="cls-22" d="M212.47,223.52a.84.84,0,1,0,.83-.83A.83.83,0,0,0,212.47,223.52Z"/><path class="cls-22" d="M265.89,271.56a2.16,2.16,0,1,0,2.16-2.16A2.16,2.16,0,0,0,265.89,271.56Z"/><path class="cls-29" d="M213.84,261.54c1.07-2,2.21-3.92,2.25-6.3a7.36,7.36,0,0,0-3.46-6c-3.23-2-7.16,1-9.08,3.46-1.22,1.57-2.13,3.77-1.55,5.77.76,2.61,3.41,2.76,5.5,1.65,3.78-2,5.06-7.53,3.86-11.35-1.56-5-7.69-6.56-12.05-4.49a9.32,9.32,0,0,0-4.67,4.55c-.93,2.21-.24,5.13,2.27,5.87,2.18.64,4.73-.72,6-2.48a8.71,8.71,0,0,0,1.54-5.69c-.31-4.7-5.32-8.42-9.84-6.71-2.93,1.11-6.21,4.85-5.49,8.19.33,1.54,2.62.72,2.29-.79a4.51,4.51,0,0,1,.36-1.39,8.11,8.11,0,0,1,1.52-2.22,4.87,4.87,0,0,1,5-1.63c4,1.33,5.27,7.2,1.73,9.73-.85.61-2.26,1.16-3,.18s-.13-2.21.41-3a7.85,7.85,0,0,1,5.7-3.18,6.13,6.13,0,0,1,5.84,3.36,7.76,7.76,0,0,1-.07,5.67,6.46,6.46,0,0,1-2.14,3c-1.11.85-2.36,1-2.41-.63-.06-2,1.84-3.93,3.34-5,1.75-1.26,3.66-1.48,5,.4,2,2.79.36,5.36-1,8-.72,1.39,1.48,2.42,2.2,1Z"/><path class="cls-30" d="M205.27,246h0a2.71,2.71,0,0,0-.36-.1Z"/><path class="cls-30" d="M208.51,248.43c.09.14.17.28.25.43a6.84,6.84,0,0,0-1,.4,3.39,3.39,0,0,1,.75,2.35,4.13,4.13,0,0,1,.9-.34,7.69,7.69,0,0,1,0,1h0A5.55,5.55,0,0,0,208.51,248.43Z"/><path class="cls-30" d="M210.8,247.5a11,11,0,0,1,1,4.79c0-.21,0-.41,0-.62a5.08,5.08,0,0,1,.5.44,10.46,10.46,0,0,0-.41-3.2l-.54-.18A7.16,7.16,0,0,0,210.8,247.5Z"/><path class="cls-30" d="M208.14,247.94Z"/><path class="cls-30" d="M208.45,248.34a1.47,1.47,0,0,0-.1-.13A1.47,1.47,0,0,1,208.45,248.34Z"/><path class="cls-30" d="M200.25,243.23h0a5.07,5.07,0,0,1,.49.55c-.28.08-.55.17-.82.27a10,10,0,0,1,3.55-.65,7.82,7.82,0,0,0-.43-.68A7.88,7.88,0,0,0,200.25,243.23Z"/><path class="cls-30" d="M200.77,246.31a6.94,6.94,0,0,1,1.07-.33,7.73,7.73,0,0,1,.18,1h0a5.29,5.29,0,0,1,2.43-.18v-.2a5.43,5.43,0,0,0-.1-.72,6.73,6.73,0,0,0-3.58.47Z"/><path class="cls-29" d="M274.38,234.4a9.76,9.76,0,0,1-2.84-3.66,5.1,5.1,0,0,1,1-4.67c1.69-2,4.91-.89,6.71.32a4.69,4.69,0,0,1,2.26,3.46c.06,1.88-1.65,2.55-3.27,2.27-2.91-.51-4.94-3.87-5-6.63,0-3.61,3.65-6,7-5.55a6.48,6.48,0,0,1,4,2,2.93,2.93,0,0,1-.23,4.35,4.11,4.11,0,0,1-4.47-.34,6,6,0,0,1-2.24-3.41c-.81-3.16,1.69-6.68,5-6.53,2.16.1,5.12,1.86,5.37,4.21.11,1.08-1.57,1-1.68,0a3,3,0,0,0-.54-.84,5.55,5.55,0,0,0-1.47-1.13,3.37,3.37,0,0,0-3.61,0c-2.35,1.73-1.92,5.86.95,6.76.69.22,1.74.28,2-.53s-.39-1.48-.91-1.88a5.45,5.45,0,0,0-4.43-.85,4.22,4.22,0,0,0-3.12,3.46,5.35,5.35,0,0,0,1.27,3.71,4.48,4.48,0,0,0,2,1.51c.92.32,1.77.16,1.45-.93-.39-1.34-2.06-2.19-3.28-2.58-1.42-.46-2.73-.19-3.22,1.34-.74,2.28.91,3.6,2.37,5,.78.75-.45,1.9-1.22,1.15Z"/><path class="cls-30" d="M276.68,222.36h0l.21-.14Z"/><path class="cls-30" d="M275.06,224.63a3.4,3.4,0,0,0-.07.34,4.84,4.84,0,0,1,.76,0,2.36,2.36,0,0,0,0,1.71,3.09,3.09,0,0,0-.67,0,4.26,4.26,0,0,0,.22.63h0A3.86,3.86,0,0,1,275.06,224.63Z"/><path class="cls-30" d="M273.36,224.51a7.65,7.65,0,0,0,.38,3.36c-.05-.13-.09-.27-.14-.4a3.64,3.64,0,0,0-.23.39,7.63,7.63,0,0,1-.42-2.19,2.35,2.35,0,0,1,.32-.23A4.73,4.73,0,0,1,273.36,224.51Z"/><path class="cls-30" d="M275.2,224.23Z"/><path class="cls-30" d="M275.08,224.56s0-.07,0-.11A.49.49,0,0,1,275.08,224.56Z"/><path class="cls-30" d="M279.38,219.44h0a4,4,0,0,0-.21.47h.6a7,7,0,0,0-2.48.33c0-.18.09-.36.14-.54A5.51,5.51,0,0,1,279.38,219.44Z"/><path class="cls-30" d="M279.69,221.57a6.62,6.62,0,0,0-.77,0,3.84,3.84,0,0,0,.09.68h0a3.65,3.65,0,0,0-1.64.4l0-.13a4.37,4.37,0,0,1-.09-.5,4.74,4.74,0,0,1,2.45-.46Z"/></g><g class="cls-15"><path class="cls-16" d="M211.31,206.45c.13,3.14,1.82,5.77,3.77,8.12,1.16,1.39,3.12-.6,2-2-1.45-1.74-2.86-3.8-2.95-6.14-.07-1.8-2.87-1.81-2.8,0Z"/><path class="cls-16" d="M219,217.64a1.4,1.4,0,0,0,0-2.8,1.4,1.4,0,0,0,0,2.8Z"/><path class="cls-16" d="M221.67,219.32h.14a1.4,1.4,0,0,0,0-2.8h-.14a1.4,1.4,0,0,0,0,2.8Z"/><path class="cls-16" d="M223.21,205.89a8.63,8.63,0,0,0,3.2,5.46c1.34,1.21,3.32-.76,2-2-1-.91-2.23-2.06-2.39-3.49a1.42,1.42,0,0,0-1.4-1.4,1.39,1.39,0,0,0-1.39,1.4Z"/><path class="cls-16" d="M230.62,213.58a1.4,1.4,0,0,0,0-2.8,1.4,1.4,0,0,0,0,2.8Z"/><path class="cls-16" d="M243.76,219.55A8.46,8.46,0,0,0,252,219c1.51-1,.11-3.4-1.42-2.42a5.64,5.64,0,0,1-5.44.56c-1.6-.83-3,1.59-1.41,2.42Z"/><path class="cls-16" d="M253.56,216.8a1.4,1.4,0,0,0,0-2.8,1.4,1.4,0,0,0,0,2.8Z"/><path class="cls-16" d="M245.54,200.3c1.16-2.47,2.85-3.87,5.64-3.92,1.8,0,1.81-2.84,0-2.8a8.64,8.64,0,0,0-8.06,5.31c-.77,1.62,1.64,3,2.42,1.41Z"/><path class="cls-16" d="M252.86,195.26c-.07-2.68,1.21-4.27,3.5-5.51,1.59-.86.18-3.27-1.41-2.41-3.13,1.69-5,4.28-4.89,7.92.05,1.8,2.84,1.8,2.8,0Z"/><path class="cls-16" d="M258.74,188.82a1.4,1.4,0,0,0,0-2.8,1.4,1.4,0,0,0,0,2.8Z"/><path class="cls-16" d="M278.37,200.52c11.43,3.42,22.06-3.09,26.89-13.51.76-1.62-1.65-3-2.41-1.41-4.31,9.28-13.44,15.3-23.74,12.22a1.4,1.4,0,0,0-.74,2.7Z"/><path class="cls-16" d="M305,182.67a1.4,1.4,0,0,0,0-2.8,1.4,1.4,0,0,0,0,2.8Z"/><path class="cls-16" d="M307,177.63v-.28a1.4,1.4,0,0,0-2.8,0v.28a1.4,1.4,0,0,0,2.8,0Z"/><path class="cls-16" d="M218,158c1.33-3.25,4.14-5.48,7.05-7.28,1.53-.94.13-3.36-1.41-2.41-3.61,2.22-6.7,5-8.34,8.95-.68,1.67,2,2.39,2.7.74Z"/><path class="cls-16" d="M226.41,149a1.85,1.85,0,0,1,.14.14,1.4,1.4,0,0,0,2-2,1.85,1.85,0,0,0-.14-.14,1.4,1.4,0,0,0-2,2Z"/><path class="cls-16" d="M209.78,157.68c-2.74-1.9-7.25-1-9.8.84-1.45,1,0,3.48,1.41,2.41,1.79-1.3,5-2.2,7-.83,1.49,1,2.88-1.4,1.41-2.42Z"/><path class="cls-16" d="M196.48,162.67a.93.93,0,0,0,.14.14,1.39,1.39,0,0,0,2-2l-.13-.14a1.4,1.4,0,0,0-2,2Z"/><path class="cls-16" d="M218.08,125.22a30,30,0,0,0-15,8.06c-1.29,1.26.69,3.24,2,2a27.16,27.16,0,0,1,13.79-7.34c1.76-.38,1-3.08-.74-2.7Z"/><path class="cls-16" d="M222.93,127h.13a1.4,1.4,0,0,0,0-2.79h-.13a1.4,1.4,0,0,0,0,2.79Z"/><path class="cls-16" d="M226.28,126.71h.14a1.4,1.4,0,0,0,0-2.79h-.14a1.4,1.4,0,0,0,0,2.79Z"/><path class="cls-16" d="M237.76,132.68a10.31,10.31,0,0,1,8,0c1.7.63,2.42-2.07.75-2.7a13.1,13.1,0,0,0-10.17.28c-1.64.76-.22,3.17,1.41,2.42Z"/><path class="cls-16" d="M265.78,120.51a37.86,37.86,0,0,1,9.73,3.5c1.58.86,3-1.55,1.42-2.42a40.57,40.57,0,0,0-10.41-3.78c-1.75-.41-2.5,2.29-.74,2.7Z"/><path class="cls-16" d="M261.67,119.58a1.4,1.4,0,0,0,0-2.8,1.4,1.4,0,0,0,0,2.8Z"/><path class="cls-16" d="M261,166.16c6.28.69,12.37,4.8,13.9,11.14.42,1.76,3.12,1,2.7-.74-1.84-7.63-9.11-12.37-16.6-13.2-1.79-.19-1.77,2.61,0,2.8Z"/><path class="cls-16" d="M262.23,165c0-4.19-1.23-7.42-4.61-10-1.43-1.1-2.82,1.33-1.41,2.42,2.54,2,3.2,4.52,3.22,7.6a1.4,1.4,0,0,0,2.8,0Z"/><path class="cls-16" d="M253.14,154.13a1.4,1.4,0,0,0,0-2.8,1.4,1.4,0,0,0,0,2.8Z"/><path class="cls-16" d="M248.23,152l.14.14a1.4,1.4,0,0,0,2-2l-.14-.13a1.4,1.4,0,0,0-2,2Z"/><path class="cls-16" d="M231.6,175.6c-5.48,2.11-7.72,8.2-9.07,13.46-.44,1.75,2.26,2.49,2.7.75,1.06-4.12,2.72-9.82,7.11-11.51,1.67-.64.95-3.34-.74-2.7Z"/><path class="cls-16" d="M224.75,189.61c-.47-4.58-3.28-7.16-7.53-8.56-1.72-.56-2.45,2.14-.74,2.7,3,1,5.14,2.6,5.48,5.86.18,1.78,3,1.8,2.79,0Z"/></g><path class="cls-25" d="M206.61,154.71a14.5,14.5,0,0,1,7.17,1.89,16.44,16.44,0,0,1,27.53-8,16.44,16.44,0,0,1,24.56,12.65A20.27,20.27,0,0,1,280,178a17.84,17.84,0,0,0-12-20.8,17.59,17.59,0,0,0,.9-5.55,17.87,17.87,0,0,0-28.51-14.38,20.37,20.37,0,0,0-29.92,15,12.78,12.78,0,0,0-3.83-.59,12.63,12.63,0,0,0-12.35,10A14.56,14.56,0,0,1,206.61,154.71Z"/><path class="cls-25" d="M279.52,187.53a7.51,7.51,0,0,0-3.7,1,8.49,8.49,0,0,0-14.21-4.12,8.48,8.48,0,0,0-12.67,6.53,10.46,10.46,0,0,0-7.28,8.61,9.63,9.63,0,0,1-.21-2,9.22,9.22,0,0,1,6.4-8.78,9.42,9.42,0,0,1-.46-2.87,9.22,9.22,0,0,1,14.71-7.42,10.51,10.51,0,0,1,15.45,7.73,6.45,6.45,0,0,1,2-.31,6.51,6.51,0,0,1,6.37,5.14A7.5,7.5,0,0,0,279.52,187.53Z"/><path class="cls-24" d="M259.43,217a7.46,7.46,0,0,1-3.7-1,8.49,8.49,0,0,1-14.21,4.12,8.49,8.49,0,0,1-12.68-6.53,10.46,10.46,0,0,1-7.27-8.61,9,9,0,0,0-.21,2,9.22,9.22,0,0,0,6.4,8.78,9.13,9.13,0,0,0-.46,2.87A9.22,9.22,0,0,0,242,226.06a10.5,10.5,0,0,0,15.44-7.72,6.83,6.83,0,0,0,2,.3,6.51,6.51,0,0,0,6.37-5.14A7.51,7.51,0,0,1,259.43,217Z"/><path class="cls-24" d="M257.13,209.54a3.42,3.42,0,0,0,1.68-.44,3.85,3.85,0,0,0,6.45,1.87,3.8,3.8,0,0,0,1.92.51A3.86,3.86,0,0,0,271,208a4.74,4.74,0,0,0,3.3-3.92,4.41,4.41,0,0,1,.1.89,4.19,4.19,0,0,1-2.91,4,4,4,0,0,1,.21,1.3,4.18,4.18,0,0,1-6.68,3.37,4.67,4.67,0,0,1-2.29.59,4.78,4.78,0,0,1-4.73-4.1,2.91,2.91,0,0,1-.89.14,3,3,0,0,1-2.9-2.33A3.42,3.42,0,0,0,257.13,209.54Z"/><polygon class="cls-17" points="201.79 269.17 202.6 278.25 205.86 271.71 201.79 269.17"/><polygon class="cls-18" points="202.25 266.51 202.6 278.25 206.61 268.89 202.25 266.51"/><polygon class="cls-17" points="277.74 284.14 275.3 275.65 279.17 274.27 277.74 284.14"/><polygon class="cls-18" points="277.74 284.14 275.63 274.9 278.95 274.11 277.74 284.14"/><g class="cls-31"><path class="cls-32" d="M195.09,177.71c.11-.11.21-.24.32-.35l-.79-.38C194.78,177.23,194.93,177.48,195.09,177.71Z"/><path class="cls-33" d="M249.87,153.06c28.47,6.1,50,15.12,61.12,23.29,0,0,0-.08,0-.12a28.3,28.3,0,0,0-.25-3.71c-13.49-9-36.76-17.45-60.24-22.48-21.19-4.54-43.37-6.51-59.26-4.85a32.17,32.17,0,0,0-1,3.11C204.16,146.6,225.07,147.74,249.87,153.06Z"/></g><g class="cls-34"><path class="cls-32" d="M294.62,136.48a31.93,31.93,0,0,0-1.53-3.24A52.53,52.53,0,0,0,278.76,136c-12,3.74-26.54,10.91-40.88,20.18s-26.83,19.59-35.16,29c-5.41,6.13-8.66,11.41-9.69,15.67a18.09,18.09,0,0,0,2.91,1.8c.5-3.71,3.69-9.12,9.18-15.34,8.15-9.22,20.4-19.32,34.5-28.44C263.51,143.38,284.57,135.94,294.62,136.48Z"/><path class="cls-32" d="M298.6,153c0,.28.07.57.1.86l.37-.54Z"/></g><path class="cls-3" d="M250.94,143.58c-41-8.8-85.46-8.72-88.75,6.64-1.66,7.73,8,17,26.59,25.78a18.92,18.92,0,0,1,2.19-2.69c-17.11-7.95-26.79-16.37-25.5-22.38,2.2-10.27,36.79-14.36,84.77-4.07s77.85,28.19,75.65,38.46c-1,4.71-9.06,8.12-21.89,9.41a28.63,28.63,0,0,1-3.94,3.68c10.74-.67,27.14-3.2,29.11-12.39C332.46,170.66,292,152.37,250.94,143.58Z"/><path class="cls-35" d="M191,173.31c-.93-.43-1.83-.86-2.71-1.29-.52.61-1.34,1.61-2.14,2.69.87.43,1.75.86,2.66,1.29A18.92,18.92,0,0,1,191,173.31Z"/><path class="cls-35" d="M308.38,194.17c-1.39.22-2.85.4-4.38.56a28.63,28.63,0,0,1-3.94,3.68c1.5-.1,3.11-.23,4.76-.4A40,40,0,0,0,308.38,194.17Z"/><path class="cls-35" d="M249.35,146.68l4.59-2.44q-1.5-.35-3-.66l-3.78-.79-1.48.54-1.76,2.25C245.71,145.93,247.52,146.29,249.35,146.68Z"/><path class="cls-36" d="M301.72,129.87c-3.19-4.92-12-5.32-25.35-1.16-12.57,3.91-27.75,11.4-42.75,21.11s-28.06,20.48-36.77,30.34c-9.29,10.51-12.52,18.67-9.34,23.59,1.73,2.67,5.11,4,10,4a45.2,45.2,0,0,0,10.78-1.55,18.39,18.39,0,0,1-.22-2.11,18.78,18.78,0,0,1-4,.45,18,18,0,0,1-3.46-.34c-5.26.56-8.93-.2-10.27-2.27-2.18-3.37,1.2-10.68,9-19.55,8.52-9.64,21.34-20.2,36.09-29.74,32-20.7,59.11-27.65,63.45-20.94,1.4,2.16.51,6-2.41,10.78a34.93,34.93,0,0,1,.73,5C302.67,139.81,304.24,133.77,301.72,129.87Z"/><path class="cls-37" d="M298.06,139.54a28.61,28.61,0,0,1-1.57,2.94,34.93,34.93,0,0,1,.73,5c.72-1,1.37-2,2-2.93A47.09,47.09,0,0,0,298.06,139.54Z"/><path class="cls-37" d="M208.28,206.2a18.39,18.39,0,0,1-.22-2.11,18.78,18.78,0,0,1-4,.45,18,18,0,0,1-3.46-.34,27.84,27.84,0,0,1-3.76.17,17.85,17.85,0,0,0,7.31,2.71C205.47,206.84,206.83,206.56,208.28,206.2Z"/><g class="cls-34"><path class="cls-32" d="M245.56,236.93a74.62,74.62,0,0,0-15.22,3.53v2.17a65.56,65.56,0,0,1,15.48-3.72c7.75-1,13.48-.93,16.67-.44v-2C257.74,235.72,250.53,236.25,245.56,236.93Z"/></g><path class="cls-3" d="M269.85,235.5c-.61-4.52-15.61-3.72-24.38-2.54s-23.44,4.4-22.82,8.93c.25,1.85,2.77,2.94,7.7,3.31V243c-4-.34-5.36-1.12-5.49-1.34.24-1.29,7.64-4.64,20.91-6.44s21.3-.53,21.86.59c-.05.31-1.16,1.46-5.14,2.89V241C267.7,239.27,270.12,237.46,269.85,235.5Z"/><path class="cls-38" d="M263.67,238.21l-1.18.45V241l1.18-.42Z"/><rect class="cls-1" x="257.29" y="236.2" width="5.2" height="6.62"/><path class="cls-36" d="M247.56,242.68a72.64,72.64,0,0,0-13.84-2.42c-4.58-.25-6.93.42-7.38,2.11-.39,1.49.9,3,4,4.74v-2.6a5.45,5.45,0,0,1-1.79-1.56c1.09-.83,7.85-.9,18.43,1.89s16.43,6.19,17,7.45a3.89,3.89,0,0,1-1.46.4v2.25c1.23-.12,3.26-.51,3.67-2.06C267.45,248,248.37,242.89,247.56,242.68Z"/><path class="cls-37" d="M263.54,252.46a5.31,5.31,0,0,1-1.05.23v2.25a9.65,9.65,0,0,0,1.05-.16Z"/><polygon class="cls-3" points="189.63 118.4 190.68 120.52 193.01 120.86 191.32 122.51 191.72 124.83 189.63 123.74 187.54 124.83 187.94 122.51 186.25 120.86 188.59 120.52 189.63 118.4"/><polygon class="cls-36" points="285.89 134.44 286.94 136.56 289.27 136.9 287.59 138.55 287.98 140.88 285.89 139.78 283.8 140.88 284.2 138.55 282.51 136.9 284.85 136.56 285.89 134.44"/><polygon class="cls-36" points="183.88 204.54 184.92 206.66 187.26 207 185.57 208.64 185.97 210.97 183.88 209.87 181.79 210.97 182.19 208.64 180.5 207 182.84 206.66 183.88 204.54"/><polygon class="cls-36" points="191.87 207.75 192.39 208.81 193.56 208.98 192.71 209.81 192.91 210.97 191.87 210.42 190.82 210.97 191.02 209.81 190.18 208.98 191.34 208.81 191.87 207.75"/><polygon class="cls-3" points="217.2 257.54 218.25 259.65 220.58 259.99 218.89 261.64 219.29 263.97 217.2 262.87 215.11 263.97 215.51 261.64 213.82 259.99 216.16 259.65 217.2 257.54"/><polygon class="cls-36" points="295.93 132.54 296.31 133.31 297.15 133.43 296.54 134.03 296.69 134.87 295.93 134.47 295.18 134.87 295.32 134.03 294.71 133.43 295.55 133.31 295.93 132.54"/><polygon class="cls-36" points="185.1 196.08 185.48 196.84 186.32 196.97 185.71 197.56 185.86 198.41 185.1 198.01 184.35 198.41 184.49 197.56 183.88 196.97 184.72 196.84 185.1 196.08"/><polygon class="cls-3" points="315.99 161.6 316.69 163.02 318.25 163.25 317.12 164.36 317.39 165.92 315.99 165.18 314.59 165.92 314.85 164.36 313.72 163.25 315.28 163.02 315.99 161.6"/><polygon class="cls-3" points="175.3 114.88 175.93 116.03 177.08 116.66 175.93 117.29 175.3 118.44 174.68 117.29 173.53 116.66 174.68 116.03 175.3 114.88"/><polygon class="cls-3" points="178.86 133.71 179.27 134.45 180.01 134.86 179.27 135.26 178.86 136.01 178.45 135.26 177.71 134.86 178.45 134.45 178.86 133.71"/><polygon class="cls-3" points="198.37 124.71 198.78 125.45 199.52 125.86 198.78 126.27 198.37 127.01 197.97 126.27 197.22 125.86 197.97 125.45 198.37 124.71"/><polygon class="cls-3" points="193.01 132.56 193.42 133.3 194.16 133.71 193.42 134.11 193.01 134.86 192.61 134.11 191.87 133.71 192.61 133.3 193.01 132.56"/><polygon class="cls-3" points="311.45 149.9 311.86 150.65 312.6 151.05 311.86 151.46 311.45 152.2 311.05 151.46 310.31 151.05 311.05 150.65 311.45 149.9"/><polygon class="cls-3" points="312.6 133.71 313.01 134.45 313.75 134.86 313.01 135.26 312.6 136.01 312.2 135.26 311.45 134.86 312.2 134.45 312.6 133.71"/><polygon class="cls-36" points="292.55 119.32 292.95 120.06 293.69 120.47 292.95 120.88 292.55 121.62 292.14 120.88 291.39 120.47 292.14 120.06 292.55 119.32"/><polygon class="cls-36" points="177.08 191.53 177.49 192.27 178.23 192.68 177.49 193.08 177.08 193.83 176.68 193.08 175.93 192.68 176.68 192.27 177.08 191.53"/><polygon class="cls-36" points="192.4 180.02 192.8 180.76 193.54 181.17 192.8 181.57 192.4 182.31 191.99 181.57 191.25 181.17 191.99 180.76 192.4 180.02"/><polygon class="cls-36" points="202.25 187.67 202.66 188.41 203.4 188.82 202.66 189.22 202.25 189.97 201.84 189.22 201.1 188.82 201.84 188.41 202.25 187.67"/><polygon class="cls-36" points="301.24 124.3 301.52 124.81 302.02 125.08 301.52 125.36 301.24 125.86 300.97 125.36 300.46 125.08 300.97 124.81 301.24 124.3"/><polygon class="cls-36" points="209.05 249.48 209.32 249.98 209.82 250.26 209.32 250.53 209.05 251.04 208.77 250.53 208.27 250.26 208.77 249.98 209.05 249.48"/><polygon class="cls-36" points="226.27 231.26 226.55 231.76 227.05 232.04 226.55 232.31 226.27 232.82 226 232.31 225.5 232.04 226 231.76 226.27 231.26"/><polygon class="cls-36" points="221.36 224.59 221.63 225.09 222.14 225.37 221.63 225.64 221.36 226.15 221.08 225.64 220.58 225.37 221.08 225.09 221.36 224.59"/><polygon class="cls-36" points="290.05 123.53 290.33 124.03 290.83 124.3 290.33 124.58 290.05 125.08 289.78 124.58 289.27 124.3 289.78 124.03 290.05 123.53"/><polygon class="cls-36" points="302.89 115.25 303.17 115.76 303.67 116.03 303.17 116.31 302.89 116.81 302.62 116.31 302.11 116.03 302.62 115.76 302.89 115.25"/><polygon class="cls-36" points="310.31 125.86 310.58 126.36 311.08 126.64 310.58 126.91 310.31 127.42 310.03 126.91 309.53 126.64 310.03 126.36 310.31 125.86"/><polygon class="cls-36" points="281.15 123.53 281.43 124.03 281.93 124.3 281.43 124.58 281.15 125.08 280.88 124.58 280.38 124.3 280.88 124.03 281.15 123.53"/><polygon class="cls-3" points="318.48 155.83 318.89 156.57 319.63 156.98 318.89 157.39 318.48 158.13 318.07 157.39 317.33 156.98 318.07 156.57 318.48 155.83"/><polygon class="cls-3" points="318.48 181.17 318.89 181.91 319.63 182.31 318.89 182.72 318.48 183.46 318.07 182.72 317.33 182.31 318.07 181.91 318.48 181.17"/><polygon class="cls-3" points="156.21 162.61 156.62 163.35 157.36 163.76 156.62 164.17 156.21 164.91 155.81 164.17 155.06 163.76 155.81 163.35 156.21 162.61"/><polygon class="cls-3" points="175.92 175.54 176.33 176.28 177.07 176.69 176.33 177.09 175.92 177.84 175.52 177.09 174.77 176.69 175.52 176.28 175.92 175.54"/><polygon class="cls-3" points="297.08 154.68 297.49 155.43 298.23 155.83 297.49 156.24 297.08 156.98 296.68 156.24 295.93 155.83 296.68 155.43 297.08 154.68"/><polygon class="cls-3" points="302.89 149.9 303.3 150.65 304.04 151.05 303.3 151.46 302.89 152.2 302.49 151.46 301.74 151.05 302.49 150.65 302.89 149.9"/><polygon class="cls-3" points="311.45 156.98 311.86 157.72 312.6 158.13 311.86 158.54 311.45 159.28 311.05 158.54 310.31 158.13 311.05 157.72 311.45 156.98"/><polygon class="cls-3" points="235.36 113.73 235.77 114.48 236.51 114.88 235.77 115.29 235.36 116.03 234.96 115.29 234.22 114.88 234.96 114.48 235.36 113.73"/><polygon class="cls-3" points="209.05 120.47 209.45 121.21 210.19 121.62 209.45 122.02 209.05 122.77 208.64 122.02 207.9 121.62 208.64 121.21 209.05 120.47"/><polygon class="cls-3" points="186.25 153.53 186.66 154.28 187.4 154.68 186.66 155.09 186.25 155.83 185.84 155.09 185.1 154.68 185.84 154.28 186.25 153.53"/><path class="cls-25" d="M216.16,198.41a8.46,8.46,0,0,1,11.42-2.19,6.74,6.74,0,0,0-6.23-4.21,6.63,6.63,0,0,0-4,1.32,9.05,9.05,0,0,0-8.62-6.38,8.27,8.27,0,0,0-.87.09A12.3,12.3,0,0,1,216.16,198.41Z"/><path class="cls-24" d="M240.48,205a5.26,5.26,0,0,0,4.26,2.17,5.16,5.16,0,0,0,2.8-.82,4.16,4.16,0,0,1-3.85,2.61,4.1,4.1,0,0,1-2.45-.82,5.61,5.61,0,0,1-5.34,3.95c-.18,0-.36,0-.54,0A7.65,7.65,0,0,0,240.48,205Z"/><path class="cls-25" d="M251.69,131.92a10.66,10.66,0,0,0-14.37-2.75,8.41,8.41,0,0,1,12.83-3.64,11.38,11.38,0,0,1,10.85-8,9.58,9.58,0,0,1,1.09.11A15.5,15.5,0,0,0,251.69,131.92Z"/><polygon class="cls-3" points="267.01 264.87 276.73 243.96 276.73 248.3 290.42 236.76 275.46 257.53 275.46 252.91 267.01 264.87"/><polygon class="cls-3" points="222.93 256.87 213.21 235.97 213.21 240.3 199.52 228.76 214.48 249.53 214.48 244.91 222.93 256.87"/><polygon class="cls-36" points="268.92 255.23 268.93 245.25 269.72 246.95 272.99 239.92 270.9 250.81 270.06 249 268.92 255.23"/><polygon class="cls-39" points="219.77 242.79 219.76 232.8 218.97 234.5 215.7 227.48 217.79 238.37 218.63 236.55 219.77 242.79"/><polygon class="cls-36" points="275.11 266.25 284.5 262.87 283.17 264.19 290.89 264.89 279.94 266.61 281.36 265.21 275.11 266.25"/><path class="cls-37" d="M229.28,246.49c.33.2.68.41,1.06.62v-2.6a10.28,10.28,0,0,1-1.06-.77Z"/><path class="cls-22" d="M279.63,235.13a.56.56,0,1,0,.56-.56A.56.56,0,0,0,279.63,235.13Z"/><path class="cls-17" d="M270.55,286.16a174.27,174.27,0,0,1-48.28,0c-7.7-1.07-13.86,3.72-13.86,11.43V301c0,7.7,6.16,15.4,13.86,16.47q6.54.91,13.13,1.33v-.14a3.8,3.8,0,0,1,4-3.81q7,.28,13.94,0a3.8,3.8,0,0,1,4,3.81v.14q6.58-.42,13.13-1.33c7.7-1.07,13.87-8.77,13.87-16.47v-3.41C284.42,289.88,278.25,285.09,270.55,286.16Z"/><path class="cls-40" d="M270.55,285.81a173.51,173.51,0,0,1-48.28,0c-7.7-1.06-13.86,3.73-13.86,11.44v3.41c0,7.69,6.16,15.4,13.86,16.46q6.54.93,13.13,1.34v-.15a3.82,3.82,0,0,1,4-3.81q7,.28,13.94,0a3.82,3.82,0,0,1,4,3.81v.15q6.58-.42,13.13-1.34c7.7-1.06,13.87-8.77,13.87-16.46v-3.41C284.42,289.54,278.25,284.75,270.55,285.81Z"/><path class="cls-41" d="M270.55,284.62a174.27,174.27,0,0,1-48.28,0c-7.7-1.07-13.86,3.72-13.86,11.43v3.41c0,7.7,6.16,15.4,13.86,16.47q6.54.92,13.13,1.33v-.14a3.8,3.8,0,0,1,4-3.81q7,.29,13.94,0a3.8,3.8,0,0,1,4,3.81v.14q6.58-.42,13.13-1.33c7.7-1.07,13.87-8.77,13.87-16.47v-3.41C284.42,288.34,278.25,283.55,270.55,284.62Z"/><path class="cls-42" d="M270.55,285a174.27,174.27,0,0,1-48.28,0c-7.7-1.07-13.86,3.72-13.86,11.44v3.41c0,7.69,6.16,15.39,13.86,16.46q6.54.92,13.13,1.33v-.14a3.8,3.8,0,0,1,4-3.81q7,.28,13.94,0a3.8,3.8,0,0,1,4,3.81v.14q6.58-.41,13.13-1.33c7.7-1.07,13.87-8.77,13.87-16.46V296.4C284.42,288.68,278.25,283.89,270.55,285Z"/><path class="cls-43" d="M270.55,314.57q-6.54.93-13.13,1.34v-.14a3.8,3.8,0,0,0-4-3.81q-7,.27-13.94,0a3.8,3.8,0,0,0-4,3.81v.14q-6.59-.42-13.13-1.34c-7.7-1.06-13.86-8.76-13.86-16.46v1.7c0,7.69,6.16,15.39,13.86,16.46q6.54.92,13.13,1.33v-.14a3.8,3.8,0,0,1,4-3.81q7,.28,13.94,0a3.8,3.8,0,0,1,4,3.81v.14q6.58-.41,13.13-1.33c7.7-1.07,13.87-8.77,13.87-16.46v-1.7C284.42,305.8,278.25,313.51,270.55,314.57Z"/><path class="cls-44" d="M233.44,300.59a9.15,9.15,0,1,1-9.15-9.15A9.15,9.15,0,0,1,233.44,300.59Z"/><path class="cls-45" d="M226.84,296.17l-2.55,2.54-2.54-2.54a1.33,1.33,0,0,0-1.88,1.87l2.55,2.55-2.55,2.55a1.33,1.33,0,0,0,1.88,1.87l2.54-2.54,2.55,2.54a1.33,1.33,0,0,0,1.88-1.88l-2.55-2.54,2.55-2.55a1.33,1.33,0,0,0-1.88-1.87Z"/><path class="cls-44" d="M277.09,307.5a9.15,9.15,0,1,1-9.15-9.15A9.15,9.15,0,0,1,277.09,307.5Z"/><path class="cls-45" d="M270.48,303.07l-2.54,2.55-2.55-2.54a1.33,1.33,0,1,0-1.88,1.87l2.55,2.55L263.51,310a1.35,1.35,0,0,0,0,1.88,1.33,1.33,0,0,0,1.88,0l2.55-2.55,2.54,2.55a1.33,1.33,0,0,0,1.88-1.88l-2.55-2.54,2.55-2.55a1.33,1.33,0,0,0,0-1.88A1.35,1.35,0,0,0,270.48,303.07Z"/><g class="cls-46"><path class="cls-16" d="M275.55,285.13a110.78,110.78,0,0,1-18.46,32,4.11,4.11,0,0,1,.33,1.62v.15c3.17-.21,6.33-.54,9.49-.93a114.64,114.64,0,0,0,15-28.8A11.08,11.08,0,0,0,275.55,285.13Z"/><path class="cls-16" d="M235.4,318.87v-.15a3.88,3.88,0,0,1,4-4c2.87.12,5.75.16,8.62.13a132.59,132.59,0,0,0,17.79-29.34,167.33,167.33,0,0,1-23.78,1.07,94.74,94.74,0,0,1-23.45,29.77,13.74,13.74,0,0,0,3.65,1.1Q228.81,318.44,235.4,318.87Z"/><path class="cls-16" d="M235.65,286.34c-1.74-.12-3.48-.26-5.22-.43a100.43,100.43,0,0,1-19.6,23.21,19.27,19.27,0,0,0,2.24,3.12A116,116,0,0,0,235.65,286.34Z"/></g><path class="cls-47" d="M224.73,293.09a6,6,0,1,1-6-6A6,6,0,0,1,224.73,293.09Z"/><circle class="cls-47" cx="224.69" cy="289.79" r="2.69"/><path class="cls-47" d="M276,291.44a2.7,2.7,0,1,1-2.7-2.69A2.69,2.69,0,0,1,276,291.44Z"/><path class="cls-47" d="M278,292.79a2,2,0,1,1-2-2A2,2,0,0,1,278,292.79Z"/><path class="cls-17" d="M246.25,320a30.39,30.39,0,0,0-25.65,13.76,53.93,53.93,0,0,0,51.28,0A30.38,30.38,0,0,0,246.25,320Z"/><path class="cls-48" d="M246.25,320a30,30,0,0,0-25.34,13.92,53.89,53.89,0,0,0,50.68,0A30,30,0,0,0,246.25,320Z"/><path class="cls-49" d="M270.25,334.57c.45-.22.9-.43,1.34-.66A30,30,0,0,0,246.25,320C256.07,320,264.77,325.72,270.25,334.57Z"/><path class="cls-49" d="M246.25,320a30,30,0,0,0-25.34,13.92c.44.23.89.44,1.34.66C227.73,325.72,236.43,320,246.25,320Z"/><polygon class="cls-18" points="202.25 266.51 202.6 278.25 206.61 268.89 202.25 266.51"/><path class="cls-17" d="M268.6,320.35a3.86,3.86,0,1,1-1.13,5.35A3.87,3.87,0,0,1,268.6,320.35Z"/><path class="cls-50" d="M268.57,320.49a3.76,3.76,0,1,1-1.1,5.21A3.76,3.76,0,0,1,268.57,320.49Z"/><path class="cls-11" d="M269.26,321.54a2.51,2.51,0,1,1-.74,3.47A2.52,2.52,0,0,1,269.26,321.54Z"/><path class="cls-51" d="M272.61,322.35a2.5,2.5,0,0,0-3.4-.77l.05,0a2.51,2.51,0,0,1,2.73,4.21l-.06,0A2.5,2.5,0,0,0,272.61,322.35Z"/><path class="cls-52" d="M269.76,322.32a1.58,1.58,0,1,1-.46,2.18A1.58,1.58,0,0,1,269.76,322.32Z"/><path class="cls-17" d="M275.73,317.71a2.2,2.2,0,1,1-.65,3A2.2,2.2,0,0,1,275.73,317.71Z"/><path class="cls-50" d="M275.71,317.79a2.14,2.14,0,1,1-.63,3A2.13,2.13,0,0,1,275.71,317.79Z"/><path class="cls-44" d="M276.1,318.39a1.43,1.43,0,1,1-.42,2A1.43,1.43,0,0,1,276.1,318.39Z"/><path class="cls-53" d="M278,318.85a1.43,1.43,0,0,0-1.94-.44l0,0a1.43,1.43,0,1,1,1.56,2.39l0,0A1.43,1.43,0,0,0,278,318.85Z"/><path class="cls-45" d="M276.39,318.83a.9.9,0,0,1,1,1.51.9.9,0,0,1-1-1.51Z"/><path class="cls-17" d="M280.54,314.59a2.2,2.2,0,1,1-.65,3A2.2,2.2,0,0,1,280.54,314.59Z"/><path class="cls-50" d="M280.52,314.67a2.14,2.14,0,1,1-.63,3A2.13,2.13,0,0,1,280.52,314.67Z"/><path class="cls-54" d="M280.9,315.26a1.44,1.44,0,0,1,2,.43,1.42,1.42,0,1,1-2.39,1.55A1.44,1.44,0,0,1,280.9,315.26Z"/><path class="cls-55" d="M282.82,315.73a1.43,1.43,0,0,0-1.94-.44l0,0a1.44,1.44,0,0,1,2,.43,1.42,1.42,0,0,1-.42,2l0,0A1.42,1.42,0,0,0,282.82,315.73Z"/><path class="cls-56" d="M281.2,315.71a.9.9,0,0,1,1.24.26.9.9,0,1,1-1.24-.26Z"/><path class="cls-17" d="M258.11,328.93a12.37,12.37,0,0,0-22.87,5,3.25,3.25,0,0,0,2.83,3.58l.39,0a3.14,3.14,0,0,0,.68-.07,3.24,3.24,0,0,0,2.52-2.78,5.9,5.9,0,0,1,4.61-5.1,6,6,0,0,1,6.32,2.71,3.23,3.23,0,0,0,5.52-3.35Z"/><path class="cls-57" d="M258.11,328.79a12.37,12.37,0,0,0-22.87,5,3.25,3.25,0,0,0,2.83,3.59l.39,0a3.26,3.26,0,0,0,3.2-2.86,5.91,5.91,0,0,1,4.61-5.1,6,6,0,0,1,6.32,2.72,3.23,3.23,0,0,0,4.44,1.08A3.24,3.24,0,0,0,258.11,328.79Z"/><path class="cls-42" d="M239,336.49a2.09,2.09,0,0,1-.79,0,2.39,2.39,0,0,1-2.1-2.65,11.53,11.53,0,0,1,21.32-4.65,2.39,2.39,0,0,1-4.08,2.48,6.76,6.76,0,0,0-12.49,2.72A2.37,2.37,0,0,1,239,336.49Z"/><g class="cls-46"><path class="cls-16" d="M196.72,288.74c-.11,9,2.08,17.36,5.66,25.55,1.45,3.3,6.27.45,4.83-2.83a54.7,54.7,0,0,1-4.9-22.72c.05-3.61-5.55-3.61-5.59,0Z"/><path class="cls-16" d="M199.27,284c3.6,0,3.6-5.6,0-5.6s-3.61,5.6,0,5.6Z"/><path class="cls-16" d="M290.27,295.78a21,21,0,0,1-1.91,9.06,2.8,2.8,0,0,0,1.95,3.44,2.87,2.87,0,0,0,3.45-1.95,25,25,0,0,0,2.11-10.55c-.19-3.59-5.78-3.61-5.6,0Z"/><path class="cls-16" d="M293.32,291c3.61,0,3.61-5.6,0-5.6s-3.61,5.6,0,5.6Z"/><path class="cls-16" d="M175.09,289.54a1.4,1.4,0,0,0,0-2.8,1.4,1.4,0,0,0,0,2.8Z"/><path class="cls-16" d="M181.94,280.74a20.26,20.26,0,0,0-1.88,6.66c-.3,1.76,2.39,2.52,2.7.74a18.45,18.45,0,0,1,1.59-6,1.4,1.4,0,0,0-2.41-1.41Z"/><path class="cls-16" d="M181.78,293.51a1.4,1.4,0,0,0,0-2.8,1.4,1.4,0,0,0,0,2.8Z"/><path class="cls-16" d="M188.23,290.28a1.4,1.4,0,0,0,0-2.79,1.4,1.4,0,0,0,0,2.79Z"/><path class="cls-16" d="M187.86,286.32a1.4,1.4,0,0,0,0-2.8,1.4,1.4,0,0,0,0,2.8Z"/><path class="cls-16" d="M188.35,282.85a1.4,1.4,0,0,0,0-2.8,1.4,1.4,0,0,0,0,2.8Z"/><path class="cls-16" d="M316.83,289.54a1.4,1.4,0,0,1,0-2.8,1.4,1.4,0,0,1,0,2.8Z"/><path class="cls-16" d="M310,280.74a20.49,20.49,0,0,1,1.87,6.66c.31,1.76-2.39,2.52-2.7.74a18.2,18.2,0,0,0-1.59-6,1.4,1.4,0,0,1,2.42-1.41Z"/><path class="cls-16" d="M310.14,293.51a1.4,1.4,0,0,1,0-2.8,1.4,1.4,0,0,1,0,2.8Z"/><path class="cls-16" d="M303.69,290.28a1.4,1.4,0,0,1,0-2.79,1.4,1.4,0,0,1,0,2.79Z"/><path class="cls-16" d="M304.07,286.32a1.4,1.4,0,0,1,0-2.8,1.4,1.4,0,0,1,0,2.8Z"/><path class="cls-16" d="M303.57,282.85a1.4,1.4,0,0,1,0-2.8,1.4,1.4,0,0,1,0,2.8Z"/></g><path class="cls-23" d="M219,95.16c.46,4.57-2.07,7.27-5.44,7.74s-6.41-1.75-7.13-5.72c-.75-4.17,1.59-7.4,5.43-7.94S218.57,91.23,219,95.16Zm-10.68,1.66c.47,2.81,2.43,5.06,5.14,4.68s4-3,3.66-6c-.29-2.63-2.09-5.23-5.15-4.81S207.8,93.93,208.28,96.82Z"/><path class="cls-23" d="M232.73,94.23c.12,4.59-2.6,7.09-6,7.31s-6.25-2.22-6.67-6.23c-.44-4.21,2.12-7.27,6-7.51S232.63,90.28,232.73,94.23ZM222,95.09c.26,2.84,2,5.22,4.77,5s4.2-2.74,4.09-5.77c-.1-2.64-1.7-5.36-4.78-5.17S221.71,92.18,222,95.09Z"/><path class="cls-23" d="M246.52,94.31c-.22,4.58-3.12,6.88-6.51,6.86s-6.06-2.68-6.18-6.72c-.13-4.22,2.64-7.08,6.51-7S246.71,90.36,246.52,94.31Zm-10.78.07c0,2.85,1.65,5.36,4.38,5.38s4.39-2.42,4.5-5.44c.1-2.65-1.29-5.48-4.38-5.51S235.69,91.45,235.74,94.38Z"/><path class="cls-23" d="M248.77,88a20.59,20.59,0,0,1,3.58,0,6.06,6.06,0,0,1,3.92,1.43,3.47,3.47,0,0,1,1,2.9,3.89,3.89,0,0,1-1.35,2.73,6.1,6.1,0,0,1-4.34,1.11,7,7,0,0,1-1.42-.21c-.11,1.77-.23,3.55-.34,5.33l-1.72-.1Zm1.46,6.53a6.48,6.48,0,0,0,1.47.23c2.15.16,3.56-.72,3.72-2.56s-1.09-2.72-3.13-2.87a9.18,9.18,0,0,0-1.74,0C250.44,91.12,250.33,92.84,250.23,94.57Z"/><path class="cls-23" d="M258.21,99.91a6.45,6.45,0,0,0,3,1.23c1.77.23,2.93-.54,3.12-1.87s-.44-2-2.21-3c-2.15-1.05-3.44-2.31-3.24-4.18.22-2.06,2.23-3.41,5-3A6.7,6.7,0,0,1,267,90.16c-.24.44-.48.87-.71,1.31a5.91,5.91,0,0,0-2.61-1c-1.94-.25-2.81.75-2.91,1.65-.15,1.24.64,1.94,2.46,2.9,2.23,1.18,3.24,2.44,2.94,4.37s-2.1,3.55-5.22,3.15a7.15,7.15,0,0,1-3.31-1.24C257.82,100.84,258,100.38,258.21,99.91Z"/><path class="cls-23" d="M267.32,102.24a1.17,1.17,0,0,1,1.37-1,1.15,1.15,0,0,1,1,1.41,1.19,1.19,0,1,1-2.34-.39Zm.95-2.71c.42-3.14.84-6.28,1.24-9.42l2,.34c-.64,3.1-1.27,6.21-1.9,9.31Z"/><polygon class="cls-23" points="288.88 95.48 289.77 97.12 291.41 98.01 289.77 98.91 288.88 100.54 287.98 98.91 286.35 98.01 287.98 97.12 288.88 95.48"/><polygon class="cls-23" points="203.96 87.97 204.86 89.61 206.49 90.5 204.86 91.4 203.96 93.03 203.07 91.4 201.44 90.5 203.07 89.61 203.96 87.97"/><polygon class="cls-23" points="208.19 85.46 208.64 86.28 209.46 86.72 208.64 87.17 208.19 87.99 207.75 87.17 206.93 86.72 207.75 86.28 208.19 85.46"/><polygon class="cls-23" points="210.5 104.8 210.95 105.61 211.76 106.06 210.95 106.51 210.5 107.33 210.05 106.51 209.23 106.06 210.05 105.61 210.5 104.8"/><polygon class="cls-23" points="286.35 101.35 286.8 102.17 287.61 102.62 286.8 103.07 286.35 103.88 285.9 103.07 285.09 102.62 285.9 102.17 286.35 101.35"/><path class="cls-3" d="M324.92,269.64l.58.23,4.48-3.2-1.88-.95Zm-1.63,2,1.63-2-5-2Zm6.69-5,4.93,2.5,1.71-2.62-5.31-.83Zm-19.57-.95-3.1,3.45,7.95-3.45,4.66,1.89-3.47-4.13Zm44.13-15.46,2.42,6.92.39-10.48Zm-17.92,16.29.36.06,4.59-2.09L338.3,264Zm20.33-9-15.38,7,11.71,2,4.07-8.22-.39-1.11Z"/><g class="cls-58"><polygon class="cls-59" points="340.43 267.9 340.92 267.27 338.31 266.82 336.62 269.41 336.98 269.47 340.43 267.9"/><polygon class="cls-59" points="346.52 228.4 354.16 231.71 351.96 228.34 347.45 227.2 346.52 228.4"/><polygon class="cls-59" points="336.62 269.41 331.31 268.58 329.98 269.53 334.91 272.03 336.62 269.41"/><path class="cls-59" d="M366.72,230.83c-.35-.36-.7-.71-1.05-1l-3.87,1.86-4.42,1.45-3.22-1.39,2.42,3.71Z"/><polygon class="cls-59" points="343.62 233.02 343.33 232.5 340.29 236.42 343.62 233.02"/><polygon class="cls-59" points="329.98 269.53 328.1 268.58 324.92 272.49 325.5 272.73 329.98 269.53"/><path class="cls-59" d="M354.22,267.47c-.88-.09-1.77-.17-2.68-.24l-.36,1.78,2.1.36Z"/><polygon class="cls-59" points="319.92 270.47 316.76 266.72 315.3 268.6 319.92 270.47"/><polygon class="cls-59" points="324.92 272.49 319.92 270.47 323.3 274.48 324.92 272.49"/></g><polygon class="cls-3" points="340.18 236.53 340.56 229.21 343.13 226.19 357.35 228.76 361.75 226.19 367.37 222.06 368.17 204 368.17 223.07 356.55 231.28 351.94 225.37 345.84 225.37 342.34 230.15 343.61 232.16 340.18 236.53"/><g class="cls-58"><polygon class="cls-59" points="146.31 292.97 141.09 292.97 140.77 293.09 146.26 293.09 146.31 292.97"/><polygon class="cls-59" points="155.19 286.74 157.74 282.15 155.19 283.02 155.19 286.74"/><polygon class="cls-59" points="171.01 276.41 158.77 280.29 157.74 282.15 172.37 277.15 171.01 276.41"/><polygon class="cls-59" points="164.43 271.49 163.92 272.57 171.01 276.41 171.84 276.15 164.43 271.49"/><path class="cls-59" d="M165.57,269l-2.12,1.91,1,.62,1.18-2.53Z"/></g><polygon class="cls-3" points="180.84 270.28 166.43 259.17 161.98 270.74 170.63 275.17 148.41 284.47 145.77 293.09 140.77 293.09 153.49 287.33 157.28 279.13 170.04 274.11 161.44 268.99 172.04 257.66 180.84 270.28"/><polygon class="cls-59" points="110.9 296.54 110.57 297.2 125.09 299.48 126.3 305.09 126.63 296.57 110.9 296.54"/><polygon class="cls-59" points="133.04 309.85 132.68 310.58 139.13 310.58 133.04 309.85"/><polygon class="cls-59" points="127.48 310.58 126.3 305.09 126.08 310.58 127.48 310.58"/><polygon class="cls-3" points="139.56 310.63 134.66 316.65 125.92 316.65 121.71 301.21 98.56 300.5 123.61 298.11 122.66 317.89 127.28 318 131.51 310.63 139.56 310.63"/><path class="cls-6" d="M321.05,372.29c0,1.29-3.79,2.34-8.45,2.34s-8.46-1.05-8.46-2.34,3.78-2.33,8.46-2.33S321.05,371,321.05,372.29Z"/><path class="cls-6" d="M320.28,372.14c0,.43-.95.78-2.12.78s-2.12-.35-2.12-.78.95-.77,2.12-.77S320.28,371.72,320.28,372.14Z"/><path class="cls-29" d="M319.63,371.67c.71-1.91,1.5-3.67,1.28-5.76a6.5,6.5,0,0,0-3.68-4.84c-3.05-1.41-6.15,1.64-7.56,4a6,6,0,0,0-.73,5.2c.95,2.2,3.29,2,5,.85,3.09-2.17,3.6-7.14,2.14-10.35-1.9-4.18-7.45-4.89-11-2.61a8.17,8.17,0,0,0-3.58,4.49c-.58,2,.35,4.51,2.62,4.88,2,.33,4.05-1.14,5-2.81a7.72,7.72,0,0,0,.72-5.15c-.78-4.07-5.57-6.78-9.33-4.79-2.45,1.29-4.9,4.92-3.91,7.76.45,1.31,2.37.34,1.92-.95a3.69,3.69,0,0,1,.16-1.25,7.06,7.06,0,0,1,1.09-2.11,4.29,4.29,0,0,1,4.16-2c3.64.72,5.38,5.72,2.57,8.32-.68.62-1.86,1.26-2.64.48s-.35-1.91,0-2.65a6.92,6.92,0,0,1,4.64-3.39,5.38,5.38,0,0,1,5.47,2.29,6.85,6.85,0,0,1,.56,5,5.7,5.7,0,0,1-1.54,2.85c-.88.88-2,1.15-2.18-.28-.27-1.76,1.18-3.64,2.37-4.75,1.39-1.3,3-1.7,4.45-.21,2.09,2.23.9,4.65,0,7.08-.48,1.3,1.56,2,2,.67Z"/><path class="cls-30" d="M310.44,359h0l-.32,0Z"/><path class="cls-30" d="M313.53,360.78c.1.11.18.23.27.35a7.94,7.94,0,0,0-.86.46,3,3,0,0,1,.92,2,3.4,3.4,0,0,1,.75-.4,8,8,0,0,1,.09.84h0A4.9,4.9,0,0,0,313.53,360.78Z"/><path class="cls-30" d="M315.44,359.72a9.69,9.69,0,0,1,1.37,4.08c0-.18,0-.36-.05-.54a3.43,3.43,0,0,1,.48.33,9.76,9.76,0,0,0-.7-2.76,4.37,4.37,0,0,0-.5-.09A6.83,6.83,0,0,0,315.44,359.72Z"/><path class="cls-30" d="M313.16,360.39Z"/><path class="cls-30" d="M313.47,360.71a.94.94,0,0,0-.1-.1A.94.94,0,0,1,313.47,360.71Z"/><path class="cls-30" d="M305.75,357.14h0a4.87,4.87,0,0,1,.49.43,5.42,5.42,0,0,0-.69.32,9,9,0,0,1,3-1,5.85,5.85,0,0,0-.45-.54A6.93,6.93,0,0,0,305.75,357.14Z"/><path class="cls-30" d="M306.54,359.77c.29-.15.59-.29.89-.41a6.18,6.18,0,0,1,.27.83h0a4.66,4.66,0,0,1,2.11-.43l0-.17a6.25,6.25,0,0,0-.16-.62,6,6,0,0,0-3.08.8Z"/><g class="cls-34"><path class="cls-60" d="M168.2,402.49l-2-.28v3.59a.77.77,0,0,1-.92.78,1.09,1.09,0,0,1-.91-1v-9.76a.77.77,0,0,1,.91-.78h0l2.94.41a4.17,4.17,0,0,1,3.54,4A3,3,0,0,1,168.2,402.49Zm-2-2.12,2,.28a1.46,1.46,0,0,0,1.71-1.46,2,2,0,0,0-1.71-1.95l-2-.28Z"/><path class="cls-60" d="M180.33,405.78l-4-.47c-.27.68-.54,1.37-.8,2.05a.79.79,0,0,1-.86.47.85.85,0,0,1-.32-.09,1.07,1.07,0,0,1-.54-1.26q1.83-4.64,3.65-9.29a.79.79,0,0,1,.87-.48,1.07,1.07,0,0,1,.88.68c1.21,3.4,2.43,6.78,3.64,10.17a.84.84,0,0,1-.54,1.13,1,1,0,0,1-1.16-.66Zm-.67-1.9c-.45-1.23-.89-2.47-1.34-3.71-.44,1.13-.89,2.27-1.34,3.4Z"/><path class="cls-60" d="M185.72,403.17a5.36,5.36,0,0,1,6.1-5.36,6.83,6.83,0,0,1,3.77,1.64,1,1,0,0,1,.18,1.36,1,1,0,0,1-1.34,0,4.63,4.63,0,0,0-2.61-1.14,3.78,3.78,0,0,0-3,.91,3.59,3.59,0,0,0-1.24,2.76,4.39,4.39,0,0,0,1.24,3,4.57,4.57,0,0,0,3,1.5,4.25,4.25,0,0,0,2.26-.42v-2.26l-2.36-.23a1.06,1.06,0,0,1-.94-1,.83.83,0,0,1,.94-.84l3.26.31h0a1,1,0,0,1,1,1V408a1.16,1.16,0,0,1-.05.28.26.26,0,0,0,0,.08v0a.68.68,0,0,1-.32.36,5.63,5.63,0,0,1-3.75,1A6.79,6.79,0,0,1,185.72,403.17Z"/><path class="cls-60" d="M201.35,409.65v-9.76a.82.82,0,0,1,.91-.84h.05c1.79.14,3.57.27,5.36.39a1,1,0,0,1,.91,1,.86.86,0,0,1-.91.86c-1.49-.1-3-.21-4.48-.33v3l3.85.28a1,1,0,0,1,.91,1,.84.84,0,0,1-.91.86l-3.85-.28v3c1.49.12,3,.23,4.48.33a1,1,0,0,1,.91,1,.86.86,0,0,1-.91.85l-5.36-.4s0,0,0,0v0A1,1,0,0,1,201.35,409.65Z"/><path class="cls-60" d="M220.28,410.87a.86.86,0,0,1-.89.87,1,1,0,0,1-.92-1v-9.63a.86.86,0,0,1,.37-.74.94.94,0,0,1,1.26.26q2.67,3.82,5.35,7.63v-6.81a.86.86,0,0,1,.9-.86.94.94,0,0,1,.91.92v9.62a.87.87,0,0,1-.91.87.91.91,0,0,1-.68-.35s-.07-.07-.08-.11q-2.66-3.76-5.31-7.58Z"/><path class="cls-60" d="M241.23,402.29a6.15,6.15,0,0,1,1.67,4.21,5.93,5.93,0,0,1-1.67,4.16,5.3,5.3,0,0,1-4,1.71,5.75,5.75,0,0,1-4.06-1.87,6.17,6.17,0,0,1-1.64-4.23,5.9,5.9,0,0,1,1.64-4.15,5.47,5.47,0,0,1,8,.17Zm-.22,4.18a4.35,4.35,0,0,0-1.13-2.91,3.62,3.62,0,0,0-2.62-1.22,3.52,3.52,0,0,0-2.68,1.11,4.09,4.09,0,0,0-1.13,2.87,4.24,4.24,0,0,0,1.13,2.91,3.68,3.68,0,0,0,2.68,1.25,3.51,3.51,0,0,0,2.62-1.14A4.17,4.17,0,0,0,241,406.47Z"/><path class="cls-60" d="M254,402.73h-2.64v8.84a.91.91,0,0,1-1.82,0v-8.83h-2.62a.93.93,0,0,1-.92-.93.9.9,0,0,1,.92-.91q3.54,0,7.08,0a.9.9,0,0,1,.91.9A.94.94,0,0,1,254,402.73Z"/><path class="cls-60" d="M265,411.39v-9.77a.94.94,0,0,1,.91-.93h.05l5.37-.17a.89.89,0,0,1,.92.88,1,1,0,0,1-.92,1l-4.49.14v3l3.86-.12a.9.9,0,0,1,.92.88,1,1,0,0,1-.92.95l-3.86.13v4a1,1,0,0,1-.93.93A.88.88,0,0,1,265,411.39Z"/><path class="cls-60" d="M285.48,401.28a5.73,5.73,0,0,1,1.67,4.09,6.4,6.4,0,0,1-1.67,4.29,5.77,5.77,0,0,1-4,2,5.27,5.27,0,0,1-4.06-1.57,5.8,5.8,0,0,1-1.65-4.11,6.36,6.36,0,0,1,1.65-4.26,5.85,5.85,0,0,1,4.06-2A5.12,5.12,0,0,1,285.48,401.28Zm-.22,4.2a4,4,0,0,0-1.12-2.83,3.44,3.44,0,0,0-2.62-1,3.86,3.86,0,0,0-2.69,1.31,4.44,4.44,0,0,0-1.12,2.95,4,4,0,0,0,1.12,2.83,3.44,3.44,0,0,0,2.69,1.05,3.82,3.82,0,0,0,2.62-1.33A4.45,4.45,0,0,0,285.26,405.48Z"/><path class="cls-60" d="M296.13,410.7a4.37,4.37,0,0,1-4.79-4.43v-5.89a1,1,0,0,1,.91-1,.84.84,0,0,1,.93.84v5.89a2.71,2.71,0,0,0,2.95,2.73,3.24,3.24,0,0,0,2.94-3.18v-5.9a1,1,0,0,1,.93-1,.81.81,0,0,1,.91.83v5.89A5.27,5.27,0,0,1,296.13,410.7Z"/><path class="cls-60" d="M308,408.76a1,1,0,0,1-.89,1,.81.81,0,0,1-.91-.82V399.3a1,1,0,0,1,.37-.8.88.88,0,0,1,1.25.08l5.34,6.86v-6.82a1,1,0,0,1,.89-1,.81.81,0,0,1,.91.8V408a1,1,0,0,1-.91,1,.82.82,0,0,1-.68-.26l-.08-.09L308,401.89Z"/><path class="cls-60" d="M319.77,407.5v-9.76a1,1,0,0,1,.91-1l1.95-.23a5,5,0,0,1,5.75,5.05,6.73,6.73,0,0,1-5.75,6.53l-1.95.24A.8.8,0,0,1,319.77,407.5Zm1.83-1.14,1-.12a4.62,4.62,0,0,0,3.92-4.47,3.41,3.41,0,0,0-3.92-3.45l-1,.13Z"/><path class="cls-60" d="M333.09,402.72V396a1.1,1.1,0,0,1,.91-1,.76.76,0,0,1,.89.78v6.69a1.06,1.06,0,0,1-.89,1A.77.77,0,0,1,333.09,402.72Zm.91,3.86a.77.77,0,0,1-.91-.78v-.33a1.1,1.1,0,0,1,.91-1,.77.77,0,0,1,.89.78v.33A1.06,1.06,0,0,1,334,406.58Z"/></g></g><g id="DESIGNED_BY_FREEPIK" data-name="DESIGNED BY FREEPIK"><path class="cls-16" d="M180,485.76v-.16a4,4,0,0,1-.64.61,2.53,2.53,0,0,1-.69.36,2.66,2.66,0,0,1-.82.12,2.44,2.44,0,0,1-1.08-.24,2.66,2.66,0,0,1-.86-.71,3.24,3.24,0,0,1-.55-1.08,4.43,4.43,0,0,1-.19-1.34,3.48,3.48,0,0,1,.75-2.38,2.46,2.46,0,0,1,2-.85,2.64,2.64,0,0,1,1.18.24,3.29,3.29,0,0,1,.94.74v-2.4a1.27,1.27,0,0,1,.2-.76.7.7,0,0,1,.57-.25.72.72,0,0,1,.57.23,1.08,1.08,0,0,1,.2.7v7.17a1,1,0,0,1-.21.7.75.75,0,0,1-.56.23.72.72,0,0,1-.55-.24A1,1,0,0,1,180,485.76Zm-3.2-2.39a2.75,2.75,0,0,0,.21,1.13,1.59,1.59,0,0,0,.56.7,1.38,1.38,0,0,0,.78.24,1.46,1.46,0,0,0,.79-.23,1.6,1.6,0,0,0,.56-.68,2.83,2.83,0,0,0,.21-1.16,2.76,2.76,0,0,0-.21-1.12,1.7,1.7,0,0,0-.57-.71,1.4,1.4,0,0,0-.79-.25,1.34,1.34,0,0,0-.8.26,1.62,1.62,0,0,0-.54.72A2.92,2.92,0,0,0,176.84,483.37Z"/><path class="cls-16" d="M187.22,483.79H184a2,2,0,0,0,.22,1,1.51,1.51,0,0,0,.58.64,1.53,1.53,0,0,0,.79.21,1.74,1.74,0,0,0,.53-.07,1.42,1.42,0,0,0,.47-.21,4.56,4.56,0,0,0,.42-.31c.13-.11.29-.27.49-.46a.57.57,0,0,1,.36-.1.61.61,0,0,1,.41.13.51.51,0,0,1,.15.39,1.12,1.12,0,0,1-.17.52,2.23,2.23,0,0,1-.52.56,3,3,0,0,1-.88.45,3.71,3.71,0,0,1-1.21.18,3.26,3.26,0,0,1-2.44-.89,3.35,3.35,0,0,1-.87-2.43,3.83,3.83,0,0,1,.22-1.33,2.86,2.86,0,0,1,.62-1.06,2.69,2.69,0,0,1,1-.68,3.54,3.54,0,0,1,1.33-.23,3.16,3.16,0,0,1,1.64.4,2.68,2.68,0,0,1,1,1,2.8,2.8,0,0,1,.34,1.3.82.82,0,0,1-.35.79A2.23,2.23,0,0,1,187.22,483.79Zm-3.18-.93h3a2,2,0,0,0-.46-1.25,1.36,1.36,0,0,0-1-.41,1.3,1.3,0,0,0-1,.42A2,2,0,0,0,184,482.86Z"/><path class="cls-16" d="M194.63,484.56a2,2,0,0,1-.33,1.16,2,2,0,0,1-1,.73,4.41,4.41,0,0,1-1.56.24,3.79,3.79,0,0,1-1.5-.27,2.22,2.22,0,0,1-.92-.67,1.33,1.33,0,0,1-.3-.8.6.6,0,0,1,.19-.46.66.66,0,0,1,.49-.19.57.57,0,0,1,.39.12,1.27,1.27,0,0,1,.26.35,1.58,1.58,0,0,0,1.55.87,1.4,1.4,0,0,0,.8-.22.61.61,0,0,0,.31-.5.65.65,0,0,0-.32-.62,4.06,4.06,0,0,0-1.07-.38,9.28,9.28,0,0,1-1.37-.44,2.21,2.21,0,0,1-.84-.6,1.39,1.39,0,0,1-.32-.92,1.67,1.67,0,0,1,.29-.93,2,2,0,0,1,.87-.69,3.16,3.16,0,0,1,1.37-.26,4.33,4.33,0,0,1,1.13.13,2.65,2.65,0,0,1,.85.35,1.85,1.85,0,0,1,.51.49,1,1,0,0,1,.17.52.62.62,0,0,1-.18.46.77.77,0,0,1-.54.18.64.64,0,0,1-.42-.14,2.89,2.89,0,0,1-.41-.43,1.3,1.3,0,0,0-.43-.38,1.32,1.32,0,0,0-.68-.14,1.36,1.36,0,0,0-.73.18.55.55,0,0,0-.3.47.52.52,0,0,0,.22.42,1.65,1.65,0,0,0,.58.27c.24.07.57.16,1,.26a5.56,5.56,0,0,1,1.23.44,2,2,0,0,1,.73.61A1.3,1.3,0,0,1,194.63,484.56Z"/><path class="cls-16" d="M196.29,479.32a.84.84,0,0,1-.58-.21.73.73,0,0,1-.24-.59.72.72,0,0,1,.25-.57.8.8,0,0,1,.57-.22.87.87,0,0,1,.56.2.73.73,0,0,1,.24.59.74.74,0,0,1-.23.59A.84.84,0,0,1,196.29,479.32Zm.8,1.68v4.7a1,1,0,0,1-.23.74.75.75,0,0,1-.59.25.73.73,0,0,1-.58-.25,1.11,1.11,0,0,1-.22-.74v-4.65a1,1,0,0,1,.22-.73.75.75,0,0,1,.58-.24.78.78,0,0,1,.59.24A.92.92,0,0,1,197.09,481Z"/><path class="cls-16" d="M204.22,481.27V486a5.15,5.15,0,0,1-.17,1.4,2.19,2.19,0,0,1-1.55,1.53,5.57,5.57,0,0,1-1.54.19,4.37,4.37,0,0,1-1.5-.24,2.64,2.64,0,0,1-1-.61,1.1,1.1,0,0,1-.36-.76.62.62,0,0,1,.21-.49.66.66,0,0,1,.48-.19.82.82,0,0,1,.63.32l.27.32a1.36,1.36,0,0,0,.31.28,1.19,1.19,0,0,0,.41.18,3,3,0,0,0,.55.05,2.33,2.33,0,0,0,1-.17,1,1,0,0,0,.49-.5,1.83,1.83,0,0,0,.16-.67c0-.24,0-.63,0-1.16a2.63,2.63,0,0,1-.87.8,2.41,2.41,0,0,1-1.17.27,2.53,2.53,0,0,1-1.43-.41,2.68,2.68,0,0,1-.94-1.17,4.46,4.46,0,0,1-.32-1.74,3.93,3.93,0,0,1,.2-1.32,2.81,2.81,0,0,1,.56-1,2.37,2.37,0,0,1,.86-.62,2.78,2.78,0,0,1,1.06-.2,2.58,2.58,0,0,1,1.19.26,3,3,0,0,1,.95.84V481a.92.92,0,0,1,.2-.65.68.68,0,0,1,.54-.23.65.65,0,0,1,.63.3A2.1,2.1,0,0,1,204.22,481.27Zm-4.71,2.06a2.26,2.26,0,0,0,.43,1.5,1.42,1.42,0,0,0,1.12.5,1.48,1.48,0,0,0,.76-.21,1.66,1.66,0,0,0,.59-.66,2.3,2.3,0,0,0,.23-1.06,2.44,2.44,0,0,0-.44-1.55,1.41,1.41,0,0,0-1.16-.56,1.36,1.36,0,0,0-1.11.53A2.4,2.4,0,0,0,199.51,483.33Z"/><path class="cls-16" d="M206.81,481v.19a2.91,2.91,0,0,1,.94-.83,2.55,2.55,0,0,1,1.17-.26,2.33,2.33,0,0,1,1.15.28,1.74,1.74,0,0,1,.75.79,1.79,1.79,0,0,1,.21.64,7,7,0,0,1,.05.89v3a1.11,1.11,0,0,1-.22.74.75.75,0,0,1-.59.25.76.76,0,0,1-.59-.25,1.11,1.11,0,0,1-.22-.74V483a2.69,2.69,0,0,0-.23-1.23.9.9,0,0,0-.89-.43,1.34,1.34,0,0,0-.79.26,1.48,1.48,0,0,0-.52.72,5,5,0,0,0-.12,1.35v2a1.1,1.1,0,0,1-.23.75.78.78,0,0,1-.59.24.73.73,0,0,1-.58-.25,1.11,1.11,0,0,1-.23-.74V481a1,1,0,0,1,.2-.69.69.69,0,0,1,.56-.23.76.76,0,0,1,.39.1.79.79,0,0,1,.27.3A1.09,1.09,0,0,1,206.81,481Z"/><path class="cls-16" d="M216.7,483.79h-3.18a2.17,2.17,0,0,0,.23,1,1.49,1.49,0,0,0,.57.64,1.57,1.57,0,0,0,.8.21,1.79,1.79,0,0,0,.53-.07,1.51,1.51,0,0,0,.47-.21,4.56,4.56,0,0,0,.42-.31l.49-.46a.53.53,0,0,1,.36-.1.57.57,0,0,1,.4.13.48.48,0,0,1,.16.39,1.12,1.12,0,0,1-.17.52,2.11,2.11,0,0,1-.53.56,3,3,0,0,1-.87.45,3.76,3.76,0,0,1-1.21.18,3.26,3.26,0,0,1-2.44-.89,3.35,3.35,0,0,1-.87-2.43,4.08,4.08,0,0,1,.21-1.33,2.88,2.88,0,0,1,.63-1.06,2.65,2.65,0,0,1,1-.68,3.59,3.59,0,0,1,1.34-.23,3.13,3.13,0,0,1,1.63.4,2.55,2.55,0,0,1,1,1,2.69,2.69,0,0,1,.34,1.3c0,.4-.11.67-.35.79A2.17,2.17,0,0,1,216.7,483.79Zm-3.18-.93h2.95a2,2,0,0,0-.45-1.25,1.36,1.36,0,0,0-1-.41,1.28,1.28,0,0,0-1,.42A2,2,0,0,0,213.52,482.86Z"/><path class="cls-16" d="M223.33,485.76v-.16a4,4,0,0,1-.64.61,2.27,2.27,0,0,1-.69.36,2.66,2.66,0,0,1-.82.12,2.44,2.44,0,0,1-1.08-.24,2.66,2.66,0,0,1-.86-.71,3.44,3.44,0,0,1-.55-1.08,4.43,4.43,0,0,1-.19-1.34,3.48,3.48,0,0,1,.75-2.38,2.46,2.46,0,0,1,2-.85,2.61,2.61,0,0,1,1.18.24,3.29,3.29,0,0,1,.94.74v-2.4a1.27,1.27,0,0,1,.2-.76.7.7,0,0,1,.57-.25.72.72,0,0,1,.57.23,1,1,0,0,1,.2.7v7.17a1,1,0,0,1-.21.7.75.75,0,0,1-.56.23.72.72,0,0,1-.55-.24A1,1,0,0,1,223.33,485.76Zm-3.2-2.39a2.75,2.75,0,0,0,.21,1.13,1.59,1.59,0,0,0,.56.7,1.38,1.38,0,0,0,.78.24,1.46,1.46,0,0,0,.79-.23,1.6,1.6,0,0,0,.56-.68,2.82,2.82,0,0,0,.22-1.16,2.76,2.76,0,0,0-.22-1.12,1.7,1.7,0,0,0-.57-.71,1.4,1.4,0,0,0-.79-.25,1.34,1.34,0,0,0-.8.26,1.62,1.62,0,0,0-.54.72A2.92,2.92,0,0,0,220.13,483.37Z"/><path class="cls-16" d="M230,478.59v2.48a3.8,3.8,0,0,1,.94-.73,2.48,2.48,0,0,1,1.18-.25,2.67,2.67,0,0,1,1.42.38,2.56,2.56,0,0,1,.95,1.12,4.14,4.14,0,0,1,.33,1.73,4.79,4.79,0,0,1-.18,1.35,3.18,3.18,0,0,1-.55,1.07,2.6,2.6,0,0,1-2.69.86,2.33,2.33,0,0,1-.57-.23,3.47,3.47,0,0,1-.4-.3c-.1-.11-.25-.26-.43-.47v.16a1,1,0,0,1-.22.7.74.74,0,0,1-.56.23.72.72,0,0,1-.55-.23,1,1,0,0,1-.2-.7v-7.1a1.16,1.16,0,0,1,.2-.75.64.64,0,0,1,.55-.25.71.71,0,0,1,.58.24A1.07,1.07,0,0,1,230,478.59Zm.08,4.83a2.26,2.26,0,0,0,.44,1.49,1.47,1.47,0,0,0,1.17.53,1.34,1.34,0,0,0,1.06-.54,2.36,2.36,0,0,0,.44-1.53,3.07,3.07,0,0,0-.18-1.11,1.62,1.62,0,0,0-.53-.71,1.27,1.27,0,0,0-.79-.26,1.41,1.41,0,0,0-.83.26,1.64,1.64,0,0,0-.57.73A2.83,2.83,0,0,0,230.06,483.42Z"/><path class="cls-16" d="M236.91,486.89l.15-.36-2-5a2,2,0,0,1-.19-.63.77.77,0,0,1,.11-.39.74.74,0,0,1,.3-.28.68.68,0,0,1,.39-.11.64.64,0,0,1,.53.22,2,2,0,0,1,.31.64l1.38,4,1.3-3.73a6.3,6.3,0,0,1,.29-.71.81.81,0,0,1,.26-.34.74.74,0,0,1,.4-.09.64.64,0,0,1,.35.1.65.65,0,0,1,.26.26.64.64,0,0,1,.1.35c0,.08,0,.18-.08.33s-.08.27-.13.42l-2.12,5.55a7.47,7.47,0,0,1-.54,1.15,1.84,1.84,0,0,1-.69.64,2.56,2.56,0,0,1-1.17.23,2.86,2.86,0,0,1-1.07-.16.63.63,0,0,1-.19-1,.73.73,0,0,1,.5-.15.75.75,0,0,1,.26,0l.27,0a1.08,1.08,0,0,0,.44-.08.8.8,0,0,0,.29-.29A5.19,5.19,0,0,0,236.91,486.89Z"/><path class="cls-16" d="M260.48,480.22h.39v-.49a3.18,3.18,0,0,1,.19-1.22,1.25,1.25,0,0,1,.65-.65,3.17,3.17,0,0,1,1.27-.21c.95,0,1.43.23,1.43.7a.56.56,0,0,1-.15.39.46.46,0,0,1-.35.16,2,2,0,0,1-.34,0l-.39,0c-.29,0-.48.09-.56.26a1.78,1.78,0,0,0-.13.74v.39h.4c.62,0,.93.18.93.56a.5.5,0,0,1-.25.51,1.77,1.77,0,0,1-.68.1h-.4v4.31a1,1,0,0,1-.23.74.75.75,0,0,1-.59.25.72.72,0,0,1-.57-.25,1,1,0,0,1-.23-.74v-4.31h-.45a.85.85,0,0,1-.56-.16.54.54,0,0,1-.2-.43c0-.39.27-.58.82-.58"/><path class="cls-16" d="M265.8,484.34v1.36a1.06,1.06,0,0,1-.23.74.76.76,0,0,1-.59.25.73.73,0,0,1-.58-.25,1.07,1.07,0,0,1-.23-.74v-4.53c0-.73.27-1.1.79-1.1a.67.67,0,0,1,.59.26,1.38,1.38,0,0,1,.2.76,2.58,2.58,0,0,1,.6-.76,1.22,1.22,0,0,1,.82-.26,2.09,2.09,0,0,1,1,.26.77.77,0,0,1,.48.68.61.61,0,0,1-.2.49.64.64,0,0,1-.44.2,2,2,0,0,1-.44-.12,2.13,2.13,0,0,0-.6-.11.9.9,0,0,0-.58.19,1.14,1.14,0,0,0-.36.56,4,4,0,0,0-.17.88c0,.34-.05.75-.05,1.24"/><path class="cls-16" d="M273.28,483.78H270.1a2.32,2.32,0,0,0,.22,1,1.64,1.64,0,0,0,.58.64,1.57,1.57,0,0,0,.8.21,1.79,1.79,0,0,0,.53-.07,1.51,1.51,0,0,0,.47-.21,3.32,3.32,0,0,0,.42-.32l.49-.45a.55.55,0,0,1,.36-.11.62.62,0,0,1,.41.14.51.51,0,0,1,.15.39,1.06,1.06,0,0,1-.17.51,2.11,2.11,0,0,1-.52.57,3.16,3.16,0,0,1-.88.45,3.76,3.76,0,0,1-1.21.18,3.26,3.26,0,0,1-2.44-.89,3.35,3.35,0,0,1-.87-2.43,4.14,4.14,0,0,1,.21-1.34,2.9,2.9,0,0,1,.63-1.06,2.63,2.63,0,0,1,1-.67,3.59,3.59,0,0,1,1.34-.24,3.13,3.13,0,0,1,1.63.41,2.49,2.49,0,0,1,1,1,2.66,2.66,0,0,1,.34,1.3c0,.4-.11.67-.35.79a2.19,2.19,0,0,1-1,.18m-3.18-.92h2.95a2,2,0,0,0-.45-1.25,1.33,1.33,0,0,0-1-.41,1.28,1.28,0,0,0-1,.42,2,2,0,0,0-.47,1.24"/><path class="cls-16" d="M280.05,483.78h-3.18a2.18,2.18,0,0,0,.22,1,1.64,1.64,0,0,0,.58.64,1.54,1.54,0,0,0,.8.21,1.79,1.79,0,0,0,.53-.07,1.62,1.62,0,0,0,.47-.21,2.64,2.64,0,0,0,.41-.32l.5-.45a.52.52,0,0,1,.35-.11.6.6,0,0,1,.41.14.48.48,0,0,1,.15.39,1,1,0,0,1-.17.51,1.82,1.82,0,0,1-.52.57,3,3,0,0,1-.88.45,3.67,3.67,0,0,1-1.21.18,3.26,3.26,0,0,1-2.44-.89,3.35,3.35,0,0,1-.87-2.43,4.14,4.14,0,0,1,.22-1.34A3,3,0,0,1,276,481a2.67,2.67,0,0,1,1-.67,3.54,3.54,0,0,1,1.33-.24,3.17,3.17,0,0,1,1.64.41,2.55,2.55,0,0,1,1,1,2.66,2.66,0,0,1,.34,1.3.82.82,0,0,1-.35.79,2.24,2.24,0,0,1-1,.18m-3.18-.92h2.95a2,2,0,0,0-.45-1.25,1.33,1.33,0,0,0-1-.41,1.27,1.27,0,0,0-1,.42,2,2,0,0,0-.47,1.24"/><path class="cls-16" d="M283.61,481v.19a3.44,3.44,0,0,1,1-.83,2.4,2.4,0,0,1,1.12-.26,2.65,2.65,0,0,1,1.38.38,2.73,2.73,0,0,1,1,1.14,4,4,0,0,1,.37,1.76,4.34,4.34,0,0,1-.21,1.38,3.1,3.1,0,0,1-.59,1.06,2.43,2.43,0,0,1-.87.65,2.65,2.65,0,0,1-1.08.23,2.2,2.2,0,0,1-1.17-.28,3.27,3.27,0,0,1-.91-.82V488c0,.71-.26,1.08-.78,1.08a.66.66,0,0,1-.61-.28,1.9,1.9,0,0,1-.14-.81v-7a1,1,0,0,1,.2-.7.7.7,0,0,1,.55-.23.71.71,0,0,1,.56.24.94.94,0,0,1,.22.68m3.19,2.36a2.78,2.78,0,0,0-.19-1.1,1.68,1.68,0,0,0-.55-.71,1.33,1.33,0,0,0-.77-.25,1.47,1.47,0,0,0-1.14.53,2.38,2.38,0,0,0-.46,1.56,2.22,2.22,0,0,0,.46,1.51,1.43,1.43,0,0,0,1.14.54,1.35,1.35,0,0,0,.75-.23,1.63,1.63,0,0,0,.56-.71,3,3,0,0,0,.2-1.14"/><path class="cls-16" d="M290.08,479.32a.84.84,0,0,1-.58-.21.72.72,0,0,1-.25-.59.76.76,0,0,1,.25-.57.85.85,0,0,1,1.14,0,.72.72,0,0,1,.24.59.76.76,0,0,1-.24.59.81.81,0,0,1-.56.21m.8,1.68v4.7a1.07,1.07,0,0,1-.23.74.76.76,0,0,1-.59.25.73.73,0,0,1-.58-.25,1.11,1.11,0,0,1-.23-.74V481a1,1,0,0,1,.23-.72.73.73,0,0,1,.58-.25.76.76,0,0,1,.59.25,1,1,0,0,1,.23.68"/><path class="cls-16" d="M296.13,486l-1.44-2.36-.88.83v1.29a1,1,0,0,1-.25.73.75.75,0,0,1-.57.25.72.72,0,0,1-.59-.25,1.13,1.13,0,0,1-.21-.74v-6.94a1.44,1.44,0,0,1,.2-.82.72.72,0,0,1,.6-.29.76.76,0,0,1,.6.26,1.17,1.17,0,0,1,.22.76v3.94l1.83-1.92a4.52,4.52,0,0,1,.52-.48.69.69,0,0,1,.43-.14.73.73,0,0,1,.51.2.66.66,0,0,1,.2.48q0,.36-.66,1l-.86.79,1.67,2.62c.12.2.21.34.26.45a.67.67,0,0,1,.08.29.85.85,0,0,1-.21.61.73.73,0,0,1-.56.22.61.61,0,0,1-.46-.16,4.53,4.53,0,0,1-.43-.58"/><path class="cls-16" d="M299.66,486.69a.92.92,0,0,1-.63-.24.9.9,0,0,1,.62-1.55.87.87,0,0,1,.9.88.87.87,0,0,1-.26.67.92.92,0,0,1-.63.24"/><path class="cls-16" d="M307.75,484.68a1.42,1.42,0,0,1-.18.65,2.05,2.05,0,0,1-.55.65,2.9,2.9,0,0,1-.94.51,4,4,0,0,1-1.28.19,3.11,3.11,0,0,1-2.35-.88,3.24,3.24,0,0,1-.85-2.36,3.85,3.85,0,0,1,.39-1.77,2.8,2.8,0,0,1,1.12-1.19,3.46,3.46,0,0,1,1.75-.42,3.32,3.32,0,0,1,1.16.19,3.06,3.06,0,0,1,.9.47,2.26,2.26,0,0,1,.55.63,1.13,1.13,0,0,1,.2.61.65.65,0,0,1-.22.5.77.77,0,0,1-.52.2.53.53,0,0,1-.34-.1,1.52,1.52,0,0,1-.3-.34,2.46,2.46,0,0,0-.63-.68,1.51,1.51,0,0,0-2,.34,2.39,2.39,0,0,0-.45,1.54,2.8,2.8,0,0,0,.12.84,1.71,1.71,0,0,0,.33.66,1.45,1.45,0,0,0,.51.41,1.67,1.67,0,0,0,.67.14,1.51,1.51,0,0,0,.84-.23,1.91,1.91,0,0,0,.62-.69,1.66,1.66,0,0,1,.32-.43.66.66,0,0,1,.91.07.7.7,0,0,1,.2.49"/><path class="cls-16" d="M314.77,483.38a3.85,3.85,0,0,1-.22,1.34,2.88,2.88,0,0,1-.66,1.06,3,3,0,0,1-1,.68,3.8,3.8,0,0,1-1.34.23,3.5,3.5,0,0,1-1.33-.24,2.77,2.77,0,0,1-1-.68,3,3,0,0,1-.66-1,3.81,3.81,0,0,1-.22-1.34,4.15,4.15,0,0,1,.22-1.35,3,3,0,0,1,.65-1,3,3,0,0,1,1-.67,3.54,3.54,0,0,1,1.33-.24,3.59,3.59,0,0,1,1.34.24,3,3,0,0,1,1,.68,3,3,0,0,1,.65,1.05,3.85,3.85,0,0,1,.22,1.34m-1.63,0a2.46,2.46,0,0,0-.44-1.55,1.53,1.53,0,0,0-2-.3,1.45,1.45,0,0,0-.56.73,3.31,3.31,0,0,0,0,2.24,1.61,1.61,0,0,0,.56.73,1.49,1.49,0,0,0,.85.25,1.41,1.41,0,0,0,1.17-.56,2.43,2.43,0,0,0,.44-1.54"/><path class="cls-16" d="M321,483.5v2.17a1.16,1.16,0,0,1-.23.77.8.8,0,0,1-.62.25.75.75,0,0,1-.59-.25,1.11,1.11,0,0,1-.24-.77v-2.6c0-.41,0-.73,0-.95a1.13,1.13,0,0,0-.23-.56.76.76,0,0,0-.59-.22,1,1,0,0,0-1.05.56,3.8,3.8,0,0,0-.25,1.57v2.2a1.13,1.13,0,0,1-.23.76.83.83,0,0,1-1.21,0,1.08,1.08,0,0,1-.24-.76V481a1,1,0,0,1,.21-.7.73.73,0,0,1,.56-.24.77.77,0,0,1,.56.23.82.82,0,0,1,.22.61v.16a2.78,2.78,0,0,1,.91-.74,2.25,2.25,0,0,1,1.07-.24,2.21,2.21,0,0,1,1.06.24,1.9,1.9,0,0,1,.72.74,2.88,2.88,0,0,1,.89-.74,2.24,2.24,0,0,1,1-.24,2.44,2.44,0,0,1,1.15.26,1.68,1.68,0,0,1,.72.75,3.42,3.42,0,0,1,.21,1.39v3.18a1.16,1.16,0,0,1-.23.77.86.86,0,0,1-1.22,0,1.08,1.08,0,0,1-.24-.76v-2.74a6.35,6.35,0,0,0,0-.84,1,1,0,0,0-.24-.53.78.78,0,0,0-.6-.22,1.08,1.08,0,0,0-.61.2,1.28,1.28,0,0,0-.45.5,4.13,4.13,0,0,0-.18,1.46"/><path class="cls-16" d="M245.25,483h0Z"/><path class="cls-16" d="M245.34,483.51h0c0-.15-.06-.3-.08-.44C245.28,483.21,245.31,483.36,245.34,483.51Z"/><path class="cls-16" d="M245.87,485v0Z"/><path class="cls-16" d="M245.82,484.92a.2.2,0,0,0,0-.08A.3.3,0,0,1,245.82,484.92Z"/><path class="cls-16" d="M245.49,484.09a5.8,5.8,0,0,0,.28.73,6.46,6.46,0,0,1-.28-.73Z"/><path class="cls-16" d="M251.55,476.76a4,4,0,0,1,.81.07l.08-.48a4.88,4.88,0,0,0-1.7-.15l-.08-.26a.67.67,0,1,0-.27,0l.08.29a6.78,6.78,0,0,0-1.84.54l.14.44a8.15,8.15,0,0,1,1.65-.38A11,11,0,0,1,251.55,476.76Z"/><path class="cls-16" d="M245.86,479.18h0l.07-.09-.2-.14-.31-.22a4.61,4.61,0,0,0-.87,1.28l-.06-.07a.59.59,0,0,0-.48-.19h0a.37.37,0,0,1-.26-.09.45.45,0,0,0,.09-.26.42.42,0,0,0-.42-.42.42.42,0,0,0,0,.84h.1a.67.67,0,0,0,.51.21.33.33,0,0,1,.27.1.39.39,0,0,1,.1.26h0a4.55,4.55,0,0,0-.19,1.67l.66,0a4.9,4.9,0,0,1,.23-1.4A6.23,6.23,0,0,1,245.86,479.18Z"/><path class="cls-16" d="M257.32,477.31a.42.42,0,0,0-.42.42.3.3,0,0,0,0,.1.62.62,0,0,0-.21.51.36.36,0,0,1-.1.28.56.56,0,0,1-.19.09,4.92,4.92,0,0,0-1.1-1.12l-.47.51a7.72,7.72,0,0,1,1.08,1.25,8.31,8.31,0,0,1,.71,1.26l.65-.3a10.33,10.33,0,0,0-.71-1.38.57.57,0,0,0,.21-.12.61.61,0,0,0,.18-.47.42.42,0,0,1,.09-.28.39.39,0,0,0,.26.09.42.42,0,0,0,0-.84Z"/><path class="cls-16" d="M255.65,483.08a14.25,14.25,0,0,1-4.25,1.27,14.8,14.8,0,0,1-2.15.14,17.25,17.25,0,0,1-2.24-.14c-.67-.08-1.2-.19-1.52-.26a6.46,6.46,0,0,0,.28.73v0a.2.2,0,0,1,0,.08.3.3,0,0,1,0,.08v0a4.55,4.55,0,0,0,.68,1,3.7,3.7,0,0,0,1.83,1.15h0a7,7,0,0,0,2.07.27,9.14,9.14,0,0,0,3.56-.73,5.82,5.82,0,0,0,2-1.68,4.69,4.69,0,0,0,.66-1.44,3.77,3.77,0,0,0,.09-1.14A9.42,9.42,0,0,1,255.65,483.08Z"/><path class="cls-16" d="M246.15,479.39a6.17,6.17,0,0,0-.72,1.41,5.41,5.41,0,0,0-.21,1.54h0c0,.22,0,.43,0,.64h0a.22.22,0,0,1,0,.08c0,.14.05.29.08.44a16.9,16.9,0,0,0,6,.31,13.58,13.58,0,0,0,4.07-1.2,8.73,8.73,0,0,0,1.34-.78,8.89,8.89,0,0,0-1.1-2.29,5.13,5.13,0,0,0-3.31-2.37,3.9,3.9,0,0,0-.78-.07,10.21,10.21,0,0,0-1.09.07,7.6,7.6,0,0,0-1.59.37,6.14,6.14,0,0,0-2.21,1.29l0,0A3.45,3.45,0,0,0,246.15,479.39Zm7.69-.42a1.1,1.1,0,1,1-1.09,1.09A1.09,1.09,0,0,1,253.84,479Zm-5.17-.05a1.77,1.77,0,1,1-1.76,1.77A1.77,1.77,0,0,1,248.67,478.92Z"/></g></g></svg>