<?xml version="1.0" encoding="UTF-8" standalone="no"?>
<!-- Created with Inkscape (http://www.inkscape.org/) -->

<svg
   version="1.1"
   id="svg2"
   width="666.66669"
   height="666.66669"
   viewBox="0 0 666.66669 666.66669"
   sodipodi:docname="220882-P16XI4-54.ai"
   xmlns:inkscape="http://www.inkscape.org/namespaces/inkscape"
   xmlns:sodipodi="http://sodipodi.sourceforge.net/DTD/sodipodi-0.dtd"
   xmlns="http://www.w3.org/2000/svg"
   xmlns:svg="http://www.w3.org/2000/svg">
  <defs
     id="defs6">
    <clipPath
       clipPathUnits="userSpaceOnUse"
       id="clipPath22">
      <path
         d="M 0,500 H 500 V 0 H 0 Z"
         id="path20" />
    </clipPath>
    <clipPath
       clipPathUnits="userSpaceOnUse"
       id="clipPath174">
      <path
         d="M 0,500 H 500 V 0 H 0 Z"
         id="path172" />
    </clipPath>
  </defs>
  <sodipodi:namedview
     id="namedview4"
     pagecolor="#ffffff"
     bordercolor="#000000"
     borderopacity="0.25"
     inkscape:showpageshadow="2"
     inkscape:pageopacity="0.0"
     inkscape:pagecheckerboard="0"
     inkscape:deskcolor="#d1d1d1" />
  <g
     id="g8"
     inkscape:groupmode="layer"
     inkscape:label="220882-P16XI4-54"
     transform="matrix(1.3333333,0,0,-1.3333333,0,666.66667)">
    <path
       d="m 0,0.001 h 500 v 500 H 0 Z"
       style="fill:#92d27d;fill-opacity:1;fill-rule:nonzero;stroke:none"
       id="path10" />
    <path
       d="m 0,0.001 h 500 v 500 H 0 Z"
       style="fill:#ffffff;fill-opacity:1;fill-rule:nonzero;stroke:none"
       id="path12" />
    <path
       d="M 0,0 H 500 V 500 H 0 Z"
       style="fill:#ffffff;fill-opacity:1;fill-rule:nonzero;stroke:none"
       id="path14" />
    <g
       id="g16">
      <g
         id="g18"
         clip-path="url(#clipPath22)">
        <g
           id="g24"
           transform="translate(446.0818,368.0419)">
          <path
             d="m 0,0 v -225.13 c 0,-5.47 -3.47,-10.12 -8.33,-11.87 -1.33,-0.49 -2.78,-0.75 -4.28,-0.75 h -366.94 c -1.73,0 -3.38,0.351 -4.87,0.97 -4.55,1.91 -7.75,6.41 -7.75,11.65 V 0 c 0,1.69 0.33,3.3 0.94,4.77 1.26,3.1 3.72,5.58 6.81,6.87 1.5,0.63 3.14,0.98 4.87,0.98 h 366.94 c 3.48,0 6.64,-1.41 8.921,-3.7 C -1.41,6.64 0,3.49 0,0"
             style="fill:#cfcfcf;fill-opacity:1;fill-rule:nonzero;stroke:none"
             id="path26" />
        </g>
        <g
           id="g28"
           transform="translate(61.6619,379.682)">
          <path
             d="m 0,0 v -248.42 c -4.55,1.91 -7.75,6.41 -7.75,11.65 v 225.13 c 0,1.69 0.33,3.3 0.94,4.77 1.26,3.1 3.72,5.58 6.81,6.87"
             style="fill:#d9dcde;fill-opacity:1;fill-rule:nonzero;stroke:none"
             id="path30" />
        </g>
        <g
           id="g32"
           transform="translate(446.0818,368.0419)">
          <path
             d="M 0,0 V -225.13 C 0,-230.6 -3.47,-235.25 -8.33,-237 V -0.51 c 0,1.56 -0.68,2.96 -1.75,3.92 -0.93,0.85 -2.17,1.36 -3.53,1.36 h -377.62 c 1.88,4.61 6.4,7.85 11.68,7.85 h 366.94 c 3.48,0 6.64,-1.41 8.921,-3.7 C -1.41,6.64 0,3.49 0,0"
             style="fill:#b1b5b7;fill-opacity:1;fill-rule:nonzero;stroke:none"
             id="path34" />
        </g>
        <path
           d="M 430.757,144.575 H 69.242 v 221.812 h 361.515 z"
           style="fill:#ffffff;fill-opacity:1;fill-rule:nonzero;stroke:none"
           id="path36" />
        <path
           d="M 430.761,333.235 H 69.24 v 33.149 h 361.521 z"
           style="fill:#306eae;fill-opacity:1;fill-rule:nonzero;stroke:none"
           id="path38" />
        <g
           id="g40"
           transform="translate(398.5994,341.118)">
          <path
             d="m 0,0 h -77.408 c -4.8,0 -8.692,3.892 -8.692,8.692 0,2.916 1.436,5.496 3.64,7.073 1.424,1.019 3.168,1.619 5.052,1.619 H 0 c 4.8,0 8.691,-3.892 8.691,-8.692 C 8.691,6.113 7.569,3.797 5.785,2.206 4.249,0.834 2.222,0 0,0"
             style="fill:#ffffff;fill-opacity:1;fill-rule:nonzero;stroke:none"
             id="path42" />
        </g>
        <g
           id="g44"
           transform="translate(321.241,353.017)">
          <path
             d="m 0,0 c -0.746,0 -1.492,-0.284 -2.06,-0.851 -1.134,-1.135 -1.134,-2.982 0,-4.118 1.136,-1.135 2.984,-1.135 4.119,0 1.135,1.136 1.135,2.983 0,4.118 C 1.491,-0.284 0.745,0 0,0 m 0,-7.644 c -1.213,0 -2.427,0.461 -3.35,1.385 -1.847,1.847 -1.847,4.851 0,6.698 1.846,1.847 4.853,1.847 6.7,0 1.846,-1.847 1.846,-4.851 0,-6.698 C 2.426,-7.183 1.213,-7.644 0,-7.644"
             style="fill:#306eae;fill-opacity:1;fill-rule:nonzero;stroke:none"
             id="path46" />
        </g>
        <g
           id="g48"
           transform="translate(327.6121,342.8236)">
          <path
             d="m 0,0 c -0.233,0 -0.467,0.089 -0.646,0.267 l -3.56,3.561 c -0.356,0.356 -0.356,0.934 0,1.29 0.356,0.357 0.934,0.357 1.29,0 L 0.645,1.558 C 1.001,1.201 1.001,0.624 0.645,0.267 0.467,0.089 0.233,0 0,0"
             style="fill:#306eae;fill-opacity:1;fill-rule:nonzero;stroke:none"
             id="path50" />
        </g>
        <g
           id="g52"
           transform="translate(100.3382,349.8099)">
          <path
             d="m 0,0 c 0,-4.8 -3.892,-8.692 -8.692,-8.692 -4.8,0 -8.692,3.892 -8.692,8.692 0,4.8 3.892,8.692 8.692,8.692 C -3.892,8.692 0,4.8 0,0"
             style="fill:#ffffff;fill-opacity:1;fill-rule:nonzero;stroke:none"
             id="path54" />
        </g>
        <g
           id="g56"
           transform="translate(129.8308,349.8099)">
          <path
             d="m 0,0 c 0,-4.8 -3.892,-8.692 -8.692,-8.692 -4.8,0 -8.692,3.892 -8.692,8.692 0,4.8 3.892,8.692 8.692,8.692 C -3.892,8.692 0,4.8 0,0"
             style="fill:#ffffff;fill-opacity:1;fill-rule:nonzero;stroke:none"
             id="path58" />
        </g>
        <g
           id="g60"
           transform="translate(159.323,349.8099)">
          <path
             d="m 0,0 c 0,-4.8 -3.891,-8.692 -8.691,-8.692 -4.801,0 -8.692,3.892 -8.692,8.692 0,4.8 3.891,8.692 8.692,8.692 C -3.891,8.692 0,4.8 0,0"
             style="fill:#ffffff;fill-opacity:1;fill-rule:nonzero;stroke:none"
             id="path62" />
        </g>
        <g
           id="g64"
           transform="translate(499.4109,352.4764)">
          <path
             d="m 0,0 h -273.453 c -6.968,0 -12.616,-5.648 -12.616,-12.616 v -20.9 H 0 Z"
             style="fill:#cfcfcf;fill-opacity:1;fill-rule:nonzero;stroke:none"
             id="path66" />
        </g>
        <path
           d="M 499.411,338.201 H 228.67 V 318.96 h 270.741 z"
           style="fill:#ffffff;fill-opacity:1;fill-rule:nonzero;stroke:none"
           id="path68" />
        <path
           d="M 499.411,338.199 H 228.667 v -19.238 h 270.744 z"
           style="fill:#306eae;fill-opacity:1;fill-rule:nonzero;stroke:none"
           id="path70" />
        <g
           id="g72"
           transform="translate(499.4109,330.3158)">
          <path
             d="m 0,0 h -18.792 c -1.884,0 -3.628,-0.6 -5.052,-1.618 -2.204,-1.577 -3.639,-4.157 -3.639,-7.073 0,-0.931 0.149,-1.825 0.42,-2.664 H 0 Z"
             style="fill:#ffffff;fill-opacity:1;fill-rule:nonzero;stroke:none"
             id="path74" />
        </g>
        <g
           id="g76"
           transform="translate(478.6092,323.9799)">
          <path
             d="M 0,0 C 0.567,0.568 1.313,0.852 2.06,0.852 2.805,0.852 3.551,0.568 4.118,0 5.254,-1.135 5.254,-2.982 4.118,-4.117 2.983,-5.252 1.136,-5.252 0,-4.117 -1.135,-2.982 -1.135,-1.135 0,0 m 5.726,-5.02 c 1.501,1.858 1.41,4.584 -0.317,6.311 -1.846,1.847 -4.853,1.847 -6.699,0 -1.727,-1.727 -1.817,-4.453 -0.316,-6.311 z"
             style="fill:#306eae;fill-opacity:1;fill-rule:nonzero;stroke:none"
             id="path78" />
        </g>
        <g
           id="g80"
           transform="translate(259.3465,318.9603)">
          <path
             d="m 0,0 c 0.27,0.84 0.419,1.734 0.419,2.664 0,4.8 -3.891,8.691 -8.691,8.691 -4.801,0 -8.692,-3.891 -8.692,-8.691 0,-0.93 0.149,-1.824 0.42,-2.664 z"
             style="fill:#ffffff;fill-opacity:1;fill-rule:nonzero;stroke:none"
             id="path82" />
        </g>
        <g
           id="g84"
           transform="translate(288.8387,318.9603)">
          <path
             d="m 0,0 c 0.271,0.84 0.42,1.734 0.42,2.664 0,4.8 -3.892,8.691 -8.691,8.691 -4.801,0 -8.693,-3.891 -8.693,-8.691 0,-0.93 0.15,-1.824 0.42,-2.664 z"
             style="fill:#ffffff;fill-opacity:1;fill-rule:nonzero;stroke:none"
             id="path86" />
        </g>
        <g
           id="g88"
           transform="translate(318.3308,318.9603)">
          <path
             d="m 0,0 c 0.271,0.84 0.42,1.734 0.42,2.664 0,4.8 -3.892,8.691 -8.691,8.691 -4.801,0 -8.692,-3.891 -8.692,-8.691 0,-0.93 0.15,-1.824 0.419,-2.664 z"
             style="fill:#ffffff;fill-opacity:1;fill-rule:nonzero;stroke:none"
             id="path90" />
        </g>
        <g
           id="g92"
           transform="translate(464.6834,136.1903)">
          <path
             d="m 0,0 c 0,-3.206 -0.611,-6.266 -1.719,-9.082 -0.854,-2.166 -2.001,-4.187 -3.409,-6.013 -0.408,-0.544 -0.836,-1.058 -1.292,-1.563 -4.546,-5.003 -11.093,-8.14 -18.378,-8.14 h -379.767 c -8.014,0 -15.134,3.798 -19.67,9.703 -3.215,4.177 -5.128,9.412 -5.128,15.095 z"
             style="fill:#dcddde;fill-opacity:1;fill-rule:nonzero;stroke:none"
             id="path94" />
        </g>
        <g
           id="g96"
           transform="translate(443.0213,127.1161)">
          <path
             d="m 0,0 h -270.728 c -1.144,0 -2.072,0.929 -2.072,2.073 0,0.406 0.116,0.785 0.319,1.105 0.367,0.582 1.015,0.968 1.753,0.968 H 0 C 1.146,4.146 2.073,3.218 2.073,2.073 2.073,1.231 1.572,0.508 0.852,0.183 0.592,0.065 0.304,0 0,0"
             style="fill:#e5ebee;fill-opacity:1;fill-rule:nonzero;stroke:none"
             id="path98" />
        </g>
        <g
           id="g100"
           transform="translate(459.5555,121.0956)">
          <path
             d="m 0,0 c -0.408,-0.544 -0.836,-1.059 -1.292,-1.563 -4.546,-5.003 -11.093,-8.14 -18.378,-8.14 h -379.767 c -8.014,0 -15.134,3.798 -19.67,9.703 z"
             style="fill:#cfcfcf;fill-opacity:1;fill-rule:nonzero;stroke:none"
             id="path102" />
        </g>
        <path
           d="M 204.195,292.033 H 0 v 17.185 h 204.195 z"
           style="fill:#cfcfcf;fill-opacity:1;fill-rule:nonzero;stroke:none"
           id="path104" />
        <path
           d="M 500,192.575 H 362.587 v 12.636 H 500 Z"
           style="fill:#cfcfcf;fill-opacity:1;fill-rule:nonzero;stroke:none"
           id="path106" />
        <path
           d="m 420.061,52.527 h -43.56 v 12.636 h 43.56 z"
           style="fill:#cfcfcf;fill-opacity:1;fill-rule:nonzero;stroke:none"
           id="path108" />
        <path
           d="M 123.877,75.907 H 80.318 v 12.636 h 43.559 z"
           style="fill:#cfcfcf;fill-opacity:1;fill-rule:nonzero;stroke:none"
           id="path110" />
        <path
           d="M 142.918,431.661 H 99.359 v 12.636 h 43.559 z"
           style="fill:#cfcfcf;fill-opacity:1;fill-rule:nonzero;stroke:none"
           id="path112" />
        <path
           d="m 328.314,406.025 h -43.56 v 12.636 h 43.56 z"
           style="fill:#cfcfcf;fill-opacity:1;fill-rule:nonzero;stroke:none"
           id="path114" />
        <path
           d="M 138.415,186.614 H 10.253 v 7.348 h 128.162 z"
           style="fill:#cfcfcf;fill-opacity:1;fill-rule:nonzero;stroke:none"
           id="path116" />
        <path
           d="M 251.074,270.958 H 43.004 v 10.109 h 208.07 z"
           style="fill:#306eae;fill-opacity:1;fill-rule:nonzero;stroke:none"
           id="path118" />
        <path
           d="m 475.555,172.641 h -208.07 v 10.109 h 208.07 z"
           style="fill:#306eae;fill-opacity:1;fill-rule:nonzero;stroke:none"
           id="path120" />
        <path
           d="m 383.332,76.696 h -57.789 v 10.108 h 57.789 z"
           style="fill:#306eae;fill-opacity:1;fill-rule:nonzero;stroke:none"
           id="path122" />
        <path
           d="m 111.849,407.289 h -57.79 v 10.109 h 57.79 z"
           style="fill:#306eae;fill-opacity:1;fill-rule:nonzero;stroke:none"
           id="path124" />
        <g
           id="g126"
           transform="translate(170.8284,219.411)">
          <path
             d="m 0,0 h -5.851 v -10.34 h 20.146 v 4.852 L 0,-5.488 Z"
             style="fill:#f04736;fill-opacity:1;fill-rule:nonzero;stroke:none"
             id="path128" />
        </g>
        <g
           id="g130"
           transform="translate(212.9329,219.411)">
          <path
             d="m 0,0 h -19.516 v -10.34 h 5.851 v 7.407 h 5.963 l 4.111,-7.407 H 3.038 L -2.48,-1.785 C -1.507,-1.327 -0.689,-0.719 0,0"
             style="fill:#f04736;fill-opacity:1;fill-rule:nonzero;stroke:none"
             id="path132" />
        </g>
        <g
           id="g134"
           transform="translate(243.4461,219.411)">
          <path
             d="m 0,0 h -19.516 v -10.34 h 5.851 v 7.407 h 5.963 l 4.111,-7.407 H 3.038 L -2.48,-1.785 C -1.507,-1.327 -0.689,-0.719 0,0"
             style="fill:#f04736;fill-opacity:1;fill-rule:nonzero;stroke:none"
             id="path136" />
        </g>
        <g
           id="g138"
           transform="translate(274.0242,219.411)">
          <path
             d="m 0,0 c -1.049,-3.225 -3.979,-5.488 -7.434,-5.488 -3.454,0 -6.478,2.263 -7.566,5.488 h -6.175 c 1.217,-6.182 6.694,-10.599 13.667,-10.599 6.97,0 12.445,4.441 13.665,10.599 z"
             style="fill:#f04736;fill-opacity:1;fill-rule:nonzero;stroke:none"
             id="path140" />
        </g>
        <g
           id="g142"
           transform="translate(307.5096,219.411)">
          <path
             d="m 0,0 h -19.516 v -10.34 h 5.851 v 7.407 h 5.963 l 4.11,-7.407 H 3.037 L -2.48,-1.785 C -1.507,-1.327 -0.689,-0.719 0,0"
             style="fill:#f04736;fill-opacity:1;fill-rule:nonzero;stroke:none"
             id="path144" />
        </g>
        <g
           id="g146"
           transform="translate(331.7732,219.411)">
          <path
             d="m 0,0 -0.195,-0.378 v -4.073 h 12.11 v -5.889 h 5.37 v 5.889 H 20.84 V 0 Z"
             style="fill:#f04736;fill-opacity:1;fill-rule:nonzero;stroke:none"
             id="path148" />
        </g>
        <g
           id="g150"
           transform="translate(372.6863,219.411)">
          <path
             d="m 0,0 c -0.37,-4.269 -1.731,-6.192 -4.225,-6.192 -2.523,0 -3.889,1.923 -4.26,6.192 h -5.639 c 0.691,-6.786 4.134,-10.488 9.899,-10.488 5.733,0 9.172,3.702 9.864,10.488 z"
             style="fill:#f04736;fill-opacity:1;fill-rule:nonzero;stroke:none"
             id="path152" />
        </g>
        <g
           id="g154"
           transform="translate(384.8758,219.411)">
          <path
             d="m 0,0 -0.195,-0.378 v -4.073 h 12.109 v -5.889 h 5.37 v 5.889 h 3.555 V 0 Z"
             style="fill:#f04736;fill-opacity:1;fill-rule:nonzero;stroke:none"
             id="path156" />
        </g>
        <path
           d="m 405.246,260.311 h -36.925 v 5.568 h 36.925 z"
           style="fill:#f04736;fill-opacity:1;fill-rule:nonzero;stroke:none"
           id="path158" />
      </g>
    </g>
    <text
       xml:space="preserve"
       transform="matrix(1,0,0,-1,126.0029,224.8281)"
       style="font-variant:normal;font-weight:600;font-stretch:normal;font-size:37.031px;font-family:'Montserrat SemiBold';-inkscape-font-specification:Montserrat-SemiBold;writing-mode:lr-tb;fill:#f04736;fill-opacity:1;fill-rule:nonzero;stroke:none"
       id="text162"><tspan
         x="0 28.439808 58.953354 89.466896 123.01698 153.53053 168.34293 194.89415 221.44537"
         y="0"
         sodipodi:role="line"
         id="tspan160">ERROR 404</tspan></text>
    <text
       xml:space="preserve"
       transform="matrix(1,0,0,-1,124.8135,152.8477)"
       style="font-variant:normal;font-weight:600;font-stretch:normal;font-size:11.7863px;font-family:'Montserrat SemiBold';-inkscape-font-specification:Montserrat-SemiBold;writing-mode:lr-tb;fill:#f04736;fill-opacity:1;fill-rule:nonzero;stroke:none"
       id="text166"><tspan
         x="0 10.230509 21.12105 32.011589 43.86861 54.759151 60.652298 70.281708 79.911118 89.54052 95.43367 102.17544 108.06859 117.82764 128.90558 140.04364 150.27414 156.1673 167.81216 179.43463 188.87546 194.7686 204.13872 215.99573 227.31058 238.95544"
         y="0"
         sodipodi:role="line"
         id="tspan164">ERROR 404 - PAGE NOT FOUND</tspan></text>
    <g
       id="g168">
      <g
         id="g170"
         clip-path="url(#clipPath174)">
        <g
           id="g176"
           transform="translate(175.5779,18.453)">
          <path
             d="m 0,0 c 0,-0.439 0.068,-0.813 0.205,-1.122 0.136,-0.309 0.323,-0.541 0.561,-0.697 0.237,-0.157 0.496,-0.236 0.777,-0.236 0.285,0 0.545,0.075 0.781,0.224 0.236,0.147 0.424,0.376 0.564,0.682 0.14,0.306 0.21,0.69 0.21,1.149 0,0.432 -0.07,0.803 -0.21,1.113 C 2.748,1.424 2.558,1.661 2.318,1.826 2.079,1.989 1.816,2.071 1.531,2.071 1.235,2.071 0.97,1.987 0.736,1.819 0.502,1.651 0.321,1.41 0.193,1.096 0.064,0.78 0,0.415 0,0 M 3.188,-2.381 V -2.22 C 2.97,-2.469 2.755,-2.673 2.543,-2.828 2.332,-2.985 2.102,-3.104 1.854,-3.185 1.607,-3.267 1.338,-3.307 1.045,-3.307 c -0.388,0 -0.748,0.082 -1.078,0.246 -0.33,0.165 -0.616,0.4 -0.858,0.705 -0.241,0.303 -0.424,0.662 -0.549,1.074 -0.124,0.411 -0.187,0.856 -0.187,1.335 0,1.013 0.248,1.803 0.742,2.369 C -0.39,2.987 0.261,3.271 1.068,3.271 1.535,3.271 1.929,3.19 2.25,3.03 2.57,2.87 2.883,2.623 3.188,2.292 v 2.392 c 0,0.333 0.065,0.583 0.199,0.753 0.132,0.17 0.321,0.255 0.567,0.255 0.245,0 0.433,-0.078 0.566,-0.234 C 4.653,5.301 4.719,5.072 4.719,4.767 v -7.148 c 0,-0.308 -0.071,-0.54 -0.214,-0.694 -0.142,-0.154 -0.326,-0.232 -0.551,-0.232 -0.222,0 -0.405,0.08 -0.55,0.241 -0.144,0.161 -0.216,0.388 -0.216,0.685"
             style="fill:#306eae;fill-opacity:1;fill-rule:nonzero;stroke:none"
             id="path178" />
        </g>
        <g
           id="g180"
           transform="translate(182.742,18.9628)">
          <path
             d="M 0,0 H 2.938 C 2.899,0.555 2.749,0.97 2.49,1.244 2.231,1.52 1.89,1.656 1.466,1.656 1.062,1.656 0.731,1.518 0.472,1.238 0.213,0.96 0.056,0.547 0,0 M 3.169,-0.92 H 0 c 0.004,-0.367 0.078,-0.692 0.223,-0.974 0.144,-0.281 0.336,-0.493 0.575,-0.634 0.24,-0.143 0.504,-0.213 0.793,-0.213 0.194,0 0.371,0.021 0.531,0.066 0.161,0.047 0.316,0.117 0.466,0.215 0.151,0.097 0.289,0.2 0.416,0.312 0.126,0.111 0.29,0.261 0.493,0.452 0.083,0.07 0.201,0.106 0.356,0.106 0.166,0 0.3,-0.046 0.403,-0.138 0.103,-0.09 0.155,-0.218 0.155,-0.384 C 4.411,-2.26 4.353,-2.43 4.239,-2.626 4.123,-2.822 3.95,-3.01 3.719,-3.19 3.487,-3.37 3.197,-3.52 2.846,-3.638 2.497,-3.757 2.094,-3.816 1.638,-3.816 c -1.04,0 -1.85,0.296 -2.428,0.89 -0.577,0.593 -0.866,1.399 -0.866,2.416 0,0.479 0.071,0.923 0.214,1.332 0.142,0.41 0.35,0.761 0.623,1.054 0.273,0.293 0.609,0.518 1.009,0.674 0.4,0.156 0.843,0.234 1.33,0.234 0.633,0 1.176,-0.133 1.628,-0.4 C 3.603,2.117 3.942,1.771 4.167,1.349 4.392,0.925 4.506,0.493 4.506,0.055 4.506,-0.354 4.389,-0.617 4.156,-0.739 3.922,-0.859 3.594,-0.92 3.169,-0.92"
             style="fill:#306eae;fill-opacity:1;fill-rule:nonzero;stroke:none"
             id="path182" />
        </g>
        <g
           id="g184"
           transform="translate(193.2957,17.2665)">
          <path
             d="M 0,0 C 0,-0.447 -0.108,-0.831 -0.326,-1.149 -0.543,-1.468 -0.865,-1.71 -1.291,-1.874 -1.716,-2.038 -2.234,-2.12 -2.843,-2.12 c -0.582,0 -1.08,0.089 -1.496,0.267 -0.415,0.178 -0.723,0.401 -0.92,0.667 -0.198,0.268 -0.297,0.536 -0.297,0.805 0,0.179 0.063,0.331 0.19,0.457 0.127,0.126 0.287,0.19 0.481,0.19 0.17,0 0.3,-0.041 0.391,-0.124 0.092,-0.083 0.179,-0.201 0.262,-0.35 0.166,-0.29 0.365,-0.505 0.597,-0.648 0.231,-0.142 0.546,-0.213 0.947,-0.213 0.324,0 0.59,0.072 0.798,0.216 0.207,0.145 0.311,0.31 0.311,0.497 0,0.285 -0.107,0.491 -0.323,0.622 -0.216,0.13 -0.571,0.255 -1.066,0.375 -0.558,0.137 -1.012,0.284 -1.362,0.436 -0.351,0.152 -0.63,0.353 -0.84,0.602 -0.21,0.25 -0.315,0.556 -0.315,0.921 0,0.323 0.097,0.63 0.291,0.92 0.194,0.288 0.48,0.518 0.859,0.691 0.377,0.173 0.833,0.259 1.367,0.259 0.42,0 0.797,-0.044 1.131,-0.132 C -1.502,4.252 -1.223,4.134 -1,3.987 -0.776,3.842 -0.606,3.68 -0.49,3.502 -0.373,3.323 -0.314,3.149 -0.314,2.979 -0.314,2.793 -0.377,2.641 -0.501,2.521 -0.625,2.404 -0.803,2.344 -1.033,2.344 c -0.166,0 -0.307,0.047 -0.424,0.143 -0.117,0.094 -0.25,0.237 -0.401,0.426 -0.122,0.158 -0.266,0.285 -0.433,0.381 -0.166,0.095 -0.392,0.142 -0.677,0.142 -0.293,0 -0.536,-0.062 -0.73,-0.187 -0.194,-0.124 -0.291,-0.279 -0.291,-0.466 0,-0.171 0.072,-0.309 0.214,-0.418 0.142,-0.109 0.334,-0.2 0.576,-0.27 C -2.958,2.023 -2.626,1.937 -2.202,1.834 -1.7,1.711 -1.289,1.564 -0.97,1.395 -0.652,1.225 -0.411,1.023 -0.246,0.791 -0.082,0.56 0,0.296 0,0"
             style="fill:#306eae;fill-opacity:1;fill-rule:nonzero;stroke:none"
             id="path186" />
        </g>
        <g
           id="g188"
           transform="translate(195.7532,20.8153)">
          <path
             d="m 0,0 v -4.684 c 0,-0.324 -0.077,-0.57 -0.232,-0.736 -0.154,-0.166 -0.35,-0.249 -0.587,-0.249 -0.238,0 -0.431,0.085 -0.579,0.255 -0.149,0.171 -0.223,0.414 -0.223,0.73 v 4.637 c 0,0.319 0.074,0.562 0.223,0.724 0.148,0.162 0.341,0.244 0.579,0.244 0.237,0 0.433,-0.082 0.587,-0.244 C -0.077,0.515 0,0.289 0,0 m -0.802,1.674 c -0.225,0 -0.418,0.069 -0.578,0.208 -0.161,0.138 -0.241,0.334 -0.241,0.588 0,0.229 0.082,0.418 0.246,0.566 0.165,0.15 0.356,0.224 0.573,0.224 0.21,0 0.396,-0.068 0.558,-0.202 C -0.082,2.923 0,2.728 0,2.47 0,2.22 -0.08,2.025 -0.238,1.885 -0.396,1.744 -0.584,1.674 -0.802,1.674"
             style="fill:#306eae;fill-opacity:1;fill-rule:nonzero;stroke:none"
             id="path190" />
        </g>
        <g
           id="g192"
           transform="translate(198.1565,18.494)">
          <path
             d="m 0,0 c 0,-0.656 0.143,-1.153 0.43,-1.489 0.287,-0.337 0.658,-0.505 1.113,-0.505 0.269,0 0.523,0.072 0.763,0.217 0.24,0.144 0.434,0.362 0.585,0.652 0.15,0.291 0.226,0.645 0.226,1.06 C 3.117,0.596 2.971,1.11 2.68,1.478 2.389,1.846 2.006,2.03 1.531,2.03 1.068,2.03 0.697,1.854 0.418,1.502 0.139,1.15 0,0.649 0,0 m 4.696,2.054 v -4.707 c 0,-0.538 -0.058,-1.001 -0.173,-1.39 C 4.409,-4.43 4.225,-4.751 3.971,-5.004 3.718,-5.257 3.386,-5.445 2.977,-5.567 2.567,-5.69 2.058,-5.752 1.448,-5.752 c -0.558,0 -1.056,0.078 -1.496,0.234 -0.438,0.158 -0.777,0.359 -1.014,0.606 -0.238,0.247 -0.357,0.502 -0.357,0.763 0,0.198 0.067,0.36 0.202,0.483 0.134,0.126 0.297,0.187 0.487,0.187 0.237,0 0.445,-0.104 0.623,-0.314 0.087,-0.106 0.177,-0.215 0.27,-0.323 0.093,-0.11 0.196,-0.202 0.309,-0.28 0.112,-0.077 0.248,-0.134 0.406,-0.171 0.159,-0.037 0.341,-0.057 0.546,-0.057 0.42,0 0.745,0.059 0.977,0.176 0.232,0.116 0.394,0.279 0.487,0.489 0.093,0.209 0.148,0.434 0.163,0.674 0.016,0.239 0.028,0.624 0.036,1.155 C 2.837,-2.479 2.55,-2.744 2.223,-2.927 1.896,-3.108 1.507,-3.199 1.057,-3.199 c -0.542,0 -1.016,0.138 -1.422,0.416 -0.406,0.276 -0.718,0.664 -0.935,1.163 -0.218,0.499 -0.326,1.074 -0.326,1.727 0,0.487 0.066,0.926 0.198,1.318 0.134,0.392 0.322,0.722 0.567,0.992 0.246,0.269 0.528,0.472 0.849,0.608 0.321,0.136 0.673,0.204 1.057,0.204 0.458,0 0.856,-0.088 1.193,-0.263 C 2.574,2.789 2.887,2.513 3.176,2.137 v 0.22 c 0,0.281 0.069,0.498 0.207,0.654 0.139,0.153 0.318,0.231 0.535,0.231 0.312,0 0.52,-0.102 0.623,-0.306 C 4.644,2.732 4.696,2.438 4.696,2.054"
             style="fill:#306eae;fill-opacity:1;fill-rule:nonzero;stroke:none"
             id="path194" />
        </g>
        <g
           id="g196"
           transform="translate(205.428,20.8388)">
          <path
             d="M 0,0 V -0.195 C 0.284,0.181 0.596,0.456 0.935,0.633 1.273,0.809 1.662,0.897 2.101,0.897 2.528,0.897 2.91,0.804 3.247,0.617 3.583,0.432 3.835,0.168 4,-0.171 4.108,-0.369 4.177,-0.584 4.208,-0.812 4.24,-1.043 4.256,-1.335 4.256,-1.691 v -3.016 c 0,-0.324 -0.074,-0.57 -0.223,-0.736 -0.148,-0.166 -0.341,-0.249 -0.578,-0.249 -0.242,0 -0.437,0.085 -0.588,0.255 -0.151,0.17 -0.225,0.414 -0.225,0.73 v 2.701 c 0,0.534 -0.075,0.944 -0.224,1.226 -0.148,0.283 -0.443,0.425 -0.887,0.425 -0.288,0 -0.552,-0.086 -0.789,-0.258 C 0.504,-0.786 0.33,-1.023 0.219,-1.323 0.14,-1.565 0.101,-2.016 0.101,-2.677 v -2.03 c 0,-0.328 -0.077,-0.575 -0.229,-0.739 -0.152,-0.164 -0.349,-0.246 -0.59,-0.246 -0.234,0 -0.426,0.085 -0.576,0.255 -0.151,0.17 -0.226,0.414 -0.226,0.73 v 4.684 c 0,0.308 0.067,0.54 0.202,0.692 0.134,0.151 0.318,0.228 0.551,0.228 0.143,0 0.272,-0.034 0.387,-0.101 C -0.266,0.728 -0.173,0.627 -0.104,0.493 -0.035,0.358 0,0.194 0,0"
             style="fill:#306eae;fill-opacity:1;fill-rule:nonzero;stroke:none"
             id="path198" />
        </g>
        <g
           id="g200"
           transform="translate(212.117,18.9628)">
          <path
             d="M 0,0 H 2.938 C 2.899,0.555 2.75,0.97 2.491,1.244 2.231,1.52 1.89,1.656 1.467,1.656 1.062,1.656 0.731,1.518 0.472,1.238 0.212,0.96 0.056,0.547 0,0 M 3.17,-0.92 H 0 c 0.004,-0.367 0.078,-0.692 0.223,-0.974 0.144,-0.281 0.336,-0.493 0.576,-0.634 0.239,-0.143 0.503,-0.213 0.792,-0.213 0.194,0 0.371,0.021 0.532,0.066 0.159,0.047 0.315,0.117 0.466,0.215 0.15,0.097 0.288,0.2 0.415,0.312 0.126,0.111 0.29,0.261 0.493,0.452 0.083,0.07 0.201,0.106 0.356,0.106 0.166,0 0.301,-0.046 0.403,-0.138 0.103,-0.09 0.155,-0.218 0.155,-0.384 C 4.411,-2.26 4.354,-2.43 4.238,-2.626 4.124,-2.822 3.951,-3.01 3.719,-3.19 3.487,-3.37 3.197,-3.52 2.847,-3.638 2.496,-3.757 2.094,-3.816 1.638,-3.816 c -1.04,0 -1.849,0.296 -2.428,0.89 -0.577,0.593 -0.866,1.399 -0.866,2.416 0,0.479 0.071,0.923 0.214,1.332 0.142,0.41 0.35,0.761 0.623,1.054 0.273,0.293 0.61,0.518 1.009,0.674 0.399,0.156 0.843,0.234 1.33,0.234 0.633,0 1.175,-0.133 1.629,-0.4 C 3.602,2.117 3.941,1.771 4.167,1.349 4.393,0.925 4.506,0.493 4.506,0.055 4.506,-0.354 4.389,-0.617 4.156,-0.739 3.922,-0.859 3.594,-0.92 3.17,-0.92"
             style="fill:#306eae;fill-opacity:1;fill-rule:nonzero;stroke:none"
             id="path202" />
        </g>
        <g
           id="g204"
           transform="translate(218.7058,18.453)">
          <path
             d="m 0,0 c 0,-0.439 0.067,-0.813 0.205,-1.122 0.136,-0.309 0.323,-0.541 0.561,-0.697 0.237,-0.157 0.496,-0.236 0.777,-0.236 0.285,0 0.545,0.075 0.78,0.224 0.236,0.147 0.425,0.376 0.565,0.682 0.14,0.306 0.21,0.69 0.21,1.149 0,0.432 -0.07,0.803 -0.21,1.113 C 2.748,1.424 2.557,1.661 2.318,1.826 2.078,1.989 1.816,2.071 1.531,2.071 1.234,2.071 0.969,1.987 0.736,1.819 0.502,1.651 0.321,1.41 0.192,1.096 0.063,0.78 0,0.415 0,0 M 3.187,-2.381 V -2.22 C 2.969,-2.469 2.755,-2.673 2.543,-2.828 2.332,-2.985 2.102,-3.104 1.854,-3.185 1.608,-3.267 1.337,-3.307 1.045,-3.307 c -0.389,0 -0.748,0.082 -1.078,0.246 -0.33,0.165 -0.616,0.4 -0.858,0.705 -0.241,0.303 -0.424,0.662 -0.548,1.074 -0.125,0.411 -0.188,0.856 -0.188,1.335 0,1.013 0.248,1.803 0.742,2.369 C -0.39,2.987 0.261,3.271 1.068,3.271 1.535,3.271 1.929,3.19 2.25,3.03 2.57,2.87 2.883,2.623 3.187,2.292 v 2.392 c 0,0.333 0.066,0.583 0.199,0.753 0.133,0.17 0.322,0.255 0.567,0.255 0.245,0 0.434,-0.078 0.567,-0.234 C 4.652,5.301 4.719,5.072 4.719,4.767 v -7.148 c 0,-0.308 -0.071,-0.54 -0.214,-0.694 -0.142,-0.154 -0.326,-0.232 -0.552,-0.232 -0.221,0 -0.404,0.08 -0.549,0.241 -0.145,0.161 -0.217,0.388 -0.217,0.685"
             style="fill:#306eae;fill-opacity:1;fill-rule:nonzero;stroke:none"
             id="path206" />
        </g>
        <g
           id="g208"
           transform="translate(228.594,18.4052)">
          <path
             d="m 0,0 c 0,-0.646 0.147,-1.141 0.442,-1.486 0.295,-0.347 0.682,-0.521 1.161,-0.521 0.407,0 0.759,0.177 1.053,0.531 0.295,0.355 0.442,0.863 0.442,1.524 0,0.427 -0.06,0.796 -0.183,1.103 C 2.792,1.461 2.618,1.699 2.393,1.867 2.167,2.035 1.903,2.119 1.603,2.119 1.294,2.119 1.019,2.035 0.777,1.867 0.536,1.699 0.346,1.456 0.208,1.137 0.069,0.819 0,0.439 0,0 M -0.077,4.814 V 2.34 C 0.227,2.655 0.538,2.898 0.855,3.066 1.171,3.234 1.563,3.318 2.03,3.318 2.568,3.318 3.04,3.19 3.446,2.937 3.851,2.68 4.166,2.311 4.39,1.825 4.613,1.342 4.726,0.766 4.726,0.101 4.726,-0.39 4.663,-0.839 4.539,-1.249 4.414,-1.659 4.232,-2.015 3.995,-2.314 3.757,-2.615 3.47,-2.849 3.132,-3.013 2.793,-3.177 2.42,-3.259 2.013,-3.259 c -0.25,0 -0.485,0.03 -0.704,0.089 -0.22,0.06 -0.407,0.137 -0.561,0.234 -0.154,0.097 -0.286,0.198 -0.394,0.3 -0.11,0.103 -0.253,0.258 -0.431,0.464 v -0.161 c 0,-0.305 -0.073,-0.535 -0.22,-0.692 -0.146,-0.157 -0.332,-0.234 -0.558,-0.234 -0.229,0 -0.413,0.077 -0.549,0.234 -0.137,0.157 -0.204,0.387 -0.204,0.692 v 7.076 c 0,0.329 0.066,0.577 0.198,0.745 0.133,0.168 0.318,0.252 0.555,0.252 0.25,0 0.441,-0.08 0.576,-0.24 0.134,-0.161 0.202,-0.389 0.202,-0.686"
             style="fill:#306eae;fill-opacity:1;fill-rule:nonzero;stroke:none"
             id="path210" />
        </g>
        <g
           id="g212"
           transform="translate(235.4202,14.9442)">
          <path
             d="m 0,0 0.148,0.362 -1.994,5.023 c -0.122,0.288 -0.184,0.499 -0.184,0.629 0,0.138 0.035,0.267 0.107,0.385 0.071,0.12 0.169,0.214 0.293,0.286 0.125,0.071 0.255,0.107 0.389,0.107 0.234,0 0.409,-0.075 0.529,-0.224 0.119,-0.147 0.223,-0.36 0.315,-0.637 l 1.371,-3.99 1.3,3.711 c 0.102,0.3 0.195,0.535 0.279,0.706 0.083,0.17 0.171,0.286 0.264,0.344 0.093,0.06 0.225,0.09 0.394,0.09 0.124,0 0.241,-0.033 0.354,-0.099 C 3.678,6.628 3.765,6.54 3.826,6.429 3.887,6.318 3.918,6.202 3.918,6.079 3.902,6.004 3.877,5.897 3.841,5.758 3.805,5.62 3.762,5.479 3.71,5.337 L 1.597,-0.195 C 1.415,-0.683 1.237,-1.063 1.062,-1.341 0.888,-1.618 0.658,-1.831 0.371,-1.979 0.084,-2.128 -0.303,-2.202 -0.79,-2.202 c -0.474,0 -0.831,0.052 -1.067,0.154 -0.239,0.104 -0.357,0.292 -0.357,0.565 0,0.185 0.056,0.329 0.17,0.429 0.112,0.102 0.279,0.153 0.501,0.153 0.086,0 0.172,-0.012 0.255,-0.036 0.103,-0.024 0.192,-0.037 0.267,-0.037 0.186,0 0.333,0.028 0.439,0.084 0.107,0.055 0.203,0.151 0.289,0.288 C -0.209,-0.466 -0.11,-0.265 0,0"
             style="fill:#306eae;fill-opacity:1;fill-rule:nonzero;stroke:none"
             id="path214" />
        </g>
        <g
           id="g216"
           transform="translate(258.8972,21.5956)">
          <path
             d="m 0,0 h 0.387 v 0.486 c 0,0.509 0.061,0.91 0.191,1.211 0.127,0.299 0.347,0.517 0.654,0.654 0.307,0.134 0.727,0.204 1.26,0.204 0.95,0 1.421,-0.231 1.421,-0.698 C 3.913,1.709 3.863,1.58 3.763,1.474 3.666,1.367 3.549,1.313 3.414,1.313 3.352,1.313 3.24,1.325 3.085,1.351 2.937,1.371 2.802,1.386 2.695,1.386 2.403,1.386 2.216,1.298 2.13,1.126 2.05,0.954 2.008,0.708 2.008,0.386 V 0 h 0.395 c 0.619,0 0.926,-0.186 0.926,-0.56 0,-0.261 -0.08,-0.431 -0.246,-0.502 C 2.92,-1.134 2.693,-1.17 2.403,-1.17 H 2.008 v -4.294 c 0,-0.319 -0.075,-0.562 -0.232,-0.73 -0.15,-0.17 -0.345,-0.254 -0.589,-0.254 -0.229,0 -0.418,0.084 -0.573,0.254 -0.153,0.168 -0.227,0.411 -0.227,0.73 V -1.17 H -0.06 c -0.243,0 -0.426,0.053 -0.558,0.164 -0.131,0.107 -0.197,0.249 -0.197,0.424 C -0.815,-0.192 -0.543,0 0,0"
             style="fill:#306eae;fill-opacity:1;fill-rule:nonzero;stroke:none"
             id="path218" />
        </g>
        <g
           id="g220"
           transform="translate(264.2029,17.4862)">
          <path
             d="m 0,0 v -1.354 c 0,-0.328 -0.083,-0.575 -0.233,-0.738 -0.156,-0.166 -0.35,-0.247 -0.586,-0.247 -0.24,0 -0.43,0.082 -0.579,0.251 -0.149,0.164 -0.226,0.41 -0.226,0.734 v 4.513 c 0,0.73 0.263,1.094 0.788,1.094 0.271,0 0.464,-0.085 0.583,-0.256 C -0.134,3.826 -0.068,3.576 -0.055,3.242 0.138,3.576 0.336,3.826 0.538,3.997 0.746,4.168 1.015,4.253 1.356,4.253 1.7,4.253 2.027,4.168 2.348,3.997 2.67,3.826 2.829,3.6 2.829,3.319 2.829,3.123 2.761,2.957 2.626,2.831 2.488,2.7 2.342,2.637 2.185,2.637 2.122,2.637 1.978,2.676 1.752,2.749 1.523,2.819 1.321,2.856 1.149,2.856 0.912,2.856 0.717,2.793 0.567,2.671 0.416,2.543 0.299,2.36 0.215,2.116 0.135,1.87 0.078,1.575 0.045,1.239 0.014,0.9 0,0.486 0,0"
             style="fill:#306eae;fill-opacity:1;fill-rule:nonzero;stroke:none"
             id="path222" />
        </g>
        <g
           id="g224"
           transform="translate(268.4822,18.9657)">
          <path
             d="M 0,0 H 2.938 C 2.899,0.554 2.752,0.969 2.492,1.242 2.23,1.519 1.893,1.654 1.467,1.654 1.063,1.654 0.731,1.517 0.472,1.236 0.213,0.957 0.054,0.546 0,0 M 3.171,-0.921 H 0 c 0.006,-0.368 0.077,-0.694 0.222,-0.975 0.146,-0.279 0.337,-0.491 0.578,-0.635 0.24,-0.142 0.502,-0.212 0.792,-0.212 0.194,0 0.371,0.02 0.531,0.069 0.159,0.044 0.315,0.116 0.466,0.213 0.151,0.096 0.287,0.199 0.415,0.313 0.127,0.109 0.292,0.26 0.494,0.449 0.084,0.071 0.202,0.109 0.355,0.109 0.168,0 0.301,-0.047 0.406,-0.139 0.103,-0.092 0.152,-0.219 0.152,-0.385 0,-0.148 -0.056,-0.318 -0.168,-0.513 C 4.126,-2.825 3.954,-3.012 3.721,-3.193 3.487,-3.371 3.197,-3.522 2.848,-3.64 2.498,-3.758 2.094,-3.818 1.641,-3.818 c -1.045,0 -1.853,0.296 -2.43,0.888 -0.577,0.596 -0.869,1.402 -0.869,2.418 0,0.48 0.073,0.924 0.217,1.334 0.14,0.411 0.348,0.76 0.625,1.055 0.271,0.294 0.605,0.518 1.006,0.674 0.4,0.156 0.842,0.234 1.331,0.234 0.631,0 1.175,-0.134 1.628,-0.404 C 3.603,2.117 3.945,1.771 4.168,1.348 4.394,0.922 4.507,0.492 4.507,0.051 4.507,-0.354 4.389,-0.618 4.156,-0.74 3.923,-0.861 3.595,-0.921 3.171,-0.921"
             style="fill:#306eae;fill-opacity:1;fill-rule:nonzero;stroke:none"
             id="path226" />
        </g>
        <g
           id="g228"
           transform="translate(275.2244,18.9657)">
          <path
             d="M 0,0 H 2.938 C 2.898,0.554 2.749,0.969 2.491,1.242 2.229,1.519 1.891,1.654 1.465,1.654 1.062,1.654 0.73,1.517 0.47,1.236 0.211,0.957 0.053,0.546 0,0 M 3.171,-0.921 H 0 c 0.004,-0.368 0.078,-0.694 0.222,-0.975 0.144,-0.279 0.337,-0.491 0.576,-0.635 0.238,-0.142 0.503,-0.212 0.794,-0.212 0.192,0 0.371,0.02 0.528,0.069 0.161,0.044 0.317,0.116 0.469,0.213 0.151,0.096 0.287,0.199 0.415,0.313 0.124,0.109 0.29,0.26 0.492,0.449 0.084,0.071 0.204,0.109 0.356,0.109 0.168,0 0.301,-0.047 0.406,-0.139 0.103,-0.092 0.15,-0.219 0.15,-0.385 0,-0.148 -0.054,-0.318 -0.171,-0.513 C 4.127,-2.825 3.953,-3.012 3.719,-3.193 3.487,-3.371 3.193,-3.522 2.847,-3.64 2.498,-3.758 2.091,-3.818 1.637,-3.818 c -1.041,0 -1.849,0.296 -2.429,0.888 -0.577,0.596 -0.868,1.402 -0.868,2.418 0,0.48 0.073,0.924 0.218,1.334 0.141,0.411 0.348,0.76 0.622,1.055 0.272,0.294 0.608,0.518 1.008,0.674 0.399,0.156 0.845,0.234 1.332,0.234 0.629,0 1.173,-0.134 1.632,-0.404 C 3.603,2.117 3.943,1.771 4.166,1.348 4.391,0.922 4.507,0.492 4.507,0.051 4.507,-0.354 4.387,-0.618 4.155,-0.74 3.921,-0.861 3.594,-0.921 3.171,-0.921"
             style="fill:#306eae;fill-opacity:1;fill-rule:nonzero;stroke:none"
             id="path230" />
        </g>
        <g
           id="g232"
           transform="translate(285.1228,18.4725)">
          <path
             d="m 0,0 c 0,0.428 -0.066,0.796 -0.196,1.102 -0.131,0.307 -0.313,0.542 -0.542,0.705 -0.23,0.164 -0.489,0.247 -0.771,0.247 -0.445,0 -0.823,-0.177 -1.13,-0.528 -0.307,-0.353 -0.462,-0.872 -0.462,-1.557 0,-0.642 0.153,-1.146 0.459,-1.504 0.305,-0.359 0.679,-0.537 1.133,-0.537 0.269,0 0.52,0.079 0.749,0.233 0.232,0.157 0.415,0.392 0.552,0.704 C -0.069,-0.821 0,-0.442 0,0 M -3.178,2.354 V 2.16 c 0.304,0.376 0.621,0.652 0.953,0.828 0.325,0.178 0.699,0.267 1.114,0.267 0.497,0 0.96,-0.13 1.38,-0.386 C 0.687,2.61 1.018,2.234 1.262,1.74 1.505,1.243 1.628,0.659 1.628,-0.019 c 0,-0.497 -0.07,-0.957 -0.21,-1.376 -0.14,-0.417 -0.336,-0.766 -0.581,-1.049 -0.246,-0.282 -0.534,-0.501 -0.868,-0.654 -0.339,-0.151 -0.695,-0.227 -1.08,-0.227 -0.461,0 -0.853,0.093 -1.165,0.28 -0.315,0.182 -0.615,0.458 -0.902,0.816 v -2.433 c 0,-0.71 -0.26,-1.068 -0.777,-1.068 -0.307,0 -0.506,0.09 -0.607,0.274 -0.095,0.186 -0.146,0.452 -0.146,0.807 v 6.996 c 0,0.309 0.066,0.537 0.2,0.692 0.134,0.149 0.32,0.228 0.553,0.228 0.23,0 0.416,-0.079 0.559,-0.235 0.148,-0.158 0.218,-0.381 0.218,-0.678"
             style="fill:#306eae;fill-opacity:1;fill-rule:nonzero;stroke:none"
             id="path234" />
        </g>
        <g
           id="g236"
           transform="translate(289.1853,20.8192)">
          <path
             d="m 0,0 v -4.688 c 0,-0.323 -0.078,-0.569 -0.231,-0.733 -0.157,-0.169 -0.351,-0.251 -0.589,-0.251 -0.238,0 -0.428,0.084 -0.579,0.254 -0.147,0.173 -0.223,0.416 -0.223,0.73 v 4.641 c 0,0.319 0.076,0.56 0.223,0.722 0.151,0.165 0.341,0.245 0.579,0.245 0.238,0 0.432,-0.08 0.589,-0.245 C -0.078,0.513 0,0.286 0,0 m -0.803,1.674 c -0.226,0 -0.418,0.071 -0.577,0.21 -0.162,0.138 -0.242,0.332 -0.242,0.585 0,0.23 0.082,0.419 0.248,0.568 0.164,0.147 0.353,0.223 0.571,0.223 0.212,0 0.398,-0.067 0.559,-0.199 C -0.082,2.924 0,2.727 0,2.469 0,2.219 -0.079,2.024 -0.236,1.884 -0.396,1.745 -0.583,1.674 -0.803,1.674"
             style="fill:#306eae;fill-opacity:1;fill-rule:nonzero;stroke:none"
             id="path238" />
        </g>
        <g
           id="g240"
           transform="translate(294.4099,15.8876)">
          <path
             d="M 0,0 -1.428,2.354 -2.308,1.523 V 0.232 c 0,-0.311 -0.083,-0.55 -0.248,-0.718 -0.16,-0.17 -0.354,-0.254 -0.566,-0.254 -0.249,0 -0.447,0.082 -0.588,0.251 -0.142,0.164 -0.215,0.41 -0.215,0.733 v 6.914 c 0,0.359 0.071,0.632 0.207,0.821 0.139,0.191 0.341,0.284 0.596,0.284 0.25,0 0.445,-0.086 0.593,-0.258 0.146,-0.169 0.221,-0.421 0.221,-0.751 V 3.32 l 1.823,1.914 c 0.226,0.236 0.395,0.401 0.516,0.488 0.119,0.086 0.262,0.13 0.432,0.13 0.203,0 0.371,-0.066 0.509,-0.194 0.132,-0.129 0.2,-0.291 0.2,-0.483 0,-0.237 -0.221,-0.556 -0.659,-0.951 L -0.348,3.435 1.314,0.82 C 1.436,0.625 1.526,0.48 1.579,0.38 1.632,0.28 1.66,0.18 1.66,0.091 1.66,-0.167 1.589,-0.368 1.447,-0.519 1.308,-0.667 1.12,-0.74 0.894,-0.74 0.696,-0.74 0.542,-0.689 0.436,-0.58 0.329,-0.472 0.181,-0.278 0,0"
             style="fill:#306eae;fill-opacity:1;fill-rule:nonzero;stroke:none"
             id="path242" />
        </g>
        <g
           id="g244"
           transform="translate(297.9324,15.1474)">
          <path
             d="m 0,0 c -0.245,0 -0.455,0.079 -0.634,0.238 -0.178,0.157 -0.267,0.379 -0.267,0.665 0,0.242 0.086,0.45 0.255,0.622 0.172,0.175 0.38,0.262 0.63,0.262 C 0.232,1.787 0.444,1.7 0.623,1.53 0.798,1.357 0.887,1.147 0.887,0.903 0.887,0.621 0.798,0.398 0.623,0.241 0.444,0.079 0.236,0 0,0"
             style="fill:#306eae;fill-opacity:1;fill-rule:nonzero;stroke:none"
             id="path246" />
        </g>
        <g
           id="g248"
           transform="translate(305.9939,17.1542)">
          <path
             d="m 0,0 c 0,-0.2 -0.061,-0.418 -0.183,-0.646 -0.119,-0.232 -0.304,-0.45 -0.552,-0.657 -0.247,-0.208 -0.558,-0.377 -0.935,-0.502 -0.376,-0.127 -0.801,-0.192 -1.269,-0.192 -1.004,0 -1.787,0.294 -2.349,0.876 -0.56,0.585 -0.841,1.368 -0.841,2.35 0,0.667 0.128,1.253 0.387,1.765 0.255,0.509 0.628,0.904 1.113,1.184 0.487,0.28 1.072,0.419 1.746,0.419 0.422,0 0.806,-0.062 1.158,-0.185 C -1.374,4.29 -1.079,4.13 -0.834,3.938 -0.593,3.741 -0.405,3.535 -0.278,3.317 -0.148,3.098 -0.086,2.893 -0.086,2.7 -0.086,2.509 -0.156,2.344 -0.3,2.209 -0.447,2.074 -0.622,2.006 -0.824,2.006 c -0.137,0 -0.248,0.035 -0.338,0.103 -0.09,0.071 -0.191,0.182 -0.3,0.339 -0.198,0.299 -0.403,0.527 -0.622,0.675 -0.214,0.151 -0.487,0.227 -0.821,0.227 -0.476,0 -0.865,-0.187 -1.158,-0.562 -0.292,-0.372 -0.44,-0.887 -0.44,-1.533 0,-0.306 0.039,-0.587 0.114,-0.843 0.074,-0.254 0.182,-0.473 0.326,-0.652 0.143,-0.18 0.314,-0.316 0.516,-0.409 0.202,-0.096 0.425,-0.141 0.664,-0.141 0.326,0 0.605,0.075 0.836,0.226 0.235,0.15 0.439,0.378 0.616,0.688 0.1,0.182 0.205,0.323 0.319,0.428 0.114,0.101 0.256,0.155 0.422,0.155 0.198,0 0.363,-0.077 0.491,-0.227 C -0.066,0.33 0,0.169 0,0"
             style="fill:#306eae;fill-opacity:1;fill-rule:nonzero;stroke:none"
             id="path250" />
        </g>
        <g
           id="g252"
           transform="translate(311.3601,18.4413)">
          <path
             d="m 0,0 c 0,0.662 -0.146,1.176 -0.437,1.543 -0.289,0.373 -0.68,0.556 -1.17,0.556 -0.318,0 -0.597,-0.083 -0.839,-0.246 C -2.688,1.688 -2.872,1.446 -3.003,1.125 -3.133,0.804 -3.2,0.429 -3.2,0 c 0,-0.424 0.064,-0.792 0.193,-1.108 0.131,-0.319 0.315,-0.561 0.554,-0.729 0.241,-0.166 0.522,-0.253 0.846,-0.253 0.49,0 0.881,0.186 1.17,0.558 C -0.146,-1.163 0,-0.65 0,0 m 1.628,0 c 0,-0.48 -0.077,-0.928 -0.223,-1.336 -0.154,-0.408 -0.37,-0.759 -0.656,-1.05 -0.284,-0.293 -0.626,-0.517 -1.02,-0.675 -0.4,-0.154 -0.843,-0.234 -1.336,-0.234 -0.492,0 -0.934,0.08 -1.327,0.239 -0.388,0.157 -0.731,0.384 -1.015,0.677 -0.288,0.298 -0.506,0.646 -0.657,1.048 -0.144,0.402 -0.22,0.847 -0.22,1.331 0,0.492 0.078,0.941 0.224,1.35 0.152,0.408 0.369,0.756 0.65,1.045 0.281,0.289 0.62,0.51 1.018,0.668 0.403,0.157 0.844,0.235 1.327,0.235 0.49,0 0.936,-0.078 1.336,-0.239 C 0.128,2.902 0.469,2.675 0.757,2.385 1.043,2.088 1.258,1.741 1.406,1.34 1.553,0.933 1.628,0.489 1.628,0"
             style="fill:#306eae;fill-opacity:1;fill-rule:nonzero;stroke:none"
             id="path254" />
        </g>
        <g
           id="g256"
           transform="translate(319.1697,18.3231)">
          <path
             d="m 0,0 v -2.154 c 0,-0.342 -0.075,-0.595 -0.23,-0.768 -0.157,-0.17 -0.358,-0.255 -0.612,-0.255 -0.245,0 -0.446,0.085 -0.595,0.255 -0.154,0.173 -0.232,0.426 -0.232,0.768 v 2.582 c 0,0.408 -0.013,0.725 -0.039,0.952 -0.029,0.222 -0.105,0.41 -0.227,0.552 -0.123,0.147 -0.318,0.219 -0.582,0.219 -0.531,0 -0.879,-0.18 -1.047,-0.549 C -3.731,1.241 -3.818,0.718 -3.818,0.034 v -2.188 c 0,-0.336 -0.077,-0.592 -0.226,-0.765 -0.156,-0.171 -0.354,-0.258 -0.603,-0.258 -0.248,0 -0.448,0.087 -0.604,0.258 -0.158,0.173 -0.235,0.429 -0.235,0.765 v 4.636 c 0,0.306 0.069,0.539 0.209,0.695 0.143,0.161 0.329,0.239 0.556,0.239 0.223,0 0.408,-0.077 0.557,-0.223 0.148,-0.148 0.222,-0.353 0.222,-0.615 V 2.425 c 0.283,0.335 0.584,0.583 0.903,0.738 0.322,0.162 0.676,0.241 1.07,0.241 0.407,0 0.757,-0.082 1.049,-0.244 0.293,-0.162 0.533,-0.409 0.725,-0.735 0.274,0.33 0.568,0.577 0.882,0.738 0.312,0.16 0.657,0.241 1.038,0.241 0.441,0 0.826,-0.089 1.146,-0.261 C 3.189,2.969 3.429,2.718 3.589,2.396 3.727,2.1 3.795,1.639 3.795,1.01 v -3.164 c 0,-0.342 -0.076,-0.595 -0.23,-0.768 -0.154,-0.17 -0.359,-0.255 -0.612,-0.255 -0.247,0 -0.446,0.087 -0.603,0.258 -0.157,0.173 -0.235,0.429 -0.235,0.765 v 2.725 c 0,0.35 -0.014,0.627 -0.044,0.836 C 2.042,1.618 1.961,1.795 1.832,1.937 1.7,2.079 1.501,2.151 1.236,2.151 1.023,2.151 0.82,2.085 0.628,1.959 0.437,1.836 0.286,1.661 0.178,1.452 0.062,1.178 0,0.693 0,0"
             style="fill:#306eae;fill-opacity:1;fill-rule:nonzero;stroke:none"
             id="path258" />
        </g>
        <g
           id="g260"
           transform="translate(243.7298,18.8339)">
          <path
             d="M 0,0 C -0.001,0.004 -0.001,0.007 -0.001,0.012 -0.001,0.007 -0.001,0.004 0,0"
             style="fill:#306eae;fill-opacity:1;fill-rule:nonzero;stroke:none"
             id="path262" />
        </g>
        <g
           id="g264"
           transform="translate(243.8113,18.3163)">
          <path
             d="M 0,0 H 0.001 C -0.029,0.147 -0.053,0.294 -0.072,0.438 -0.053,0.293 -0.029,0.146 0,0"
             style="fill:#306eae;fill-opacity:1;fill-rule:nonzero;stroke:none"
             id="path266" />
        </g>
        <g
           id="g268"
           transform="translate(244.3479,16.8124)">
          <path
             d="M 0,0 C -0.003,0.006 -0.007,0.013 -0.011,0.021 -0.007,0.013 -0.003,0.006 0,0"
             style="fill:#306eae;fill-opacity:1;fill-rule:nonzero;stroke:none"
             id="path270" />
        </g>
        <g
           id="g272"
           transform="translate(244.2967,16.912)">
          <path
             d="M 0,0 C -0.014,0.027 -0.027,0.057 -0.041,0.084 -0.027,0.055 -0.014,0.027 0,0"
             style="fill:#306eae;fill-opacity:1;fill-rule:nonzero;stroke:none"
             id="path274" />
        </g>
        <g
           id="g276"
           transform="translate(243.9622,17.7372)">
          <path
             d="M 0,0 C 0.079,-0.251 0.175,-0.493 0.286,-0.725 0.173,-0.488 0.079,-0.245 0.002,0 Z"
             style="fill:#306eae;fill-opacity:1;fill-rule:nonzero;stroke:none"
             id="path278" />
        </g>
        <g
           id="g280"
           transform="translate(250.0027,25.0448)">
          <path
             d="m 0,0 c 0.313,0 0.545,-0.025 0.81,-0.069 l 0.075,0.476 c 0,0 -0.732,0.225 -1.694,0.147 l -0.076,0.258 c 0.299,0.064 0.524,0.33 0.524,0.647 0,0.364 -0.297,0.658 -0.661,0.658 -0.364,0 -0.66,-0.294 -0.66,-0.658 0,-0.317 0.224,-0.583 0.523,-0.647 L -1.076,0.523 C -2.097,0.383 -2.91,-0.016 -2.91,-0.016 l 0.144,-0.44 c 0.618,0.205 1.154,0.331 1.64,0.383 C -0.65,-0.022 -0.292,0 0,0"
             style="fill:#306eae;fill-opacity:1;fill-rule:nonzero;stroke:none"
             id="path282" />
        </g>
        <g
           id="g284"
           transform="translate(244.3357,22.6327)">
          <path
             d="m 0,0 0.004,0.005 c 0.024,0.031 0.047,0.06 0.071,0.09 l -0.196,0.14 -0.305,0.223 c -0.017,-0.023 -0.497,-0.465 -0.876,-1.28 -0.016,0.026 -0.035,0.051 -0.056,0.075 -0.114,0.124 -0.272,0.187 -0.474,0.184 h -0.009 c -0.125,0 -0.211,0.041 -0.267,0.091 0.056,0.072 0.089,0.16 0.089,0.259 0,0.23 -0.187,0.418 -0.418,0.418 -0.23,0 -0.417,-0.188 -0.417,-0.418 0,-0.231 0.187,-0.419 0.417,-0.419 0.037,0 0.071,0.007 0.104,0.014 0.104,-0.114 0.267,-0.214 0.505,-0.209 0.123,0.001 0.213,-0.03 0.274,-0.098 0.069,-0.075 0.093,-0.184 0.099,-0.266 0,-0.002 0,-0.003 -0.002,-0.003 -0.272,-0.744 -0.194,-1.669 -0.194,-1.669 L -0.99,-2.89 c 0.013,0.337 0.062,0.927 0.232,1.394 C -0.429,-0.59 -0.017,-0.023 0,0"
             style="fill:#306eae;fill-opacity:1;fill-rule:nonzero;stroke:none"
             id="path286" />
        </g>
        <g
           id="g288"
           transform="translate(255.7527,24.4921)">
          <path
             d="m 0,0 c -0.23,0 -0.418,-0.187 -0.418,-0.418 0,-0.036 0.005,-0.07 0.015,-0.103 -0.116,-0.104 -0.215,-0.267 -0.211,-0.506 0.002,-0.124 -0.03,-0.213 -0.097,-0.274 -0.053,-0.047 -0.119,-0.072 -0.185,-0.088 -0.492,0.69 -1.097,1.11 -1.097,1.11 l -0.474,-0.508 c 0.359,-0.326 0.725,-0.734 1.08,-1.244 0.246,-0.353 0.499,-0.807 0.71,-1.259 l 0.64,0.304 c 0,0 -0.292,0.721 -0.703,1.369 0.071,0.025 0.143,0.064 0.207,0.121 0.125,0.112 0.186,0.272 0.182,0.474 -0.001,0.129 0.042,0.217 0.093,0.275 0.071,-0.055 0.161,-0.089 0.258,-0.089 0.231,0 0.419,0.188 0.419,0.418 C 0.419,-0.187 0.231,0 0,0"
             style="fill:#306eae;fill-opacity:1;fill-rule:nonzero;stroke:none"
             id="path290" />
        </g>
        <g
           id="g292"
           transform="translate(254.0916,18.7411)">
          <path
             d="m 0,0 c -0.881,-0.43 -2.33,-0.996 -4.238,-1.263 -0.749,-0.103 -1.474,-0.141 -2.142,-0.141 -0.87,0 -1.638,0.064 -2.227,0.138 -0.673,0.085 -1.199,0.189 -1.52,0.262 0.077,-0.245 0.17,-0.488 0.283,-0.725 0.002,-0.005 0.005,-0.012 0.008,-0.016 0.014,-0.027 0.027,-0.057 0.041,-0.084 0.014,-0.027 0.027,-0.054 0.041,-0.079 0.004,-0.008 0.007,-0.015 0.01,-0.021 0.19,-0.356 0.417,-0.684 0.676,-0.968 0.9,-0.985 1.817,-1.14 1.825,-1.141 l 0.014,-0.002 0.014,-0.005 c 0.008,-0.003 0.821,-0.266 2.057,-0.266 1.216,0 2.409,0.246 3.547,0.73 0.841,0.431 1.638,1.085 2.033,1.669 0.306,0.451 0.525,0.933 0.656,1.433 C 1.147,-0.213 1.202,0.214 1.17,0.662 0.923,0.495 0.53,0.258 0,0"
             style="fill:#306eae;fill-opacity:1;fill-rule:nonzero;stroke:none"
             id="path294" />
        </g>
        <g
           id="g296"
           transform="translate(247.136,22.8847)">
          <path
             d="m 0,0 c 0.973,0 1.761,-0.789 1.761,-1.761 0,-0.972 -0.788,-1.76 -1.761,-1.76 -0.972,0 -1.76,0.788 -1.76,1.76 C -1.76,-0.789 -0.972,0 0,0 m 5.151,-0.044 c 0.6,0 1.09,-0.488 1.09,-1.089 0,-0.601 -0.49,-1.09 -1.09,-1.09 -0.601,0 -1.089,0.489 -1.089,1.09 0,0.601 0.488,1.089 1.089,1.089 M -2.518,-0.46 C -2.543,-0.498 -2.925,-1.038 -3.227,-1.868 -3.453,-2.49 -3.443,-3.396 -3.443,-3.406 v -0.002 c 0,-0.212 0.012,-0.423 0.035,-0.631 0,-0.005 0,-0.008 0.002,-0.012 0.002,-0.026 0.007,-0.052 0.009,-0.079 0.019,-0.144 0.043,-0.291 0.074,-0.438 0.438,-0.112 3.049,-0.721 5.968,-0.315 1.829,0.255 3.218,0.796 4.062,1.205 0.701,0.34 1.151,0.648 1.325,0.774 -0.173,0.642 -0.652,1.65 -1.09,2.279 C 5.689,1.166 4.338,1.625 3.644,1.739 3.379,1.782 3.167,1.808 2.867,1.808 2.587,1.808 2.241,1.785 1.777,1.736 1.313,1.688 0.795,1.566 0.195,1.364 -0.647,1.082 -1.41,0.64 -2.009,0.084 L -2.03,0.065 C -2.119,-0.017 -2.304,-0.188 -2.518,-0.46"
             style="fill:#306eae;fill-opacity:1;fill-rule:nonzero;stroke:none"
             id="path298" />
        </g>
      </g>
    </g>
  </g>
</svg>
