<?xml version="1.0" encoding="utf-8"?>
<!-- Generator: Adobe Illustrator 27.2.0, SVG Export Plug-In . SVG Version: 6.00 Build 0)  -->
<svg version="1.1" id="Layer_1" xmlns="http://www.w3.org/2000/svg" xmlns:xlink="http://www.w3.org/1999/xlink" x="0px" y="0px"
	 viewBox="0 0 49.74 37.95" style="enable-background:new 0 0 49.74 37.95;" xml:space="preserve">
<style type="text/css">
	.st0{fill:#010101;}
</style>
<g>
	<path class="st0" d="M46.46,6.57H3.29C1.47,6.57,0,5.1,0,3.29v0C0,1.47,1.47,0,3.29,0l43.17,0c1.82,0,3.29,1.47,3.29,3.29v0
		C49.74,5.1,48.27,6.57,46.46,6.57z"/>
	<path class="st0" d="M46.46,22.26H3.29C1.47,22.26,0,20.79,0,18.97v0c0-1.82,1.47-3.29,3.29-3.29h43.17c1.82,0,3.29,1.47,3.29,3.29
		v0C49.74,20.79,48.27,22.26,46.46,22.26z"/>
	<path class="st0" d="M46.46,37.95H3.29C1.47,37.95,0,36.48,0,34.66v0c0-1.82,1.47-3.29,3.29-3.29h43.17c1.82,0,3.29,1.47,3.29,3.29
		v0C49.74,36.48,48.27,37.95,46.46,37.95z"/>
</g>
</svg>
