<?xml version="1.0" encoding="utf-8"?>
<!-- Generator: Adobe Illustrator 27.2.0, SVG Export Plug-In . SVG Version: 6.00 Build 0)  -->
<svg version="1.1" id="Layer_1" xmlns="http://www.w3.org/2000/svg" xmlns:xlink="http://www.w3.org/1999/xlink" x="0px" y="0px"
	 viewBox="0 0 41.21 53.45" style="enable-background:new 0 0 41.21 53.45;" xml:space="preserve">
<style type="text/css">
	.st0{fill:#010101;}
</style>
<g>
	<path class="st0" d="M19.88,25.44c6.04,0,10.96-4.91,10.96-10.96c0-6.04-4.91-10.95-10.96-10.95c-6.04,0-10.95,4.91-10.95,10.95
		C8.92,20.52,13.83,25.44,19.88,25.44z M13.99,14.48c0-3.25,2.64-5.89,5.89-5.89c3.25,0,5.89,2.64,5.89,5.89
		c0,3.25-2.64,5.89-5.89,5.89C16.63,20.37,13.99,17.73,13.99,14.48z"/>
	<path class="st0" d="M26.72,27.39H13.03c-6.59,0-11.95,5.36-11.95,11.95c0,6.59,5.36,11.95,11.95,11.95h13.69
		c6.59,0,11.95-5.36,11.95-11.95C38.67,32.75,33.31,27.39,26.72,27.39z M33.15,39.34c0,3.54-2.88,6.43-6.42,6.43H13.03
		c-3.54,0-6.42-2.88-6.42-6.43c0-3.54,2.88-6.42,6.42-6.42h13.69C30.26,32.92,33.15,35.8,33.15,39.34z"/>
</g>
</svg>
