<svg id="Layer_1" data-name="Layer 1" xmlns="http://www.w3.org/2000/svg" xmlns:xlink="http://www.w3.org/1999/xlink" viewBox="0 0 240.94 141.73"><defs><style>.cls-1{fill:none;}.cls-2{clip-path:url(#clip-path);}.cls-3{fill:#ffdc00;}.cls-4{clip-path:url(#clip-path-2);}.cls-5{opacity:0.2;}.cls-6{fill:#f3c400;}.cls-7{fill:#ffd400;}</style><clipPath id="clip-path"><path class="cls-1" d="M0,0H240.94V141.73H17.75A17.75,17.75,0,0,1,0,124Z"/></clipPath><clipPath id="clip-path-2"><path class="cls-1" d="M102-7.09V17.4a17.37,17.37,0,0,0,17.3,17.33H248V-7.09Z"/></clipPath></defs><g class="cls-2"><rect x="101.92" y="87.81" width="0.25" height="37.27"/><path class="cls-1" d="M0-7.09H248V141.73H17.75A17.75,17.75,0,0,1,0,124Z"/><path class="cls-1" d="M0-7.09H248V141.73H17.75A17.75,17.75,0,0,1,0,124Z"/><g id="Iconly_Light-outline_Calling" data-name="Iconly Light-outline Calling"><g id="Calling-5"><path id="Calling-6" d="M117.71,94.13a8.23,8.23,0,0,1-2.28-1.7,7.93,7.93,0,0,1-1.68-2.29l0-.07a1.21,1.21,0,0,1,0-1.26A1.85,1.85,0,0,1,115,88h0a.68.68,0,0,1,.43.23l0,0a4.87,4.87,0,0,1,.78,1.08v0a.76.76,0,0,1-.15.61l0,.06c-.06.11-.08.16-.06.22a2.85,2.85,0,0,0,1.6,1.61h.06a.49.49,0,0,0,.21-.08l.08,0a.82.82,0,0,1,.4-.13l.15,0a4.55,4.55,0,0,1,1,.72l.08.08,0,0a.73.73,0,0,1,.23.45,1.81,1.81,0,0,1-.83,1.22,1,1,0,0,1-.62.2A1.82,1.82,0,0,1,117.71,94.13ZM115,88.42h0a1.68,1.68,0,0,0-.78.64l0,0a.94.94,0,0,0,.06.86l0,.08a7.85,7.85,0,0,0,1.6,2.11,7.63,7.63,0,0,0,2.1,1.55l.07,0a1,1,0,0,0,.45.11.64.64,0,0,0,.38-.12h0a2.58,2.58,0,0,0,.34-.32,1,1,0,0,0,.26-.47.38.38,0,0,0-.09-.15l0,0a5.32,5.32,0,0,0-.89-.67h0a.56.56,0,0,0-.24.1l-.07,0a.69.69,0,0,1-.39.12.66.66,0,0,1-.23,0,3.31,3.31,0,0,1-1.86-1.88.73.73,0,0,1,.11-.67l0-.06c.06-.12.08-.17.07-.24a6.75,6.75,0,0,0-.64-.85l-.06-.06,0,0a.21.21,0,0,0-.1-.06Zm3.41,2.07a1.13,1.13,0,0,0-.89-.9.23.23,0,0,1-.19-.27.25.25,0,0,1,.22-.19h.06a1.58,1.58,0,0,1,1.26,1.26.25.25,0,0,1-.19.28.24.24,0,0,1-.27-.19Zm1.09,0a2.26,2.26,0,0,0-.64-1.33,2.2,2.2,0,0,0-1.32-.64.24.24,0,0,1-.21-.26.22.22,0,0,1,.2-.2h.06a2.63,2.63,0,0,1,1.6.77,2.71,2.71,0,0,1,.77,1.61.23.23,0,0,1-.2.26h0A.23.23,0,0,1,119.45,90.47Z"/></g></g><g id="Iconly_Light-outline_Location" data-name="Iconly Light-outline Location"><g id="Location-6"><path id="Location-7" d="M29.45,123.25h0l.13-.09A6.6,6.6,0,0,0,31,121.8l.1-.13a3.49,3.49,0,0,0,.7-2v-.09a2.7,2.7,0,0,0-2.7-2.61h-.09a2.7,2.7,0,0,0-2.61,2.71v0a3.89,3.89,0,0,0,1.18,2.51,7,7,0,0,0,1.19,1h0a.51.51,0,0,0,.62,0Zm-.24-5.76a2.23,2.23,0,0,1,2.15,2.21v.12a3,3,0,0,1-.59,1.56,6.19,6.19,0,0,1-1.56,1.46l0,0a.11.11,0,0,1-.08,0l0,0a6,6,0,0,1-1.1-.92,3.4,3.4,0,0,1-1-2.17v-.11a2.22,2.22,0,0,1,2.21-2.15Zm1,2.26a1,1,0,1,0-1,1A1,1,0,0,0,30.17,119.75Zm-.48,0a.55.55,0,1,1-.55-.55A.55.55,0,0,1,29.69,119.75Z"/></g></g><g id="Iconly_Light-outline_Message" data-name="Iconly Light-outline Message"><g id="Message-5"><path id="Message-6" d="M30.31,94a1.64,1.64,0,0,0,1.25-.54,1.93,1.93,0,0,0,.49-1.32v-2a1.93,1.93,0,0,0-.49-1.32,1.64,1.64,0,0,0-1.25-.54H27.44a1.76,1.76,0,0,0-1.74,1.79v2A1.76,1.76,0,0,0,27.44,94Zm1.25-3.85v2a1.26,1.26,0,0,1-1.16,1.37h-3a1.33,1.33,0,0,1-.92-.41,1.32,1.32,0,0,1-.34-1v-2a1.28,1.28,0,0,1,1.26-1.36h2.87a1.28,1.28,0,0,1,1.26,1.3A.25.25,0,0,1,31.56,90.16Zm-2.17,1.36.05,0,1.31-1a.24.24,0,0,0-.27-.4l0,0-1.31,1a.46.46,0,0,1-.5,0l0,0-1.3-1a.25.25,0,0,0-.34,0h0a.26.26,0,0,0,0,.32l0,0,1.3,1a.93.93,0,0,0,1.09,0Z"/></g></g><g id="Iconly_Light-outline_Discovery" data-name="Iconly Light-outline Discovery"><g id="Discovery-6"><path id="Discovery-7" d="M32.37,105.67a3.18,3.18,0,1,0-3.17,3.17A3.17,3.17,0,0,0,32.37,105.67Zm-.46,0A2.72,2.72,0,1,1,29.2,103,2.71,2.71,0,0,1,31.91,105.67Zm-1.51,1.16a.23.23,0,0,0,0-.21L30,105.06a.23.23,0,0,0-.15-.15l-1.56-.49h-.07a.22.22,0,0,0-.18.1.21.21,0,0,0,0,.2l.49,1.56a.23.23,0,0,0,.15.15l1.56.49h.07A.21.21,0,0,0,30.4,106.83Zm-.85-1.52.32,1-1-.32-.32-1Z"/></g></g><path class="cls-3" d="M102-7.09V17.4a17.37,17.37,0,0,0,17.3,17.33H248V-7.09Z"/><g class="cls-4"><g class="cls-5"><path class="cls-6" d="M121.78,15a3.36,3.36,0,1,0,0,4.75,3.35,3.35,0,0,0,0-4.75"/><path class="cls-6" d="M123.89,27.83a11.39,11.39,0,1,1,6-6l4.44,4.44a17.38,17.38,0,1,0-6,6Z"/><path class="cls-6" d="M136.19,29.93h0l-.18-.17h0l-8.91-8.9a3,3,0,0,0-4.23,4.23l8.91,8.9h0l.18.17h0a3,3,0,0,0,4.21-4.21"/><path class="cls-6" d="M156.5,15a3.36,3.36,0,1,0,0,4.75,3.35,3.35,0,0,0,0-4.75"/><path class="cls-6" d="M158.61,27.83a11.39,11.39,0,1,1,6-6L169,26.28a17.37,17.37,0,1,0-6,6Z"/><path class="cls-6" d="M170.91,29.93h0l-.18-.17h0l-8.9-8.9a3,3,0,0,0-4.23,4.23l8.9,8.9h0l.18.17h0a3,3,0,0,0,4.21-4.21"/><path class="cls-6" d="M191.23,15a3.36,3.36,0,1,0,0,4.75,3.36,3.36,0,0,0,0-4.75"/><path class="cls-6" d="M193.33,27.83a11.38,11.38,0,1,1,6-6l4.44,4.44a17.38,17.38,0,1,0-6,6Z"/><path class="cls-6" d="M205.64,29.93h0l-.18-.17h0l-8.91-8.9a3,3,0,1,0-4.23,4.23l8.9,8.9h0l.18.17h0a3,3,0,0,0,4.21-4.21"/><path class="cls-6" d="M226,15a3.36,3.36,0,1,0,0,4.75A3.35,3.35,0,0,0,226,15"/><path class="cls-6" d="M228.06,27.83a11.39,11.39,0,1,1,6-6l4.44,4.44a17.37,17.37,0,1,0-6,6Z"/><path class="cls-6" d="M240.36,29.93h0l-.18-.17h0l-8.9-8.9a3,3,0,0,0-4.24,4.23L236,34h0l.18.17h0a3,3,0,0,0,4.21-4.21"/></g></g><path class="cls-7" d="M49.51,51.45a13.66,13.66,0,1,1,12.73-8.38l5.49,5.58a21.16,21.16,0,1,0-7.13,7.16l-5.45-5.53A13.75,13.75,0,0,1,49.51,51.45Z"/><path class="cls-7" d="M45.55,37.77a4.07,4.07,0,1,0,4.07-4.07A4.07,4.07,0,0,0,45.55,37.77Z"/><path class="cls-7" d="M69.72,52.86l-11-11a3.56,3.56,0,0,0-5,5l11,11a3.56,3.56,0,0,0,5-5Z"/></g></svg>