<svg xmlns="http://www.w3.org/2000/svg" xmlns:xlink="http://www.w3.org/1999/xlink" viewBox="0 0 240.94 141.73"><defs><style>.cls-1,.cls-11{fill:none;}.cls-2,.cls-3{font-size:7.94px;}.cls-2{font-family:MarkPro;}.cls-3{font-family:MarkPro-Bold, MarkPro Bold;font-weight:700;}.cls-4{letter-spacing:0em;}.cls-5{letter-spacing:0em;}.cls-6{fill:#fd0;}.cls-7{clip-path:url(#clip-path);}.cls-8{opacity:0.2;}.cls-9{fill:#f4c500;}.cls-10{fill:#ffd402;}.cls-11{stroke:#009fe3;stroke-miterlimit:10;stroke-width:0.5px;}</style><clipPath id="clip-path"><path class="cls-1" d="M138.9-7.09V17.4a17.36,17.36,0,0,1-17.3,17.32H-7.09V-7.09Z"/></clipPath></defs><g id="Information"><path class="cls-1" d="M240.94,0H0V141.73H223.19A17.75,17.75,0,0,0,240.94,124Z"/><path class="cls-1" d="M240.94-7.09h-248V141.73H223.19A17.75,17.75,0,0,0,240.94,124Z"/><path class="cls-1" d="M240.94-7.09h-248V141.73H223.19A17.75,17.75,0,0,0,240.94,124Z"/><path d="M29.94,120.57a5.82,5.82,0,0,1,.78-2.85h.4a6,6,0,0,0-.76,2.85,6.05,6.05,0,0,0,.76,2.87h-.4A5.87,5.87,0,0,1,29.94,120.57Z"/><path d="M36.29,121.84v.38H31.45l.09-.38h.65V121h0v-3.32h.38v1.18h0v.29H34c1,0,1.58.51,1.57,1.47v1.19Zm-2.24-2.28H32.57v2.28h2.64v-1.25C35.21,119.86,34.75,119.57,34.05,119.56Z"/><path d="M37.94,121.84v.38H36.18v-.38h.67v-4.12h.39v4.12Z"/><path d="M40.11,122.22H37.82v-.38h.9v-2.66h.38v2.66h1Zm-2-4a.31.31,0,0,1,.33-.32.32.32,0,1,1,0,.63A.31.31,0,0,1,38.12,118.2Zm.94,0a.34.34,0,0,1,.67,0,.34.34,0,0,1-.67,0Z"/><path d="M43.41,121.84v.38H40v-.38h2.31a5.29,5.29,0,0,0,.14-1.14,1,1,0,0,0-1.08-1.19,1.61,1.61,0,0,0-.91.27l-.14-.35a2.26,2.26,0,0,1,1.08-.31c.91,0,1.42.6,1.42,1.6a6.42,6.42,0,0,1-.13,1.12ZM41.1,118.1a.32.32,0,0,1,.34-.31.31.31,0,0,1,.33.31.34.34,0,0,1-.67,0Z"/><path d="M46.78,121.2h0a1.47,1.47,0,0,1-1.48,1.61h0a1.4,1.4,0,0,1-1.2-.6H43.3v-.38h.6a1.81,1.81,0,0,1-.1-.63h0a1.48,1.48,0,0,1,1.49-1.64h0A1.48,1.48,0,0,1,46.78,121.2Zm-.38,0A1.11,1.11,0,0,0,45.3,120h0a1.11,1.11,0,0,0-1.1,1.24h0a1.1,1.1,0,0,0,1.1,1.23h0a1.11,1.11,0,0,0,1.1-1.23Z"/><path d="M51.49,122.22H49.61a.68.68,0,0,0-.7.51l-.3.76-.35-.13.33-.81a1,1,0,0,1,.64-.67,3.24,3.24,0,0,1-.36-1.32,1.31,1.31,0,0,1,1.38-1.44,2.86,2.86,0,0,1,1.1.29l-.13.35a2.39,2.39,0,0,0-.95-.25,1,1,0,0,0-1,1.11,2.35,2.35,0,0,0,.42,1.22h1.83Z"/><path d="M53.69,121.84v.38H52.31v-4.51h.38v4.13Z"/><path d="M58.29,121.84v.38H53.58v-.38h.61v-4.18h.38v1.52H56c1,0,1.57.51,1.57,1.47v1.19Zm-2.24-2.28H54.57v2.28H57.2v-1.25C57.21,119.86,56.75,119.57,56.05,119.56Z"/><path d="M60.4,119.18h.74v3h-3v-.38h1a1.41,1.41,0,0,1-.5-1.12h0A1.55,1.55,0,0,1,60.4,119.18Zm.35.38h-.42a1.16,1.16,0,0,0-1.3,1.15h0a1.15,1.15,0,0,0,1.3,1.12h.42Zm-1.13-1.36a.34.34,0,1,1,.33.31A.31.31,0,0,1,59.62,118.2Zm1.61,0a.34.34,0,0,1-.67,0,.34.34,0,0,1,.67,0Z"/><path d="M62.38,120.57a5.75,5.75,0,0,0-.78-2.85H62a5.57,5.57,0,0,1,0,5.72h-.4A5.83,5.83,0,0,0,62.38,120.57Z"/><path d="M68.15,121.78v.44H66.46a1.74,1.74,0,0,1-1.94-1.72h0a1.78,1.78,0,0,1,2-1.76h.4v-.31h.44v3.35Zm-1.24-2.6h-.48a1.33,1.33,0,0,0-1.49,1.32h0a1.32,1.32,0,0,0,1.49,1.28h.48Zm-1.36-1.64a.38.38,0,0,1,.76,0,.38.38,0,0,1-.76,0Zm1.08,0a.38.38,0,0,1,.76,0,.38.38,0,0,1-.76,0Z"/><path d="M70.63,122.22H68v-.44h1v-3h.44v3h1.15Zm-1.52,1.13a.38.38,0,0,1-.76,0,.38.38,0,0,1,.76,0Zm1.08,0a.38.38,0,0,1-.76,0,.38.38,0,0,1,.76,0Z"/><path d="M70.51,121.78h3.26v-1.27a.87.87,0,0,0-1-1H71.06a.88.88,0,0,1-.17-.44l1-2h.53l-1.06,2h1.36a1.31,1.31,0,0,1,1.47,1.48v1.66H70.51Z"/><path d="M78.34,121.78v.44H74.79v-.44h2.34V120.2a.9.9,0,0,0-1-1h-.21v-.44h.15a1.3,1.3,0,0,1,1.47,1.48v1.56Zm-2.56-4.2a.37.37,0,0,1,.39-.37.37.37,0,1,1,0,.73A.37.37,0,0,1,75.78,117.58Z"/><path d="M79.67,117.08v5.14H78.12v-.44h1.11v-4.7Z"/><path d="M80.82,117.08h.44v5.14h-.44Z"/><path d="M86.54,121.78v.44H84.85a1.74,1.74,0,0,1-1.94-1.72h0a1.78,1.78,0,0,1,2-1.76h.4v-.31h.44v3.35Zm-1.24-2.6h-.48a1.33,1.33,0,0,0-1.49,1.32h0a1.32,1.32,0,0,0,1.49,1.28h.48Zm-1.36-1.64a.38.38,0,1,1,.38.36A.36.36,0,0,1,83.94,117.54Zm1.08,0a.38.38,0,1,1,.38.36A.36.36,0,0,1,85,117.54Z"/><path d="M89,118.74h.83v3.48H86.41v-.44h1.13A1.59,1.59,0,0,1,87,120.5h0A1.78,1.78,0,0,1,89,118.74Zm.4.44h-.49a1.33,1.33,0,0,0-1.49,1.32h0a1.32,1.32,0,0,0,1.49,1.28h.49Zm-1.3-1.56a.38.38,0,0,1,.76,0,.38.38,0,0,1-.76,0Zm1.84,0a.38.38,0,0,1-.76,0,.38.38,0,0,1,.76,0Z"/><path d="M92.4,121.78v.44H90.82v-5.15h.44v4.71Z"/><path d="M97.65,121.78v.44H92.27v-.44H93V117h.44v1.73h1.66c1.18,0,1.79.59,1.79,1.68v1.36Zm-2.56-2.6H93.4v2.6h3v-1.42C96.42,119.52,95.89,119.19,95.09,119.18Z"/><path d="M99.44,121.78v.44H97.52v-.44h.68v-3h.43v3Zm-.63,1.57a.39.39,0,0,1-.77,0,.39.39,0,0,1,.77,0Z"/><path d="M101.31,121.78v.44h-2v-.44h.77v-4.7h.43v4.7Z"/><path d="M102.64,117.08v5.14h-1.55v-.44h1.11v-4.7Z"/><path d="M108.08,121.78v.44h-1.69a1.74,1.74,0,0,1-2-1.72h0a1.78,1.78,0,0,1,2-1.76h.4v-.31h.43v3.35Zm-1.24-2.6h-.49a1.33,1.33,0,0,0-1.49,1.32h0a1.32,1.32,0,0,0,1.49,1.28h.49Zm-1.36-1.64a.36.36,0,0,1,.38-.36.36.36,0,1,1,0,.72A.36.36,0,0,1,105.48,117.54Zm1.08,0a.36.36,0,0,1,.38-.36.36.36,0,1,1,0,.72A.36.36,0,0,1,106.56,117.54Z"/><path d="M110.56,122.22H108v-.44h1v-3h.44v3h1.15ZM109,123.35a.36.36,0,0,1-.38.35.36.36,0,0,1-.38-.35.37.37,0,0,1,.38-.37A.37.37,0,0,1,109,123.35Zm1.08,0a.36.36,0,0,1-.38.35.36.36,0,0,1-.38-.35.37.37,0,0,1,.38-.37A.37.37,0,0,1,110.12,123.35Z"/><path d="M115.05,122.22h-1a1.59,1.59,0,0,1-1.36.69h0a1.63,1.63,0,0,1-1.38-.69h-.9v-.44h.69a2,2,0,0,1-.12-.72h0a1.69,1.69,0,0,1,1.71-1.87h0a1.69,1.69,0,0,1,1.69,1.87h0a2.31,2.31,0,0,1-.11.72h.75ZM114,121a1.27,1.27,0,0,0-1.25-1.42h0a1.27,1.27,0,0,0-1.26,1.42h0a1.26,1.26,0,0,0,1.26,1.41h0a1.27,1.27,0,0,0,1.25-1.41Z"/><path d="M116.37,117.08v5.14h-1.54v-.44h1.11v-4.7Z"/><path d="M119.11,121.78v.44h-1.58v-5.15H118v4.71Z"/><path d="M123.29,122.22H119v-.44h1.16l-.9-2.36a2.89,2.89,0,0,1,1.82-.74,2.86,2.86,0,0,1,1.82.74l-.91,2.36h1.32Zm-.9-2.57a2.08,2.08,0,0,0-1.33-.52,2.18,2.18,0,0,0-1.33.51l.82,2.14h1Z"/><path d="M124.62,117.08v5.14h-1.55v-.44h1.11v-4.7Z"/><path d="M125.77,117.08h.44v5.14h-.44Z"/><text class="cls-2" transform="translate(158.26 92.01)">a.hadi@qi.iq</text><text class="cls-3" transform="translate(158.26 106.85)">qi.iq</text><text class="cls-2" transform="translate(158.26 121.69)">i<tspan class="cls-4" x="1.86" y="0">r</tspan><tspan x="4.41" y="0">aq - i</tspan><tspan class="cls-4" x="20.36" y="0">r</tspan><tspan x="22.92" y="0">aq i</tspan><tspan class="cls-4" x="34.75" y="0">r</tspan><tspan class="cls-5" x="37.31" y="0">aq</tspan></text><rect x="138.76" y="87.81" width="0.25" height="37.27"/><text class="cls-2" transform="translate(45.88 93.37)">+964 780 195 9002</text><g id="Iconly_Light-outline_Location" data-name="Iconly Light-outline Location"><g id="Location-6"><path id="Location-7" d="M151.73,122.77l0,0,.13-.09a6.37,6.37,0,0,0,1.44-1.35l.1-.13a3.38,3.38,0,0,0,.7-2v-.1a2.7,2.7,0,0,0-2.7-2.61h-.09a2.71,2.71,0,0,0-2.61,2.71v0a3.89,3.89,0,0,0,1.18,2.5,7,7,0,0,0,1.19,1h0a.51.51,0,0,0,.62,0Zm-.24-5.77a2.23,2.23,0,0,1,2.15,2.22v.11a2.93,2.93,0,0,1-.59,1.56,6.19,6.19,0,0,1-1.56,1.46l0,0a.06.06,0,0,1-.08,0l0,0a6.12,6.12,0,0,1-1.11-.91,3.42,3.42,0,0,1-1.05-2.18v-.1a2.23,2.23,0,0,1,2.21-2.16Zm1,2.26a1,1,0,1,0-1,1A1,1,0,0,0,152.45,119.26Zm-.48,0a.55.55,0,0,1-.55.55.55.55,0,1,1,0-1.1A.56.56,0,0,1,152,119.26Z"/></g></g><g id="Iconly_Light-outline_Message" data-name="Iconly Light-outline Message"><g id="Message-5"><path id="Message-6" d="M152.6,93.52a1.66,1.66,0,0,0,1.24-.53,2,2,0,0,0,.49-1.32v-2a2,2,0,0,0-.49-1.32,1.67,1.67,0,0,0-1.24-.54h-2.88A1.77,1.77,0,0,0,148,89.6v2.05a1.8,1.8,0,0,0,.47,1.31,1.72,1.72,0,0,0,1.27.56Zm1.25-3.85v2A1.28,1.28,0,0,1,152.68,93h-3a1.25,1.25,0,0,1-.91-.41,1.23,1.23,0,0,1-.34-1v-2a1.23,1.23,0,0,1,.34-1,1.21,1.21,0,0,1,.91-.41h2.88a1.27,1.27,0,0,1,1.25,1.29ZM151.67,91l.05,0,1.31-1a.25.25,0,0,0,0-.34.25.25,0,0,0-.31-.06l0,0-1.31,1a.42.42,0,0,1-.5,0l0,0-1.3-1a.24.24,0,0,0-.34,0h0a.26.26,0,0,0,0,.32l0,0,1.3,1a.92.92,0,0,0,1.09,0Z"/></g></g><g id="Iconly_Light-outline_Discovery" data-name="Iconly Light-outline Discovery"><g id="Discovery-6"><path id="Discovery-7" d="M154.65,105.18a3.18,3.18,0,1,0-3.17,3.17A3.17,3.17,0,0,0,154.65,105.18Zm-.46,0a2.72,2.72,0,1,1-2.71-2.71A2.71,2.71,0,0,1,154.19,105.18Zm-1.5,1.16a.24.24,0,0,0,0-.2l-.49-1.56a.23.23,0,0,0-.15-.15l-1.56-.49h-.07a.21.21,0,0,0-.18.09.23.23,0,0,0,0,.21l.49,1.55a.21.21,0,0,0,.15.15l1.56.49h.07A.25.25,0,0,0,152.69,106.34Zm-.86-1.51.32,1-1-.32-.32-1Z"/></g></g><g id="Iconly_Light-outline_Calling" data-name="Iconly Light-outline Calling"><g id="Calling-5"><path id="Calling-6" d="M125.37,94.6a8.05,8.05,0,0,0,2.28-1.69,7.58,7.58,0,0,0,1.68-2.29l0-.07a1.23,1.23,0,0,0,0-1.27,1.87,1.87,0,0,0-1.2-.84h0a.72.72,0,0,0-.44.22l0,0a4.93,4.93,0,0,0-.78,1.09v0a.76.76,0,0,0,.15.6l0,.06c.07.12.08.17.06.23a2.82,2.82,0,0,1-1.6,1.61h-.06a.43.43,0,0,1-.21-.09l-.08,0a.82.82,0,0,0-.4-.13l-.15,0a4.28,4.28,0,0,0-1,.72l-.09.08,0,0a.73.73,0,0,0-.23.45,1.81,1.81,0,0,0,.83,1.22,1.07,1.07,0,0,0,.62.2A1.68,1.68,0,0,0,125.37,94.6Zm2.76-5.7h0a1.76,1.76,0,0,1,.79.64l0,0a.91.91,0,0,1-.06.86l0,.08a7.85,7.85,0,0,1-1.6,2.11,7.48,7.48,0,0,1-2.1,1.55l-.06,0a1.24,1.24,0,0,1-.46.11.64.64,0,0,1-.38-.12h0a3.51,3.51,0,0,1-.34-.33.88.88,0,0,1-.26-.46.42.42,0,0,1,.09-.16l0,0a6.54,6.54,0,0,1,.89-.68h0a.43.43,0,0,1,.24.1l.08,0a.81.81,0,0,0,.38.12.59.59,0,0,0,.23,0,3.29,3.29,0,0,0,1.86-1.87.7.7,0,0,0-.11-.67l0-.06a.4.4,0,0,1-.07-.24,7.67,7.67,0,0,1,.64-.86l.06,0,0,0,.1-.07ZM124.72,91a1.13,1.13,0,0,1,.89-.9.23.23,0,0,0,.19-.27.24.24,0,0,0-.21-.19h-.07a1.61,1.61,0,0,0-1.26,1.27.23.23,0,0,0,.19.27.23.23,0,0,0,.27-.18Zm-1.09,0a2.26,2.26,0,0,1,.64-1.33,2.15,2.15,0,0,1,1.32-.64.24.24,0,0,0,.21-.26.22.22,0,0,0-.19-.2h-.07a2.67,2.67,0,0,0-1.6.78,2.71,2.71,0,0,0-.77,1.61.23.23,0,0,0,.2.25h0A.22.22,0,0,0,123.63,91Z"/></g></g></g><g id="Names"><path d="M61.53,48h4.92v6.9H61.53ZM62,54l1.67-2.51L62,48.94Zm3.65-5.47H62.31L64,51Zm0,5.92L64,51.89l-1.68,2.52ZM66,54v-5l-1.67,2.51Z"/><path d="M66.45,48h4.93v6.9H66.45Zm.49,6,1.68-2.51-1.68-2.51Zm3.65-5.47H67.24L68.92,51Zm0,5.92-1.67-2.52-1.68,2.52Zm.3-.45v-5l-1.68,2.51Z"/><path d="M71.38,48h4.93v6.9H71.38Zm.49,6,1.68-2.51-1.68-2.51Zm3.65-5.47H72.16L73.84,51Zm0,5.92-1.68-2.52-1.68,2.52Zm.29-.45v-5l-1.67,2.51Z"/><path d="M76.3,48h4.93v6.9H76.3Zm.5,6,1.67-2.51L76.8,48.94Zm3.64-5.47H77.09L78.77,51Zm0,5.92-1.67-2.52-1.68,2.52Zm.3-.45v-5l-1.68,2.51Z"/><path d="M81.23,48h4.93v6.9H81.23Zm.49,6,1.68-2.51-1.68-2.51Zm3.65-5.47H82L83.69,51Zm0,5.92-1.68-2.52L82,54.41Zm.29-.45v-5L84,51.45Z"/><path d="M86.15,48h4.93v6.9H86.15Zm.5,6,1.67-2.51-1.67-2.51Zm3.64-5.47H86.94L88.62,51Zm0,5.92-1.67-2.52-1.68,2.52Zm.3-.45v-5l-1.68,2.51Z"/><path d="M91.08,48H96v6.9H91.08Zm.49,6,1.68-2.51-1.68-2.51Zm3.65-5.47H91.87L93.54,51Zm0,5.92-1.68-2.52-1.67,2.52Zm.3-.45v-5l-1.68,2.51Z"/><path d="M96,48h4.92v6.9H96Zm.49,6,1.67-2.51L96.5,48.94Zm3.65-5.47H96.79L98.47,51Zm0,5.92-1.68-2.52-1.68,2.52Zm.29-.45v-5l-1.67,2.51Z"/><path d="M100.93,48h4.93v6.9h-4.93Zm.49,6,1.68-2.51-1.68-2.51Zm3.65-5.47h-3.35L103.4,51Zm0,5.92-1.67-2.52-1.68,2.52Zm.3-.45v-5l-1.68,2.51Z"/><path d="M108,48h4.92v6.9H108Zm.49,6,1.67-2.51-1.67-2.51Zm3.65-5.47h-3.36L110.41,51Zm0,5.92-1.68-2.52-1.68,2.52Zm.29-.45v-5l-1.67,2.51Z"/><path d="M112.87,48h4.93v6.9h-4.93Zm.49,6L115,51.45l-1.68-2.51ZM117,48.49h-3.35L115.34,51Zm0,5.92-1.67-2.52-1.68,2.52Zm.3-.45v-5l-1.68,2.51Z"/><path d="M117.8,48h4.93v6.9H117.8Zm.49,6L120,51.45l-1.68-2.51Zm3.65-5.47h-3.35L120.26,51Zm0,5.92-1.68-2.52-1.67,2.52Zm.29-.45v-5l-1.67,2.51Z"/><path d="M122.72,48h4.93v6.9h-4.93Zm.5,6,1.67-2.51-1.67-2.51Zm3.64-5.47h-3.35L125.19,51Zm0,5.92-1.67-2.52-1.68,2.52Zm.3-.45v-5l-1.68,2.51Z"/><path d="M56.4,63.66h0a1.58,1.58,0,0,1-1.6,1.72h0A1.55,1.55,0,0,1,53.19,64c-.55,0-.81.44-.81,1.09v1H51.8V65a1.38,1.38,0,0,1,1.39-1.57,1.56,1.56,0,0,1,1.6-1.49h0A1.59,1.59,0,0,1,56.4,63.66Zm-.57,0a1.05,1.05,0,0,0-1-1.18h0a1.06,1.06,0,0,0-1,1.18h0a1,1,0,0,0,1,1.16h0a1,1,0,0,0,1-1.16Z"/><path d="M61.1,64.18v.57a1.14,1.14,0,0,1-1.17-.65,1.61,1.61,0,0,1-1.5.65H56.94l-.11-.57h1.66c.69,0,1.08-.33,1.08-.92V59.58h.57v3.61A.86.86,0,0,0,61.1,64.18Zm-2.76-.43h-.58V60.6h.58Z"/><path d="M64.27,64.75H61v-.57h.75a3.24,3.24,0,0,1-.3-1.23A1.41,1.41,0,0,1,63,61.42a3.2,3.2,0,0,1,1.19.29l-.19.54A2.2,2.2,0,0,0,63,62a1,1,0,0,0-1,1.06,2.1,2.1,0,0,0,.4,1.13h1.88Z"/><path d="M64.75,64.18h1.66c.68,0,1.08-.33,1.08-.92V59.58h.57v3.63c0,1-.59,1.54-1.71,1.54H64.86Zm.81,1.55a.55.55,0,0,1,.59-.6h.17v.32h-.2c-.15,0-.22.1-.22.25v.1h.59v.35h-.93Zm.12-5.13h.57v3.15h-.57Z"/><path d="M69.08,60h.57v4.74h-.57Z"/><path d="M73.19,61.5v3.19c0,1-.46,1.35-1.31,1.35a2.57,2.57,0,0,1-.93-.16l-.11-.61a2.94,2.94,0,0,0,1,.19c.46,0,.77-.16.77-.65v-.06h-.35a1.62,1.62,0,0,1-1.8-1.61h0a1.66,1.66,0,0,1,1.87-1.63Zm-.57.57h-.39A1.07,1.07,0,0,0,71,63.13h0a1.08,1.08,0,0,0,1.21,1h.39Z"/><path d="M78.39,64.18v.57H76.75A1.62,1.62,0,0,1,75,63.14h0a1.66,1.66,0,0,1,1.87-1.63h.28v-.29h.57v3ZM77.1,62.07h-.39a1.07,1.07,0,0,0-1.21,1.06h0a1.08,1.08,0,0,0,1.21,1h.39Zm-1.29-1.71a.41.41,0,0,1,.82,0,.41.41,0,0,1-.82,0Zm1.08,0a.41.41,0,0,1,.82,0,.41.41,0,0,1-.82,0Z"/><path d="M82,63.66h0a1.58,1.58,0,0,1-1.6,1.72h0a1.51,1.51,0,0,1-1.3-.64h-.81v-.57h.55a2.1,2.1,0,0,1-.06-.51h0a1.6,1.6,0,0,1,1.62-1.76h0A1.59,1.59,0,0,1,82,63.66Zm-.57,0a1.05,1.05,0,0,0-1-1.18h0a1.06,1.06,0,0,0-1,1.18h0a1,1,0,0,0,1,1.16h0a1,1,0,0,0,1-1.16Z"/><path d="M84.35,64.18v.57H82.76V60h.57v4.17Z"/><path d="M88.33,64.75H84.24v-.57h1l-.79-2.05a2.5,2.5,0,0,1,3.49,0l-.78,2.05h1.15Zm-1-2.33a1.63,1.63,0,0,0-2.21,0l.69,1.76h.81Z"/><path d="M89.69,60v4.74H88.14v-.57h1V60Z"/><path d="M90.71,60h.57v4.74h-.57Z"/><path d="M97.16,61.5v3.25H94.9c-1.18,0-1.73-.57-1.73-1.64V62h.57v1c0,.81.5,1.13,1.28,1.13h1.57V61.5Zm-2.88-.77a.39.39,0,0,1,.41-.38.38.38,0,1,1,0,.76A.39.39,0,0,1,94.28,60.73Zm1.09,0a.41.41,0,1,1,.4.38A.38.38,0,0,1,95.37,60.73Z"/><path d="M99.66,64.18v.57H98.07V60h.57v4.17Z"/><path d="M101.92,61.5h.85v3.25H99.55v-.57h.87a1.54,1.54,0,0,1-.37-1h0A1.66,1.66,0,0,1,101.92,61.5Zm.27.57h-.39a1.08,1.08,0,0,0-1.21,1.06h0a1.08,1.08,0,0,0,1.21,1h.39ZM101,60.48a.39.39,0,0,1,.41-.38.38.38,0,0,1,.41.38.38.38,0,0,1-.41.38A.39.39,0,0,1,101,60.48Zm1.9,0a.37.37,0,0,1-.4.38.38.38,0,0,1-.41-.38.39.39,0,0,1,.41-.38A.38.38,0,0,1,102.88,60.48Z"/><path d="M107.6,64.18v.57a1.17,1.17,0,0,1-1.18-.65,1.58,1.58,0,0,1-1.49.65h-1.49l-.11-.57H105c.69,0,1.08-.33,1.08-.92V59.58h.57v3.61C106.64,63.87,107,64.18,107.6,64.18Zm-2.77-.43h-.57V60.6h.57Z"/><path d="M111.57,64.75h-4.08v-.57h1l-.78-2.05a2.49,2.49,0,0,1,3.48,0l-.77,2.05h1.14Zm-1-2.33a1.78,1.78,0,0,0-1.11-.43,1.76,1.76,0,0,0-1.1.43l.68,1.76h.82Z"/><path d="M112.94,60v4.74h-1.56v-.57h1V60Z"/><path d="M114,60h.57v4.74H114Z"/><path d="M118.27,64.75h-.69v0c0,1-.36,1.26-1.08,1.26A1.76,1.76,0,0,1,116,66l-.05-.5a2.57,2.57,0,0,0,.45,0c.35,0,.57-.17.57-.65V61.5h.57v2.68h.69Z"/><path d="M118.09,65.78a.39.39,0,0,1,.41-.38.38.38,0,1,1,0,.76A.39.39,0,0,1,118.09,65.78Zm.06-1.6h1.14V61.5h.57v3.25h-1.71Zm1,1.6a.41.41,0,1,1,.4.38A.38.38,0,0,1,119.18,65.78Z"/><path d="M123.78,64.18v.57h-3.36v-.57h2.11V63a.76.76,0,0,0-.85-.87h-.22V61.5h.14A1.31,1.31,0,0,1,123.07,63v1.19Z"/><path d="M127.39,63.66h0a1.58,1.58,0,0,1-1.6,1.72h0a1.5,1.5,0,0,1-1.3-.64h-.81v-.57h.55a2.1,2.1,0,0,1-.06-.51h0a1.6,1.6,0,0,1,1.62-1.76h0A1.6,1.6,0,0,1,127.39,63.66Zm-.58,0a1,1,0,0,0-1-1.18h0a1.06,1.06,0,0,0-1,1.18h0a1,1,0,0,0,1,1.16h0a1,1,0,0,0,1-1.16Z"/></g><g id="Yellow_Bar" data-name="Yellow Bar"><path class="cls-6" d="M138.9.15V20.39c0,7.9-7.35,14.3-16.41,14.33H.41V.15Z"/><g class="cls-7"><g class="cls-8"><path class="cls-9" d="M19.73,15a3.36,3.36,0,1,0,0,4.75,3.35,3.35,0,0,0,0-4.75"/><path class="cls-9" d="M21.84,27.83a11.39,11.39,0,1,1,6-6l4.44,4.44a17.37,17.37,0,1,0-6,6Z"/><path class="cls-9" d="M34.14,29.93h0L34,29.74h0l-8.9-8.9a3,3,0,1,0-4.23,4.23l8.9,8.9h0l.17.17h0a3,3,0,0,0,4.21-4.21"/><path class="cls-9" d="M54.46,15a3.36,3.36,0,1,0,0,4.75,3.36,3.36,0,0,0,0-4.75"/><path class="cls-9" d="M56.56,27.83a11.38,11.38,0,1,1,6-6L67,26.28a17.38,17.38,0,1,0-6,6Z"/><path class="cls-9" d="M68.87,29.93h0l-.18-.18h0l-8.91-8.9a3,3,0,1,0-4.23,4.23L64.47,34h0l.18.17h0a3,3,0,0,0,4.21-4.21"/><path class="cls-9" d="M89.18,15a3.36,3.36,0,1,0,0,4.75,3.35,3.35,0,0,0,0-4.75"/><path class="cls-9" d="M91.29,27.83a11.39,11.39,0,1,1,6-6l4.44,4.44a17.37,17.37,0,1,0-6,6Z"/><path class="cls-9" d="M103.59,29.93h0l-.18-.18h0l-8.9-8.9a3,3,0,0,0-4.24,4.23L99.19,34h0l.18.17h0a3,3,0,0,0,4.21-4.21"/><path class="cls-9" d="M123.91,15a3.36,3.36,0,1,0,0,4.75,3.36,3.36,0,0,0,0-4.75"/><path class="cls-9" d="M126,27.83a11.38,11.38,0,1,1,6-6l4.44,4.44a17.38,17.38,0,1,0-6,6Z"/><path class="cls-9" d="M138.32,29.93h0l-.18-.18h0l-8.91-8.9A3,3,0,1,0,125,25.07l8.9,8.9h0l.18.17h0a3,3,0,0,0,4.21-4.21"/></g></g></g><g id="Logo"><path class="cls-10" d="M186.41,51.45A13.69,13.69,0,1,1,200.2,37.87a13.46,13.46,0,0,1-1.07,5.2l5.49,5.57a21.1,21.1,0,1,0-7.12,7.17l-5.45-5.53A13.75,13.75,0,0,1,186.41,51.45Z"/><path class="cls-10" d="M182.45,37.77a4.07,4.07,0,1,0,4.07-4.07A4.07,4.07,0,0,0,182.45,37.77Z"/><path class="cls-10" d="M206.62,52.86l-11-11a3.56,3.56,0,1,0-5,5l11,11a3.56,3.56,0,1,0,5-5Z"/></g><g id="Diecut-Do_Not_Print" data-name="Diecut-Do Not Print"><path class="cls-11" d="M240.94,0H0V141.73H223.19A17.75,17.75,0,0,0,240.94,124Z"/></g></svg>