<svg xmlns="http://www.w3.org/2000/svg" xmlns:xlink="http://www.w3.org/1999/xlink" viewBox="0 0 240.94 141.73"><defs><style>.cls-1,.cls-7{fill:none;}.cls-2{fill:#fd0;}.cls-3{clip-path:url(#clip-path);}.cls-4{opacity:0.2;}.cls-5{fill:#f4c500;}.cls-6{fill:#ffd402;}.cls-7{stroke:#009fe3;stroke-miterlimit:10;stroke-width:0.5px;}</style><clipPath id="clip-path"><path class="cls-1" d="M138.9-7.09V17.4a17.36,17.36,0,0,1-17.3,17.32H-7.09V-7.09Z"/></clipPath></defs><g id="Information"><path class="cls-1" d="M240.94,0H0V141.73H223.19A17.75,17.75,0,0,0,240.94,124Z"/><path class="cls-1" d="M240.94-7.09h-248V141.73H223.19A17.75,17.75,0,0,0,240.94,124Z"/><path class="cls-1" d="M240.94-7.09h-248V141.73H223.19A17.75,17.75,0,0,0,240.94,124Z"/><rect x="138.76" y="87.81" width="0.25" height="37.27"/><g id="Iconly_Light-outline_Location" data-name="Iconly Light-outline Location"><g id="Location-6"><path id="Location-7" d="M151.73,122.77l0,0,.13-.09a6.37,6.37,0,0,0,1.44-1.35l.1-.13a3.38,3.38,0,0,0,.7-2v-.1a2.7,2.7,0,0,0-2.7-2.61h-.09a2.71,2.71,0,0,0-2.61,2.71v0a3.89,3.89,0,0,0,1.18,2.5,7,7,0,0,0,1.19,1h0a.51.51,0,0,0,.62,0Zm-.24-5.77a2.23,2.23,0,0,1,2.15,2.22v.11a2.93,2.93,0,0,1-.59,1.56,6.19,6.19,0,0,1-1.56,1.46l0,0a.06.06,0,0,1-.08,0l0,0a6.12,6.12,0,0,1-1.11-.91,3.42,3.42,0,0,1-1.05-2.18v-.1a2.23,2.23,0,0,1,2.21-2.16Zm1,2.26a1,1,0,1,0-1,1A1,1,0,0,0,152.45,119.26Zm-.48,0a.55.55,0,0,1-.55.55.55.55,0,1,1,0-1.1A.56.56,0,0,1,152,119.26Z"/></g></g><g id="Iconly_Light-outline_Message" data-name="Iconly Light-outline Message"><g id="Message-5"><path id="Message-6" d="M152.6,93.52a1.66,1.66,0,0,0,1.24-.53,2,2,0,0,0,.49-1.32v-2a2,2,0,0,0-.49-1.32,1.67,1.67,0,0,0-1.24-.54h-2.88A1.77,1.77,0,0,0,148,89.6v2.05a1.8,1.8,0,0,0,.47,1.31,1.72,1.72,0,0,0,1.27.56Zm1.25-3.85v2A1.28,1.28,0,0,1,152.68,93h-3a1.25,1.25,0,0,1-.91-.41,1.23,1.23,0,0,1-.34-1v-2a1.23,1.23,0,0,1,.34-1,1.21,1.21,0,0,1,.91-.41h2.88a1.27,1.27,0,0,1,1.25,1.29ZM151.67,91l.05,0,1.31-1a.25.25,0,0,0,0-.34.25.25,0,0,0-.31-.06l0,0-1.31,1a.42.42,0,0,1-.5,0l0,0-1.3-1a.24.24,0,0,0-.34,0h0a.26.26,0,0,0,0,.32l0,0,1.3,1a.92.92,0,0,0,1.09,0Z"/></g></g><g id="Iconly_Light-outline_Discovery" data-name="Iconly Light-outline Discovery"><g id="Discovery-6"><path id="Discovery-7" d="M154.65,105.18a3.18,3.18,0,1,0-3.17,3.17A3.17,3.17,0,0,0,154.65,105.18Zm-.46,0a2.72,2.72,0,1,1-2.71-2.71A2.71,2.71,0,0,1,154.19,105.18Zm-1.5,1.16a.24.24,0,0,0,0-.2l-.49-1.56a.23.23,0,0,0-.15-.15l-1.56-.49h-.07a.21.21,0,0,0-.18.09.23.23,0,0,0,0,.21l.49,1.55a.21.21,0,0,0,.15.15l1.56.49h.07A.25.25,0,0,0,152.69,106.34Zm-.86-1.51.32,1-1-.32-.32-1Z"/></g></g><g id="Iconly_Light-outline_Calling" data-name="Iconly Light-outline Calling"><g id="Calling-5"><path id="Calling-6" d="M125.37,94.6a8.05,8.05,0,0,0,2.28-1.69,7.58,7.58,0,0,0,1.68-2.29l0-.07a1.23,1.23,0,0,0,0-1.27,1.87,1.87,0,0,0-1.2-.84h0a.72.72,0,0,0-.44.22l0,0a4.93,4.93,0,0,0-.78,1.09v0a.76.76,0,0,0,.15.6l0,.06c.07.12.08.17.06.23a2.82,2.82,0,0,1-1.6,1.61h-.06a.43.43,0,0,1-.21-.09l-.08,0a.82.82,0,0,0-.4-.13l-.15,0a4.28,4.28,0,0,0-1,.72l-.09.08,0,0a.73.73,0,0,0-.23.45,1.81,1.81,0,0,0,.83,1.22,1.07,1.07,0,0,0,.62.2A1.68,1.68,0,0,0,125.37,94.6Zm2.76-5.7h0a1.76,1.76,0,0,1,.79.64l0,0a.91.91,0,0,1-.06.86l0,.08a7.85,7.85,0,0,1-1.6,2.11,7.48,7.48,0,0,1-2.1,1.55l-.06,0a1.24,1.24,0,0,1-.46.11.64.64,0,0,1-.38-.12h0a3.51,3.51,0,0,1-.34-.33.88.88,0,0,1-.26-.46.42.42,0,0,1,.09-.16l0,0a6.54,6.54,0,0,1,.89-.68h0a.43.43,0,0,1,.24.1l.08,0a.81.81,0,0,0,.38.12.59.59,0,0,0,.23,0,3.29,3.29,0,0,0,1.86-1.87.7.7,0,0,0-.11-.67l0-.06a.4.4,0,0,1-.07-.24,7.67,7.67,0,0,1,.64-.86l.06,0,0,0,.1-.07ZM124.72,91a1.13,1.13,0,0,1,.89-.9.23.23,0,0,0,.19-.27.24.24,0,0,0-.21-.19h-.07a1.61,1.61,0,0,0-1.26,1.27.23.23,0,0,0,.19.27.23.23,0,0,0,.27-.18Zm-1.09,0a2.26,2.26,0,0,1,.64-1.33,2.15,2.15,0,0,1,1.32-.64.24.24,0,0,0,.21-.26.22.22,0,0,0-.19-.2h-.07a2.67,2.67,0,0,0-1.6.78,2.71,2.71,0,0,0-.77,1.61.23.23,0,0,0,.2.25h0A.22.22,0,0,0,123.63,91Z"/></g></g></g><g id="Yellow_Bar" data-name="Yellow Bar"><path class="cls-2" d="M138.9.15V20.39c0,7.9-7.38,14.3-16.46,14.33H0V.15Z"/><g class="cls-3"><g class="cls-4"><path class="cls-5" d="M19.73,15a3.36,3.36,0,1,0,0,4.75,3.35,3.35,0,0,0,0-4.75"/><path class="cls-5" d="M21.84,27.83a11.39,11.39,0,1,1,6-6l4.44,4.44a17.37,17.37,0,1,0-6,6Z"/><path class="cls-5" d="M34.14,29.93h0L34,29.74h0l-8.9-8.9a3,3,0,1,0-4.23,4.23l8.9,8.9h0l.17.17h0a3,3,0,0,0,4.21-4.21"/><path class="cls-5" d="M54.46,15a3.36,3.36,0,1,0,0,4.75,3.36,3.36,0,0,0,0-4.75"/><path class="cls-5" d="M56.56,27.83a11.38,11.38,0,1,1,6-6L67,26.28a17.38,17.38,0,1,0-6,6Z"/><path class="cls-5" d="M68.87,29.93h0l-.18-.18h0l-8.91-8.9a3,3,0,1,0-4.23,4.23L64.47,34h0l.18.17h0a3,3,0,0,0,4.21-4.21"/><path class="cls-5" d="M89.18,15a3.36,3.36,0,1,0,0,4.75,3.35,3.35,0,0,0,0-4.75"/><path class="cls-5" d="M91.29,27.83a11.39,11.39,0,1,1,6-6l4.44,4.44a17.37,17.37,0,1,0-6,6Z"/><path class="cls-5" d="M103.59,29.93h0l-.18-.18h0l-8.9-8.9a3,3,0,0,0-4.24,4.23L99.19,34h0l.18.17h0a3,3,0,0,0,4.21-4.21"/><path class="cls-5" d="M123.91,15a3.36,3.36,0,1,0,0,4.75,3.36,3.36,0,0,0,0-4.75"/><path class="cls-5" d="M126,27.83a11.38,11.38,0,1,1,6-6l4.44,4.44a17.38,17.38,0,1,0-6,6Z"/><path class="cls-5" d="M138.32,29.93h0l-.18-.18h0l-8.91-8.9A3,3,0,1,0,125,25.07l8.9,8.9h0l.18.17h0a3,3,0,0,0,4.21-4.21"/></g></g></g><g id="Logo"><path class="cls-6" d="M186.41,51.45A13.69,13.69,0,1,1,200.2,37.87a13.46,13.46,0,0,1-1.07,5.2l5.49,5.57a21.1,21.1,0,1,0-7.12,7.17l-5.45-5.53A13.75,13.75,0,0,1,186.41,51.45Z"/><path class="cls-6" d="M182.45,37.77a4.07,4.07,0,1,0,4.07-4.07A4.07,4.07,0,0,0,182.45,37.77Z"/><path class="cls-6" d="M206.62,52.86l-11-11a3.56,3.56,0,1,0-5,5l11,11a3.56,3.56,0,1,0,5-5Z"/></g><g id="Diecut-Do_Not_Print" data-name="Diecut-Do Not Print"><path class="cls-7" d="M240.94,0H0V141.73H223.19A17.75,17.75,0,0,0,240.94,124Z"/></g></svg>