<svg xmlns="http://www.w3.org/2000/svg" xmlns:xlink="http://www.w3.org/1999/xlink" viewBox="0 0 240.94 141.73"><defs><style>.cls-1,.cls-21{fill:none;}.cls-2{fill:#49728d;}.cls-3{font-size:7.51px;}.cls-11,.cls-3,.cls-4{font-family:MarkPro;}.cls-4,.cls-5{font-size:7.94px;}.cls-5,.cls-8{font-family:MarkPro-Bold, MarkPro Bold;font-weight:700;}.cls-6{letter-spacing:0em;}.cls-7{letter-spacing:0em;}.cls-8{font-size:9px;}.cls-9{letter-spacing:0em;}.cls-10{letter-spacing:0em;}.cls-11{font-size:7px;font-weight:400;}.cls-12{letter-spacing:-0.01em;}.cls-13{letter-spacing:0.01em;}.cls-14{letter-spacing:-0.01em;}.cls-15{letter-spacing:0.01em;}.cls-16{fill:#fd0;}.cls-17{clip-path:url(#clip-path);}.cls-18{opacity:0.2;}.cls-19{fill:#f4c500;}.cls-20{fill:#ffd402;}.cls-21{stroke:#009fe3;stroke-miterlimit:10;stroke-width:0.5px;}</style><clipPath id="clip-path"><path class="cls-1" d="M102-7.09V17.4a17.36,17.36,0,0,0,17.3,17.32H248V-7.09Z"/></clipPath></defs><g id="Information"><rect class="cls-2" x="101.92" y="87.81" width="0.25" height="37.27"/><path class="cls-1" d="M0-7.09H248V141.73H17.75A17.75,17.75,0,0,1,0,124Z"/><path class="cls-1" d="M0-7.09H248V141.73H17.75A17.75,17.75,0,0,1,0,124Z"/><text class="cls-3" transform="translate(123.01 93.76)">+964 780 195 9002</text><path d="M113.88,122.25h-.47v-4.87h.47Z"/><path d="M117.56,122.25h-.44v-2.14c0-.62-.3-.93-.89-.93a.88.88,0,0,0-.67.28,1,1,0,0,0-.27.71v2.08h-.44v-3.47h.44v.52h0a1.08,1.08,0,0,1,.46-.41,1.34,1.34,0,0,1,.58-.14,1.21,1.21,0,0,1,.88.31,1.16,1.16,0,0,1,.33.89Z"/><path d="M119.76,122.25h-.38a.73.73,0,0,1-.56-.21.83.83,0,0,1-.2-.6v-2.28h-.44v-.38h.44v-.89h.45v.89h.59v.38h-.59v2.2a.64.64,0,0,0,.09.36.38.38,0,0,0,.34.14h.26Z"/><path d="M123,120.64h-2.37a1.4,1.4,0,0,0,.26.91,1,1,0,0,0,.81.36,1.24,1.24,0,0,0,.81-.31l.28.31a1.57,1.57,0,0,1-1.07.39,1.92,1.92,0,0,1-.55-.08,1.62,1.62,0,0,1-.48-.26,1.16,1.16,0,0,1-.37-.54,2.61,2.61,0,0,1-.13-.89,2.45,2.45,0,0,1,.13-.85,1.35,1.35,0,0,1,.35-.56,1.21,1.21,0,0,1,.45-.28,1.43,1.43,0,0,1,.5-.09,1.31,1.31,0,0,1,1,.42,1.65,1.65,0,0,1,.37,1.12Zm-.44-.37a1.26,1.26,0,0,0-.25-.83.89.89,0,0,0-.7-.29.86.86,0,0,0-.69.3,1.32,1.32,0,0,0-.29.82Z"/><path d="M125.79,118.87l-.18.42a1,1,0,0,0-.48-.12.9.9,0,0,0-.66.26,1,1,0,0,0-.25.71v2.11h-.44v-3.47h.44v.52h0a1,1,0,0,1,1-.55A1.22,1.22,0,0,1,125.79,118.87Z"/><path d="M128.88,122.25h-.44v-2.14c0-.62-.29-.93-.89-.93a.85.85,0,0,0-.66.28,1,1,0,0,0-.27.71v2.08h-.45v-3.47h.45v.52h0a1.11,1.11,0,0,1,.45-.41,1.38,1.38,0,0,1,.59-.14,1.2,1.2,0,0,1,.87.31,1.16,1.16,0,0,1,.33.89Z"/><path d="M131.87,121.92h0c-.16.26-.51.39-1.06.39a1.39,1.39,0,0,1-.89-.27,1,1,0,0,1,0-1.45,1.11,1.11,0,0,1,.82-.29h1.18v-.44q0-.69-.9-.69a1.22,1.22,0,0,0-.9.32l-.28-.3a1.55,1.55,0,0,1,1.17-.43c.9,0,1.35.36,1.35,1.1v2.4h-.44Zm0-1.26h-1.08a.91.91,0,0,0-.58.16.52.52,0,0,0-.21.45.55.55,0,0,0,.22.47,1.1,1.1,0,0,0,.64.17,1.58,1.58,0,0,0,.71-.16.57.57,0,0,0,.3-.54Z"/><path d="M134.46,122.25h-.37a.74.74,0,0,1-.57-.21.83.83,0,0,1-.19-.6v-2.28h-.44v-.38h.44v-.89h.45v.89h.58v.38h-.58v2.2a.74.74,0,0,0,.08.36.38.38,0,0,0,.34.14h.26Z"/><path d="M135.6,117.84h-.47v-.46h.47Zm0,4.41h-.45v-3.47h.45Z"/><path d="M137.91,118.75a1.23,1.23,0,0,1,1.12.57,2.17,2.17,0,0,1,.25,1.23,2,2,0,0,1-.3,1.18,1.46,1.46,0,0,1-2.22.11,2.2,2.2,0,0,1-.32-1.31,2.06,2.06,0,0,1,.28-1.15A1.31,1.31,0,0,1,137.91,118.75Zm0,.4a.86.86,0,0,0-.79.44,1.77,1.77,0,0,0-.21.94,1.8,1.8,0,0,0,.21,1,.92.92,0,0,0,1.59-.1,2.09,2.09,0,0,0,.16-.86,2.13,2.13,0,0,0-.15-.89A.83.83,0,0,0,137.88,119.15Z"/><path d="M142.74,122.25h-.45v-2.14c0-.62-.29-.93-.88-.93a.88.88,0,0,0-.67.28,1,1,0,0,0-.27.71v2.08H140v-3.47h.44v.52h0a1.11,1.11,0,0,1,.45-.41,1.42,1.42,0,0,1,.59-.14,1.21,1.21,0,0,1,.88.31,1.16,1.16,0,0,1,.33.89Z"/><path d="M145.73,121.92h0a1.19,1.19,0,0,1-1.07.39,1.34,1.34,0,0,1-.88-.27.89.89,0,0,1-.34-.74.94.94,0,0,1,.29-.71,1.12,1.12,0,0,1,.82-.29h1.19v-.44c0-.46-.31-.69-.91-.69a1.2,1.2,0,0,0-.89.32l-.28-.3a1.51,1.51,0,0,1,1.16-.43c.91,0,1.36.36,1.36,1.1v2.4h-.44Zm0-1.26h-1.08a.92.92,0,0,0-.59.16.52.52,0,0,0-.21.45.53.53,0,0,0,.23.47,1,1,0,0,0,.63.17,1.58,1.58,0,0,0,.71-.16.58.58,0,0,0,.31-.54Z"/><path d="M148,122.25h-.17c-.56,0-.84-.25-.84-.76v-4.3h.45v4.25q0,.42.45.42H148Z"/><path d="M153.28,120.92a1.19,1.19,0,0,1-.47,1,1.91,1.91,0,0,1-1.24.38,2.76,2.76,0,0,1-1.79-.6l.31-.38a2.27,2.27,0,0,0,1.5.53,1.45,1.45,0,0,0,.87-.24.8.8,0,0,0,.33-.7.7.7,0,0,0-.07-.33.92.92,0,0,0-.17-.24,1,1,0,0,0-.28-.17,1.73,1.73,0,0,0-.33-.1l-.37-.09-.45-.1a2.52,2.52,0,0,1-.39-.13,1.18,1.18,0,0,1-.36-.22,1.11,1.11,0,0,1-.22-.34,1.33,1.33,0,0,1-.09-.51,1.18,1.18,0,0,1,.44-1,1.73,1.73,0,0,1,1.13-.37,2.51,2.51,0,0,1,1.48.43l-.27.4a2.3,2.3,0,0,0-1.22-.36,1.31,1.31,0,0,0-.8.22.79.79,0,0,0-.29.66.62.62,0,0,0,.07.31.65.65,0,0,0,.17.22,1,1,0,0,0,.3.15,2.68,2.68,0,0,0,.35.11l.44.1.41.1a1.9,1.9,0,0,1,.38.13,1.14,1.14,0,0,1,.34.24,1.22,1.22,0,0,1,.21.36A1.39,1.39,0,0,1,153.28,120.92Z"/><path d="M158.41,122.25v-2.14a1,1,0,0,0-.22-.69.83.83,0,0,0-.65-.25.94.94,0,0,0-.68.28,1,1,0,0,0-.26.71v2.09h-.45v-2.14a1,1,0,0,0-.22-.69.9.9,0,0,0-.66-.25.87.87,0,0,0-.67.27,1,1,0,0,0-.25.72v2.09h-.44v-3.47h.44v.51h0a1.06,1.06,0,0,1,.44-.4,1.38,1.38,0,0,1,.59-.14,1.16,1.16,0,0,1,1.08.6h0a1.34,1.34,0,0,1,1.19-.6,1.18,1.18,0,0,1,.85.32,1.16,1.16,0,0,1,.33.87v2.31Z"/><path d="M161.89,121.92h0c-.16.26-.52.39-1.06.39a1.37,1.37,0,0,1-.89-.27.89.89,0,0,1-.34-.74.94.94,0,0,1,.29-.71,1.12,1.12,0,0,1,.82-.29h1.19v-.44c0-.46-.3-.69-.91-.69a1.21,1.21,0,0,0-.89.32l-.28-.3a1.52,1.52,0,0,1,1.17-.43c.9,0,1.35.36,1.35,1.1v2.4h-.44Zm0-1.26h-1.08a.94.94,0,0,0-.59.16.52.52,0,0,0-.21.45.56.56,0,0,0,.23.47,1,1,0,0,0,.63.17,1.59,1.59,0,0,0,.72-.16.57.57,0,0,0,.3-.54Z"/><path d="M165.18,118.87l-.18.42a.94.94,0,0,0-.47-.12.9.9,0,0,0-.66.26,1,1,0,0,0-.25.71v2.11h-.45v-3.47h.45v.52h0a1,1,0,0,1,1-.55A1.18,1.18,0,0,1,165.18,118.87Z"/><path d="M167,122.25h-.37A.74.74,0,0,1,166,122a.83.83,0,0,1-.2-.6v-2.28h-.44v-.38h.44v-.89h.45v.89h.59v.38h-.59v2.2a.64.64,0,0,0,.09.36.38.38,0,0,0,.34.14H167Z"/><path d="M171.87,121.08l.44.21a1.57,1.57,0,0,1-.6.74,1.7,1.7,0,0,1-1,.27,1.59,1.59,0,0,1-1.28-.51,1.92,1.92,0,0,1-.43-1.28v-1.39a1.89,1.89,0,0,1,.44-1.27,1.6,1.6,0,0,1,1.27-.5,1.68,1.68,0,0,1,1,.26,1.61,1.61,0,0,1,.6.71l-.45.2a1.07,1.07,0,0,0-.42-.52,1.12,1.12,0,0,0-.68-.2,1.13,1.13,0,0,0-.94.38,1.53,1.53,0,0,0-.31,1v1.35a1.48,1.48,0,0,0,.31,1,1.26,1.26,0,0,0,1.62.19A1.26,1.26,0,0,0,171.87,121.08Z"/><path d="M175,121.92h0c-.16.26-.52.39-1.06.39A1.37,1.37,0,0,1,173,122a.89.89,0,0,1-.34-.74.94.94,0,0,1,.29-.71,1.14,1.14,0,0,1,.82-.29H175v-.44c0-.46-.3-.69-.91-.69a1.21,1.21,0,0,0-.89.32l-.28-.3a1.52,1.52,0,0,1,1.17-.43c.9,0,1.35.36,1.35,1.1v2.4H175Zm0-1.26h-1.08a.94.94,0,0,0-.59.16.52.52,0,0,0-.21.45.56.56,0,0,0,.23.47,1,1,0,0,0,.63.17,1.59,1.59,0,0,0,.72-.16.57.57,0,0,0,.3-.54Z"/><path d="M178.29,118.87l-.18.42a.94.94,0,0,0-.47-.12.9.9,0,0,0-.66.26,1,1,0,0,0-.25.71v2.11h-.44v-3.47h.44v.52h0a1.06,1.06,0,0,1,1-.55A1.18,1.18,0,0,1,178.29,118.87Z"/><path d="M181.07,122.25h-.44v-.47h0a1.22,1.22,0,0,1-1,.52,1.17,1.17,0,0,1-.61-.15.91.91,0,0,1-.4-.4,2,2,0,0,1-.2-.55,2.73,2.73,0,0,1-.07-.66,3.34,3.34,0,0,1,.07-.66,2.3,2.3,0,0,1,.21-.57,1.1,1.1,0,0,1,.42-.41,1.37,1.37,0,0,1,.66-.15,1,1,0,0,1,.92.46h0v-2h.44Zm-.44-1.72q0-1.35-.9-1.35c-.62,0-.92.45-.92,1.34s.3,1.35.92,1.35S180.63,121.42,180.63,120.53Z"/><path d="M184.16,122.85a3.82,3.82,0,0,1-.63-1,2.69,2.69,0,0,1-.25-1.13,2.83,2.83,0,0,1,.24-1.13,3.58,3.58,0,0,1,.63-1l.17.11a3.44,3.44,0,0,0-.5,1,3.14,3.14,0,0,0-.18,1,3.29,3.29,0,0,0,.18,1.07,4,4,0,0,0,.49,1Z"/><path d="M186.93,121.3a.86.86,0,0,1-.34.72,1.37,1.37,0,0,1-.89.27,2,2,0,0,1-1.27-.43l.21-.27a1.63,1.63,0,0,0,1.08.37,1.08,1.08,0,0,0,.62-.16.58.58,0,0,0,.24-.51.53.53,0,0,0-.06-.24.52.52,0,0,0-.12-.17.75.75,0,0,0-.2-.11l-.23-.08-.26-.06-.33-.07a2,2,0,0,1-.28-.1.59.59,0,0,1-.25-.15.67.67,0,0,1-.16-.25.78.78,0,0,1-.07-.35.87.87,0,0,1,.32-.71,1.24,1.24,0,0,1,.8-.26,1.77,1.77,0,0,1,1.06.3l-.19.29a1.66,1.66,0,0,0-.87-.26.9.9,0,0,0-.57.16.57.57,0,0,0-.21.47.48.48,0,0,0,0,.22.52.52,0,0,0,.12.16.89.89,0,0,0,.22.11l.25.07.31.08.3.07a1.68,1.68,0,0,1,.27.09.92.92,0,0,1,.24.17,1,1,0,0,1,.14.26A.87.87,0,0,1,186.93,121.3Z"/><path d="M189.28,121.1h-1.7a1,1,0,0,0,.19.65.67.67,0,0,0,.58.25.92.92,0,0,0,.58-.21l.19.21a1.09,1.09,0,0,1-.76.29,1.23,1.23,0,0,1-.39-.06,1.21,1.21,0,0,1-.35-.19.85.85,0,0,1-.26-.38,2,2,0,0,1-.09-.64,1.8,1.8,0,0,1,.09-.6.92.92,0,0,1,.25-.41,1,1,0,0,1,.32-.2,1.13,1.13,0,0,1,.36-.06.92.92,0,0,1,.72.3,1.17,1.17,0,0,1,.27.8Zm-.32-.26a.9.9,0,0,0-.18-.6.64.64,0,0,0-.5-.2.62.62,0,0,0-.49.21,1,1,0,0,0-.21.59Z"/><path d="M193,122.25v-1.53a.74.74,0,0,0-.15-.49.6.6,0,0,0-.47-.18.66.66,0,0,0-.48.2.68.68,0,0,0-.19.5v1.5h-.32v-1.53a.69.69,0,0,0-.16-.49.61.61,0,0,0-.47-.18.64.64,0,0,0-.48.2.7.7,0,0,0-.18.5v1.5h-.31v-2.48h.31v.36h0a.73.73,0,0,1,.32-.28,1,1,0,0,1,.42-.1.85.85,0,0,1,.77.43h0a1,1,0,0,1,.85-.43.84.84,0,0,1,.61.23.81.81,0,0,1,.24.62v1.65Z"/><path d="M194.34,119.1H194v-.33h.33Zm0,3.15H194v-2.48h.32Z"/><path d="M197.3,122a.82.82,0,0,0,.63-.27.93.93,0,0,0,.25-.64v-.33h-.76v-.31h1.1v.62a1.22,1.22,0,0,1-.34.88,1.19,1.19,0,0,1-.88.35,1.11,1.11,0,0,1-.91-.37,1.32,1.32,0,0,1-.31-.91v-1a1.33,1.33,0,0,1,.31-.9,1.17,1.17,0,0,1,.91-.36,1.25,1.25,0,0,1,.68.18,1.13,1.13,0,0,1,.42.52l-.15.07-.16.07a.89.89,0,0,0-.31-.38.85.85,0,0,0-.48-.14.81.81,0,0,0-.66.28,1,1,0,0,0-.23.68v1a1.11,1.11,0,0,0,.23.7A.84.84,0,0,0,197.3,122Z"/><path d="M200.07,119.75a.88.88,0,0,1,.8.41,1.58,1.58,0,0,1,.18.88,1.49,1.49,0,0,1-.21.84.94.94,0,0,1-.83.41.92.92,0,0,1-.76-.33A1.56,1.56,0,0,1,199,121a1.53,1.53,0,0,1,.2-.82A.94.94,0,0,1,200.07,119.75Zm0,.29a.6.6,0,0,0-.56.31,1.28,1.28,0,0,0-.15.67,1.42,1.42,0,0,0,.14.69.62.62,0,0,0,.55.29.6.6,0,0,0,.59-.36,1.56,1.56,0,0,0,.11-.62,1.53,1.53,0,0,0-.1-.63A.59.59,0,0,0,200.05,120Z"/><path d="M202.4,121.81h0l.29-.85.41-1.18h.35l-.91,2.47h-.29l-.92-2.47h.35c.05.15.12.37.23.65s.16.46.18.53Z"/><path d="M205.73,121.1H204a1,1,0,0,0,.18.65.7.7,0,0,0,.59.25.92.92,0,0,0,.58-.21l.19.21a1.09,1.09,0,0,1-.76.29,1.23,1.23,0,0,1-.39-.06,1.09,1.09,0,0,1-.35-.19.78.78,0,0,1-.26-.38,2,2,0,0,1-.09-.64,1.8,1.8,0,0,1,.09-.6.92.92,0,0,1,.25-.41,1,1,0,0,1,.32-.2,1,1,0,0,1,.36-.06.92.92,0,0,1,.72.3,1.17,1.17,0,0,1,.27.8Zm-.32-.26a.9.9,0,0,0-.18-.6.65.65,0,0,0-.5-.2.61.61,0,0,0-.49.21.9.9,0,0,0-.21.59Z"/><path d="M207.7,119.84l-.13.3a.64.64,0,0,0-.34-.09.65.65,0,0,0-.47.19.69.69,0,0,0-.18.51v1.5h-.31v-2.48h.31v.37h0a.75.75,0,0,1,.72-.39A.92.92,0,0,1,207.7,119.84Z"/><path d="M209.91,122.25h-.31v-1.53a.58.58,0,0,0-.64-.66.65.65,0,0,0-.67.7v1.49H208v-2.48h.31v.37h0a.82.82,0,0,1,.32-.29.92.92,0,0,1,.42-.1.88.88,0,0,1,.63.22.85.85,0,0,1,.23.63Z"/><path d="M213.74,122.25v-1.53a.74.74,0,0,0-.16-.49.57.57,0,0,0-.46-.18.66.66,0,0,0-.49.2.68.68,0,0,0-.19.5v1.5h-.31v-1.53a.69.69,0,0,0-.17-.49.6.6,0,0,0-.47-.18.62.62,0,0,0-.47.2.7.7,0,0,0-.18.5v1.5h-.32v-2.48h.32v.36h0a.7.7,0,0,1,.31-.28,1,1,0,0,1,.42-.1.84.84,0,0,1,.77.43h0a1,1,0,0,1,.85-.43.85.85,0,0,1,.61.23.85.85,0,0,1,.23.62v1.65Z"/><path d="M216.6,121.1h-1.69a1,1,0,0,0,.18.65.68.68,0,0,0,.58.25.92.92,0,0,0,.58-.21l.2.21a1.12,1.12,0,0,1-.77.29,1.23,1.23,0,0,1-.39-.06A1.05,1.05,0,0,1,215,122a.87.87,0,0,1-.27-.38,2,2,0,0,1-.09-.64,1.8,1.8,0,0,1,.09-.6,1,1,0,0,1,.25-.41.94.94,0,0,1,.33-.2,1,1,0,0,1,.36-.06.91.91,0,0,1,.71.3,1.17,1.17,0,0,1,.27.8Zm-.31-.26a1,1,0,0,0-.19-.6.64.64,0,0,0-.5-.2.62.62,0,0,0-.49.21,1,1,0,0,0-.2.59Z"/><path d="M219,122.25h-.31v-1.53a.58.58,0,0,0-.64-.66.65.65,0,0,0-.67.7v1.49h-.31v-2.48h.31v.37h0a.82.82,0,0,1,.32-.29.92.92,0,0,1,.42-.1.88.88,0,0,1,.63.22.85.85,0,0,1,.23.63Z"/><path d="M220.59,122.25h-.27a.49.49,0,0,1-.4-.15.62.62,0,0,1-.14-.43V120h-.31v-.27h.31v-.63h.32v.63h.42V120h-.42v1.58a.53.53,0,0,0,.06.26.27.27,0,0,0,.24.09h.19Z"/><path d="M221,122.85l-.16-.11a3.62,3.62,0,0,0,.49-1,3,3,0,0,0,.19-1.06,3.15,3.15,0,0,0-.18-1,3.59,3.59,0,0,0-.5-1l.17-.11a3.6,3.6,0,0,1,.62,1,2.76,2.76,0,0,1,0,2.25A3.92,3.92,0,0,1,221,122.85Z"/><g id="Iconly_Light-outline_Calling" data-name="Iconly Light-outline Calling"><g id="Calling-5"><path id="Calling-6" d="M117.71,94.12a8.05,8.05,0,0,1-2.28-1.69,7.58,7.58,0,0,1-1.68-2.29l0-.07a1.26,1.26,0,0,1,0-1.27A1.87,1.87,0,0,1,115,88h0a.72.72,0,0,1,.44.22l0,0a4.87,4.87,0,0,1,.78,1.08v0a.76.76,0,0,1-.15.6l0,.07c-.07.11-.08.16-.06.22a2.82,2.82,0,0,0,1.6,1.61h.06a.43.43,0,0,0,.21-.09l.08,0a.82.82,0,0,1,.4-.13l.14,0a4.14,4.14,0,0,1,1,.72l.09.08,0,0a.73.73,0,0,1,.23.45,1.85,1.85,0,0,1-.83,1.22,1.07,1.07,0,0,1-.62.2A1.64,1.64,0,0,1,117.71,94.12ZM115,88.42h0a1.71,1.71,0,0,0-.79.64l0,0a.91.91,0,0,0,.06.86l0,.08a7.85,7.85,0,0,0,1.6,2.11,7.48,7.48,0,0,0,2.1,1.55l.06,0a1.07,1.07,0,0,0,.46.11.64.64,0,0,0,.38-.12h0a3.51,3.51,0,0,0,.34-.33.88.88,0,0,0,.26-.46.31.31,0,0,0-.1-.15l0,0a6.54,6.54,0,0,0-.89-.68h0a.51.51,0,0,0-.24.1l-.08,0a.81.81,0,0,1-.38.12.85.85,0,0,1-.23,0,3.31,3.31,0,0,1-1.86-1.88.7.7,0,0,1,.11-.67l0-.06c.06-.12.08-.18.06-.24a5.81,5.81,0,0,0-.64-.86l-.05,0,0,0a.24.24,0,0,0-.11-.06Zm3.41,2.07a1.14,1.14,0,0,0-.89-.9.23.23,0,0,1-.19-.27.24.24,0,0,1,.21-.19h.07a1.58,1.58,0,0,1,1.25,1.26.22.22,0,0,1-.18.27.23.23,0,0,1-.27-.18Zm1.09,0a2.26,2.26,0,0,0-.64-1.33,2.17,2.17,0,0,0-1.32-.64.24.24,0,0,1-.21-.26.22.22,0,0,1,.19-.2h.07a2.71,2.71,0,0,1,2.37,2.39.24.24,0,0,1-.2.26h0A.23.23,0,0,1,119.45,90.47Z"/></g></g><text class="cls-4" transform="translate(35.97 92.49)">a.hadi@qi.iq</text><text class="cls-5" transform="translate(35.97 107.34)">qi.iq</text><text class="cls-4" transform="translate(35.97 122.18)">i<tspan class="cls-6" x="1.86" y="0">r</tspan><tspan x="4.41" y="0">aq - i</tspan><tspan class="cls-6" x="20.36" y="0">r</tspan><tspan x="22.92" y="0">aq i</tspan><tspan class="cls-6" x="34.75" y="0">r</tspan><tspan class="cls-7" x="37.31" y="0">aq</tspan></text><g id="Iconly_Light-outline_Location" data-name="Iconly Light-outline Location"><g id="Location-6"><path id="Location-7" d="M29.45,123.25h0l.13-.09A6.83,6.83,0,0,0,31,121.8l.1-.13a3.4,3.4,0,0,0,.69-2v-.09A2.7,2.7,0,0,0,29.14,117h-.09a2.71,2.71,0,0,0-2.61,2.72v0a3.86,3.86,0,0,0,1.18,2.51,7,7,0,0,0,1.19,1h0a.56.56,0,0,0,.63,0Zm-.24-5.76a2.22,2.22,0,0,1,2.14,2.21v.12a3,3,0,0,1-.59,1.56,6.38,6.38,0,0,1-1.56,1.46h0a0,0,0,0,1-.07,0l0,0a6,6,0,0,1-1.1-.91,3.35,3.35,0,0,1-1-2.17v-.11a2.22,2.22,0,0,1,2.21-2.15Zm.95,2.26a1,1,0,0,0-1-1,1,1,0,0,0,0,2A1,1,0,0,0,30.16,119.75Zm-.48,0a.55.55,0,0,1-.54.55.55.55,0,0,1-.55-.55.55.55,0,1,1,1.09,0Z"/></g></g><g id="Iconly_Light-outline_Message" data-name="Iconly Light-outline Message"><g id="Message-5"><path id="Message-6" d="M30.31,94a1.66,1.66,0,0,0,1.25-.54A1.92,1.92,0,0,0,32,92.15v-2a1.92,1.92,0,0,0-.48-1.32,1.66,1.66,0,0,0-1.25-.54H27.43a1.75,1.75,0,0,0-1.73,1.79v2a1.77,1.77,0,0,0,.47,1.31,1.8,1.8,0,0,0,1.27.56Zm1.25-3.85v2a1.26,1.26,0,0,1-1.17,1.37H27.44a1.28,1.28,0,0,1-1.26-1.38v-2a1.28,1.28,0,0,1,1.26-1.36h2.87a1.27,1.27,0,0,1,1.26,1.29S31.56,90.13,31.56,90.16Zm-2.18,1.36.05,0,1.32-1a.24.24,0,0,0-.27-.4l0,0-1.31,1a.46.46,0,0,1-.5,0l0,0-1.3-1a.24.24,0,0,0-.34,0h0a.24.24,0,0,0,0,.32l0,0,1.3,1a.9.9,0,0,0,1.08,0Z"/></g></g><g id="Iconly_Light-outline_Discovery" data-name="Iconly Light-outline Discovery"><g id="Discovery-6"><path id="Discovery-7" d="M32.37,105.67a3.18,3.18,0,1,0-3.18,3.17A3.18,3.18,0,0,0,32.37,105.67Zm-.46,0A2.72,2.72,0,1,1,29.19,103,2.72,2.72,0,0,1,31.91,105.67Zm-1.51,1.15a.2.2,0,0,0,0-.2L30,105.06a.23.23,0,0,0-.15-.15l-1.56-.49h-.07a.24.24,0,0,0-.19.1.24.24,0,0,0,0,.2l.49,1.56a.23.23,0,0,0,.15.15l1.56.49h.07A.22.22,0,0,0,30.4,106.82Zm-.85-1.51.32,1-1-.32-.32-1Z"/></g></g></g><g id="Names"><text class="cls-8" transform="translate(113.29 55.06)"><tspan class="cls-9">A</tspan><tspan x="5.48" y="0">laa </tspan><tspan class="cls-9" x="18.19" y="0">A</tspan><tspan class="cls-10" x="23.67" y="0">bdulhadi</tspan><tspan class="cls-11"><tspan x="0" y="9.6">Di</tspan><tspan class="cls-12" x="6.3" y="9.6">r</tspan><tspan x="8.52" y="9.6">e</tspan><tspan class="cls-13" x="12.03" y="9.6">c</tspan><tspan class="cls-14" x="15.25" y="9.6">t</tspan><tspan x="17.53" y="9.6">or of PR &amp; </tspan><tspan class="cls-15" x="47.21" y="9.6">M</tspan><tspan x="52.88" y="9.6">edia</tspan></tspan></text></g><g id="Yellow_Bar" data-name="Yellow Bar"><path class="cls-16" d="M102,.59v20c0,7.8,7.4,14.11,16.52,14.14h122.9V.59Z"/><g class="cls-17"><g class="cls-18"><path class="cls-19" d="M121.78,15a3.36,3.36,0,1,0,0,4.75,3.36,3.36,0,0,0,0-4.75"/><path class="cls-19" d="M123.88,27.83a11.38,11.38,0,1,1,6-6l4.44,4.44a17.38,17.38,0,1,0-6,6Z"/><path class="cls-19" d="M136.19,29.93h0l-.18-.18h0l-8.9-8.9a3,3,0,0,0-4.23,4.23l8.9,8.9h0l.18.17h0a3,3,0,0,0,4.22-4.21"/><path class="cls-19" d="M156.5,15a3.36,3.36,0,1,0,0,4.75,3.35,3.35,0,0,0,0-4.75"/><path class="cls-19" d="M158.61,27.83a11.39,11.39,0,1,1,6-6L169,26.28a17.38,17.38,0,1,0-6,6Z"/><path class="cls-19" d="M170.91,29.93h0l-.18-.18h0l-8.91-8.9a3,3,0,0,0-4.23,4.23l8.91,8.9h0l.18.17h0a3,3,0,0,0,4.21-4.21"/><path class="cls-19" d="M191.23,15a3.36,3.36,0,1,0,0,4.75,3.36,3.36,0,0,0,0-4.75"/><path class="cls-19" d="M193.33,27.83a11.39,11.39,0,1,1,6-6l4.44,4.44a17.36,17.36,0,1,0-6,6Z"/><path class="cls-19" d="M205.64,29.93h0l-.17-.18h0l-8.9-8.9a3,3,0,1,0-4.23,4.23l8.9,8.9h0l.17.17h0a3,3,0,0,0,4.22-4.21"/><path class="cls-19" d="M226,15a3.36,3.36,0,1,0,0,4.75A3.35,3.35,0,0,0,226,15"/><path class="cls-19" d="M228.06,27.83a11.39,11.39,0,1,1,6-6l4.44,4.44a17.38,17.38,0,1,0-6,6Z"/><path class="cls-19" d="M240.36,29.93h0l-.18-.18h0l-8.91-8.9a3,3,0,0,0-4.23,4.23L236,34h0l.18.17h0a3,3,0,0,0,4.21-4.21"/></g></g></g><g id="Logo"><path class="cls-20" d="M49.51,51.45A13.69,13.69,0,1,1,63.3,37.87a13.46,13.46,0,0,1-1.07,5.2l5.49,5.57a21.1,21.1,0,1,0-7.12,7.17l-5.45-5.53A13.75,13.75,0,0,1,49.51,51.45Z"/><path class="cls-20" d="M45.55,37.77a4.07,4.07,0,1,0,4.07-4.07A4.07,4.07,0,0,0,45.55,37.77Z"/><path class="cls-20" d="M69.72,52.86l-11-11a3.56,3.56,0,0,0-5,5l11,11a3.56,3.56,0,0,0,5-5Z"/></g><g id="Diecut-Do_Not_Print" data-name="Diecut-Do Not Print"><path class="cls-21" d="M0,0H240.94V141.73H17.75A17.75,17.75,0,0,1,0,124Z"/></g></svg>