<svg xmlns="http://www.w3.org/2000/svg" xmlns:xlink="http://www.w3.org/1999/xlink" viewBox="0 0 240.94 141.73"><defs><style>.cls-1,.cls-8{fill:none;}.cls-2{fill:#49728d;}.cls-3{fill:#fd0;}.cls-4{clip-path:url(#clip-path);}.cls-5{opacity:0.2;}.cls-6{fill:#f4c500;}.cls-7{fill:#ffd402;}.cls-8{stroke:#009fe3;stroke-miterlimit:10;stroke-width:0.5px;}</style><clipPath id="clip-path"><path class="cls-1" d="M102-7.09V17.4a17.36,17.36,0,0,0,17.3,17.32H248V-7.09Z"/></clipPath></defs><g id="Information"><rect class="cls-2" x="101.92" y="87.81" width="0.25" height="37.27"/><path class="cls-1" d="M0-7.09H248V141.73H17.75A17.75,17.75,0,0,1,0,124Z"/><path class="cls-1" d="M0-7.09H248V141.73H17.75A17.75,17.75,0,0,1,0,124Z"/><g id="Iconly_Light-outline_Calling" data-name="Iconly Light-outline Calling"><g id="Calling-5"><path id="Calling-6" d="M117.71,94.12a8.05,8.05,0,0,1-2.28-1.69,7.58,7.58,0,0,1-1.68-2.29l0-.07a1.26,1.26,0,0,1,0-1.27A1.87,1.87,0,0,1,115,88h0a.72.72,0,0,1,.44.22l0,0a4.87,4.87,0,0,1,.78,1.08v0a.76.76,0,0,1-.15.6l0,.07c-.07.11-.08.16-.06.22a2.82,2.82,0,0,0,1.6,1.61h.06a.43.43,0,0,0,.21-.09l.08,0a.82.82,0,0,1,.4-.13l.14,0a4.14,4.14,0,0,1,1,.72l.09.08,0,0a.73.73,0,0,1,.23.45,1.85,1.85,0,0,1-.83,1.22,1.07,1.07,0,0,1-.62.2A1.64,1.64,0,0,1,117.71,94.12ZM115,88.42h0a1.71,1.71,0,0,0-.79.64l0,0a.91.91,0,0,0,.06.86l0,.08a7.85,7.85,0,0,0,1.6,2.11,7.48,7.48,0,0,0,2.1,1.55l.06,0a1.07,1.07,0,0,0,.46.11.64.64,0,0,0,.38-.12h0a3.51,3.51,0,0,0,.34-.33.88.88,0,0,0,.26-.46.31.31,0,0,0-.1-.15l0,0a6.54,6.54,0,0,0-.89-.68h0a.51.51,0,0,0-.24.1l-.08,0a.81.81,0,0,1-.38.12.85.85,0,0,1-.23,0,3.31,3.31,0,0,1-1.86-1.88.7.7,0,0,1,.11-.67l0-.06c.06-.12.08-.18.06-.24a5.81,5.81,0,0,0-.64-.86l-.05,0,0,0a.24.24,0,0,0-.11-.06Zm3.41,2.07a1.14,1.14,0,0,0-.89-.9.23.23,0,0,1-.19-.27.24.24,0,0,1,.21-.19h.07a1.58,1.58,0,0,1,1.25,1.26.22.22,0,0,1-.18.27.23.23,0,0,1-.27-.18Zm1.09,0a2.26,2.26,0,0,0-.64-1.33,2.17,2.17,0,0,0-1.32-.64.24.24,0,0,1-.21-.26.22.22,0,0,1,.19-.2h.07a2.71,2.71,0,0,1,2.37,2.39.24.24,0,0,1-.2.26h0A.23.23,0,0,1,119.45,90.47Z"/></g></g><g id="Iconly_Light-outline_Location" data-name="Iconly Light-outline Location"><g id="Location-6"><path id="Location-7" d="M29.45,123.25h0l.13-.09A6.83,6.83,0,0,0,31,121.8l.1-.13a3.4,3.4,0,0,0,.69-2v-.09A2.7,2.7,0,0,0,29.14,117h-.09a2.71,2.71,0,0,0-2.61,2.72v0a3.86,3.86,0,0,0,1.18,2.51,7,7,0,0,0,1.19,1h0a.56.56,0,0,0,.63,0Zm-.24-5.76a2.22,2.22,0,0,1,2.14,2.21v.12a3,3,0,0,1-.59,1.56,6.38,6.38,0,0,1-1.56,1.46h0a0,0,0,0,1-.07,0l0,0a6,6,0,0,1-1.1-.91,3.35,3.35,0,0,1-1-2.17v-.11a2.22,2.22,0,0,1,2.21-2.15Zm.95,2.26a1,1,0,0,0-1-1,1,1,0,0,0,0,2A1,1,0,0,0,30.16,119.75Zm-.48,0a.55.55,0,0,1-.54.55.55.55,0,0,1-.55-.55.55.55,0,1,1,1.09,0Z"/></g></g><g id="Iconly_Light-outline_Message" data-name="Iconly Light-outline Message"><g id="Message-5"><path id="Message-6" d="M30.31,94a1.66,1.66,0,0,0,1.25-.54A1.92,1.92,0,0,0,32,92.15v-2a1.92,1.92,0,0,0-.48-1.32,1.66,1.66,0,0,0-1.25-.54H27.43a1.75,1.75,0,0,0-1.73,1.79v2a1.77,1.77,0,0,0,.47,1.31,1.8,1.8,0,0,0,1.27.56Zm1.25-3.85v2a1.26,1.26,0,0,1-1.17,1.37H27.44a1.28,1.28,0,0,1-1.26-1.38v-2a1.28,1.28,0,0,1,1.26-1.36h2.87a1.27,1.27,0,0,1,1.26,1.29S31.56,90.13,31.56,90.16Zm-2.18,1.36.05,0,1.32-1a.24.24,0,0,0-.27-.4l0,0-1.31,1a.46.46,0,0,1-.5,0l0,0-1.3-1a.24.24,0,0,0-.34,0h0a.24.24,0,0,0,0,.32l0,0,1.3,1a.9.9,0,0,0,1.08,0Z"/></g></g><g id="Iconly_Light-outline_Discovery" data-name="Iconly Light-outline Discovery"><g id="Discovery-6"><path id="Discovery-7" d="M32.37,105.67a3.18,3.18,0,1,0-3.18,3.17A3.18,3.18,0,0,0,32.37,105.67Zm-.46,0A2.72,2.72,0,1,1,29.19,103,2.72,2.72,0,0,1,31.91,105.67Zm-1.51,1.15a.2.2,0,0,0,0-.2L30,105.06a.23.23,0,0,0-.15-.15l-1.56-.49h-.07a.24.24,0,0,0-.19.1.24.24,0,0,0,0,.2l.49,1.56a.23.23,0,0,0,.15.15l1.56.49h.07A.22.22,0,0,0,30.4,106.82Zm-.85-1.51.32,1-1-.32-.32-1Z"/></g></g></g><g id="Yellow_Bar" data-name="Yellow Bar"><path class="cls-3" d="M102,.15V20.39c0,7.9,7.38,14.3,16.47,14.33H241V.15Z"/><g class="cls-4"><g class="cls-5"><path class="cls-6" d="M121.78,15a3.36,3.36,0,1,0,0,4.75,3.36,3.36,0,0,0,0-4.75"/><path class="cls-6" d="M123.88,27.83a11.38,11.38,0,1,1,6-6l4.44,4.44a17.38,17.38,0,1,0-6,6Z"/><path class="cls-6" d="M136.19,29.93h0l-.18-.18h0l-8.9-8.9a3,3,0,0,0-4.23,4.23l8.9,8.9h0l.18.17h0a3,3,0,0,0,4.22-4.21"/><path class="cls-6" d="M156.5,15a3.36,3.36,0,1,0,0,4.75,3.35,3.35,0,0,0,0-4.75"/><path class="cls-6" d="M158.61,27.83a11.39,11.39,0,1,1,6-6L169,26.28a17.38,17.38,0,1,0-6,6Z"/><path class="cls-6" d="M170.91,29.93h0l-.18-.18h0l-8.91-8.9a3,3,0,0,0-4.23,4.23l8.91,8.9h0l.18.17h0a3,3,0,0,0,4.21-4.21"/><path class="cls-6" d="M191.23,15a3.36,3.36,0,1,0,0,4.75,3.36,3.36,0,0,0,0-4.75"/><path class="cls-6" d="M193.33,27.83a11.39,11.39,0,1,1,6-6l4.44,4.44a17.36,17.36,0,1,0-6,6Z"/><path class="cls-6" d="M205.64,29.93h0l-.17-.18h0l-8.9-8.9a3,3,0,1,0-4.23,4.23l8.9,8.9h0l.17.17h0a3,3,0,0,0,4.22-4.21"/><path class="cls-6" d="M226,15a3.36,3.36,0,1,0,0,4.75A3.35,3.35,0,0,0,226,15"/><path class="cls-6" d="M228.06,27.83a11.39,11.39,0,1,1,6-6l4.44,4.44a17.38,17.38,0,1,0-6,6Z"/><path class="cls-6" d="M240.36,29.93h0l-.18-.18h0l-8.91-8.9a3,3,0,0,0-4.23,4.23L236,34h0l.18.17h0a3,3,0,0,0,4.21-4.21"/></g></g></g><g id="Logo"><path class="cls-7" d="M49.51,51.45A13.69,13.69,0,1,1,63.3,37.87a13.46,13.46,0,0,1-1.07,5.2l5.49,5.57a21.1,21.1,0,1,0-7.12,7.17l-5.45-5.53A13.75,13.75,0,0,1,49.51,51.45Z"/><path class="cls-7" d="M45.55,37.77a4.07,4.07,0,1,0,4.07-4.07A4.07,4.07,0,0,0,45.55,37.77Z"/><path class="cls-7" d="M69.72,52.86l-11-11a3.56,3.56,0,0,0-5,5l11,11a3.56,3.56,0,0,0,5-5Z"/></g><g id="Diecut-Do_Not_Print" data-name="Diecut-Do Not Print"><path class="cls-8" d="M0,0H240.94V141.73H17.75A17.75,17.75,0,0,1,0,124Z"/></g></svg>