<?xml version="1.0" encoding="UTF-8"?>
<svg xmlns="http://www.w3.org/2000/svg" xmlns:xlink="http://www.w3.org/1999/xlink" width="160px" height="160px" viewBox="0 0 160 160" version="1.1">
<g id="surface1">
<path style=" stroke:none;fill-rule:nonzero;fill:rgb(100%,100%,100%);fill-opacity:1;" d="M 79.601562 131.5625 C 50.898438 131.296875 28.039062 107.90625 28.304688 79.46875 C 28.570312 50.765625 51.960938 27.90625 80.398438 28.171875 C 109.101562 28.4375 131.960938 51.828125 131.695312 80.265625 C 131.695312 87.175781 130.101562 93.820312 127.707031 99.933594 L 148.4375 120.929688 C 155.613281 108.96875 159.867188 95.148438 159.867188 80.53125 C 160.132812 36.410156 124.785156 0.265625 80.664062 0 C 36.542969 -0.265625 0.398438 35.082031 0.132812 79.203125 C -0.132812 123.320312 35.214844 159.46875 79.335938 159.734375 C 94.75 159.734375 109.101562 155.480469 121.59375 148.039062 L 100.863281 127.042969 C 94.484375 129.964844 87.308594 131.5625 79.601562 131.5625 "/>
<path style=" stroke:none;fill-rule:nonzero;fill:rgb(100%,100%,100%);fill-opacity:1;" d="M 64.71875 80 C 64.71875 88.503906 71.628906 95.414062 80.132812 95.414062 C 88.636719 95.414062 95.546875 88.503906 95.546875 80 C 95.546875 71.496094 88.636719 64.585938 80.132812 64.585938 C 71.628906 64.585938 64.71875 71.496094 64.71875 80 "/>
<path style=" stroke:none;fill-rule:nonzero;fill:rgb(100%,100%,100%);fill-opacity:1;" d="M 156.144531 136.878906 L 114.683594 95.414062 C 109.367188 90.101562 100.863281 90.101562 95.546875 95.414062 C 90.234375 100.730469 90.234375 109.234375 95.546875 114.550781 L 137.011719 156.011719 C 142.324219 161.328125 150.832031 161.328125 156.144531 156.011719 C 161.195312 150.699219 161.195312 142.191406 156.144531 136.878906 "/>
</g>
</svg>
