<?xml version="1.0" encoding="UTF-8"?>
<svg id="Layer_1" data-name="Layer 1" xmlns="http://www.w3.org/2000/svg" viewBox="0 0 802.08 802.73">
  <defs>
    <style>
      .cls-1 {
        fill: #ffca05;
        stroke-width: 0px;
      }
    </style>
  </defs>
  <path class="cls-1" d="M398.85,660.51c-143.39-1.12-258.73-118.26-257.62-261.65,1.12-143.39,118.26-258.74,261.66-257.62,143.38,1.12,258.73,118.26,257.62,261.65-.28,34.97-7.5,68.24-20.26,98.59l104.21,105.84c35.8-59.44,56.69-128.92,57.27-203.33C803.45,182.6,625.38,1.73,403.98.01,182.59-1.71,1.73,176.36.01,397.75c-1.73,221.39,176.35,402.26,397.73,403.98,77.45.6,149.91-20.86,211.5-58.42l-103.37-104.99c-32.71,14.49-68.92,22.48-107.03,22.19"/>
  <path class="cls-1" d="M323.68,400.87c0,42.63,34.55,77.19,77.18,77.19s77.19-34.56,77.19-77.19-34.56-77.18-77.19-77.18-77.18,34.56-77.18,77.18"/>
  <path class="cls-1" d="M782.28,687.34l-207.96-207.96c-26.4-26.4-69.2-26.4-95.59,0-26.4,26.4-26.4,69.2,0,95.59l207.96,207.96c26.4,26.4,69.2,26.4,95.59,0,26.41-26.4,26.41-69.2,0-95.59"/>
</svg>