<?xml version="1.0" encoding="utf-8"?>
<!-- Generator: Adobe Illustrator 27.2.0, SVG Export Plug-In . SVG Version: 6.00 Build 0)  -->
<svg version="1.1" id="Layer_1" xmlns="http://www.w3.org/2000/svg" xmlns:xlink="http://www.w3.org/1999/xlink" x="0px" y="0px"
	 viewBox="0 0 48.06 48.04" style="enable-background:new 0 0 48.06 48.04;" xml:space="preserve">
<style type="text/css">
	.st0{fill:#010101;}
</style>
<path class="st0" d="M47.19,41.85c-0.01-0.01-0.01-0.01-0.02-0.02l-9.33-9.33c2.62-3.51,4.19-7.84,4.19-12.56
	c0-11.61-9.41-21.02-21.02-21.02C9.41-1.08,0,8.33,0,19.94c0,11.61,9.41,21.02,21.02,21.02c4.68,0,8.99-1.55,12.49-4.14l9.4,9.28
	c0.57,0.56,1.33,0.88,2.13,0.87c0.8,0,1.57-0.31,2.13-0.87C48.35,44.93,48.36,43.03,47.19,41.85z M6.01,19.94
	c0-8.29,6.72-15.01,15.01-15.01c8.29,0,15.01,6.72,15.01,15.01c0,4.11-1.65,7.82-4.32,10.53c-0.05,0.05-0.12,0.09-0.17,0.14
	c-0.03,0.03-0.04,0.06-0.07,0.09c-2.7,2.63-6.39,4.25-10.45,4.25C12.73,34.96,6.01,28.23,6.01,19.94z"/>
</svg>
